<?xml version="1.0" standalone="no"?>
<!DOCTYPE svg PUBLIC "-//W3C//DTD SVG 1.1//EN" "http://www.w3.org/Graphics/SVG/1.1/DTD/svg11.dtd" >
<svg xmlns="http://www.w3.org/2000/svg" xmlns:xlink="http://www.w3.org/1999/xlink" version="1.1">
<metadata>
Created by FontForge 20170731 at Wed Apr 29 15:13:43 2020
 By Aleksey,,,
Copyright (c) 2020 by Tarek Alsawwa. All rights reserved.
</metadata>
<defs>
<font id="TSSafaa-Medium" horiz-adv-x="0" >
  <font-face 
    font-family="TS Safaa Medium"
    font-weight="500"
    font-stretch="normal"
    units-per-em="2048"
    panose-1="0 0 6 0 0 0 0 0 0 0"
    ascent="1638"
    descent="-410"
    x-height="1200"
    cap-height="1612"
    bbox="-825 -1125 3191 2771"
    underline-thickness="50"
    underline-position="-150"
    unicode-range="U+0020-FEFC"
  />
<missing-glyph horiz-adv-x="1332" 
d="M200 1612h932v-1612h-932v1612zM974 145v1321h-614v-1321h614z" />
    <glyph glyph-name="uniFDF2" unicode="&#x627;&#xfedf;&#xfee0;&#xfeea;" horiz-adv-x="3291" arabic-form="isolated" 
d="M2042 2771v-315h-103v315h103zM1897 2025q-66 0 -108.5 48.5t-42.5 117.5q0 65 39 113.5t92 57.5l23 -101q-19 -5 -32.5 -23.5t-13.5 -40.5q0 -24 15.5 -39.5t40.5 -16.5q36 -1 56 31.5t20 80.5l53 -14q0 -33 15 -53.5t37 -20.5q17 -1 27.5 9.5t10.5 27.5q0 33 -33 42
l22 100q53 -12 85.5 -52.5t32.5 -97.5q-1 -62 -36.5 -104t-89.5 -42q-30 0 -55 15t-36 40q-15 -35 -47.5 -56.5t-74.5 -21.5zM2400 280v1632h295v-1912h-2595v567q0 177 82.5 321.5t230 228t331.5 83.5h333v66h296v-986h408v1632h295v-1632h324zM2895 1912h296v-1912h-296
v1912zM1077 280v623h-332q-156 0 -258 -97.5t-102 -240.5v-285h692z" />
    <glyph glyph-name="uniFEF5" unicode="&#xfedf;&#xfe82;" horiz-adv-x="1223" arabic-form="isolated" 
d="M-13 2115q26 124 99 183t165 59q44 0 83 -14.5t66.5 -34.5t53 -40.5t52.5 -35t53 -14.5q81 0 113 130l151 -49q-17 -79 -54 -132.5t-84 -75.5t-98 -21.5t-100 22.5q-39 5 -75 22.5t-58.5 35.5t-50 32.5t-51.5 14.5q-81 0 -114 -132zM100 0v280h727v1632h296v-1912h-1023z
M263 436v1476h296v-1476h-296z" />
    <glyph glyph-name="uniFEF6" unicode="&#xfee0;&#xfe82;" horiz-adv-x="1311" arabic-form="final" 
d="M252 2197q-81 0 -114 -132l-151 50q26 124 99 183t165 59q44 0 83 -14.5t66.5 -34.5t53 -40.5t52.5 -35t53 -14.5q81 0 113 130l151 -49q-17 -79 -54 -132.5t-84 -75.5t-98 -21.5t-100 22.5q-39 5 -75 22.5t-58.5 35.5t-50 32.5t-51.5 14.5zM1123 280h214v-280h-1237v280
h727v1632h296v-1632zM263 436v1476h296v-1476h-296z" />
    <glyph glyph-name="uniFEF7" unicode="&#xfedf;&#xfe84;" horiz-adv-x="1223" arabic-form="isolated" 
d="M395 2120h220v-134h-423v134h58q-17 86 39 153t149 67q61 0 111 -34.5t69 -89.5l-125 -50q-3 21 -18.5 35t-36.5 14q-24 0 -40 -17t-16 -41q0 -23 13 -37zM100 0v280h727v1632h296v-1912h-1023zM263 436v1476h296v-1476h-296z" />
    <glyph glyph-name="uniFEF8" unicode="&#xfee0;&#xfe84;" horiz-adv-x="1311" arabic-form="final" 
d="M615 2120v-134h-423v134h58q-17 86 39 153t149 67q61 0 111 -34.5t69 -89.5l-125 -50q-3 21 -18.5 35t-36.5 14q-24 0 -40 -17t-16 -41q0 -23 13 -37h220zM1123 280h214v-280h-1237v280h727v1632h296v-1632zM559 436h-296v1476h296v-1476z" />
    <glyph glyph-name="uniFEF9" unicode="&#xfedf;&#xfe88;" horiz-adv-x="1223" arabic-form="isolated" 
d="M100 0v280h727v1632h296v-1912h-1023zM263 436v1476h296v-1476h-296zM394 -270h220v-134h-423v134h58q-17 86 39 153t149 67q61 0 111 -34.5t69 -89.5l-125 -50q-3 21 -18.5 35t-36.5 14q-24 0 -40 -17t-16 -41q0 -23 13 -37z" />
    <glyph glyph-name="uniFEFA" unicode="&#xfee0;&#xfe88;" horiz-adv-x="1311" arabic-form="final" 
d="M1123 280h214v-280h-1237v280h727v1632h296v-1632zM559 1912v-1476h-296v1476h296zM437 -175q-24 0 -40 -17t-16 -41q0 -23 13 -37h220v-134h-423v134h58q-17 86 39 153t149 67q61 0 111 -34.5t69 -89.5l-125 -50q-3 21 -18.5 35t-36.5 14z" />
    <glyph glyph-name="uniFEFB" unicode="&#xfedf;&#xfe8e;" horiz-adv-x="1223" arabic-form="isolated" 
d="M100 0v280h727v1632h296v-1912h-1023zM263 436v1476h296v-1476h-296z" />
    <glyph glyph-name="uniFEFC" unicode="&#xfee0;&#xfe8e;" horiz-adv-x="1311" arabic-form="final" 
d="M1123 280h214v-280h-1237v280h727v1632h296v-1632zM559 1912v-1476h-296v1476h296z" />
    <glyph glyph-name="uni066E.init" unicode="&#x66e;" horiz-adv-x="762" 
d="M-10 280h377l-1 920h295l1 -1200h-672v280z" />
    <glyph glyph-name="uni066E.medi" unicode="&#x66e;" horiz-adv-x="1023" 
d="M1033 280v-280h-1043v280h377l-1 920h295l1 -920h371z" />
    <glyph glyph-name="uni066E.fina" unicode="&#x66e;" horiz-adv-x="2207" 
d="M2017 280h216v-280h-1702q-202 54 -316.5 219.5t-114.5 380.5q0 174 87 320.5t237.5 231.5t330.5 86v-260q-156 -1 -265.5 -111.5t-109.5 -266.5q0 -103 52.5 -189t138.5 -131h1150l1 920h295v-920z" />
    <glyph glyph-name="uni066F.fina" unicode="&#x66f;" horiz-adv-x="2321" 
d="M2347 280v-280h-215q-50 -218 -219 -351.5t-397 -133.5h-799q-129 3 -243 53t-196.5 134t-130 202.5t-47.5 254.5v267h297v-266q0 -157 97 -258.5t240 -101.5h780q99 0 177 54t116 146h-545q-193 66 -311.5 229.5t-118.5 370.5q0 175 87 321.5t238.5 231.5t332.5 85
q124 0 240.5 -45t208 -124.5t148.5 -198t62 -256.5v-334h198zM1850 280l1 387q-18 132 -121 221.5t-242 89.5q-157 0 -268 -110.5t-111 -267.5q0 -103 52 -188.5t138 -131.5h551z" />
    <glyph glyph-name="uni06A1.init" unicode="&#x6a1;" horiz-adv-x="1671" 
d="M-26 0v280h396q-46 66 -71.5 144t-29.5 157t13 159.5t51.5 153t90.5 136t126.5 109.5t163 72.5t196.5 26.5q126 0 244 -46t209.5 -127.5t148 -202.5t58.5 -262l1 -600h-1597zM529 600q0 -103 52 -188.5t138 -131.5h556l-1 383q-18 134 -122 224.5t-243 90.5
q-158 0 -269 -110.5t-111 -267.5z" />
    <glyph glyph-name="uni06A1.medi" unicode="&#x6a1;" horiz-adv-x="1762" 
d="M1571 280h217v-280h-1814v280h396q-46 66 -71.5 144t-29.5 157t13 159.5t51.5 153t90.5 136t126.5 109.5t163 72.5t196.5 26.5q126 0 244 -46t209.5 -127.5t148 -202.5t58.5 -262zM719 280h556l-1 383q-18 134 -122 224.5t-243 90.5q-158 0 -269 -110.5t-111 -267.5
q0 -103 52 -188.5t138 -131.5z" />
    <glyph glyph-name="uni06A1.fina" unicode="&#x6a1;" horiz-adv-x="2786" 
d="M2615 280h197v-280h-2281q-208 54 -319.5 218t-111.5 382q0 174 87 320.5t237.5 231.5t330.5 86v-260q-156 -1 -265.5 -111.5t-109.5 -266.5q0 -103 52.5 -189t138.5 -131h844q-46 66 -71.5 144t-29.5 157t12.5 159.5t51.5 153t91 136t126.5 109.5t163 72.5t196.5 26.5
q125 0 243 -46t209.5 -127.5t148 -203t58.5 -261.5zM1764 280h556l-2 383q-19 135 -122 225t-243 90q-157 0 -268 -110.5t-111 -267.5q0 -103 52 -188.5t138 -131.5z" />
    <glyph glyph-name="uni06C2.fina" unicode="&#x6c2;" horiz-adv-x="1462" 
d="M668 953h220v-134h-423v134h58q-17 86 39 153t149 67q61 0 111 -34.5t69 -89.5l-125 -50q-3 21 -18.5 35t-36.5 14q-24 0 -40 -17t-16 -41q0 -23 13 -37zM1294 286l202 -3v-281h-202q-72 0 -135 18t-105.5 42.5t-85 66.5t-66 73.5t-55.5 79.5q-64 96 -98 131t-74 35
q-68 1 -112.5 -44.5t-110.5 -164.5q-85 -156 -220 -238l-132 220q10 10 31.5 30.5t28 27t21.5 22.5t22 24.5t18 23t20 29t19 33.5q72 128 117 183q126 153 301 150q49 -1 95 -19t77.5 -40.5t67.5 -64t54 -66.5t48 -70q2 -3 3.5 -5t3 -5t3.5 -5q69 -103 123 -142.5t141 -40.5
z" />
    <glyph glyph-name="uni06C3.fina" unicode="&#x6c3;" horiz-adv-x="1462" 
d="M1294 286l202 -3v-281h-202q-72 0 -135 18t-105.5 42.5t-85 66.5t-66 73.5t-55.5 79.5q-64 96 -98 131t-74 35q-68 1 -112.5 -44.5t-110.5 -164.5q-85 -156 -220 -238l-132 220q10 10 31.5 30.5t28 27t21.5 22.5t22 24.5t18 23t20 29t19 33.5q72 128 117 183
q126 153 301 150q49 -1 95 -19t77.5 -40.5t67.5 -64t54 -66.5t48 -70q2 -3 3.5 -5t3 -5t3.5 -5q69 -103 123 -142.5t141 -40.5z" />
    <glyph glyph-name="uniFB57" unicode="&#x67e;" horiz-adv-x="2207" arabic-form="final" 
d="M2017 280h216v-280h-1702q-202 54 -316.5 219.5t-114.5 380.5q0 174 87 320.5t237.5 231.5t330.5 86v-260q-156 -1 -265.5 -111.5t-109.5 -266.5q0 -103 52.5 -189t138.5 -131h1150l1 920h295v-920zM1079 -303q0 -63 -47.5 -107.5t-117.5 -44.5t-117.5 44.5t-47.5 107.5
t47.5 107.5t117.5 44.5t117.5 -44.5t47.5 -107.5zM1414 -151q70 0 117.5 -44.5t47.5 -107.5t-47.5 -107.5t-117.5 -44.5t-117.5 44.5t-47.5 107.5t47.5 107.5t117.5 44.5zM1164 -609q70 0 117.5 -44t47.5 -107t-47.5 -107.5t-117.5 -44.5q-69 0 -117 44.5t-48 107.5
t47.5 107t117.5 44z" />
    <glyph glyph-name="uniFB58" unicode="&#x67e;" horiz-adv-x="1133" arabic-form="initial" 
d="M-10 0v280h727l-1 920h296v-1200h-1022zM518 -303q0 -63 -48 -107.5t-117 -44.5q-70 0 -117.5 44.5t-47.5 107.5t47.5 107.5t117.5 44.5q69 0 117 -44.5t48 -107.5zM853 -151q69 0 117 -44.5t48 -107.5t-48 -107.5t-117 -44.5q-70 0 -117.5 44.5t-47.5 107.5t47.5 107.5
t117.5 44.5zM603 -608q70 0 117.5 -44.5t47.5 -107.5t-47.5 -107.5t-117.5 -44.5t-117.5 44.5t-47.5 107.5t47.5 107.5t117.5 44.5z" />
    <glyph glyph-name="uniFB59" unicode="&#x67e;" horiz-adv-x="1373" arabic-form="medial" 
d="M1383 280v-280h-1393v280h727l-1 920h295l1 -920h371zM527 -303q0 -63 -47.5 -107.5t-117.5 -44.5t-117.5 44.5t-47.5 107.5t47.5 107.5t117.5 44.5t117.5 -44.5t47.5 -107.5zM862 -151q70 0 117.5 -44.5t47.5 -107.5t-47.5 -107.5t-117.5 -44.5t-117.5 44.5t-47.5 107.5
t47.5 107.5t117.5 44.5zM612 -608q70 0 117.5 -44.5t47.5 -107.5t-47.5 -107.5t-117.5 -44.5q-69 0 -117 44.5t-48 107.5t48 107.5t117 44.5z" />
    <glyph glyph-name="uniFB67" unicode="&#x679;" horiz-adv-x="2207" arabic-form="final" 
d="M1519 1475v-191h-606v94h69v551h100v-240h219q95 0 156.5 -61.5t61.5 -152.5zM1423 1378v97q0 48 -34.5 80.5t-87.5 32.5h-219v-210h341zM2017 280h216v-280h-1702q-202 54 -316.5 219.5t-114.5 380.5q0 174 87 320.5t237.5 231.5t330.5 86v-260q-156 -1 -265.5 -111.5
t-109.5 -266.5q0 -103 52.5 -189t138.5 -131h1150l1 920h295v-920z" />
    <glyph glyph-name="uniFB68" unicode="&#x679;" horiz-adv-x="908" arabic-form="initial" 
d="M226 1284v94h69v552h100v-241h220q94 0 155.5 -61t61.5 -152v-192h-606zM395 1378h341v97q0 48 -34.5 81t-87.5 33h-219v-211zM2 280h377l-1 920h295l1 -1200h-672v280z" />
    <glyph glyph-name="uniFB69" unicode="&#x679;" horiz-adv-x="1023" arabic-form="medial" 
d="M820 1475v-191h-606v94h69v551h100v-240h219q95 0 156.5 -61.5t61.5 -152.5zM724 1378v97q0 48 -34.5 80.5t-87.5 32.5h-219v-210h341zM1033 280v-280h-1043v280h377l-1 920h295l1 -920h371z" />
    <glyph glyph-name="uniFB6B" unicode="&#x6a4;" horiz-adv-x="2786" arabic-form="final" 
d="M1955 1876q-70 0 -117.5 44.5t-47.5 107.5t47.5 107.5t117.5 44.5t117.5 -44.5t47.5 -107.5t-47.5 -107.5t-117.5 -44.5zM1705 1419q-70 0 -117.5 44.5t-47.5 107.5t47.5 107.5t117.5 44.5t117.5 -44.5t47.5 -107.5t-47.5 -107.5t-117.5 -44.5zM2040 1571
q0 63 47.5 107.5t117.5 44.5t117.5 -44.5t47.5 -107.5t-47.5 -107.5t-117.5 -44.5t-117.5 44.5t-47.5 107.5zM2615 280h197v-280h-2281q-208 54 -319.5 218t-111.5 382q0 174 87 320.5t237.5 231.5t330.5 86v-260q-156 -1 -265.5 -111.5t-109.5 -266.5q0 -103 52.5 -189
t138.5 -131h844q-46 66 -71.5 144t-29.5 157t12.5 159.5t51.5 153t91 136t126.5 109.5t163 72.5t196.5 26.5q125 0 243 -46t209.5 -127.5t148 -203t58.5 -261.5zM1764 280h556l-2 383q-19 135 -122 225t-243 90q-157 0 -268 -110.5t-111 -267.5q0 -103 52 -188.5t138 -131.5
z" />
    <glyph glyph-name="uniFB6C" unicode="&#x6a4;" horiz-adv-x="1671" arabic-form="initial" 
d="M911 1876q-69 0 -117 44.5t-48 107.5t48 107.5t117 44.5q70 0 117.5 -44.5t47.5 -107.5t-47.5 -107.5t-117.5 -44.5zM661 1419q-70 0 -117.5 44.5t-47.5 107.5t47.5 107.5t117.5 44.5t117.5 -44.5t47.5 -107.5t-47.5 -107.5t-117.5 -44.5zM1161 1419q-70 0 -117.5 44.5
t-47.5 107.5t47.5 107.5t117.5 44.5t117.5 -44.5t47.5 -107.5t-47.5 -107.5t-117.5 -44.5zM-26 0v280h396q-46 66 -71.5 144t-29.5 157t13 159.5t51.5 153t90.5 136t126.5 109.5t163 72.5t196.5 26.5q126 0 244 -46t209.5 -127.5t148 -202.5t58.5 -262l1 -600h-1597z
M529 600q0 -103 52 -188.5t138 -131.5h556l-1 383q-18 134 -122 224.5t-243 90.5q-158 0 -269 -110.5t-111 -267.5z" />
    <glyph glyph-name="uniFB6D" unicode="&#x6a4;" horiz-adv-x="1762" arabic-form="medial" 
d="M911 1876q-69 0 -117 44.5t-48 107.5t48 107.5t117 44.5q70 0 117.5 -44.5t47.5 -107.5t-47.5 -107.5t-117.5 -44.5zM661 1419q-70 0 -117.5 44.5t-47.5 107.5t47.5 107.5t117.5 44.5t117.5 -44.5t47.5 -107.5t-47.5 -107.5t-117.5 -44.5zM996 1571q0 63 47.5 107.5
t117.5 44.5t117.5 -44.5t47.5 -107.5t-47.5 -107.5t-117.5 -44.5t-117.5 44.5t-47.5 107.5zM1571 280h217v-280h-1814v280h396q-46 66 -71.5 144t-29.5 157t13 159.5t51.5 153t90.5 136t126.5 109.5t163 72.5t196.5 26.5q126 0 244 -46t209.5 -127.5t148 -202.5t58.5 -262z
M719 280h556l-1 383q-18 134 -122 224.5t-243 90.5q-158 0 -269 -110.5t-111 -267.5q0 -103 52 -188.5t138 -131.5z" />
    <glyph glyph-name="uniFB7B" unicode="&#x686;" horiz-adv-x="1917" arabic-form="final" 
d="M1728 280h215v-280h-1558q1 -173 98.5 -272.5t261.5 -99.5h414v-297h-415q-184 0 -332 83.5t-230 228.5t-82 322v315h1344v285q0 143 -102.5 240.5t-258.5 97.5h-983v297h984q138 0 258.5 -49t204.5 -133t132.5 -201t48.5 -250v-287zM1440 -185q0 -51 -38 -86t-94 -35
t-94 35t-38 86t38 86.5t94 35.5t94 -35.5t38 -86.5zM1709 -63q56 0 94 -35.5t38 -86.5t-38 -86t-94 -35t-94 35t-38 86t38 86.5t94 35.5zM1509 -429q56 0 94 -35.5t38 -86.5t-38 -86t-94 -35t-94 35t-38 86t38 86.5t94 35.5z" />
    <glyph glyph-name="uniFB7C" unicode="&#x686;" horiz-adv-x="1982" arabic-form="initial" 
d="M-26 0v280h1624v285q0 143 -102.5 240.5t-258.5 97.5h-983v297h984q138 0 258.5 -49t204.5 -133t132.5 -201t48.5 -250v-567h-1908zM645 -151q70 0 117.5 -44.5t47.5 -107.5t-47.5 -107.5t-117.5 -44.5t-117.5 44.5t-47.5 107.5t47.5 107.5t117.5 44.5zM1145 -151
q70 0 117.5 -44.5t47.5 -107.5t-47.5 -107.5t-117.5 -44.5t-117.5 44.5t-47.5 107.5t47.5 107.5t117.5 44.5zM895 -609q70 0 117.5 -44t47.5 -107t-47.5 -107.5t-117.5 -44.5q-69 0 -117 44.5t-48 107.5t47.5 107t117.5 44z" />
    <glyph glyph-name="uniFB7D" unicode="&#x686;" horiz-adv-x="2074" arabic-form="medial" 
d="M1882 280h218v-280h-2126v280h1624v285q0 143 -102.5 240.5t-258.5 97.5h-983v297h984q138 0 258.5 -49t204.5 -133t132.5 -201t48.5 -250v-287zM811 -303q0 -63 -47.5 -107.5t-117.5 -44.5t-117.5 44.5t-47.5 107.5t47.5 107.5t117.5 44.5t117.5 -44.5t47.5 -107.5z
M1146 -151q70 0 117.5 -44.5t47.5 -107.5t-47.5 -107.5t-117.5 -44.5t-117.5 44.5t-47.5 107.5t47.5 107.5t117.5 44.5zM896 -609q70 0 117.5 -44t47.5 -107t-47.5 -107.5t-117.5 -44.5q-69 0 -117 44.5t-48 107.5t47.5 107t117.5 44z" />
    <glyph glyph-name="uniFB89" unicode="&#x688;" horiz-adv-x="1600" arabic-form="final" 
d="M1071 1513v-191h-606v94h69v551h100v-240h219q95 0 156.5 -61.5t61.5 -152.5zM975 1416v97q0 48 -34.5 80.5t-87.5 32.5h-219v-210h341zM1674 280v-280h-1574v280h852q86 46 137.5 131.5t51.5 188.5q0 157 -110.5 267.5t-268.5 110.5q-120 0 -215.5 -67.5t-136.5 -175.5
l-260 104q75 183 243.5 291t366.5 108q181 0 332.5 -85t239 -231.5t87.5 -321.5q0 -173 -86 -320h341z" />
    <glyph glyph-name="uniFB8B" unicode="&#x698;" horiz-adv-x="1243" arabic-form="final" 
d="M907 1838q-69 0 -117 44.5t-48 107.5t48 107.5t117 44.5q70 0 117.5 -44.5t47.5 -107.5t-47.5 -107.5t-117.5 -44.5zM657 1381q-69 0 -117 44.5t-48 107.5t48 107.5t117 44.5q70 0 117.5 -44.5t47.5 -107.5t-47.5 -107.5t-117.5 -44.5zM1157 1685q70 0 117.5 -44.5
t47.5 -107.5t-47.5 -107.5t-117.5 -44.5q-69 0 -117 44.5t-48 107.5t48 107.5t117 44.5zM1057 1198v-918h198v-280h-215q-50 -218 -219 -351.5t-397 -133.5h-324v285h323q142 0 239.5 102t97.5 258v1038h297z" />
    <glyph glyph-name="uniFB8D" unicode="&#x691;" horiz-adv-x="1229" arabic-form="final" 
d="M1217 1475v-191h-606v94h69v551h100v-240h219q95 0 156.5 -61.5t61.5 -152.5zM1121 1378v97q0 48 -34.5 80.5t-87.5 32.5h-219v-210h341zM1255 280v-280h-215q-50 -218 -219 -351.5t-397 -133.5h-324v285h323q142 0 239.5 102t97.5 258v1038h297v-918h198z" />
    <glyph glyph-name="uniFB8F" unicode="&#x6a9;" horiz-adv-x="2805" arabic-form="final" 
d="M2689 280h217v-280h-2405q-205 54 -318 203.5t-113 360.5q0 174 87 320.5t237.5 231.5t330.5 86v-260q-156 -1 -265.5 -111.5t-109.5 -266.5q0 -184 191 -284h1863v285q0 143 -102 240.5t-258 97.5h-983q-7 233 14.5 404.5t70 288t129.5 186.5t184 100t243 30h585v-297
h-584q-158 0 -249 -96.5t-105 -318.5h696q184 0 332 -83.5t230 -228.5t82 -322v-286z" />
    <glyph glyph-name="uniFB90" unicode="&#x6a9;" horiz-adv-x="1888" arabic-form="initial" 
d="M-26 0v280h1530v285q0 143 -102.5 240.5t-258.5 97.5h-983q-7 233 15 404.5t70 288t129.5 186.5t184.5 100t243 30h585v-297h-584q-158 0 -249 -96.5t-105 -318.5h695q185 0 332.5 -83.5t229.5 -228.5t82 -322v-566h-1814z" />
    <glyph glyph-name="uniFB91" unicode="&#x6a9;" horiz-adv-x="1929" arabic-form="medial" 
d="M1788 280h217v-280h-2031v280h1530v285q0 143 -102.5 240.5t-258.5 97.5h-983q-7 233 15 404.5t70 288t129.5 186.5t184.5 100t243 30h585v-297h-584q-158 0 -249 -96.5t-105 -318.5h695q185 0 332.5 -83.5t229.5 -228.5t82 -322v-286z" />
    <glyph glyph-name="uniFB93" unicode="&#x6af;" horiz-adv-x="2805" arabic-form="final" 
d="M2278 2199v-168h-887v168h887zM2689 280h217v-280h-2405q-205 54 -318 203.5t-113 360.5q0 174 87 320.5t237.5 231.5t330.5 86v-260q-156 -1 -265.5 -111.5t-109.5 -266.5q0 -184 191 -284h1863v285q0 143 -102 240.5t-258 97.5h-983q-7 233 14.5 404.5t70 288
t129.5 186.5t184 100t243 30h585v-297h-584q-158 0 -249 -96.5t-105 -318.5h696q184 0 332 -83.5t230 -228.5t82 -322v-286z" />
    <glyph glyph-name="uniFB94" unicode="&#x6af;" horiz-adv-x="1888" arabic-form="initial" 
d="M491 2199h887v-168h-887v168zM-26 0v280h1530v285q0 143 -102.5 240.5t-258.5 97.5h-983q-7 233 15 404.5t70 288t129.5 186.5t184.5 100t243 30h585v-297h-584q-158 0 -249 -96.5t-105 -318.5h695q185 0 332.5 -83.5t229.5 -228.5t82 -322v-566h-1814z" />
    <glyph glyph-name="uniFB95" unicode="&#x6af;" horiz-adv-x="1929" arabic-form="medial" 
d="M1378 2199v-168h-887v168h887zM1788 280h217v-280h-2031v280h1530v285q0 143 -102.5 240.5t-258.5 97.5h-983q-7 233 15 404.5t70 288t129.5 186.5t184.5 100t243 30h585v-297h-584q-158 0 -249 -96.5t-105 -318.5h695q185 0 332.5 -83.5t229.5 -228.5t82 -322v-286z" />
    <glyph glyph-name="uniFB9F" unicode="&#x6ba;" horiz-adv-x="1541" arabic-form="final" 
d="M1567 280v-280h-217q-49 -218 -218.5 -351.5t-397.5 -133.5q-177 0 -322 82t-228.5 230t-83.5 332v1041h297v-1040q0 -157 97 -258.5t240 -101.5q142 0 239.5 102t97.5 258v1040h297v-920h199z" />
    <glyph glyph-name="uniFBA7" unicode="&#x6c1;" horiz-adv-x="1462" arabic-form="final" 
d="M1294 286l202 -3v-281h-202q-72 0 -135 18t-105.5 42.5t-85 66.5t-66 73.5t-55.5 79.5q-64 96 -98 131t-74 35q-68 1 -112.5 -44.5t-110.5 -164.5q-85 -156 -220 -238l-132 220q10 10 31.5 30.5t28 27t21.5 22.5t22 24.5t18 23t20 29t19 33.5q72 128 117 183
q126 153 301 150q49 -1 95 -19t77.5 -40.5t67.5 -64t54 -66.5t48 -70q2 -3 3.5 -5t3 -5t3.5 -5q69 -103 123 -142.5t141 -40.5z" />
    <glyph glyph-name="uniFBA8" unicode="&#x6c1;" horiz-adv-x="746" arabic-form="initial" 
d="M-10 280h377l-1 920h295l1 -1200h-672v280zM512 -98q48 0 82 -18.5t34 -36.5q-25 0 -55 -11.5t-61.5 -34t-52 -65t-20.5 -97.5q0 -49 19 -77q62 0 109 -48.5t47 -119.5q0 -79 -59 -137t-146 -58q-92 0 -150.5 72.5t-58.5 201.5q0 176 90.5 302.5t221.5 126.5z" />
    <glyph glyph-name="uniFBA9" unicode="&#x6c1;" horiz-adv-x="1539" arabic-form="medial" 
d="M-50 4v277h202q72 0 135 -18t106 -42.5t85 -66t65.5 -73t55.5 -79.5q62 -94 96.5 -130t73.5 -37q40 1 75 37t96 130q32 48 55.5 79.5t66 73t85 66t105.5 42.5t135 18h202v-277l-202 -4q-86 -1 -140 -41.5t-124 -144.5q-76 -112 -115 -155q-109 -118 -237 -120h-3
q-48 1 -94 19t-78 41.5t-67.5 63.5t-54.5 66.5t-48 69.5q-7 10 -10 15q-70 105 -123.5 145t-140.5 41z" />
    <glyph glyph-name="uniFBAB" unicode="&#x6be;" horiz-adv-x="1598" arabic-form="final" 
d="M100 0v567q0 177 82.5 321.5t230 228t331.5 83.5h333v66h296v-986h251v-280h-1524zM385 280h692v623h-332q-156 0 -258 -97.5t-102 -240.5v-285z" />
    <glyph glyph-name="uniFBAC" unicode="&#x6be;" horiz-adv-x="2192" arabic-form="initial" 
d="M-26 0v280h317q-113 127 -113 308q0 125 49 238.5t133 195t200.5 130t245.5 48.5h642q138 -1 258.5 -50t204.5 -133t132.5 -200.5t48.5 -249.5v-567h-2118zM622 280h537l-1 368q-17 129 -116 216.5t-235 88.5q-152 0 -259 -106.5t-107 -258.5q0 -99 49.5 -181t131.5 -127
zM1441 280h367v285q0 142 -102 239.5t-259 98.5h-140q61 -59 96.5 -141t36.5 -174z" />
    <glyph glyph-name="uniFBAD" unicode="&#x6be;" horiz-adv-x="2284" arabic-form="medial" 
d="M2092 280h218v-280h-2336v280h317q-113 127 -113 308q0 125 49 238.5t133 195t200.5 130t245.5 48.5h642q138 -1 258.5 -50t204.5 -133t132.5 -200.5t48.5 -249.5v-287zM622 280h537l-1 368q-17 129 -116 216.5t-235 88.5q-152 0 -259 -106.5t-107 -258.5
q0 -99 49.5 -181t131.5 -127zM1808 280v285q0 142 -102 239.5t-259 98.5h-140q61 -59 96.5 -141t36.5 -174l1 -308h367z" />
    <glyph glyph-name="uniFBAF" unicode="&#x6d2;" horiz-adv-x="1902" arabic-form="final" 
d="M100 -34v314h1828v-280h-1543q0 -170 98.5 -270.5t261.5 -100.5h903v-298h-904q-281 0 -462.5 179t-181.5 456zM737 -1125q-69 0 -117 44.5t-48 107.5t48 107.5t117 44.5q70 0 117.5 -44.5t47.5 -107.5t-47.5 -107.5t-117.5 -44.5zM1237 -1125q-69 0 -117 44.5t-48 107.5
t48 107.5t117 44.5q70 0 117.5 -44.5t47.5 -107.5t-47.5 -107.5t-117.5 -44.5z" />
    <glyph glyph-name="uniFBB1" unicode="&#x6d3;" horiz-adv-x="2804" arabic-form="final" 
d="M2668 280h168v-280h-461v548q-33 355 -327 355h-612q-304 0 -328 -374h482q154 0 277 -61.5t190 -168t66 -238.5q1 -146 -81.5 -272t-223 -200.5t-301.5 -74.5h-774q-129 0 -243 48t-196.5 132t-130 204.5t-47.5 259.5v247h298v-246q0 -157 96 -259t239 -102h742
q64 0 118 12.5t100.5 39.5t75 75t33.5 112q-5 90 -62.5 142.5t-176.5 52.5h-805q-5 207 20 369t76.5 274.5t130.5 185.5t178 106.5t223 33.5h625q191 0 313.5 -45.5t197.5 -156t101.5 -282t18.5 -437.5zM483 612v-133h-423v133h58q-17 86 39 153.5t149 67.5q61 0 111 -34.5
t69 -89.5l-125 -51q-3 21 -18.5 35t-36.5 14q-24 0 -40 -16.5t-16 -40.5t13 -38h220z" />
    <glyph glyph-name="uniFBFD" unicode="&#x6cc;" horiz-adv-x="1902" arabic-form="final" 
d="M100 -34v314h1828v-280h-1543q0 -170 98.5 -270.5t261.5 -100.5h903v-298h-904q-281 0 -462.5 179t-181.5 456zM737 -1125q-69 0 -117 44.5t-48 107.5t48 107.5t117 44.5q70 0 117.5 -44.5t47.5 -107.5t-47.5 -107.5t-117.5 -44.5zM1237 -1125q-69 0 -117 44.5t-48 107.5
t48 107.5t117 44.5q70 0 117.5 -44.5t47.5 -107.5t-47.5 -107.5t-117.5 -44.5z" />
    <glyph glyph-name="uniFBFE" unicode="&#x6cc;" horiz-adv-x="1062" arabic-form="initial" 
d="M978 0h-1010v280h715l-1 920h295zM283 -107q70 0 117.5 -44.5t47.5 -107.5t-47.5 -107.5t-117.5 -44.5t-117.5 44.5t-47.5 107.5t47.5 107.5t117.5 44.5zM783 -107q70 0 117.5 -44.5t47.5 -107.5t-47.5 -107.5t-117.5 -44.5t-117.5 44.5t-47.5 107.5t47.5 107.5
t117.5 44.5z" />
    <glyph glyph-name="uniFBFF" unicode="&#x6cc;" horiz-adv-x="1324" arabic-form="medial" 
d="M1356 280v-280h-1380v279h337v1h377l-1 920h295l1 -920h371zM322 -137q70 0 117.5 -44.5t47.5 -107.5t-47.5 -107.5t-117.5 -44.5q-69 0 -117 44.5t-48 107.5t48 107.5t117 44.5zM822 -137q70 0 117.5 -44.5t47.5 -107.5t-47.5 -107.5t-117.5 -44.5q-69 0 -117 44.5
t-48 107.5t48 107.5t117 44.5z" />
    <glyph glyph-name="uniFE82" unicode="&#x622;" horiz-adv-x="772" arabic-form="final" 
d="M20 2115q26 124 98.5 183t165.5 59q44 0 83 -14.5t66.5 -34.5t53 -40.5t52.5 -35t53 -14.5q81 0 113 131l151 -50q-17 -79 -54 -132t-84 -75t-98 -21.5t-100 22.5q-39 5 -75 22t-58.5 35t-50 32.5t-51.5 14.5q-82 0 -114 -131zM795 280v-280h-504v1912h295v-1632h209z
" />
    <glyph glyph-name="uniFE84" unicode="&#x623;" horiz-adv-x="623" arabic-form="final" 
d="M283 2121h220v-134h-423v134h58q-17 86 39 153t149 67q61 0 111 -34.5t69 -89.5l-125 -50q-3 21 -18.5 35t-36.5 14q-24 0 -40 -17t-16 -41q0 -23 13 -37zM649 280v-280h-504v1912h295v-1632h209z" />
    <glyph glyph-name="uniFE86" unicode="&#x624;" horiz-adv-x="1599" arabic-form="final" 
d="M969 1446v-134h-423v134h58q-17 86 39 153t149 67q61 0 111 -34.5t69 -89.5l-125 -50q-3 21 -18.5 35t-36.5 14q-24 0 -40 -17t-16 -41q0 -23 13 -37h220zM1417 280h208v-280h-217v44q-37 -235 -210.5 -382t-413.5 -147h-325v285h324q99 0 176.5 54t116.5 146h-546
q-192 66 -311 229.5t-119 370.5q0 175 87.5 321.5t238.5 231.5t332 85q124 0 240.5 -45t208 -124.5t148.5 -198t62 -256.5v-334zM1118 280l2 387q-20 132 -122.5 221.5t-240.5 89.5q-158 0 -269 -110.5t-111 -267.5q0 -103 52 -188.5t138 -131.5h551z" />
    <glyph glyph-name="uniFE88" unicode="&#x625;" horiz-adv-x="624" arabic-form="final" 
d="M650 280v-280h-505v1912h296v-1632h209zM283 -270h220v-134h-423v134h58q-17 86 39 153t149 67q61 0 111 -34.5t69 -89.5l-125 -50q-3 21 -18.5 35t-36.5 14q-24 0 -40 -17t-16 -41q0 -23 13 -37z" />
    <glyph glyph-name="uniFE8A" unicode="&#x626;" horiz-adv-x="2804" arabic-form="final" 
d="M2668 280h168v-280h-461v548q-33 355 -327 355h-612q-304 0 -328 -374h482q154 0 277 -61.5t190 -168t66 -238.5q1 -146 -81.5 -272t-223 -200.5t-301.5 -74.5h-774q-129 0 -243 48t-196.5 132t-130 204.5t-47.5 259.5v247h298v-246q0 -157 96 -259t239 -102h742
q64 0 118 12.5t100.5 39.5t75 75t33.5 112q-5 90 -62.5 142.5t-176.5 52.5h-805q-5 207 20 369t76.5 274.5t130.5 185.5t178 106.5t223 33.5h625q191 0 313.5 -45.5t197.5 -156t101.5 -282t18.5 -437.5zM483 612v-133h-423v133h58q-17 86 39 153.5t149 67.5q61 0 111 -34.5
t69 -89.5l-125 -51q-3 21 -18.5 35t-36.5 14q-24 0 -40 -16.5t-16 -40.5t13 -38h220z" />
    <glyph glyph-name="uniFE8B" unicode="&#x626;" horiz-adv-x="825" arabic-form="initial" 
d="M501 1408h221v-134h-423v134h58q-18 85 38.5 152.5t149.5 67.5q60 0 110.5 -34.5t69.5 -89.5l-126 -50q-3 22 -18.5 35.5t-35.5 13.5q-24 0 -40.5 -17t-16.5 -41q0 -21 13 -37zM-10 280h377l-1 920h295l1 -1200h-672v280z" />
    <glyph glyph-name="uniFE8C" unicode="&#x626;" horiz-adv-x="1023" arabic-form="medial" 
d="M722 1408v-134h-423v134h58q-17 86 39 153t149 67q61 0 111 -34.5t69 -89.5l-125 -50q-3 21 -18.5 35t-36.5 14q-24 0 -40 -17t-16 -41q0 -23 13 -37h220zM1033 280v-280h-1043v280h377l-1 920h295l1 -920h371z" />
    <glyph glyph-name="uniFE8E" unicode="&#x627;" horiz-adv-x="578" arabic-form="final" 
d="M604 280v-280h-504v1912h296v-1632h208z" />
    <glyph glyph-name="uniFE90" unicode="&#x628;" horiz-adv-x="2207" arabic-form="final" 
d="M2017 280h216v-280h-1702q-202 54 -316.5 219.5t-114.5 380.5q0 174 87 320.5t237.5 231.5t330.5 86v-260q-156 -1 -265.5 -111.5t-109.5 -266.5q0 -103 52.5 -189t138.5 -131h1150l1 920h295v-920zM1164 -108q70 0 117.5 -44.5t47.5 -107.5t-47.5 -107.5t-117.5 -44.5
t-117.5 44.5t-47.5 107.5t47.5 107.5t117.5 44.5z" />
    <glyph glyph-name="uniFE91" unicode="&#x628;" horiz-adv-x="762" arabic-form="initial" 
d="M-10 280h377l-1 920h295l1 -1200h-672v280zM486 -412q-70 0 -117.5 44.5t-47.5 107.5t47.5 107.5t117.5 44.5t117.5 -44.5t47.5 -107.5t-47.5 -107.5t-117.5 -44.5z" />
    <glyph glyph-name="uniFE92" unicode="&#x628;" horiz-adv-x="1023" arabic-form="medial" 
d="M1033 280v-280h-1043v280h377l-1 920h295l1 -920h371zM486 -108q70 0 117.5 -44.5t47.5 -107.5t-47.5 -107.5t-117.5 -44.5t-117.5 44.5t-47.5 107.5t47.5 107.5t117.5 44.5z" />
    <glyph glyph-name="uniFE94" unicode="&#x629;" horiz-adv-x="1598" arabic-form="final" 
d="M453 1381q-70 0 -117.5 44.5t-47.5 107.5t47.5 107.5t117.5 44.5t117.5 -44.5t47.5 -107.5t-47.5 -107.5t-117.5 -44.5zM953 1381q-70 0 -117.5 44.5t-47.5 107.5t47.5 107.5t117.5 44.5t117.5 -44.5t47.5 -107.5t-47.5 -107.5t-117.5 -44.5zM100 0v567q0 177 82.5 321.5
t230 228t331.5 83.5h333v66h296v-986h251v-280h-1524zM385 280h692v623h-332q-156 0 -258 -97.5t-102 -240.5v-285z" />
    <glyph glyph-name="uniFE96" unicode="&#x62a;" horiz-adv-x="2207" arabic-form="final" 
d="M959 1381q-69 0 -117 44.5t-48 107.5t48 107.5t117 44.5q70 0 117.5 -44.5t47.5 -107.5t-47.5 -107.5t-117.5 -44.5zM1459 1381q-69 0 -117 44.5t-48 107.5t48 107.5t117 44.5q70 0 117.5 -44.5t47.5 -107.5t-47.5 -107.5t-117.5 -44.5zM2017 280h216v-280h-1702
q-202 54 -316.5 219.5t-114.5 380.5q0 174 87 320.5t237.5 231.5t330.5 86v-260q-156 -1 -265.5 -111.5t-109.5 -266.5q0 -103 52.5 -189t138.5 -131h1150l1 920h295v-920z" />
    <glyph glyph-name="uniFE97" unicode="&#x62a;" horiz-adv-x="1026" arabic-form="initial" 
d="M261 1381q-70 0 -117.5 44.5t-47.5 107.5t47.5 107.5t117.5 44.5t117.5 -44.5t47.5 -107.5t-47.5 -107.5t-117.5 -44.5zM761 1381q-70 0 -117.5 44.5t-47.5 107.5t47.5 107.5t117.5 44.5t117.5 -44.5t47.5 -107.5t-47.5 -107.5t-117.5 -44.5zM-10 280h377l-1 920h295
l1 -1200h-672v280z" />
    <glyph glyph-name="uniFE98" unicode="&#x62a;" horiz-adv-x="1023" arabic-form="medial" 
d="M261 1381q-70 0 -117.5 44.5t-47.5 107.5t47.5 107.5t117.5 44.5t117.5 -44.5t47.5 -107.5t-47.5 -107.5t-117.5 -44.5zM761 1381q-70 0 -117.5 44.5t-47.5 107.5t47.5 107.5t117.5 44.5t117.5 -44.5t47.5 -107.5t-47.5 -107.5t-117.5 -44.5zM1033 280v-280h-1043v280
h377l-1 920h295l1 -920h371z" />
    <glyph glyph-name="uniFE9A" unicode="&#x62b;" horiz-adv-x="2207" arabic-form="final" 
d="M1209 1838q-69 0 -117 44.5t-48 107.5t48 107.5t117 44.5q70 0 117.5 -44.5t47.5 -107.5t-47.5 -107.5t-117.5 -44.5zM959 1381q-69 0 -117 44.5t-48 107.5t48 107.5t117 44.5q70 0 117.5 -44.5t47.5 -107.5t-47.5 -107.5t-117.5 -44.5zM1294 1533q0 63 48 107.5
t117 44.5q70 0 117.5 -44.5t47.5 -107.5t-47.5 -107.5t-117.5 -44.5q-69 0 -117 44.5t-48 107.5zM2017 280h216v-280h-1702q-202 54 -316.5 219.5t-114.5 380.5q0 174 87 320.5t237.5 231.5t330.5 86v-260q-156 -1 -265.5 -111.5t-109.5 -266.5q0 -103 52.5 -189t138.5 -131
h1150l1 920h295v-920z" />
    <glyph glyph-name="uniFE9B" unicode="&#x62b;" horiz-adv-x="1026" arabic-form="initial" 
d="M511 1838q-69 0 -117 44.5t-48 107.5t48 107.5t117 44.5q70 0 117.5 -44.5t47.5 -107.5t-47.5 -107.5t-117.5 -44.5zM261 1381q-70 0 -117.5 44.5t-47.5 107.5t47.5 107.5t117.5 44.5t117.5 -44.5t47.5 -107.5t-47.5 -107.5t-117.5 -44.5zM761 1381q-70 0 -117.5 44.5
t-47.5 107.5t47.5 107.5t117.5 44.5t117.5 -44.5t47.5 -107.5t-47.5 -107.5t-117.5 -44.5zM-10 280h377l-1 920h295l1 -1200h-672v280z" />
    <glyph glyph-name="uniFE9C" unicode="&#x62b;" horiz-adv-x="1023" arabic-form="medial" 
d="M511 1838q-69 0 -117 44.5t-48 107.5t48 107.5t117 44.5q70 0 117.5 -44.5t47.5 -107.5t-47.5 -107.5t-117.5 -44.5zM261 1381q-70 0 -117.5 44.5t-47.5 107.5t47.5 107.5t117.5 44.5t117.5 -44.5t47.5 -107.5t-47.5 -107.5t-117.5 -44.5zM596 1533q0 63 47.5 107.5
t117.5 44.5t117.5 -44.5t47.5 -107.5t-47.5 -107.5t-117.5 -44.5t-117.5 44.5t-47.5 107.5zM1033 280v-280h-1043v280h377l-1 920h295l1 -920h371z" />
    <glyph glyph-name="uniFE9E" unicode="&#x62c;" horiz-adv-x="1917" arabic-form="final" 
d="M1728 280h215v-280h-1558q1 -173 98.5 -272.5t261.5 -99.5h414v-297h-415q-184 0 -332 83.5t-230 228.5t-82 322v315h1344v285q0 143 -102.5 240.5t-258.5 97.5h-983v297h984q138 0 258.5 -49t204.5 -133t132.5 -201t48.5 -250v-287zM1508 -354q70 0 117.5 -44.5
t47.5 -107.5t-47.5 -107.5t-117.5 -44.5t-117.5 44.5t-47.5 107.5t47.5 107.5t117.5 44.5z" />
    <glyph glyph-name="uniFE9F" unicode="&#x62c;" horiz-adv-x="1982" arabic-form="initial" 
d="M-26 0v280h1624v285q0 143 -102.5 240.5t-258.5 97.5h-983v297h984q138 0 258.5 -49t204.5 -133t132.5 -201t48.5 -250v-567h-1908zM895 -412q-70 0 -117.5 44.5t-47.5 107.5t47.5 107.5t117.5 44.5t117.5 -44.5t47.5 -107.5t-47.5 -107.5t-117.5 -44.5z" />
    <glyph glyph-name="uniFEA0" unicode="&#x62c;" horiz-adv-x="2074" arabic-form="medial" 
d="M1882 280h218v-280h-2126v280h1624v285q0 143 -102.5 240.5t-258.5 97.5h-983v297h984q138 0 258.5 -49t204.5 -133t132.5 -201t48.5 -250v-287zM896 -108q70 0 117.5 -44.5t47.5 -107.5t-47.5 -107.5t-117.5 -44.5t-117.5 44.5t-47.5 107.5t47.5 107.5t117.5 44.5z" />
    <glyph glyph-name="uniFEA2" unicode="&#x62d;" horiz-adv-x="1917" arabic-form="final" 
d="M1728 280h215v-280h-1558q1 -173 98.5 -272.5t261.5 -99.5h414v-297h-415q-184 0 -332 83.5t-230 228.5t-82 322v315h1344v285q0 143 -102.5 240.5t-258.5 97.5h-983v297h984q138 0 258.5 -49t204.5 -133t132.5 -201t48.5 -250v-287z" />
    <glyph glyph-name="uniFEA3" unicode="&#x62d;" horiz-adv-x="1982" arabic-form="initial" 
d="M-26 0v280h1624v285q0 143 -102.5 240.5t-258.5 97.5h-983v297h984q138 0 258.5 -49t204.5 -133t132.5 -201t48.5 -250v-567h-1908z" />
    <glyph glyph-name="uniFEA4" unicode="&#x62d;" horiz-adv-x="2074" arabic-form="medial" 
d="M1882 280h218v-280h-2126v280h1624v285q0 143 -102.5 240.5t-258.5 97.5h-983v297h984q138 0 258.5 -49t204.5 -133t132.5 -201t48.5 -250v-287z" />
    <glyph glyph-name="uniFEA6" unicode="&#x62e;" horiz-adv-x="1917" arabic-form="final" 
d="M929 1381q-70 0 -117.5 44.5t-47.5 107.5t47.5 107.5t117.5 44.5t117.5 -44.5t47.5 -107.5t-47.5 -107.5t-117.5 -44.5zM1728 280h215v-280h-1558q1 -173 98.5 -272.5t261.5 -99.5h414v-297h-415q-184 0 -332 83.5t-230 228.5t-82 322v315h1344v285q0 143 -102.5 240.5
t-258.5 97.5h-983v297h984q138 0 258.5 -49t204.5 -133t132.5 -201t48.5 -250v-287z" />
    <glyph glyph-name="uniFEA7" unicode="&#x62e;" horiz-adv-x="1982" arabic-form="initial" 
d="M896 1381q-70 0 -117.5 44.5t-47.5 107.5t47.5 107.5t117.5 44.5t117.5 -44.5t47.5 -107.5t-47.5 -107.5t-117.5 -44.5zM-26 0v280h1624v285q0 143 -102.5 240.5t-258.5 97.5h-983v297h984q138 0 258.5 -49t204.5 -133t132.5 -201t48.5 -250v-567h-1908z" />
    <glyph glyph-name="uniFEA8" unicode="&#x62e;" horiz-adv-x="2074" arabic-form="medial" 
d="M897 1381q-70 0 -117.5 44.5t-47.5 107.5t47.5 107.5t117.5 44.5t117.5 -44.5t47.5 -107.5t-47.5 -107.5t-117.5 -44.5zM1882 280h218v-280h-2126v280h1624v285q0 143 -102.5 240.5t-258.5 97.5h-983v297h984q138 0 258.5 -49t204.5 -133t132.5 -201t48.5 -250v-287z" />
    <glyph glyph-name="uniFEAA" unicode="&#x62f;" horiz-adv-x="1600" arabic-form="final" 
d="M1674 280v-280h-1574v280h852q86 46 137.5 131.5t51.5 188.5q0 157 -110.5 267.5t-268.5 110.5q-120 0 -215.5 -67.5t-136.5 -175.5l-260 104q75 183 243.5 291t366.5 108q181 0 332.5 -85t239 -231.5t87.5 -321.5q0 -173 -86 -320h341z" />
    <glyph glyph-name="uniFEAC" unicode="&#x630;" horiz-adv-x="1600" arabic-form="final" 
d="M761 1419q-70 0 -117.5 44.5t-47.5 107.5t47.5 107.5t117.5 44.5t117.5 -44.5t47.5 -107.5t-47.5 -107.5t-117.5 -44.5zM1674 280v-280h-1574v280h852q86 46 137.5 131.5t51.5 188.5q0 157 -110.5 267.5t-268.5 110.5q-120 0 -215.5 -67.5t-136.5 -175.5l-260 104
q75 183 243.5 291t366.5 108q181 0 332.5 -85t239 -231.5t87.5 -321.5q0 -173 -86 -320h341z" />
    <glyph glyph-name="uniFEAE" unicode="&#x631;" horiz-adv-x="1229" arabic-form="final" 
d="M1255 280v-280h-215q-50 -218 -219 -351.5t-397 -133.5h-324v285h323q142 0 239.5 102t97.5 258v1038h297v-918h198z" />
    <glyph glyph-name="uniFEB0" unicode="&#x632;" horiz-adv-x="1229" arabic-form="final" 
d="M907 1381q-70 0 -117.5 44.5t-47.5 107.5t47.5 107.5t117.5 44.5t117.5 -44.5t47.5 -107.5t-47.5 -107.5t-117.5 -44.5zM1255 280v-280h-215q-50 -218 -219 -351.5t-397 -133.5h-324v285h323q142 0 239.5 102t97.5 258v1038h297v-918h198z" />
    <glyph glyph-name="uniFEB2" unicode="&#x633;" horiz-adv-x="3051" arabic-form="final" 
d="M2862 280h215v-280h-1725q-50 -218 -220 -351.5t-398 -133.5q-177 0 -322 82t-228.5 230t-83.5 332v381h297v-380q0 -157 97 -258.5t240 -101.5q142 0 239.5 102t97.5 258v1040h297l-1 -920h450l-1 720h295l1 -720h454l-1 920h296z" />
    <glyph glyph-name="uniFEB3" unicode="&#x633;" horiz-adv-x="2120" arabic-form="initial" 
d="M-26 0v280h260v920h295l-1 -920h447l-1 720h295l1 -720h454l-1 920h296l1 -1200h-2046z" />
    <glyph glyph-name="uniFEB4" unicode="&#x633;" horiz-adv-x="2209" arabic-form="medial" 
d="M2020 280h215v-280h-2261v280h260v920h295l-1 -920h447l-1 720h295l1 -720h454l-1 920h296z" />
    <glyph glyph-name="uniFEB6" unicode="&#x634;" horiz-adv-x="3051" arabic-form="final" 
d="M1966 1838q-69 0 -117 44.5t-48 107.5t48 107.5t117 44.5q70 0 117.5 -44.5t47.5 -107.5t-47.5 -107.5t-117.5 -44.5zM1716 1381q-70 0 -117.5 44.5t-47.5 107.5t47.5 107.5t117.5 44.5t117.5 -44.5t47.5 -107.5t-47.5 -107.5t-117.5 -44.5zM2051 1533q0 63 47.5 107.5
t117.5 44.5t117.5 -44.5t47.5 -107.5t-47.5 -107.5t-117.5 -44.5t-117.5 44.5t-47.5 107.5zM2862 280h215v-280h-1725q-50 -218 -220 -351.5t-398 -133.5q-177 0 -322 82t-228.5 230t-83.5 332v381h297v-380q0 -157 97 -258.5t240 -101.5q142 0 239.5 102t97.5 258v1040h297
l-1 -920h450l-1 720h295l1 -720h454l-1 920h296z" />
    <glyph glyph-name="uniFEB7" unicode="&#x634;" horiz-adv-x="2120" arabic-form="initial" 
d="M1127 1838q-69 0 -117 44.5t-48 107.5t48 107.5t117 44.5q70 0 117.5 -44.5t47.5 -107.5t-47.5 -107.5t-117.5 -44.5zM877 1381q-70 0 -117.5 44.5t-47.5 107.5t47.5 107.5t117.5 44.5t117.5 -44.5t47.5 -107.5t-47.5 -107.5t-117.5 -44.5zM1377 1381q-70 0 -117.5 44.5
t-47.5 107.5t47.5 107.5t117.5 44.5t117.5 -44.5t47.5 -107.5t-47.5 -107.5t-117.5 -44.5zM-26 0v280h260v920h295l-1 -920h447l-1 720h295l1 -720h454l-1 920h296l1 -1200h-2046z" />
    <glyph glyph-name="uniFEB8" unicode="&#x634;" horiz-adv-x="2209" arabic-form="medial" 
d="M1127 1838q-69 0 -117 44.5t-48 107.5t48 107.5t117 44.5q70 0 117.5 -44.5t47.5 -107.5t-47.5 -107.5t-117.5 -44.5zM877 1381q-70 0 -117.5 44.5t-47.5 107.5t47.5 107.5t117.5 44.5t117.5 -44.5t47.5 -107.5t-47.5 -107.5t-117.5 -44.5zM1212 1533q0 63 47.5 107.5
t117.5 44.5t117.5 -44.5t47.5 -107.5t-47.5 -107.5t-117.5 -44.5t-117.5 44.5t-47.5 107.5zM2020 280h215v-280h-2261v280h260v920h295l-1 -920h447l-1 720h295l1 -720h454l-1 920h296z" />
    <glyph glyph-name="uniFEBA" unicode="&#x635;" horiz-adv-x="2853" arabic-form="final" 
d="M2664 280h215v-280h-1527q-50 -218 -220 -351.5t-398 -133.5q-177 0 -322 82t-228.5 230t-83.5 332v381h297v-380q0 -157 97 -258.5t240 -101.5q142 0 239.5 102t97.5 258v1130h297v-90h652q138 0 258 -49t204.5 -133t133 -201t48.5 -250v-287zM2379 280v285
q0 143 -102 240.5t-258 97.5h-651l-1 -623h1012z" />
    <glyph glyph-name="uniFEBB" unicode="&#x635;" horiz-adv-x="1981" arabic-form="initial" 
d="M-26 0v280h318v1022h297v-102h648q138 0 258.5 -49t204.5 -133t132.5 -201t48.5 -250v-567h-1907zM588 280h1009v285q0 143 -102.5 240.5t-258.5 97.5h-648v-623z" />
    <glyph glyph-name="uniFEBC" unicode="&#x635;" horiz-adv-x="2072" arabic-form="medial" 
d="M1881 280h217v-280h-2124v280h318v1022h297v-102h648q138 0 258.5 -49t204.5 -133t132.5 -201t48.5 -250v-287zM1597 280v285q0 143 -102.5 240.5t-258.5 97.5h-648v-623h1009z" />
    <glyph glyph-name="uniFEBE" unicode="&#x636;" horiz-adv-x="2853" arabic-form="final" 
d="M1811 1381q-70 0 -117.5 44.5t-47.5 107.5t47.5 107.5t117.5 44.5t117.5 -44.5t47.5 -107.5t-47.5 -107.5t-117.5 -44.5zM2664 280h215v-280h-1527q-50 -218 -220 -351.5t-398 -133.5q-177 0 -322 82t-228.5 230t-83.5 332v381h297v-380q0 -157 97 -258.5t240 -101.5
q142 0 239.5 102t97.5 258v1130h297v-90h652q138 0 258 -49t204.5 -133t133 -201t48.5 -250v-287zM2379 280v285q0 143 -102 240.5t-258 97.5h-651l-1 -623h1012z" />
    <glyph glyph-name="uniFEBF" unicode="&#x636;" horiz-adv-x="1981" arabic-form="initial" 
d="M1123 1381q-70 0 -117.5 44.5t-47.5 107.5t47.5 107.5t117.5 44.5t117.5 -44.5t47.5 -107.5t-47.5 -107.5t-117.5 -44.5zM-26 0v280h318v1022h297v-102h648q138 0 258.5 -49t204.5 -133t132.5 -201t48.5 -250v-567h-1907zM588 280h1009v285q0 143 -102.5 240.5
t-258.5 97.5h-648v-623z" />
    <glyph glyph-name="uniFEC0" unicode="&#x636;" horiz-adv-x="2072" arabic-form="medial" 
d="M1123 1381q-70 0 -117.5 44.5t-47.5 107.5t47.5 107.5t117.5 44.5t117.5 -44.5t47.5 -107.5t-47.5 -107.5t-117.5 -44.5zM1881 280h217v-280h-2124v280h318v1022h297v-102h648q138 0 258.5 -49t204.5 -133t132.5 -201t48.5 -250v-287zM1597 280v285q0 143 -102.5 240.5
t-258.5 97.5h-648v-623h1009z" />
    <glyph glyph-name="uniFEC2" unicode="&#x637;" horiz-adv-x="2083" arabic-form="final" 
d="M1894 280h215v-280h-2009v280h205v1632h296v-712h649q138 0 258.5 -49t204.5 -133t132.5 -201t48.5 -250v-287zM1610 280v285q0 143 -102.5 240.5t-258.5 97.5h-648v-623h1009z" />
    <glyph glyph-name="uniFEC3" unicode="&#x637;" horiz-adv-x="2062" arabic-form="initial" 
d="M-26 0v280h399v1632h296v-712h649q138 0 258.5 -49t204.5 -133t132.5 -201t48.5 -250v-567h-1988zM669 280h1009v285q0 143 -102.5 240.5t-258.5 97.5h-648v-623z" />
    <glyph glyph-name="uniFEC4" unicode="&#x637;" horiz-adv-x="2153" arabic-form="medial" 
d="M1962 280h217v-280h-2205v280h399v1632h296v-712h649q138 0 258.5 -49t204.5 -133t132.5 -201t48.5 -250v-287zM1678 280v285q0 143 -102.5 240.5t-258.5 97.5h-648v-623h1009z" />
    <glyph glyph-name="uniFEC6" unicode="&#x638;" horiz-adv-x="2083" arabic-form="final" 
d="M1894 280h215v-280h-2009v280h205v1632h296v-712h649q138 0 258.5 -49t204.5 -133t132.5 -201t48.5 -250v-287zM1132 1381q-70 0 -117.5 44.5t-47.5 107.5t47.5 107.5t117.5 44.5t117.5 -44.5t47.5 -107.5t-47.5 -107.5t-117.5 -44.5zM1610 280v285q0 143 -102.5 240.5
t-258.5 97.5h-648v-623h1009z" />
    <glyph glyph-name="uniFEC7" unicode="&#x638;" horiz-adv-x="2062" arabic-form="initial" 
d="M-26 0v280h399v1632h296v-712h649q138 0 258.5 -49t204.5 -133t132.5 -201t48.5 -250v-567h-1988zM1139 1381q-69 0 -117 44.5t-48 107.5t48 107.5t117 44.5q70 0 117.5 -44.5t47.5 -107.5t-47.5 -107.5t-117.5 -44.5zM669 280h1009v285q0 143 -102.5 240.5t-258.5 97.5
h-648v-623z" />
    <glyph glyph-name="uniFEC8" unicode="&#x638;" horiz-adv-x="2153" arabic-form="medial" 
d="M1962 280h217v-280h-2205v280h399v1632h296v-712h649q138 0 258.5 -49t204.5 -133t132.5 -201t48.5 -250v-287zM1139 1381q-70 0 -117.5 44.5t-47.5 107.5t47.5 107.5t117.5 44.5t117.5 -44.5t47.5 -107.5t-47.5 -107.5t-117.5 -44.5zM1678 280v285q0 143 -102.5 240.5
t-258.5 97.5h-648v-623h1009z" />
    <glyph glyph-name="uniFECA" unicode="&#x639;" horiz-adv-x="1903" arabic-form="final" 
d="M1929 280v-280h-1544q1 -173 98.5 -272.5t261.5 -99.5h415v-297h-416q-138 0 -258 49t-204.5 133.5t-133 201.5t-48.5 250v315h470q-46 66 -71.5 144t-29.5 157t13 159.5t52 153t91 136t126.5 109.5t163 72.5t196.5 26.5q206 0 369 -104.5t233 -294.5l-264 -107
q-29 121 -117.5 183.5t-222.5 62.5q-157 0 -268 -110.5t-111 -267.5q0 -103 51.5 -188.5t137.5 -131.5h1010z" />
    <glyph glyph-name="uniFECB" unicode="&#x639;" horiz-adv-x="1627" arabic-form="initial" 
d="M-26 0v280h410q-46 66 -71.5 144t-29.5 157t13 159.5t52 153t91 136t126.5 109.5t163 72.5t196.5 26.5q206 0 369 -104.5t233 -294.5l-264 -107q-29 121 -117.5 183.5t-222.5 62.5q-157 0 -268 -110.5t-111 -267.5q0 -103 51.5 -188.5t137.5 -131.5h794v-280h-1553z" />
    <glyph glyph-name="uniFECC" unicode="&#x639;" horiz-adv-x="1718" arabic-form="medial" 
d="M1744 280v-280h-1770v280h410q-46 66 -71.5 144t-29.5 157t13 159.5t52 153t91 136t126.5 109.5t163 72.5t196.5 26.5q206 0 369 -104.5t233 -294.5l-264 -107q-29 121 -117.5 183.5t-222.5 62.5q-157 0 -268 -110.5t-111 -267.5q0 -103 51.5 -188.5t137.5 -131.5h1011z
" />
    <glyph glyph-name="uniFECE" unicode="&#x63a;" horiz-adv-x="1903" arabic-form="final" 
d="M1111 1419q-70 0 -117.5 44.5t-47.5 107.5t47.5 107.5t117.5 44.5t117.5 -44.5t47.5 -107.5t-47.5 -107.5t-117.5 -44.5zM1929 280v-280h-1544q1 -173 98.5 -272.5t261.5 -99.5h415v-297h-416q-138 0 -258 49t-204.5 133.5t-133 201.5t-48.5 250v315h470
q-46 66 -71.5 144t-29.5 157t13 159.5t52 153t91 136t126.5 109.5t163 72.5t196.5 26.5q206 0 369 -104.5t233 -294.5l-264 -107q-29 121 -117.5 183.5t-222.5 62.5q-157 0 -268 -110.5t-111 -267.5q0 -103 51.5 -188.5t137.5 -131.5h1010z" />
    <glyph glyph-name="uniFECF" unicode="&#x63a;" horiz-adv-x="1627" arabic-form="initial" 
d="M925 1419q-70 0 -117.5 44.5t-47.5 107.5t47.5 107.5t117.5 44.5t117.5 -44.5t47.5 -107.5t-47.5 -107.5t-117.5 -44.5zM-26 0v280h410q-46 66 -71.5 144t-29.5 157t13 159.5t52 153t91 136t126.5 109.5t163 72.5t196.5 26.5q206 0 369 -104.5t233 -294.5l-264 -107
q-29 121 -117.5 183.5t-222.5 62.5q-157 0 -268 -110.5t-111 -267.5q0 -103 51.5 -188.5t137.5 -131.5h794v-280h-1553z" />
    <glyph glyph-name="uniFED0" unicode="&#x63a;" horiz-adv-x="1718" arabic-form="medial" 
d="M925 1419q-70 0 -117.5 44.5t-47.5 107.5t47.5 107.5t117.5 44.5t117.5 -44.5t47.5 -107.5t-47.5 -107.5t-117.5 -44.5zM1744 280v-280h-1770v280h410q-46 66 -71.5 144t-29.5 157t13 159.5t52 153t91 136t126.5 109.5t163 72.5t196.5 26.5q206 0 369 -104.5t233 -294.5
l-264 -107q-29 121 -117.5 183.5t-222.5 62.5q-157 0 -268 -110.5t-111 -267.5q0 -103 51.5 -188.5t137.5 -131.5h1011z" />
    <glyph glyph-name="uniFED2" unicode="&#x641;" horiz-adv-x="2786" arabic-form="final" 
d="M1955 1419q-70 0 -117.5 44.5t-47.5 107.5t47.5 107.5t117.5 44.5t117.5 -44.5t47.5 -107.5t-47.5 -107.5t-117.5 -44.5zM2615 280h197v-280h-2281q-208 54 -319.5 218t-111.5 382q0 174 87 320.5t237.5 231.5t330.5 86v-260q-156 -1 -265.5 -111.5t-109.5 -266.5
q0 -103 52.5 -189t138.5 -131h844q-46 66 -71.5 144t-29.5 157t12.5 159.5t51.5 153t91 136t126.5 109.5t163 72.5t196.5 26.5q125 0 243 -46t209.5 -127.5t148 -203t58.5 -261.5zM1764 280h556l-2 383q-19 135 -122 225t-243 90q-157 0 -268 -110.5t-111 -267.5
q0 -103 52 -188.5t138 -131.5z" />
    <glyph glyph-name="uniFED3" unicode="&#x641;" horiz-adv-x="1671" arabic-form="initial" 
d="M911 1419q-70 0 -117.5 44.5t-47.5 107.5t47.5 107.5t117.5 44.5t117.5 -44.5t47.5 -107.5t-47.5 -107.5t-117.5 -44.5zM-26 0v280h396q-46 66 -71.5 144t-29.5 157t13 159.5t51.5 153t90.5 136t126.5 109.5t163 72.5t196.5 26.5q126 0 244 -46t209.5 -127.5t148 -202.5
t58.5 -262l1 -600h-1597zM529 600q0 -103 52 -188.5t138 -131.5h556l-1 383q-18 134 -122 224.5t-243 90.5q-158 0 -269 -110.5t-111 -267.5z" />
    <glyph glyph-name="uniFED4" unicode="&#x641;" horiz-adv-x="1762" arabic-form="medial" 
d="M911 1419q-70 0 -117.5 44.5t-47.5 107.5t47.5 107.5t117.5 44.5t117.5 -44.5t47.5 -107.5t-47.5 -107.5t-117.5 -44.5zM1571 280h217v-280h-1814v280h396q-46 66 -71.5 144t-29.5 157t13 159.5t51.5 153t90.5 136t126.5 109.5t163 72.5t196.5 26.5q126 0 244 -46
t209.5 -127.5t148 -202.5t58.5 -262zM719 280h556l-1 383q-18 134 -122 224.5t-243 90.5q-158 0 -269 -110.5t-111 -267.5q0 -103 52 -188.5t138 -131.5z" />
    <glyph glyph-name="uniFED6" unicode="&#x642;" horiz-adv-x="2321" arabic-form="final" 
d="M1240 1419q-70 0 -117.5 44.5t-47.5 107.5t47.5 107.5t117.5 44.5t117.5 -44.5t47.5 -107.5t-47.5 -107.5t-117.5 -44.5zM1740 1419q-70 0 -117.5 44.5t-47.5 107.5t47.5 107.5t117.5 44.5t117.5 -44.5t47.5 -107.5t-47.5 -107.5t-117.5 -44.5zM2347 280v-280h-215
q-50 -218 -219 -351.5t-397 -133.5h-799q-129 3 -243 53t-196.5 134t-130 202.5t-47.5 254.5v267h297v-266q0 -157 97 -258.5t240 -101.5h780q99 0 177 54t116 146h-545q-193 66 -311.5 229.5t-118.5 370.5q0 175 87 321.5t238.5 231.5t332.5 85q124 0 240.5 -45t208 -124.5
t148.5 -198t62 -256.5v-334h198zM1850 280l1 387q-18 132 -121 221.5t-242 89.5q-157 0 -268 -110.5t-111 -267.5q0 -103 52 -188.5t138 -131.5h551z" />
    <glyph glyph-name="uniFED7" unicode="&#x642;" horiz-adv-x="1671" arabic-form="initial" 
d="M661 1419q-70 0 -117.5 44.5t-47.5 107.5t47.5 107.5t117.5 44.5t117.5 -44.5t47.5 -107.5t-47.5 -107.5t-117.5 -44.5zM1161 1419q-70 0 -117.5 44.5t-47.5 107.5t47.5 107.5t117.5 44.5t117.5 -44.5t47.5 -107.5t-47.5 -107.5t-117.5 -44.5zM-26 0v280h396
q-46 66 -71.5 144t-29.5 157t13 159.5t51.5 153t90.5 136t126.5 109.5t163 72.5t196.5 26.5q126 0 244 -46t209.5 -127.5t148 -202.5t58.5 -262l1 -600h-1597zM529 600q0 -103 52 -188.5t138 -131.5h556l-1 383q-18 134 -122 224.5t-243 90.5q-158 0 -269 -110.5
t-111 -267.5z" />
    <glyph glyph-name="uniFED8" unicode="&#x642;" horiz-adv-x="1762" arabic-form="medial" 
d="M661 1419q-70 0 -117.5 44.5t-47.5 107.5t47.5 107.5t117.5 44.5t117.5 -44.5t47.5 -107.5t-47.5 -107.5t-117.5 -44.5zM1161 1419q-70 0 -117.5 44.5t-47.5 107.5t47.5 107.5t117.5 44.5t117.5 -44.5t47.5 -107.5t-47.5 -107.5t-117.5 -44.5zM1571 280h217v-280h-1814
v280h396q-46 66 -71.5 144t-29.5 157t13 159.5t51.5 153t90.5 136t126.5 109.5t163 72.5t196.5 26.5q126 0 244 -46t209.5 -127.5t148 -202.5t58.5 -262zM719 280h556l-1 383q-18 134 -122 224.5t-243 90.5q-158 0 -269 -110.5t-111 -267.5q0 -103 52 -188.5t138 -131.5z
" />
    <glyph glyph-name="uniFEDA" unicode="&#x643;" horiz-adv-x="2206" arabic-form="final" 
d="M2017 280h215v-280h-1701q-202 54 -316.5 219.5t-114.5 380.5q0 174 87 320.5t237.5 231.5t330.5 86v-260q-156 -1 -265.5 -111.5t-109.5 -266.5q0 -103 52.5 -189t138.5 -131h1150l1 1632h295v-1632zM1447 1125v-142h-483v96h385v51q0 20 -13 31.5t-58.5 19t-129.5 7.5
l-112 38q-4 79 42.5 131t121.5 52h184v-99h-178q-40 0 -55 -22h128q72 0 120 -46.5t48 -116.5z" />
    <glyph glyph-name="uniFEDB" unicode="&#x643;" horiz-adv-x="1888" arabic-form="initial" 
d="M-26 0v280h1530v285q0 143 -102.5 240.5t-258.5 97.5h-983q-7 233 15 404.5t70 288t129.5 186.5t184.5 100t243 30h585v-297h-584q-158 0 -249 -96.5t-105 -318.5h695q185 0 332.5 -83.5t229.5 -228.5t82 -322v-566h-1814z" />
    <glyph glyph-name="uniFEDC" unicode="&#x643;" horiz-adv-x="1929" arabic-form="medial" 
d="M1788 280h217v-280h-2031v280h1530v285q0 143 -102.5 240.5t-258.5 97.5h-983q-7 233 15 404.5t70 288t129.5 186.5t184.5 100t243 30h585v-297h-584q-158 0 -249 -96.5t-105 -318.5h695q185 0 332.5 -83.5t229.5 -228.5t82 -322v-286z" />
    <glyph glyph-name="uniFEDE" unicode="&#x644;" horiz-adv-x="1550" arabic-form="final" 
d="M1368 280h208v-280h-218v38q-39 -233 -212 -378t-412 -145q-177 0 -322 82t-228.5 230t-83.5 332v381h297v-380q0 -157 97 -258.5t240 -101.5q142 0 239.5 102t97.5 258v1752h297v-1632z" />
    <glyph glyph-name="uniFEDF" unicode="&#x644;" horiz-adv-x="578" arabic-form="initial" 
d="M-26 280h209v1632h295v-1912h-504v280z" />
    <glyph glyph-name="uniFEE0" unicode="&#x644;" horiz-adv-x="619" arabic-form="medial" 
d="M478 280h218v-280h-722v280h209v1632h295v-1632z" />
    <glyph glyph-name="uniFEE2" unicode="&#x645;" horiz-adv-x="1967" arabic-form="final" 
d="M2027 280v-280h-364q-91 -87 -210.5 -135.5t-253.5 -48.5q-135 0 -255 48.5t-210 136.5q-167 -4 -258 -135t-91 -351h-285q0 316 127.5 507t360.5 240q-30 72 -34.5 161.5t14.5 182t69.5 179.5t124.5 155.5t187.5 110t249.5 41.5q180 0 331 -84.5t238.5 -231.5t87.5 -322
q0 -92 -24 -174h195zM1199 77q157 0 267 110t110 267q0 158 -110 268.5t-267 110.5q-158 0 -268 -110.5t-110 -268.5q0 -157 110 -267t268 -110z" />
    <glyph glyph-name="uniFEE3" unicode="&#x645;" horiz-adv-x="1600" arabic-form="initial" 
d="M-26 0v280h255q-44 83 -44 174q0 175 87.5 322t239 231.5t332.5 84.5q135 0 256.5 -50t209 -135t139 -203.5t51.5 -249.5q0 -175 -87 -321.5t-238 -231.5t-331 -85q-135 0 -255 48.5t-210 135.5h-405zM465 454q0 -157 110.5 -267t268.5 -110q157 0 266.5 110t109.5 267
q0 158 -109.5 268.5t-266.5 110.5q-158 0 -268.5 -110.5t-110.5 -268.5z" />
    <glyph glyph-name="uniFEE4" unicode="&#x645;" horiz-adv-x="1649" arabic-form="medial" 
d="M1675 280v-280h-368q-90 -87 -209.5 -135.5t-253.5 -48.5q-135 0 -255 48.5t-210 135.5h-405v280h255q-44 83 -44 174q0 175 87.5 322t239 231.5t332.5 84.5q135 0 256.5 -50t209 -135t139 -203.5t51.5 -249.5q0 -92 -24 -174h199zM844 77q157 0 266.5 110t109.5 267
q0 158 -109.5 268.5t-266.5 110.5q-158 0 -268.5 -110.5t-110.5 -268.5q0 -157 110.5 -267t268.5 -110z" />
    <glyph glyph-name="uniFEE6" unicode="&#x646;" horiz-adv-x="1541" arabic-form="final" 
d="M734 1381q-70 0 -117.5 44.5t-47.5 107.5t47.5 107.5t117.5 44.5t117.5 -44.5t47.5 -107.5t-47.5 -107.5t-117.5 -44.5zM1567 280v-280h-217q-49 -218 -218.5 -351.5t-397.5 -133.5q-177 0 -322 82t-228.5 230t-83.5 332v1041h297v-1040q0 -157 97 -258.5t240 -101.5
q142 0 239.5 102t97.5 258v1040h297v-920h199z" />
    <glyph glyph-name="uniFEE7" unicode="&#x646;" horiz-adv-x="736" arabic-form="initial" 
d="M487 1381q-70 0 -117.5 44.5t-47.5 107.5t47.5 107.5t117.5 44.5t117.5 -44.5t47.5 -107.5t-47.5 -107.5t-117.5 -44.5zM-34 280h377l-1 920h295l1 -1200h-672v280z" />
    <glyph glyph-name="uniFEE8" unicode="&#x646;" horiz-adv-x="1023" arabic-form="medial" 
d="M511 1381q-70 0 -117.5 44.5t-47.5 107.5t47.5 107.5t117.5 44.5t117.5 -44.5t47.5 -107.5t-47.5 -107.5t-117.5 -44.5zM1033 280v-280h-1043v280h377l-1 920h295l1 -920h371z" />
    <glyph glyph-name="uniFEEA" unicode="&#x647;" horiz-adv-x="1598" arabic-form="final" 
d="M100 0v567q0 177 82.5 321.5t230 228t331.5 83.5h333v66h296v-986h251v-280h-1524zM385 280h692v623h-332q-156 0 -258 -97.5t-102 -240.5v-285z" />
    <glyph glyph-name="uniFEEB" unicode="&#x647;" horiz-adv-x="2192" arabic-form="initial" 
d="M-26 0v280h317q-113 127 -113 308q0 125 49 238.5t133 195t200.5 130t245.5 48.5h642q138 -1 258.5 -50t204.5 -133t132.5 -200.5t48.5 -249.5v-567h-2118zM622 280h537l-1 368q-17 129 -116 216.5t-235 88.5q-152 0 -259 -106.5t-107 -258.5q0 -99 49.5 -181t131.5 -127
zM1441 280h367v285q0 142 -102 239.5t-259 98.5h-140q61 -59 96.5 -141t36.5 -174z" />
    <glyph glyph-name="uniFEEC" unicode="&#x647;" horiz-adv-x="2284" arabic-form="medial" 
d="M2092 280h218v-280h-2336v280h317q-113 127 -113 308q0 125 49 238.5t133 195t200.5 130t245.5 48.5h642q138 -1 258.5 -50t204.5 -133t132.5 -200.5t48.5 -249.5v-287zM622 280h537l-1 368q-17 129 -116 216.5t-235 88.5q-152 0 -259 -106.5t-107 -258.5
q0 -99 49.5 -181t131.5 -127zM1808 280v285q0 142 -102 239.5t-259 98.5h-140q61 -59 96.5 -141t36.5 -174l1 -308h367z" />
    <glyph glyph-name="uniFEEE" unicode="&#x648;" horiz-adv-x="1599" arabic-form="final" 
d="M1417 280h208v-280h-217v44q-37 -235 -210.5 -382t-413.5 -147h-325v285h324q99 0 176.5 54t116.5 146h-546q-192 66 -311 229.5t-119 370.5q0 175 87.5 321.5t238.5 231.5t332 85q124 0 240.5 -45t208 -124.5t148.5 -198t62 -256.5v-334zM1118 280l2 387
q-20 132 -122.5 221.5t-240.5 89.5q-158 0 -269 -110.5t-111 -267.5q0 -103 52 -188.5t138 -131.5h551z" />
    <glyph glyph-name="uniFEF0" unicode="&#x649;" horiz-adv-x="2778" arabic-form="final" 
d="M2642 280h168v-280h-461v548q-33 355 -327 355h-612q-304 0 -327 -374h481q234 0 384.5 -133.5t148.5 -334.5q1 -146 -81.5 -272t-223 -200.5t-301.5 -74.5h-774q-129 0 -243 48t-196.5 132t-130 204.5t-47.5 259.5v247h298v-246q0 -157 96.5 -259t239.5 -102h741
q87 0 155 21.5t117 77t55 140.5q-4 89 -61.5 142t-177.5 53h-805q-5 207 20 369t76.5 274.5t130.5 185.5t178 106.5t223 33.5h625q191 0 313.5 -45.5t197.5 -156t101.5 -282t18.5 -437.5z" />
    <glyph glyph-name="uniFEF2" unicode="&#x64a;" horiz-adv-x="2778" arabic-form="final" 
d="M2642 280h168v-280h-461v548q-33 355 -327 355h-612q-304 0 -327 -374h481q234 0 384.5 -133.5t148.5 -334.5q1 -146 -81.5 -272t-223 -200.5t-301.5 -74.5h-774q-129 0 -243 48t-196.5 132t-130 204.5t-47.5 259.5v247h298v-246q0 -157 96.5 -259t239.5 -102h741
q87 0 155 21.5t117 77t55 140.5q-4 89 -61.5 142t-177.5 53h-805q-5 207 20 369t76.5 274.5t130.5 185.5t178 106.5t223 33.5h625q191 0 313.5 -45.5t197.5 -156t101.5 -282t18.5 -437.5zM884 -619q70 0 117.5 -44.5t47.5 -107.5t-47.5 -107.5t-117.5 -44.5t-117.5 44.5
t-47.5 107.5t47.5 107.5t117.5 44.5zM1384 -619q70 0 117.5 -44.5t47.5 -107.5t-47.5 -107.5t-117.5 -44.5t-117.5 44.5t-47.5 107.5t47.5 107.5t117.5 44.5z" />
    <glyph glyph-name="uniFEF3" unicode="&#x64a;" horiz-adv-x="1062" arabic-form="initial" 
d="M978 0h-1010v280h715l-1 920h295zM283 -107q70 0 117.5 -44.5t47.5 -107.5t-47.5 -107.5t-117.5 -44.5t-117.5 44.5t-47.5 107.5t47.5 107.5t117.5 44.5zM783 -107q70 0 117.5 -44.5t47.5 -107.5t-47.5 -107.5t-117.5 -44.5t-117.5 44.5t-47.5 107.5t47.5 107.5
t117.5 44.5z" />
    <glyph glyph-name="uniFEF4" unicode="&#x64a;" horiz-adv-x="1324" arabic-form="medial" 
d="M1356 280v-280h-1380v279h337v1h377l-1 920h295l1 -920h371zM322 -137q70 0 117.5 -44.5t47.5 -107.5t-47.5 -107.5t-117.5 -44.5q-69 0 -117 44.5t-48 107.5t48 107.5t117 44.5zM822 -137q70 0 117.5 -44.5t47.5 -107.5t-47.5 -107.5t-117.5 -44.5q-69 0 -117 44.5
t-48 107.5t48 107.5t117 44.5z" />
    <glyph glyph-name=".notdef" horiz-adv-x="1332" 
d="M200 1612h932v-1612h-932v1612zM974 145v1321h-614v-1321h614z" />
    <glyph glyph-name=".null" 
 />
    <glyph glyph-name="nonmarkingreturn" horiz-adv-x="682" 
 />
    <glyph glyph-name="space" unicode=" " horiz-adv-x="625" 
 />
    <glyph glyph-name="exclam" unicode="!" horiz-adv-x="698" 
d="M225 503l-48 1109h341l-45 -1109h-248zM350 -48q-77 0 -131 51.5t-54 124.5q0 72 54 122.5t129 50.5q77 0 132 -52.5t55 -124.5t-54.5 -122t-130.5 -50z" />
    <glyph glyph-name="quotedbl" unicode="&#x22;" horiz-adv-x="864" 
d="M143 1357l-63 555h297l-65 -555h-169zM552 1357l-64 555h296l-64 -555h-168z" />
    <glyph glyph-name="numbersign" unicode="#" horiz-adv-x="1578" 
d="M263 0l51 389h-256l28 211h256l46 355h-260l30 211h258l58 446h239l-58 -446h368l58 446h238l-58 -446h259l-28 -211h-258l-47 -355h264l-29 -211h-262l-51 -389h-238l51 389h-368l-51 -389h-240zM580 600h368l47 355h-368z" />
    <glyph glyph-name="dollar" unicode="$" horiz-adv-x="1282" 
d="M537 -228v215q-167 18 -296.5 99.5t-176.5 194.5l183 175q54 -94 160 -147t228 -53q117 -2 201.5 50t84.5 145q0 32 -13.5 61t-43 55.5t-60 47t-82 44.5t-90.5 40t-103 41q-67 26 -120.5 53t-107.5 67t-90 84.5t-58.5 105t-22.5 130.5q0 161 115 282t292 157v207h233
v-202q142 -19 242 -94.5t139 -177.5l-178 -162q-36 75 -120 121.5t-173 48.5q-123 -8 -189 -58.5t-66 -129.5q0 -37 19 -67t61 -55.5t84 -44.5t114 -47q17 -7 26 -10q50 -20 90 -38t92.5 -46t93 -56t82.5 -67t69 -80t44.5 -93.5t17.5 -109.5q0 -179 -127.5 -303t-320.5 -159
v-224h-233z" />
    <glyph glyph-name="percent" unicode="%" horiz-adv-x="1814" 
d="M80 1258q0 154 114.5 263.5t275.5 109.5q160 0 274.5 -109.5t114.5 -262.5q0 -154 -114.5 -263.5t-275.5 -109.5q-160 0 -274.5 109t-114.5 263zM227 0l1105 1613h245l-1104 -1613h-246zM268 1258q0 -80 59 -136t142 -56t141.5 56t58.5 136t-59 136.5t-141 56.5
q-83 0 -142 -56.5t-59 -136.5zM955 352q0 154 114.5 263.5t275.5 109.5t275 -109t114 -263q0 -153 -115 -263t-275 -110t-274.5 109.5t-114.5 262.5zM1142 352q0 -79 59.5 -135.5t142.5 -56.5t142 56.5t59 136.5q0 79 -59.5 135.5t-141.5 56.5q-83 0 -142.5 -56.5
t-59.5 -136.5z" />
    <glyph glyph-name="ampersand" unicode="&#x26;" horiz-adv-x="1617" 
d="M667 -30q-109 0 -204 28t-164.5 77.5t-119.5 114.5t-74.5 141t-24.5 156q0 142 75 261.5t201 191.5q-88 166 -88 293q0 166 132 291t326 125q172 0 297.5 -104.5t146.5 -274.5l-262 -61q-4 90 -61 145t-134 55q-76 0 -129 -53.5t-53 -133.5q0 -135 151.5 -335t362.5 -371
q68 135 77 317l273 3q-6 -277 -111 -478q181 -113 285 -114l-1 -260q-171 0 -433 163q-188 -177 -468 -177zM650 221q143 0 249 89q-251 205 -414 438q-77 -48 -114.5 -114.5t-37.5 -137.5q0 -115 86.5 -195t230.5 -80z" />
    <glyph glyph-name="quotesingle" unicode="'" horiz-adv-x="456" 
d="M143 1357l-63 555h297l-65 -555h-169z" />
    <glyph glyph-name="parenleft" unicode="(" horiz-adv-x="725" 
d="M533 -330q-115 75 -204 198t-142.5 269t-80 302.5t-26.5 316.5q0 155 24.5 306t74.5 296t135 268.5t197 203.5l113 -143q-123 -141 -193.5 -409.5t-70.5 -522.5q0 -262 78 -535.5t208 -405.5z" />
    <glyph glyph-name="parenright" unicode=")" horiz-adv-x="725" 
d="M192 -330l-112 144q130 131 207.5 405t77.5 536q0 253 -70.5 522t-192.5 410l113 143q112 -80 197 -203.5t135 -268.5t74.5 -296t24.5 -306q0 -160 -27 -316.5t-80 -302.5t-142.5 -269t-204.5 -198z" />
    <glyph glyph-name="asterisk" unicode="*" horiz-adv-x="889" 
d="M345 945l35 272l-196 -168l-104 146l264 125l-264 122l104 147l196 -166l-35 270h198l-35 -270l196 166l105 -147l-264 -128l264 -119l-105 -146l-196 166l35 -270h-198z" />
    <glyph glyph-name="plus" unicode="+" horiz-adv-x="1321" 
d="M523 209v421h-364v252h364v420h276v-420h363v-252h-363v-421h-276z" />
    <glyph glyph-name="comma" unicode="," horiz-adv-x="679" 
d="M247 -382q-48 0 -82 18.5t-34 36.5q25 0 55.5 11t61.5 33.5t52 65.5t21 98q0 45 -19 77q-62 0 -109.5 48.5t-47.5 119.5q0 79 59 136.5t147 57.5q92 0 150.5 -72.5t58.5 -200.5q0 -177 -91 -303t-222 -126z" />
    <glyph glyph-name="hyphen" unicode="-" horiz-adv-x="985" 
d="M80 551v246h826v-246h-826z" />
    <glyph glyph-name="period" unicode="." horiz-adv-x="627" 
d="M314 -48q-81 0 -138 54t-57 130q0 75 58 129.5t137 54.5q78 0 135.5 -54.5t57.5 -129.5q0 -76 -57 -130t-136 -54z" />
    <glyph glyph-name="slash" unicode="/" horiz-adv-x="1007" 
d="M24 -267l699 1998h260l-700 -1998h-259z" />
    <glyph glyph-name="zero" unicode="0" horiz-adv-x="1523" 
d="M764 -25q-204 0 -359.5 104t-240 293t-84.5 434q0 246 84.5 435t240 293t359.5 104q202 0 356.5 -104t238.5 -293t84 -434q0 -246 -84 -435t-238.5 -293t-356.5 -104zM762 259q173 0 279 151.5t106 394.5q0 245 -106.5 397.5t-279.5 152.5t-279.5 -151.5t-106.5 -396.5
t106.5 -396.5t280.5 -151.5z" />
    <glyph glyph-name="one" unicode="1" horiz-adv-x="747" 
d="M293 0v1268l-213 -60v293l422 119h86v-1620h-295z" />
    <glyph glyph-name="two" unicode="2" horiz-adv-x="1414" 
d="M80 0v110q526 395 733 603t207 347q0 124 -87 210t-215 86q-148 0 -250.5 -101t-102.5 -250l-245 75q0 151 78.5 279t216.5 203.5t303 75.5q124 0 235.5 -45.5t191 -122t126 -180.5t46.5 -218q0 -201 -174 -398.5t-515 -398.5h706v-275h-1254z" />
    <glyph glyph-name="three" unicode="3" horiz-adv-x="1296" 
d="M647 -17q-139 0 -262 58.5t-203 157t-102 216.5l252 60q24 -93 111.5 -153t188.5 -60q120 0 203 76t83 177q0 136 -120 217.5t-340 81.5l38 141q146 0 246 63t100 169q0 89 -63.5 146t-156.5 57q-78 0 -142 -50t-83 -128l-253 56q40 167 174.5 278t320.5 111
q206 0 348 -123t142 -304q0 -119 -65.5 -205.5t-165.5 -124.5q151 -46 235 -152t84 -267q0 -135 -77 -249.5t-208.5 -181.5t-284.5 -67z" />
    <glyph glyph-name="four" unicode="4" horiz-adv-x="1432" 
d="M911 0v307h-887l604 1311l301 -1l-489 -1041h471v480h294v-480h179v-269h-179v-307h-294z" />
    <glyph glyph-name="five" unicode="5" horiz-adv-x="1353" 
d="M658 -17q-181 0 -340 92.5t-238 260.5l246 103q48 -81 137 -131t177 -50q136 0 231.5 85.5t95.5 222.5t-91.5 218t-232.5 81q-111 0 -214 -53.5t-141 -135.5l-139 90l120 847h863v-268h-650l-51 -343q56 55 134.5 82.5t161.5 27.5q160 0 285 -72t193 -197.5t68 -282.5
q0 -165 -81.5 -298t-222 -206t-311.5 -73z" />
    <glyph glyph-name="six" unicode="6" horiz-adv-x="1344" 
d="M669 -23q-161 0 -294 65t-214 190t-81 288q0 70 16 130t74 173t145.5 260t255.5 423q43 69 65 106l337 -1l-379 -614q69 38 153 38q134 0 252 -63t192 -181.5t74 -265.5q0 -107 -46 -207.5t-124.5 -175.5t-190 -120t-235.5 -45zM673 251q122 0 210.5 84t88.5 199
q0 122 -87 205.5t-211 83.5q-123 0 -210.5 -84.5t-87.5 -205.5q0 -115 87.5 -198.5t209.5 -83.5z" />
    <glyph glyph-name="seven" unicode="7" horiz-adv-x="1224" 
d="M231 0l555 1338h-738v274h1151v-52l-658 -1560h-310z" />
    <glyph glyph-name="eight" unicode="8" horiz-adv-x="1326" 
d="M663 -23q-167 0 -300.5 66.5t-208 182t-74.5 257.5q0 87 31.5 165.5t81 131.5t108 86t114.5 41q-95 16 -171 105t-76 211q0 172 142 292.5t354 120.5q214 0 356 -120.5t142 -290.5q0 -64 -24 -121.5t-62 -97t-81.5 -65.5t-85.5 -34q55 -9 112.5 -42.5t109 -85.5
t84 -130.5t32.5 -167.5q0 -140 -74 -255t-208 -182t-302 -67zM664 995q94 0 161.5 55t67.5 141q0 89 -65.5 144t-162.5 55t-162 -54.5t-65 -143.5q0 -84 66 -140.5t160 -56.5zM663 246q120 0 207 77.5t87 191.5q0 110 -87 187t-206 77t-206.5 -78t-87.5 -188
q0 -114 86.5 -190.5t206.5 -76.5z" />
    <glyph glyph-name="nine" unicode="9" horiz-adv-x="1344" 
d="M371 -1l365 596q-62 -37 -138 -37q-134 0 -253 68.5t-192 190t-73 264.5q0 110 46.5 212t125 177.5t189 120.5t231.5 45q163 0 300 -77t215 -205t78 -276q0 -49 -4.5 -85t-23.5 -87t-39.5 -91.5t-71 -126.5t-97.5 -162.5t-140 -229t-180 -297.5h-338zM671 790
q123 0 210.5 84t87.5 202q0 116 -88 201t-210 85t-209 -84.5t-87 -201.5q0 -118 87 -202t209 -84z" />
    <glyph glyph-name="colon" unicode=":" horiz-adv-x="609" 
d="M305 763q-77 0 -131.5 51.5t-54.5 124.5t55 125t131 52q75 0 130 -52t55 -125q0 -72 -55 -124t-130 -52zM305 -7q-76 0 -131 52t-55 125q0 72 55 124t131 52q74 0 129.5 -52.5t55.5 -123.5q0 -73 -55 -125t-130 -52z" />
    <glyph glyph-name="semicolon" unicode=";" horiz-adv-x="672" 
d="M331 760q-77 0 -131.5 51.5t-54.5 124.5t55 125t131 52q75 0 129.5 -52t54.5 -125q0 -72 -54.5 -124t-129.5 -52zM255 -362q-45 0 -78 17.5t-33 35.5q24 0 53 11t59.5 33t50.5 63.5t20 94.5q0 47 -18 75q-61 0 -106 46.5t-45 114.5q0 76 56.5 131.5t140.5 55.5
q88 0 144.5 -69.5t56.5 -193.5q0 -171 -87.5 -293t-213.5 -122z" />
    <glyph glyph-name="less" unicode="&#x3c;" horiz-adv-x="1328" 
d="M1160 163l-1001 638v20l1010 638l-9 -293l-581 -355l581 -354v-294z" />
    <glyph glyph-name="equal" unicode="=" horiz-adv-x="1311" 
d="M159 931v235h993v-235h-993zM159 404v234h993v-234h-993z" />
    <glyph glyph-name="greater" unicode="&#x3e;" horiz-adv-x="1328" 
d="M169 163v294l581 354l-581 355l-9 293l1009 -638v-20z" />
    <glyph glyph-name="question" unicode="?" horiz-adv-x="1103" 
d="M354 501q-10 134 59 254.5t250 251.5q38 29 64.5 76.5t26.5 97.5q0 101 -72.5 165.5t-186.5 64.5q-100 0 -187 -54t-122 -134l-106 222q11 20 26.5 40.5t40.5 47.5t60 49.5t78 42.5t101.5 31.5t124.5 11.5q110 0 207.5 -39t163 -101t103.5 -139.5t38 -155.5
q0 -112 -32.5 -193t-105.5 -145q-24 -21 -68 -55.5t-66.5 -53.5t-52.5 -52t-43 -62.5t-20.5 -73.5t-1.5 -96zM496 -48q-77 0 -131.5 52t-54.5 124t54.5 122.5t129.5 50.5q76 0 131.5 -52.5t55.5 -124.5q0 -71 -54.5 -121.5t-130.5 -50.5z" />
    <glyph glyph-name="at" unicode="@" horiz-adv-x="2361" 
d="M1057 -428q-183 0 -339.5 45.5t-273 127.5t-199 194.5t-124 249.5t-41.5 290q0 164 45 319t126 285t196 239.5t251.5 185.5t297.5 118t330 42q219 0 400.5 -69.5t302 -189.5t186.5 -280t66 -342q0 -149 -47 -291.5t-128 -252.5t-199.5 -177t-252.5 -67q-155 0 -226.5 101
t-66.5 271q-19 -86 -114.5 -143t-205.5 -57q-145 0 -235 102t-90 263q0 132 54 248t153.5 188t220.5 72q109 0 187 -56t78 -132l48 179h197l-74 -607q-4 -36 -4 -57q0 -75 30 -120.5t94 -45.5q67 0 123.5 50t91 130t53.5 173t19 185q0 156 -53 281.5t-147.5 208t-224 126
t-282.5 43.5q-186 -1 -355.5 -71.5t-293 -189t-197 -284t-73.5 -347.5q0 -147 52.5 -273.5t146 -217t228.5 -142t294 -51.5q128 0 235 43l76 -235q-155 -62 -336 -62zM1138 375q101 0 169.5 80t68.5 191q0 86 -50 139.5t-134 53.5q-102 0 -173.5 -80.5t-71.5 -186.5
q0 -85 51.5 -141t139.5 -56z" />
    <glyph glyph-name="A" unicode="A" horiz-adv-x="1664" 
d="M1217 228h-770l-100 -228h-323l741 1630h132l743 -1630h-324zM1120 451l-288 656l-289 -656h577z" />
    <glyph glyph-name="B" unicode="B" horiz-adv-x="1383" 
d="M159 0v1612h494q206 0 347 -120.5t141 -285.5q0 -120 -67.5 -209t-135.5 -89q99 0 190 -53t149.5 -150t58.5 -212q0 -97 -39.5 -186.5t-107.5 -157.5t-167.5 -108.5t-213.5 -40.5h-649zM445 962l201 1q111 -1 177 53t66 140q0 85 -70 140t-172 55h-202v-389zM445 271h321
q117 0 201.5 71t84.5 183q0 99 -80.5 163t-208.5 63h-318v-480z" />
    <glyph glyph-name="C" unicode="C" horiz-adv-x="1566" 
d="M936 -28q-167 0 -323 62.5t-273.5 170.5t-188.5 265t-71 335q0 173 67.5 328t182.5 266.5t274.5 177t337.5 65.5q153 -2 307 -67.5t269 -175.5l-170 -220q-84 81 -192 129t-218 48q-146 0 -274 -71.5t-206.5 -199.5t-78.5 -281q0 -115 46.5 -218t123 -175t178 -114.5
t208.5 -42.5q222 0 414 178l169 -225q-251 -235 -582 -235z" />
    <glyph glyph-name="D" unicode="D" horiz-adv-x="1584" 
d="M650 1612q394 1 624 -216.5t230 -591.5q0 -371 -230 -587.5t-624 -216.5h-491v1612h491zM646 281q258 0 410 141.5t152 382.5q0 242 -153 385.5t-412 143.5h-195v-1053h198z" />
    <glyph glyph-name="E" unicode="E" horiz-adv-x="1271" 
d="M452 1335v-386h598v-253h-598v-417h707v-279h-1000v1612h1000v-277h-707z" />
    <glyph glyph-name="F" unicode="F" horiz-adv-x="1207" 
d="M452 1336v-422h598v-253h-598v-663h-293v1618h1000v-280h-707z" />
    <glyph glyph-name="G" unicode="G" horiz-adv-x="1831" 
d="M80 804q0 169 67.5 323.5t182 267t275 179.5t337.5 67q150 -1 313 -63.5t263 -158.5l-164 -227q-78 76 -192.5 123.5t-219.5 47.5q-149 0 -278 -74t-206 -203t-77 -281q0 -110 43 -211.5t118 -178t184.5 -122t234.5 -45.5q99 0 181.5 28.5t134 73t87 100.5t50 109
t12.5 101h-490v225h804q11 -70 11 -136q0 -169 -63.5 -315.5t-172 -247t-255.5 -158t-311 -57.5q-180 0 -341.5 66.5t-277 178.5t-183 266t-67.5 322z" />
    <glyph glyph-name="H" unicode="H" horiz-adv-x="1580" 
d="M1421 1612v-1612h-295v668h-671v-668h-296v1612h296v-666h671v666h295z" />
    <glyph glyph-name="I" unicode="I" horiz-adv-x="614" 
d="M159 1612h296v-1612h-296v1612z" />
    <glyph glyph-name="J" unicode="J" horiz-adv-x="1253" 
d="M426 -24q-208 0 -378 111l150 247q97 -77 230 -77h7q157 0 268 109t111 258l-6 988l296 -1l5 -989q0 -133 -53 -253t-143 -206t-214 -136.5t-262 -50.5h-11z" />
    <glyph glyph-name="K" unicode="K" horiz-adv-x="1372" 
d="M159 0v1612h295v-677l500 677h342l-573 -790l633 -822h-361l-541 690v-690h-295z" />
    <glyph glyph-name="L" unicode="L" horiz-adv-x="1223" 
d="M1175 280v-280h-1016v1612h296v-1332h720z" />
    <glyph glyph-name="M" unicode="M" horiz-adv-x="1987" 
d="M1828 1631v-1631h-296v920l-537 -893h-2l-538 893v-920h-296v1631h112l723 -1139l722 1139h112z" />
    <glyph glyph-name="N" unicode="N" horiz-adv-x="1673" 
d="M1513 1615v-1633h-84l-974 1045v-1028h-296v1631h85l973 -1044v1029h296z" />
    <glyph glyph-name="O" unicode="O" horiz-adv-x="1879" 
d="M938 -31q-237 0 -434 110.5t-310.5 302.5t-113.5 422q0 174 67 330t181.5 268t274 177.5t336.5 65.5q178 0 337.5 -65.5t274.5 -177.5t182 -268t67 -330q0 -230 -114 -422t-312 -302.5t-436 -110.5zM939 254q154 0 283.5 73.5t204 200.5t74.5 278q0 153 -74.5 280.5
t-203.5 201.5t-284 74q-154 0 -283 -74t-203.5 -201.5t-74.5 -280.5q0 -151 74.5 -278t203.5 -200.5t283 -73.5z" />
    <glyph glyph-name="P" unicode="P" horiz-adv-x="1356" 
d="M159 1612h557q160 0 296 -72t216 -197t80 -272q0 -143 -79 -265t-215.5 -194t-297.5 -72h-261v-540h-296v1612zM716 814q129 -1 217 73.5t88 182.5q0 112 -88 189.5t-217 77.5h-261v-522z" />
    <glyph glyph-name="Q" unicode="Q" horiz-adv-x="1885" 
d="M80 804q0 174 67 330t181.5 268t274 177.5t336.5 65.5q178 0 337.5 -65.5t274.5 -177.5t182 -268t67 -330q0 -211 -96.5 -389.5t-264.5 -294.5q166 -67 360 -71l-98 -267q-309 17 -538 229q-109 -42 -225 -42q-237 0 -434 110.5t-310.5 302.5t-113.5 422zM378 806
q0 -151 74.5 -278t203.5 -200.5t283 -73.5q148 0 276 69.5t207 197.5t79 285q0 153 -74.5 280.5t-203.5 201.5t-284 74q-154 0 -283 -74t-203.5 -201.5t-74.5 -280.5z" />
    <glyph glyph-name="R" unicode="R" horiz-adv-x="1438" 
d="M160 0l-1 1612h546q120 0 227 -41t183 -111t120 -165.5t44 -200.5q0 -151 -85 -269.5t-222 -168.5l438 -656h-338l-356 642h-260v-642h-296zM455 830h247q114 -1 196 71.5t82 179.5q0 111 -82 186.5t-196 75.5h-247v-513z" />
    <glyph glyph-name="S" unicode="S" horiz-adv-x="1282" 
d="M631 -20q-196 0 -354.5 86t-212.5 215l183 175q52 -90 158 -146.5t224 -56.5q119 0 205.5 55.5t86.5 142.5q0 29 -13 56t-30 48t-51.5 44.5t-60.5 38.5t-74.5 36t-75.5 32t-81 32q-86 34 -151.5 70t-126.5 88.5t-94 124.5t-33 159q0 127 73 232t196.5 163.5t269.5 58.5
q178 0 307 -81t175 -201l-178 -162q-37 77 -124.5 124t-178.5 47q-102 0 -173.5 -55t-71.5 -134q0 -20 4.5 -37.5t17.5 -33.5t24 -28t35 -26t39.5 -23t50 -23t52.5 -21t60 -22.5t62 -23.5q99 -39 173.5 -81t140 -99t100 -131.5t34.5 -164.5q0 -106 -48.5 -197t-129.5 -152
t-187 -95t-222 -34z" />
    <glyph glyph-name="T" unicode="T" horiz-adv-x="1264" 
d="M1216 1334h-435v-1334h-296v1334h-437v278h1168v-278z" />
    <glyph glyph-name="U" unicode="U" horiz-adv-x="1555" 
d="M777 -35q-177 0 -322 82t-228.5 230t-83.5 332v1003h298v-1002q0 -157 96.5 -258.5t239.5 -101.5q142 0 239.5 102t97.5 258v1002h298v-1003q0 -138 -49 -258.5t-133.5 -204.5t-202 -132.5t-250.5 -48.5z" />
    <glyph glyph-name="V" unicode="V" horiz-adv-x="1641" 
d="M1618 1612l-735 -1629h-128l-731 1629h319l475 -1098l477 1098h323z" />
    <glyph glyph-name="W" unicode="W" horiz-adv-x="2042" 
d="M24 1612h319l298 -1001l367 917h27l366 -916l298 1000h319l-517 -1620h-83l-398 952l-395 -952h-84z" />
    <glyph glyph-name="X" unicode="X" horiz-adv-x="1474" 
d="M562 837l-504 775h340l339 -533l338 533h340l-505 -774l540 -838h-339l-374 587l-374 -587h-339z" />
    <glyph glyph-name="Y" unicode="Y" horiz-adv-x="1428" 
d="M567 690l-543 922h334l356 -609l356 609h334l-544 -922v-690h-293v690z" />
    <glyph glyph-name="Z" unicode="Z" horiz-adv-x="1376" 
d="M811 1334h-715v278h1185l-716 -1332h716v-280h-1185z" />
    <glyph glyph-name="bracketleft" unicode="[" horiz-adv-x="753" 
d="M159 -242v1978h514v-211h-259v-1555h259v-212h-514z" />
    <glyph glyph-name="backslash" unicode="\" horiz-adv-x="1007" 
d="M724 -267l-700 1998h261l698 -1998h-259z" />
    <glyph glyph-name="bracketright" unicode="]" horiz-adv-x="753" 
d="M80 -242v212h259v1555h-259v211h514v-1978h-514z" />
    <glyph glyph-name="asciicircum" unicode="^" horiz-adv-x="996" 
d="M24 1091l451 584h45l453 -584h-244l-231 317l-232 -317h-242z" />
    <glyph glyph-name="underscore" unicode="_" horiz-adv-x="1264" 
d="M0 -97v195h1264v-195h-1264z" />
    <glyph glyph-name="grave" unicode="`" horiz-adv-x="644" 
d="M238 1333l-238 333h240l192 -333h-194z" />
    <glyph glyph-name="a" unicode="a" horiz-adv-x="1506" 
d="M73 600q0 136 47 255t127 203t190.5 132t233.5 48q129 0 237.5 -53t178.5 -149l12 164h261v-1200h-261l-12 162q-68 -96 -176.5 -148t-239.5 -52q-125 0 -236 49.5t-190.5 134t-125.5 203t-46 251.5zM353 601q0 -163 110 -272.5t267 -109.5q71 0 132.5 22t110.5 66.5
t77.5 120t29.5 174.5q-1 96 -30.5 170.5t-79 119t-110.5 67t-130 22.5q-154 0 -265.5 -108t-111.5 -272z" />
    <glyph glyph-name="b" unicode="b" horiz-adv-x="1506" 
d="M146 0v1650h280v-607q69 92 176 143t233 51q123 0 233.5 -48t190.5 -132t127 -203t47 -255q0 -133 -46 -251t-125.5 -202.5t-190.5 -134t-236 -49.5q-131 0 -239 52t-177 148l-13 -162h-260zM426 591q0 -91 34.5 -165.5t88.5 -118t113 -66.5t115 -23q156 0 266 110
t110 273q0 164 -111 271.5t-266 107.5q-67 0 -126.5 -21.5t-111 -65.5t-82 -122t-30.5 -180z" />
    <glyph glyph-name="c" unicode="c" horiz-adv-x="1204" 
d="M727 -40q-126 0 -243.5 46t-209 127.5t-146.5 203.5t-55 263q0 113 35.5 215t98 178.5t145 132.5t178.5 85t196 29q114 0 224.5 -37t193.5 -103l-131 -203q-46 43 -121 70.5t-151 27.5q-159 0 -273.5 -112t-114.5 -283q0 -172 114.5 -283t273.5 -111q78 0 153.5 28
t121.5 71l144 -193q-86 -72 -200 -112t-233 -40z" />
    <glyph glyph-name="d" unicode="d" horiz-adv-x="1503" 
d="M107 599q0 136 47 255t127 203t190.5 132t233.5 48q126 0 233 -51t176 -143v607h278v-1650h-258l-13 161q-68 -96 -176.5 -147.5t-239.5 -51.5q-125 0 -236 49.5t-190.5 134t-125.5 202.5t-46 251zM387 601q0 -163 110 -273t267 -110q55 0 114 23t113 66.5t88.5 118
t34.5 165.5q0 102 -30.5 180t-82 122t-111 65.5t-126.5 21.5q-154 0 -265.5 -107.5t-111.5 -271.5z" />
    <glyph glyph-name="e" unicode="e" horiz-adv-x="1355" 
d="M73 600q0 136 49.5 255t133.5 202.5t199.5 131.5t243.5 48q171 0 306 -82.5t206 -216t71 -289.5q0 -80 -22 -148h-906q26 -135 124.5 -220t228.5 -85q74 0 150.5 30t137.5 89l206 -131q-89 -114 -226 -167.5t-272 -53.5q-174 0 -318 82t-228 228.5t-84 326.5zM345 681
h669q-11 139 -94.5 231.5t-222.5 92.5t-235 -91.5t-117 -232.5z" />
    <glyph glyph-name="f" unicode="f" horiz-adv-x="846" 
d="M665 1451q-164 0 -164 -197v-54h301v-250h-301v-950h-280v950h-177v250h177v54q0 195 88 313.5t263 118.5q125 0 230 -40v-223q-72 28 -137 28z" />
    <glyph glyph-name="g" unicode="g" horiz-adv-x="1506" 
d="M73 600q0 136 47 255t127 203t190.5 132t233.5 48q129 0 237.5 -53t178.5 -149l13 164h260v-1085q-1 -128 -48.5 -240t-134 -195t-216.5 -131t-287 -48q-154 0 -294 51.5t-231 144.5l156 174q46 -55 146.5 -89t210.5 -34q192 0 302.5 104t115.5 302
q-68 -93 -174.5 -142.5t-234.5 -49.5q-125 0 -236 49.5t-190.5 134t-125.5 203t-46 251.5zM353 601q0 -163 110 -272.5t267 -109.5q146 0 248 101.5t102 281.5q0 184 -93.5 281.5t-256.5 97.5q-154 0 -265.5 -108t-111.5 -272z" />
    <glyph glyph-name="h" unicode="h" horiz-adv-x="1397" 
d="M805 1234q75 0 137.5 -16.5t121 -58t99 -106.5t64.5 -168t24 -236v-649h-280v649q0 332 -264 332q-131 0 -206 -85t-75 -247v-649h-280v1650h280v-591q131 175 379 175z" />
    <glyph glyph-name="i" unicode="i" horiz-adv-x="622" 
d="M311 1357q-70 0 -117.5 44.5t-47.5 107.5t47.5 107.5t117.5 44.5t117.5 -44.5t47.5 -107.5t-47.5 -107.5t-117.5 -44.5zM171 1200h280v-1200h-280v1200z" />
    <glyph glyph-name="j" unicode="j" horiz-adv-x="612" 
d="M301 1357q-70 0 -117.5 44.5t-47.5 107.5t47.5 107.5t117.5 44.5t117.5 -44.5t47.5 -107.5t-47.5 -107.5t-117.5 -44.5zM81 -482q-117 0 -210 36v224q63 -25 126 -25q164 0 164 193v1254h280v-1254q0 -95 -20 -171t-62 -134.5t-112.5 -90.5t-165.5 -32z" />
    <glyph glyph-name="k" unicode="k" horiz-adv-x="1301" 
d="M146 0v1650h280v-997l447 547h315l-472 -583l541 -617h-332l-391 431l-108 -142v-289h-280z" />
    <glyph glyph-name="l" unicode="l" horiz-adv-x="572" 
d="M146 1650h280v-1650h-280v1650z" />
    <glyph glyph-name="m" unicode="m" horiz-adv-x="2122" 
d="M146 0v1200h260l10 -140q126 178 363 178q271 0 366 -245q60 119 165.5 182t243.5 63q422 0 422 -599v-639h-280v639q0 342 -237 342q-119 0 -188.5 -82.5t-69.5 -243.5v-655h-280v655q0 326 -237 326q-124 0 -191 -87.5t-67 -254.5v-639h-280z" />
    <glyph glyph-name="n" unicode="n" horiz-adv-x="1397" 
d="M146 0v1200h260l12 -150q131 184 387 184q75 0 137.5 -16.5t121 -58t99 -106.5t64.5 -168t24 -236v-649h-280v649q0 332 -264 332q-131 0 -206 -85t-75 -247v-649h-280z" />
    <glyph glyph-name="o" unicode="o" horiz-adv-x="1461" 
d="M731 -38q-181 0 -332 85t-238.5 231.5t-87.5 321.5t87.5 321.5t238.5 231.5t332 85q180 0 331 -85t238.5 -231.5t87.5 -321.5t-87.5 -321.5t-238.5 -231.5t-331 -85zM731 222q157 0 267 110.5t110 267.5t-110 267.5t-267 110.5t-267.5 -110.5t-110.5 -267.5t110.5 -267.5
t267.5 -110.5z" />
    <glyph glyph-name="p" unicode="p" horiz-adv-x="1503" 
d="M146 -450v1650h257l13 -165q69 96 178 149t238 53q123 0 233 -48t190.5 -132t127.5 -203t47 -255q0 -133 -46 -251t-125.5 -202.5t-190.5 -134t-236 -49.5q-128 0 -235 50t-174 142v-604h-277zM423 601q0 -180 102 -281.5t249 -101.5q156 0 266 110t110 273
q0 164 -111 271.5t-266 107.5q-163 0 -256.5 -97.5t-93.5 -281.5z" />
    <glyph glyph-name="q" unicode="q" horiz-adv-x="1503" 
d="M1357 1200v-1650h-277v604q-68 -93 -174.5 -142.5t-234.5 -49.5q-125 0 -236 49.5t-190.5 134t-125.5 202.5t-46 251q0 136 47 255t127 203t190.5 132t233.5 48q129 0 237.5 -53t178.5 -149l13 165h257zM730 218q146 0 248 101.5t102 281.5q0 184 -93.5 281.5
t-256.5 97.5q-154 0 -265.5 -107.5t-111.5 -271.5q0 -163 110 -273t267 -110z" />
    <glyph glyph-name="r" unicode="r" horiz-adv-x="934" 
d="M146 0v1200h260l15 -200q81 129 204 188t259 60l-43 -282q-26 4 -49 4q-56 -1 -106 -14t-98.5 -46t-83.5 -83.5t-56.5 -131t-21.5 -183.5v-512h-280z" />
    <glyph glyph-name="s" unicode="s" horiz-adv-x="1103" 
d="M533 -40q-155 0 -282 66t-178 167l130 170q48 -73 146.5 -120.5t204.5 -47.5q78 0 136.5 35.5t58.5 98.5q0 40 -41 75t-80 52t-126 49q-8 3 -12.5 5t-11.5 4.5t-13 4.5q-345 118 -345 354q0 163 130.5 264.5t315.5 101.5q134 0 249 -57.5t158 -146.5l-148 -155
q-43 60 -115.5 93t-151.5 33q-76 0 -124 -32.5t-48 -83.5q0 -21 7.5 -38t27.5 -33.5t38 -28t58 -28t67 -26.5t84 -30q81 -30 139.5 -60t112.5 -72.5t82 -99t28 -126.5q0 -116 -67 -205.5t-179.5 -136t-250.5 -46.5z" />
    <glyph glyph-name="t" unicode="t" horiz-adv-x="839" 
d="M564 -20q-75 0 -134.5 20.5t-100.5 56t-68 87t-39.5 111t-12.5 129.5v565h-165v228h41q151 0 151 153v108h253v-238h303v-251h-303v-553q0 -90 43.5 -139t121.5 -49q53 0 139 28v-219q-109 -37 -229 -37z" />
    <glyph glyph-name="u" unicode="u" horiz-adv-x="1361" 
d="M678 -15q-112 0 -210 40t-169 111t-111.5 174t-40.5 223l-1 667h280l1 -666q0 -137 71.5 -217.5t178.5 -80.5q111 0 184.5 80t73.5 218l-1 666h280l1 -667q0 -120 -41 -223t-112.5 -174t-170.5 -111t-213 -40z" />
    <glyph glyph-name="v" unicode="v" horiz-adv-x="1319" 
d="M1275 1200l-553 -1234h-127l-551 1234h309l304 -746l303 746h315z" />
    <glyph glyph-name="w" unicode="w" horiz-adv-x="1785" 
d="M44 1200h302l227 -753l310 753h19l310 -752l226 752h303l-426 -1228h-116l-310 739l-304 -739h-115z" />
    <glyph glyph-name="x" unicode="x" horiz-adv-x="1285" 
d="M476 630l-400 570h324l243 -369l242 369h325l-401 -569l432 -631h-322l-276 415l-273 -415h-326z" />
    <glyph glyph-name="y" unicode="y" horiz-adv-x="1374" 
d="M1330 1200l-734 -1650h-291l230 523l-491 1127h309l318 -822l358 822h301z" />
    <glyph glyph-name="z" unicode="z" horiz-adv-x="1143" 
d="M637 949h-533v251h956l-564 -949h574v-251h-997z" />
    <glyph glyph-name="braceleft" unicode="{" horiz-adv-x="921" 
d="M593 -289q-117 0 -200 90t-83 217v291q0 145 -67 247t-163 102v167q96 0 163 102t67 247v291q0 127 83 216.5t200 89.5h248v-211l-170 -4q-44 -1 -75 -62t-31 -147v-205q0 -165 -66 -282.5t-158 -117.5q92 0 158 -117.5t66 -283.5v-205q0 -88 31 -150.5t75 -62.5h170
v-212h-248z" />
    <glyph glyph-name="bar" unicode="|" horiz-adv-x="675" 
d="M248 -450v2300h179v-2300h-179z" />
    <glyph glyph-name="braceright" unicode="}" horiz-adv-x="921" 
d="M80 -289v212h169q45 0 76 62.5t31 150.5v205q0 166 66 283.5t158 117.5q-92 0 -158 117.5t-66 282.5v205q0 86 -31 147t-75 62l-170 4v211h247q118 0 201 -89.5t83 -216.5v-291q0 -145 66.5 -247t163.5 -102v-167q-97 0 -163.5 -102t-66.5 -247v-291q0 -127 -83 -217
t-201 -90h-247z" />
    <glyph glyph-name="asciitilde" unicode="~" horiz-adv-x="1546" 
d="M998 590q-66 0 -123.5 21t-98 51t-76.5 59.5t-76 50.5t-79 21q-119 0 -170 -189l-216 69q17 77 47.5 138t68.5 100t84 64.5t91 36t93 10.5q66 0 123.5 -21t98.5 -51t77.5 -59.5t76 -50.5t78.5 -21q119 0 170 189l216 -70q-21 -97 -63.5 -168t-96.5 -108.5t-109.5 -54.5
t-115.5 -17z" />
    <glyph glyph-name="exclamdown" unicode="&#xa1;" horiz-adv-x="698" 
d="M351 861q-77 0 -132.5 52.5t-55.5 124.5t55 122t131 50q77 0 131 -51.5t54 -124.5q0 -71 -54.5 -122t-128.5 -51zM180 -450l46 1110h248l47 -1110h-341z" />
    <glyph glyph-name="cent" unicode="&#xa2;" horiz-adv-x="1233" 
d="M591 -103v226q-105 21 -198.5 74t-165 132t-113 187.5t-41.5 230.5t41.5 230.5t113 187.5t165 132t198.5 74v217l234 1v-211q188 -26 319 -131l-131 -203q-54 51 -125.5 76t-143.5 22.5t-143 -31t-126 -77t-88.5 -123.5t-33.5 -164q0 -90 34 -165.5t88.5 -124t125.5 -76
t144 -29t145 23.5t126 76l144 -193q-136 -117 -335 -143v-219h-234z" />
    <glyph glyph-name="currency" unicode="&#xa4;" horiz-adv-x="1271" 
d="M1073 277l-203 196q-106 -68 -234 -68q-131 0 -239 73l-207 -194l-110 107l206 194q-69 97 -69 218q0 128 74 230l-201 197l113 107l201 -198q105 69 234 69q127 0 235 -69l205 192l113 -107l-204 -193q73 -102 73 -225q0 -125 -76 -228l202 -195zM638 622q79 0 135.5 54
t56.5 131q0 79 -60 131.5t-138 52.5t-132.5 -54t-54.5 -131t56.5 -130.5t136.5 -53.5z" />
    <glyph glyph-name="yen" unicode="&#xa5;" horiz-adv-x="1540" 
d="M623 0v329h-501v202h501v137h-501v202h399l-441 742h333l357 -609l356 609h334l-443 -742h413v-202h-514v-137h514v-202h-514v-329h-293z" />
    <glyph glyph-name="brokenbar" unicode="&#xa6;" horiz-adv-x="675" 
d="M248 1330h179v-1260h-179v1260z" />
    <glyph glyph-name="dieresis" unicode="&#xa8;" horiz-adv-x="652" 
d="M87 1376q-48 0 -82.5 32t-34.5 78q0 45 34.5 78.5t82.5 33.5q47 0 81.5 -33.5t34.5 -78.5q0 -46 -34.5 -78t-81.5 -32zM555 1376q-48 0 -82 32t-34 78q0 45 34.5 78.5t81.5 33.5q48 0 82.5 -33.5t34.5 -78.5q0 -46 -34.5 -78t-82.5 -32z" />
    <glyph glyph-name="copyright" unicode="&#xa9;" horiz-adv-x="1842" 
d="M899 -89q-168 0 -320 62.5t-261.5 169t-173.5 254t-64 311.5q0 163 64 310t173 253.5t261 169t321 62.5q170 0 322.5 -63.5t261 -170.5t172.5 -254t64 -308q0 -219 -110.5 -402.5t-299 -288.5t-410.5 -105zM899 51q137 0 262 52.5t215.5 140.5t144.5 209t54 254
q0 177 -91 329t-247 240.5t-338 88.5t-338 -89t-246.5 -240.5t-90.5 -328.5q0 -132 54 -253.5t145 -209.5t215.5 -140.5t260.5 -52.5zM913 224q-135 0 -250.5 64t-184.5 177t-69 249q0 134 68.5 247t184.5 177.5t251 64.5q176 0 316 -106l-119 -173q-80 75 -197 75
q-120 0 -205.5 -82.5t-85.5 -202.5q0 -121 86 -203.5t205 -82.5q116 0 199 76l128 -164q-139 -116 -327 -116z" />
    <glyph glyph-name="guillemotleft" unicode="&#xab;" horiz-adv-x="1227" 
d="M467 104l-387 519l387 520l187 -40l-308 -480l308 -479zM961 104l-388 519l388 520l187 -40l-309 -480l309 -479z" />
    <glyph glyph-name="logicalnot" unicode="&#xac;" horiz-adv-x="1501" 
d="M1064 431v328h-905v264h1183v-592h-278z" />
    <glyph glyph-name="registered" unicode="&#xae;" horiz-adv-x="1159" 
d="M580 666q-136 0 -249.5 63t-179 172t-65.5 239q0 197 143.5 334.5t350.5 137.5q136 0 249.5 -63.5t178.5 -172t65 -236.5q0 -199 -144.5 -336.5t-348.5 -137.5zM580 748q167 0 287 115.5t120 275.5q0 161 -120 276.5t-287 115.5t-287.5 -115.5t-120.5 -276.5
q0 -160 120.5 -275.5t287.5 -115.5zM410 892v512h177q77 0 129.5 -48.5t52.5 -117.5q0 -49 -29 -88t-75 -55l151 -203h-100l-131 182l-90 24v-206h-85zM495 1148h92q40 0 68.5 25t28.5 61q0 39 -28.5 65.5t-68.5 26.5h-92v-178z" />
    <glyph glyph-name="macron" unicode="&#xaf;" horiz-adv-x="626" 
d="M13 1399v146h613v-146h-613z" />
    <glyph glyph-name="degree" unicode="&#xb0;" horiz-adv-x="711" 
d="M356 1112q-115 0 -199 80.5t-84 189.5q0 110 83.5 190.5t199.5 80.5t199 -80t83 -191t-83.5 -190.5t-198.5 -79.5zM356 1240q61 0 105 42t44 101q0 58 -44 100.5t-105 42.5q-60 0 -104.5 -42.5t-44.5 -101.5q0 -58 43.5 -100t105.5 -42z" />
    <glyph glyph-name="plusminus" unicode="&#xb1;" horiz-adv-x="1250" 
d="M487 538v349h-328v228h328v318h276v-318h327v-228h-327v-349h-276zM159 200v211h931v-211h-931z" />
    <glyph glyph-name="acute" unicode="&#xb4;" horiz-adv-x="713" 
d="M-9 1332l192 333h240l-238 -333h-194z" />
    <glyph glyph-name="periodcentered" unicode="&#xb7;" horiz-adv-x="627" 
d="M314 470q-81 0 -138 54t-57 130q0 75 58 129.5t137 54.5q78 0 135.5 -54.5t57.5 -129.5q0 -76 -57 -130t-136 -54z" />
    <glyph glyph-name="cedilla" unicode="&#xb8;" horiz-adv-x="600" 
d="M136 -528l-70 167q284 8 284 101q0 53 -82 53q-26 0 -62 -6l-37 46l153 195h140l-108 -136q24 2 34 2q70 0 113.5 -42t43.5 -106q0 -108 -117.5 -189t-291.5 -85z" />
    <glyph glyph-name="guillemotright" unicode="&#xbb;" horiz-adv-x="1227" 
d="M267 104l-187 40l308 479l-308 480l187 40l387 -520zM761 104l-188 40l309 479l-309 480l188 40l387 -520z" />
    <glyph glyph-name="questiondown" unicode="&#xbf;" horiz-adv-x="1111" 
d="M609 890q-76 0 -131.5 52.5t-55.5 124.5q0 71 54.5 121.5t130.5 50.5q78 0 132 -52t54 -124t-54.5 -122.5t-129.5 -50.5zM592 -476q-110 0 -207.5 39t-163 101t-103.5 139.5t-38 154.5q0 113 32.5 193t105.5 145q22 19 68.5 55t71.5 58t55 56.5t44.5 73.5t15.5 86
q1 45 -3 64l279 1q10 -134 -59 -254.5t-250 -251.5q-38 -28 -64.5 -75.5t-26.5 -98.5q0 -101 72.5 -165.5t186.5 -64.5q100 0 187 54t122 134l106 -221q-14 -25 -33 -50t-56 -58t-82 -57t-113.5 -41t-146.5 -17z" />
    <glyph glyph-name="multiply" unicode="&#xd7;" horiz-adv-x="1424" 
d="M332 242l-172 173l377 373l-378 372l172 174l381 -376l381 377l171 -174l-376 -372l377 -372l-171 -174l-382 376z" />
    <glyph glyph-name="divide" unicode="&#xf7;" horiz-adv-x="1662" 
d="M814 1090q-80 -1 -137.5 55t-57.5 133q0 76 57.5 130.5t136.5 54.5q80 0 139 -55.5t59 -130.5t-58.5 -130.5t-138.5 -56.5zM159 653v234h1344v-234h-1344zM814 63q-79 0 -137 55.5t-58 132.5t58.5 131.5t136.5 54.5q79 0 138 -56t59 -131t-58 -131t-139 -56z" />
    <glyph glyph-name="circumflex" unicode="&#x2c6;" horiz-adv-x="644" 
d="M-37 1348l311 292h168l313 -292h-219l-178 169l-178 -169h-217z" />
    <glyph glyph-name="caron" unicode="&#x2c7;" horiz-adv-x="644" 
d="M280 1348l-311 292h218l177 -169l179 169h219l-314 -292h-168z" />
    <glyph glyph-name="breve" unicode="&#x2d8;" horiz-adv-x="645" 
d="M325 1344q-128 0 -216 84.5t-88 207.5h140q0 -71 47.5 -119.5t116.5 -48.5t117 49t48 119h140q0 -123 -88 -207.5t-217 -84.5z" />
    <glyph glyph-name="dotaccent" unicode="&#x2d9;" horiz-adv-x="637" 
d="M319 1377q-55 0 -93.5 36.5t-38.5 87.5t39 89.5t93 38.5t93 -38t39 -89q0 -52 -39 -88.5t-93 -36.5z" />
    <glyph glyph-name="ring" unicode="&#x2da;" horiz-adv-x="629" 
d="M235 1303q-93 0 -159.5 64.5t-66.5 155.5t66.5 155.5t159.5 64.5q92 0 158 -64.5t66 -155.5q0 -90 -66 -155t-158 -65zM235 1414q46 0 78 32t32 76q0 45 -32 77t-78 32t-78.5 -32t-32.5 -77q0 -44 32.5 -76t78.5 -32z" />
    <glyph glyph-name="ogonek" unicode="&#x2db;" horiz-adv-x="639" 
d="M360 -528q-135 0 -210 58t-75 162q0 115 89 206t214 126l137 -24q-116 -74 -173 -130.5t-57 -115.5q0 -36 24 -63.5t78 -27.5q41 0 108 16l33 -188q-89 -19 -168 -19z" />
    <glyph glyph-name="tilde" unicode="&#x2dc;" horiz-adv-x="747" 
d="M568 1355q-45 0 -83.5 14.5t-66 35t-52 40.5t-51.5 34.5t-54 14.5q-84 0 -118 -129l-140 45q27 122 98 177t159 55q44 0 83 -14.5t66.5 -35t52.5 -40.5t52 -34.5t54 -14.5q82 0 117 129l140 -45q-28 -124 -99 -178t-158 -54z" />
    <glyph glyph-name="hungarumlaut" unicode="&#x2dd;" horiz-adv-x="809" 
d="M-11 1330l153 333h213l-192 -333h-174zM326 1330l211 333h237l-265 -333h-183z" />
    <glyph glyph-name="gravecomb" unicode="&#x300;" 
d="M-194 1333l-238 333h240l192 -333h-194z" />
    <glyph glyph-name="acutecomb" unicode="&#x301;" 
d="M-432 1332l192 333h240l-238 -333h-194z" />
    <glyph glyph-name="tildecomb" unicode="&#x303;" 
d="M-260 1355q-44 0 -83 14.5t-66 35t-52 40.5t-52 34.5t-54 14.5q-82 0 -118 -129l-140 45q27 122 98 177t159 55q44 0 83 -14.5t66.5 -35t52.5 -40.5t52 -34.5t54 -14.5q83 0 117 129l140 -45q-14 -65 -42 -112t-64.5 -72t-73.5 -36.5t-77 -11.5z" />
    <glyph glyph-name="uni060C" unicode="&#x60c;" horiz-adv-x="679" 
d="M432 703q48 0 82 -18.5t34 -36.5q-25 0 -55 -11.5t-61 -34t-52 -65t-21 -97.5q0 -49 19 -77q62 0 109 -48.5t47 -119.5q0 -79 -59 -137t-146 -58q-92 0 -150.5 72.5t-58.5 200.5q0 177 90.5 303.5t221.5 126.5z" />
    <glyph glyph-name="uni061B" unicode="&#x61b;" horiz-adv-x="675" 
d="M422 1475q46 0 79 -17.5t33 -35.5q-24 0 -53 -11t-59.5 -33t-51 -63.5t-20.5 -94.5q0 -44 19 -76q61 0 105.5 -46.5t44.5 -114.5q0 -76 -56 -131t-141 -55q-88 0 -144 69.5t-56 193.5q0 171 87 293t213 122zM347 353q76 0 130.5 -51.5t54.5 -124.5t-54.5 -125t-130.5 -52
t-130.5 52t-54.5 125q0 72 54.5 124t130.5 52z" />
    <glyph glyph-name="uni061F" unicode="&#x61f;" horiz-adv-x="1103" 
d="M80 1233q0 78 38 155.5t103.5 139.5t163 101t207.5 39q66 0 124.5 -11.5t101.5 -31.5t78 -42.5t60 -49.5t40.5 -47.5t26.5 -40.5l-106 -222q-35 80 -122 134t-187 54q-114 0 -186.5 -64.5t-72.5 -165.5q0 -50 26.5 -97.5t64.5 -76.5q76 -56 127 -102t95.5 -101.5
t66 -116.5t21.5 -130l-1 -56l-279 1q4 19 3 64q-1 47 -15.5 86t-44.5 73.5t-55 57t-71 57.5t-69 55q-73 64 -105.5 145t-32.5 193zM422 124q0 72 55.5 124.5t131.5 52.5q75 0 129.5 -50.5t54.5 -122.5t-54.5 -124t-131.5 -52q-76 0 -130.5 50.5t-54.5 121.5z" />
    <glyph glyph-name="uni0621" unicode="&#x621;" horiz-adv-x="1524" 
d="M100 0v257h273q-58 75 -82 171t-15 191.5t53.5 188t116 163t181 114t239.5 43.5q184 0 329 -95t229 -281l-239 -98q-53 120 -130 177.5t-191 57.5q-80 0 -146 -26t-107.5 -70.5t-68 -100.5t-27 -117.5t16 -120t59.5 -111t106 -86.5h727v-257h-1324z" />
    <glyph glyph-name="uni0622" unicode="&#x622;" horiz-adv-x="876" 
d="M20 2114q27 124 99.5 183t164.5 59q44 0 83 -14.5t67 -35t53 -40.5t52 -34.5t53 -14.5q82 0 114 131l150 -50q-17 -79 -54 -132t-83.5 -75t-98 -21.5t-100.5 22.5q-39 5 -75 22t-58.5 35t-50 32.5t-51.5 14.5q-82 0 -114 -131zM586 0h-296v1912h296v-1912z" />
    <glyph glyph-name="uni0623" unicode="&#x623;" horiz-adv-x="586" 
d="M283 2120h220v-134h-423v134h58q-17 86 39 153t149 67q61 0 111 -34.5t69 -89.5l-125 -50q-3 21 -18.5 35t-36.5 14q-24 0 -40 -17t-16 -41q0 -23 13 -37zM440 0h-296v1912h296v-1912z" />
    <glyph glyph-name="uni0624" unicode="&#x624;" horiz-adv-x="1517" 
d="M749 1446h220v-134h-423v134h58q-17 86 39 153t149 67q61 0 111 -34.5t69 -89.5l-125 -50q-3 21 -18.5 35t-36.5 14q-24 0 -40 -17t-16 -41q0 -23 13 -37zM459 -485v285h324q99 0 176.5 54t116.5 146h-546q-192 66 -311 229.5t-119 370.5q0 175 87.5 321.5t238.5 231.5
t332 85q124 0 240.5 -45t208 -124.5t148.5 -198t62 -256.5v-455q0 -138 -49 -258.5t-133 -204.5t-201 -132.5t-250 -48.5h-325zM567 280h551l2 387q-20 132 -122.5 221.5t-240.5 89.5q-158 0 -269 -110.5t-111 -267.5q0 -103 52 -188.5t138 -131.5z" />
    <glyph glyph-name="uni0625" unicode="&#x625;" horiz-adv-x="586" 
d="M440 0h-295v1912h295v-1912zM283 -270h220v-134h-423v134h58q-17 86 39 153t149 67q61 0 111 -34.5t69 -89.5l-125 -50q-3 21 -18.5 35t-36.5 14q-24 0 -40 -17t-16 -41q0 -23 13 -37z" />
    <glyph glyph-name="uni0626" unicode="&#x626;" horiz-adv-x="2223" 
d="M126 158v247h298v-246q0 -157 96 -259t239 -102h742q64 0 118 12.5t100.5 39.5t75 75t33.5 112q-5 90 -62.5 142.5t-176.5 52.5h-805q-5 207 20 369t76.5 274.5t130.5 185.5t178 106.5t223 33.5h490v-298h-466q-304 0 -328 -374h482q154 0 277 -61.5t190 -168t66 -238.5
q1 -146 -81.5 -272t-223 -200.5t-301.5 -74.5h-774q-129 0 -243 48t-196.5 132t-130 204.5t-47.5 259.5zM263 612h220v-133h-423v133h58q-17 86 39 153.5t149 67.5q61 0 111 -34.5t69 -89.5l-125 -51q-3 21 -18.5 35t-36.5 14q-24 0 -40 -16.5t-16 -40.5t13 -38z" />
    <glyph glyph-name="uni0627" unicode="&#x627;" horiz-adv-x="496" 
d="M396 0h-296v1912h296v-1912z" />
    <glyph glyph-name="uni0628" unicode="&#x628;" horiz-adv-x="2117" 
d="M100 600q0 174 87 320.5t237.5 231.5t330.5 86v-260q-156 -1 -265.5 -111.5t-109.5 -266.5q0 -103 52.5 -189t138.5 -131h1150l1 920h295v-1200h-1486q-202 54 -316.5 219.5t-114.5 380.5zM1164 -412q-70 0 -117.5 44.5t-47.5 107.5t47.5 107.5t117.5 44.5t117.5 -44.5
t47.5 -107.5t-47.5 -107.5t-117.5 -44.5z" />
    <glyph glyph-name="uni0629" unicode="&#x629;" horiz-adv-x="1519" 
d="M509 1419q-70 0 -117.5 44.5t-47.5 107.5t47.5 107.5t117.5 44.5t117.5 -44.5t47.5 -107.5t-47.5 -107.5t-117.5 -44.5zM1009 1419q-70 0 -117.5 44.5t-47.5 107.5t47.5 107.5t117.5 44.5t117.5 -44.5t47.5 -107.5t-47.5 -107.5t-117.5 -44.5zM100 600q0 175 87.5 321.5
t238.5 231.5t332 85q126 0 243.5 -46t209 -127.5t148 -202.5t58.5 -262l2 -600h-889q-192 66 -311 229.5t-119 370.5zM377 600q0 -103 52 -188.5t138 -131.5h556l-2 383q-18 134 -121.5 224.5t-242.5 90.5q-158 0 -269 -110.5t-111 -267.5z" />
    <glyph glyph-name="uni062A" unicode="&#x62a;" horiz-adv-x="2117" 
d="M959 1381q-70 0 -117.5 44.5t-47.5 107.5t47.5 107.5t117.5 44.5t117.5 -44.5t47.5 -107.5t-47.5 -107.5t-117.5 -44.5zM1459 1381q-70 0 -117.5 44.5t-47.5 107.5t47.5 107.5t117.5 44.5t117.5 -44.5t47.5 -107.5t-47.5 -107.5t-117.5 -44.5zM100 600q0 174 87 320.5
t237.5 231.5t330.5 86v-260q-156 -1 -265.5 -111.5t-109.5 -266.5q0 -103 52.5 -189t138.5 -131h1150l1 920h295v-1200h-1486q-202 54 -316.5 219.5t-114.5 380.5z" />
    <glyph glyph-name="uni062B" unicode="&#x62b;" horiz-adv-x="2117" 
d="M1209 1838q-69 0 -117 44.5t-48 107.5t48 107.5t117 44.5q70 0 117.5 -44.5t47.5 -107.5t-47.5 -107.5t-117.5 -44.5zM959 1381q-70 0 -117.5 44.5t-47.5 107.5t47.5 107.5t117.5 44.5t117.5 -44.5t47.5 -107.5t-47.5 -107.5t-117.5 -44.5zM1459 1381q-70 0 -117.5 44.5
t-47.5 107.5t47.5 107.5t117.5 44.5t117.5 -44.5t47.5 -107.5t-47.5 -107.5t-117.5 -44.5zM100 600q0 174 87 320.5t237.5 231.5t330.5 86v-260q-156 -1 -265.5 -111.5t-109.5 -266.5q0 -103 52.5 -189t138.5 -131h1150l1 920h295v-1200h-1486q-202 54 -316.5 219.5
t-114.5 380.5z" />
    <glyph glyph-name="uni062C" unicode="&#x62c;" horiz-adv-x="1828" 
d="M744 -669q-184 0 -332 83.5t-230 228.5t-82 322v315h1344v285q0 143 -102.5 240.5t-258.5 97.5h-983v297h984q138 0 258.5 -49t204.5 -133t132.5 -201t48.5 -250v-567h-1343q1 -173 98.5 -272.5t261.5 -99.5h414v-297h-415zM1508 -658q-70 0 -117.5 44.5t-47.5 107.5
t47.5 107.5t117.5 44.5t117.5 -44.5t47.5 -107.5t-47.5 -107.5t-117.5 -44.5z" />
    <glyph glyph-name="uni062D" unicode="&#x62d;" horiz-adv-x="1828" 
d="M744 -669q-184 0 -332 83.5t-230 228.5t-82 322v315h1344v285q0 143 -102.5 240.5t-258.5 97.5h-983v297h984q138 0 258.5 -49t204.5 -133t132.5 -201t48.5 -250v-567h-1343q1 -173 98.5 -272.5t261.5 -99.5h414v-297h-415z" />
    <glyph glyph-name="uni062E" unicode="&#x62e;" horiz-adv-x="1828" 
d="M929 1381q-70 0 -117.5 44.5t-47.5 107.5t47.5 107.5t117.5 44.5t117.5 -44.5t47.5 -107.5t-47.5 -107.5t-117.5 -44.5zM744 -669q-184 0 -332 83.5t-230 228.5t-82 322v315h1344v285q0 143 -102.5 240.5t-258.5 97.5h-983v297h984q138 0 258.5 -49t204.5 -133
t132.5 -201t48.5 -250v-567h-1343q1 -173 98.5 -272.5t261.5 -99.5h414v-297h-415z" />
    <glyph glyph-name="uni062F" unicode="&#x62f;" horiz-adv-x="1519" 
d="M100 0v280h852q86 46 137.5 131.5t51.5 188.5q0 157 -110.5 267.5t-268.5 110.5q-120 0 -215.5 -67.5t-136.5 -175.5l-260 104q75 183 243.5 291t366.5 108q181 0 332.5 -85t239 -231.5t87.5 -321.5q0 -207 -119 -370.5t-312 -229.5h-888z" />
    <glyph glyph-name="uni0630" unicode="&#x630;" horiz-adv-x="1519" 
d="M762 1419q-70 0 -117.5 44.5t-47.5 107.5t47.5 107.5t117.5 44.5t117.5 -44.5t47.5 -107.5t-47.5 -107.5t-117.5 -44.5zM100 0v280h852q86 46 137.5 131.5t51.5 188.5q0 157 -110.5 267.5t-268.5 110.5q-120 0 -215.5 -67.5t-136.5 -175.5l-260 104q75 183 243.5 291
t366.5 108q181 0 332.5 -85t239 -231.5t87.5 -321.5q0 -207 -119 -370.5t-312 -229.5h-888z" />
    <glyph glyph-name="uni0631" unicode="&#x631;" horiz-adv-x="1157" 
d="M100 -485v285h323q142 0 239.5 102t97.5 258v1038h297v-1039q0 -138 -49 -258.5t-133 -204.5t-201 -132.5t-250 -48.5h-324z" />
    <glyph glyph-name="uni0632" unicode="&#x632;" horiz-adv-x="1157" 
d="M907 1381q-70 0 -117.5 44.5t-47.5 107.5t47.5 107.5t117.5 44.5t117.5 -44.5t47.5 -107.5t-47.5 -107.5t-117.5 -44.5zM100 -485v285h323q142 0 239.5 102t97.5 258v1038h297v-1039q0 -138 -49 -258.5t-133 -204.5t-201 -132.5t-250 -48.5h-324z" />
    <glyph glyph-name="uni0633" unicode="&#x633;" horiz-adv-x="2962" 
d="M100 159v381h297v-380q0 -157 97 -258.5t240 -101.5q142 0 239.5 102t97.5 258v1040h297l-1 -920h450l-1 720h295l1 -720h454l-1 920h296l1 -1200h-1510q-50 -218 -220 -351.5t-398 -133.5q-177 0 -322 82t-228.5 230t-83.5 332z" />
    <glyph glyph-name="uni0634" unicode="&#x634;" horiz-adv-x="2962" 
d="M1966 1838q-70 0 -117.5 44.5t-47.5 107.5t47.5 107.5t117.5 44.5t117.5 -44.5t47.5 -107.5t-47.5 -107.5t-117.5 -44.5zM1716 1381q-70 0 -117.5 44.5t-47.5 107.5t47.5 107.5t117.5 44.5q69 0 117 -44.5t48 -107.5t-48 -107.5t-117 -44.5zM2216 1381q-70 0 -117.5 44.5
t-47.5 107.5t47.5 107.5t117.5 44.5q69 0 117 -44.5t48 -107.5t-48 -107.5t-117 -44.5zM100 159v381h297v-380q0 -157 97 -258.5t240 -101.5q142 0 239.5 102t97.5 258v1040h297l-1 -920h450l-1 720h295l1 -720h454l-1 920h296l1 -1200h-1510q-50 -218 -220 -351.5
t-398 -133.5q-177 0 -322 82t-228.5 230t-83.5 332z" />
    <glyph glyph-name="uni0635" unicode="&#x635;" horiz-adv-x="2764" 
d="M734 -485q-177 0 -322 82t-228.5 230t-83.5 332v381h297v-380q0 -157 97 -258.5t240 -101.5q142 0 239.5 102t97.5 258v1130h297v-90h652q138 0 258 -49t204.5 -133t133 -201t48.5 -250v-567h-1312q-50 -218 -220 -351.5t-398 -133.5zM1367 280h1012v285
q0 143 -102 240.5t-258 97.5h-651z" />
    <glyph glyph-name="uni0636" unicode="&#x636;" horiz-adv-x="2764" 
d="M1812 1381q-70 0 -117.5 44.5t-47.5 107.5t47.5 107.5t117.5 44.5t117.5 -44.5t47.5 -107.5t-47.5 -107.5t-117.5 -44.5zM734 -485q-177 0 -322 82t-228.5 230t-83.5 332v381h297v-380q0 -157 97 -258.5t240 -101.5q142 0 239.5 102t97.5 258v1130h297v-90h652
q138 0 258 -49t204.5 -133t133 -201t48.5 -250v-567h-1312q-50 -218 -220 -351.5t-398 -133.5zM1367 280h1012v285q0 143 -102 240.5t-258 97.5h-651z" />
    <glyph glyph-name="uni0637" unicode="&#x637;" horiz-adv-x="1994" 
d="M100 0v280h205v1632h296v-712h649q138 0 258.5 -49t204.5 -133t132.5 -201t48.5 -250v-567h-1794zM601 280h1009v285q0 143 -102.5 240.5t-258.5 97.5h-648v-623z" />
    <glyph glyph-name="uni0638" unicode="&#x638;" horiz-adv-x="1994" 
d="M100 0v280h205v1632h296v-712h649q138 0 258.5 -49t204.5 -133t132.5 -201t48.5 -250v-567h-1794zM1132 1381q-70 0 -117.5 44.5t-47.5 107.5t47.5 107.5t117.5 44.5t117.5 -44.5t47.5 -107.5t-47.5 -107.5t-117.5 -44.5zM601 280h1009v285q0 143 -102.5 240.5
t-258.5 97.5h-648v-623z" />
    <glyph glyph-name="uni0639" unicode="&#x639;" horiz-adv-x="1813" 
d="M744 -669q-138 0 -258 49t-204.5 133.5t-133 201.5t-48.5 250v315h470q-46 66 -71.5 144t-29.5 157t13 159.5t52 153t91 136t126.5 109.5t163 72.5t196.5 26.5q206 0 369 -104.5t233 -294.5l-264 -107q-29 121 -117.5 183.5t-222.5 62.5q-157 0 -268 -110.5t-111 -267.5
q0 -103 51.5 -188.5t137.5 -131.5h794v-280h-1328q1 -173 98.5 -272.5t261.5 -99.5h415v-297h-416z" />
    <glyph glyph-name="uni063A" unicode="&#x63a;" horiz-adv-x="1813" 
d="M1111 1419q-70 0 -117.5 44.5t-47.5 107.5t47.5 107.5t117.5 44.5t117.5 -44.5t47.5 -107.5t-47.5 -107.5t-117.5 -44.5zM744 -669q-138 0 -258 49t-204.5 133.5t-133 201.5t-48.5 250v315h470q-46 66 -71.5 144t-29.5 157t13 159.5t52 153t91 136t126.5 109.5t163 72.5
t196.5 26.5q206 0 369 -104.5t233 -294.5l-264 -107q-29 121 -117.5 183.5t-222.5 62.5q-157 0 -268 -110.5t-111 -267.5q0 -103 51.5 -188.5t137.5 -131.5h794v-280h-1328q1 -173 98.5 -272.5t261.5 -99.5h415v-297h-416z" />
    <glyph glyph-name="uni0640" unicode="&#x640;" horiz-adv-x="667" 
d="M677 280v-280h-687v280h687z" />
    <glyph glyph-name="uni0641" unicode="&#x641;" horiz-adv-x="2715" 
d="M1955 1419q-70 0 -117.5 44.5t-47.5 107.5t47.5 107.5t117.5 44.5t117.5 -44.5t47.5 -107.5t-47.5 -107.5t-117.5 -44.5zM100 600q0 174 87 320.5t237.5 231.5t330.5 86v-260q-156 -1 -265.5 -111.5t-109.5 -266.5q0 -103 52.5 -189t138.5 -131h844q-46 66 -71.5 144
t-29.5 157t12.5 159.5t51.5 153t91 136t126.5 109.5t163 72.5t196.5 26.5q125 0 243 -46t209.5 -127.5t148 -203t58.5 -261.5l1 -600h-2084q-208 54 -319.5 218t-111.5 382zM1574 600q0 -103 52 -188.5t138 -131.5h556l-2 383q-19 135 -122 225t-243 90q-157 0 -268 -110.5
t-111 -267.5z" />
    <glyph glyph-name="uni0642" unicode="&#x642;" horiz-adv-x="2249" 
d="M1240 1419q-70 0 -117.5 44.5t-47.5 107.5t47.5 107.5t117.5 44.5t117.5 -44.5t47.5 -107.5t-47.5 -107.5t-117.5 -44.5zM1740 1419q-70 0 -117.5 44.5t-47.5 107.5t47.5 107.5t117.5 44.5t117.5 -44.5t47.5 -107.5t-47.5 -107.5t-117.5 -44.5zM100 159v267h297v-266
q0 -157 97 -258.5t240 -101.5h780q99 0 177 54t116 146h-545q-193 66 -311.5 229.5t-118.5 370.5q0 175 87 321.5t238.5 231.5t332.5 85q124 0 240.5 -45t208 -124.5t148.5 -198t62 -256.5v-455q0 -138 -49 -258.5t-133 -204.5t-201 -132.5t-250 -48.5h-799q-129 3 -243 53
t-196.5 134t-130 202.5t-47.5 254.5zM1109 600q0 -103 52 -188.5t138 -131.5h551l1 387q-18 132 -121 221.5t-242 89.5q-157 0 -268 -110.5t-111 -267.5z" />
    <glyph glyph-name="uni0643" unicode="&#x643;" horiz-adv-x="2117" 
d="M100 600q0 174 87 320.5t237.5 231.5t330.5 86v-260q-156 -1 -265.5 -111.5t-109.5 -266.5q0 -103 52.5 -189t138.5 -131h1150l1 1632h295v-1912h-1486q-202 54 -316.5 219.5t-114.5 380.5zM964 983v96h385v51q0 20 -13 31.5t-58.5 19t-129.5 7.5l-112 38q-4 79 42.5 131
t121.5 52h184v-99h-178q-40 0 -55 -22h128q72 0 120 -46.5t48 -116.5v-142h-483z" />
    <glyph glyph-name="uni0644" unicode="&#x644;" horiz-adv-x="1468" 
d="M734 -485q-177 0 -322 82t-228.5 230t-83.5 332v381h297v-380q0 -157 97 -258.5t240 -101.5q142 0 239.5 102t97.5 258v1752h297v-1753q0 -184 -83.5 -332t-228.5 -230t-322 -82z" />
    <glyph glyph-name="uni0645" unicode="&#x645;" horiz-adv-x="1956" 
d="M100 -485q0 316 127.5 507t360.5 240q-30 72 -34.5 161.5t14.5 182t69.5 179.5t124.5 155.5t187.5 110t249.5 41.5q180 0 331 -84.5t238.5 -231.5t87.5 -322t-87.5 -321.5t-238.5 -231.5t-331 -85q-135 0 -255 48.5t-210 136.5q-167 -4 -258 -135t-91 -351h-285zM1199 77
q157 0 267 110t110 267q0 158 -110 268.5t-267 110.5q-158 0 -268 -110.5t-110 -268.5q0 -157 110 -267t268 -110z" />
    <glyph glyph-name="uni0646" unicode="&#x646;" horiz-adv-x="1468" 
d="M734 1381q-70 0 -117.5 44.5t-47.5 107.5t47.5 107.5t117.5 44.5t117.5 -44.5t47.5 -107.5t-47.5 -107.5t-117.5 -44.5zM734 -485q-177 0 -322 82t-228.5 230t-83.5 332v1041h297v-1040q0 -157 97 -258.5t240 -101.5q142 0 239.5 102t97.5 258v1040h297v-1041
q0 -184 -83.5 -332t-228.5 -230t-322 -82z" />
    <glyph glyph-name="uni0647" unicode="&#x647;" horiz-adv-x="1519" 
d="M100 600q0 175 87.5 321.5t238.5 231.5t332 85q126 0 243.5 -46t209 -127.5t148 -202.5t58.5 -262l2 -600h-889q-192 66 -311 229.5t-119 370.5zM377 600q0 -103 52 -188.5t138 -131.5h556l-2 383q-18 134 -121.5 224.5t-242.5 90.5q-158 0 -269 -110.5t-111 -267.5z" />
    <glyph glyph-name="uni0648" unicode="&#x648;" horiz-adv-x="1517" 
d="M459 -485v285h324q99 0 176.5 54t116.5 146h-546q-192 66 -311 229.5t-119 370.5q0 175 87.5 321.5t238.5 231.5t332 85q124 0 240.5 -45t208 -124.5t148.5 -198t62 -256.5v-455q0 -138 -49 -258.5t-133 -204.5t-201 -132.5t-250 -48.5h-325zM567 280h551l2 387
q-20 132 -122.5 221.5t-240.5 89.5q-158 0 -269 -110.5t-111 -267.5q0 -103 52 -188.5t138 -131.5z" />
    <glyph glyph-name="uni0649" unicode="&#x649;" horiz-adv-x="2197" 
d="M100 158v247h298v-246q0 -157 96.5 -259t239.5 -102h741q87 0 155 21.5t117 77t55 140.5q-4 89 -61.5 142t-177.5 53h-805q-5 207 20 369t76.5 274.5t130.5 185.5t178 106.5t223 33.5h490v-298h-466q-304 0 -327 -374h481q234 0 384.5 -133.5t148.5 -334.5
q1 -146 -81.5 -272t-223 -200.5t-301.5 -74.5h-774q-129 0 -243 48t-196.5 132t-130 204.5t-47.5 259.5z" />
    <glyph glyph-name="uni064A" unicode="&#x64a;" horiz-adv-x="2197" 
d="M100 158v247h298v-246q0 -157 96.5 -259t239.5 -102h741q87 0 155 21.5t117 77t55 140.5q-4 89 -61.5 142t-177.5 53h-805q-5 207 20 369t76.5 274.5t130.5 185.5t178 106.5t223 33.5h490v-298h-466q-304 0 -327 -374h481q234 0 384.5 -133.5t148.5 -334.5
q1 -146 -81.5 -272t-223 -200.5t-301.5 -74.5h-774q-129 0 -243 48t-196.5 132t-130 204.5t-47.5 259.5zM884 -923q-70 0 -117.5 44.5t-47.5 107.5t47.5 107.5t117.5 44.5t117.5 -44.5t47.5 -107.5t-47.5 -107.5t-117.5 -44.5zM1384 -923q-70 0 -117.5 44.5t-47.5 107.5
t47.5 107.5t117.5 44.5t117.5 -44.5t47.5 -107.5t-47.5 -107.5t-117.5 -44.5z" />
    <glyph glyph-name="uni064B" unicode="&#x64b;" 
d="M0 1455h435v-99h-435v99zM0 1294h435v-99h-435v99z" />
    <glyph glyph-name="uni064C" unicode="&#x64c;" 
d="M0 1596v93h151v-214h65q-12 27 -12 60q0 65 46 109.5t114 44.5q67 0 113 -44.5t47 -109.5t-45.5 -109.5t-114.5 -44.5h-307v215h-57zM301 1535q0 -26 18 -43t45 -17t45 17t18 43t-18 43.5t-45 17.5t-45 -17.5t-18 -43.5z" />
    <glyph glyph-name="uni064D" unicode="&#x64d;" 
d="M0 164h435v-99h-435v99zM0 3h435v-99h-435v99z" />
    <glyph glyph-name="uni064E" unicode="&#x64e;" 
d="M0 1294h435v-99h-435v99z" />
    <glyph glyph-name="uni064F" unicode="&#x64f;" 
d="M0 1464v95h122q-12 29 -12 62q0 66 47 111t116 45q68 0 114.5 -44.5t47.5 -111.5q1 -66 -46 -111.5t-116 -45.5h-273zM209 1621q0 -26 18 -44t46 -18t46 18t18 44t-18 43.5t-46 17.5t-46 -17.5t-18 -43.5z" />
    <glyph glyph-name="uni0650" unicode="&#x650;" 
d="M0 65h435v-99h-435v99z" />
    <glyph glyph-name="uni0651" unicode="&#x651;" 
d="M273 1318q-15 -35 -47.5 -57t-74.5 -22q-66 0 -108.5 48.5t-42.5 117.5q0 66 38.5 114t91.5 57l24 -101q-19 -5 -32.5 -23t-13.5 -41q0 -24 15.5 -39.5t40.5 -16.5q35 -1 55 31.5t20 81.5l54 -14q0 -34 15 -54t37 -21q17 -1 27.5 10t10.5 27q0 32 -33 43l21 100
q53 -13 86 -53.5t32 -96.5q-1 -62 -36 -104t-89 -42q-30 0 -55 15t-36 40z" />
    <glyph glyph-name="uni0652" unicode="&#x652;" 
d="M163 1389q-67 0 -115 46t-48 111q0 64 48 110.5t115 46.5t115 -46.5t48 -110.5t-48 -110.5t-115 -46.5zM163 1487q25 0 42.5 17t17.5 40q0 24 -17.5 41.5t-42.5 17.5t-42.5 -17.5t-17.5 -41.5q0 -23 17.5 -40t42.5 -17z" />
    <glyph glyph-name="uni0653" unicode="&#x653;" 
d="M0 1657q26 124 99 183t165 59q44 0 83 -14.5t66.5 -35t53 -40.5t52.5 -34.5t53 -14.5q81 0 113 130l151 -49q-17 -79 -54 -132.5t-84 -75.5t-98 -21.5t-100 22.5q-39 5 -75 22.5t-58.5 35.5t-50 32.5t-51.5 14.5q-81 0 -114 -132z" />
    <glyph glyph-name="uni0654" unicode="&#x654;" 
d="M203 1483h220v-134h-423v134h58q-17 86 39 153t149 67q61 0 111 -34.5t69 -89.5l-125 -50q-3 21 -18.5 35t-36.5 14q-24 0 -40 -17t-16 -41q0 -23 13 -37z" />
    <glyph glyph-name="uni0655" unicode="&#x655;" 
d="M203 209h220v-134h-423v134h58q-17 86 39 153t149 67q61 0 111 -34.5t69 -89.5l-125 -50q-3 21 -18.5 35t-36.5 14q-24 0 -40 -17t-16 -41q0 -23 13 -37z" />
    <glyph glyph-name="uni0658" unicode="&#x658;" 
 />
    <glyph glyph-name="uni0660" unicode="&#x660;" horiz-adv-x="470" 
d="M235 0q-70 0 -117.5 44.5t-47.5 107.5t47.5 107.5t117.5 44.5t117.5 -44.5t47.5 -107.5t-47.5 -107.5t-117.5 -44.5z" />
    <glyph glyph-name="uni0661" unicode="&#x661;" horiz-adv-x="394" 
d="M324 0h-254v1651h254v-1651z" />
    <glyph glyph-name="uni0662" unicode="&#x662;" horiz-adv-x="1243" 
d="M70 1650h1103v-261h-751l372 -1389h-254l-470 1601v49z" />
    <glyph glyph-name="uni0663" unicode="&#x663;" horiz-adv-x="1499" 
d="M70 1612h256l136 -331l105 -242q95 15 139.5 112t26.5 235l120 -2q14 -133 74.5 -204t146.5 -59q73 10 108.5 69.5t25.5 129.5q-9 65 -58 113t-112 52l23 209q142 -14 243.5 -114t120.5 -252q13 -109 -20.5 -204.5t-106 -157.5t-168.5 -73q-90 -11 -167.5 28t-120.5 120
q-21 -75 -72 -132t-124 -84l321 -825h-247z" />
    <glyph glyph-name="uni0664" unicode="&#x664;" horiz-adv-x="1199" 
d="M70 482q0 143 87 251t225 152q-99 37 -162.5 124t-63.5 216q0 182 141 303t341 121h482v-258l-466 -1q-90 0 -154 -55t-64 -144q0 -119 104 -182t284 -66v-162q-211 2 -337 -66.5t-126 -182.5q0 -117 85.5 -189t197.5 -72h485v-271h-502q-149 0 -275 58t-204 169.5
t-78 254.5z" />
    <glyph glyph-name="uni0665" unicode="&#x665;" horiz-adv-x="1455" 
d="M728 -38q-181 0 -332 85t-238.5 231.5t-87.5 321.5t87.5 321.5t238.5 231.5t332 85q180 0 331 -85t238.5 -231.5t87.5 -321.5t-87.5 -321.5t-238.5 -231.5t-331 -85zM728 222q157 0 267 110.5t110 267.5t-110 267.5t-267 110.5t-267.5 -110.5t-110.5 -267.5t110.5 -267.5
t267.5 -110.5z" />
    <glyph glyph-name="uni0666" unicode="&#x666;" horiz-adv-x="1285" 
d="M1215 1649v-1649h-295v1387h-850v262h1145z" />
    <glyph glyph-name="uni0667" unicode="&#x667;" horiz-adv-x="1734" 
d="M1664 1650l-735 -1649h-127l-732 1649h319l475 -1119l477 1119h323z" />
    <glyph glyph-name="uni0668" unicode="&#x668;" horiz-adv-x="1734" 
d="M1664 0h-323l-477 1118l-475 -1118h-319l732 1649h127z" />
    <glyph glyph-name="uni0669" unicode="&#x669;" horiz-adv-x="1289" 
d="M915 -1v658q-35 -47 -169 -73t-225 -26q-134 0 -253.5 68.5t-192.5 190t-73 264.5q0 110 46.5 212t125 177.5t189 120.5t232.5 45t232.5 -45.5t189 -121t124.5 -178t46 -213.5v-1079h-272zM594 794q122 0 208 82t86 198q0 117 -86.5 202.5t-207.5 85.5
q-122 0 -209.5 -84.5t-87.5 -201.5q0 -118 87 -200t210 -82z" />
    <glyph glyph-name="uni066A" unicode="&#x66a;" horiz-adv-x="1814" 
d="M469 886q-160 0 -274.5 109t-114.5 263t114.5 263.5t275.5 109.5q160 0 274.5 -109.5t114.5 -262.5q0 -154 -114.5 -263.5t-275.5 -109.5zM1332 1613h245l-1104 -1613h-246zM469 1066q83 0 141.5 56t58.5 136t-59 136.5t-141 56.5q-83 0 -142 -56.5t-59 -136.5t59 -136
t142 -56zM1344 -20q-160 0 -274.5 109.5t-114.5 262.5q0 154 114.5 263.5t275.5 109.5t275 -109t114 -263q0 -153 -115 -263t-275 -110zM1344 160q83 0 142 56.5t59 136.5q0 79 -59.5 135.5t-141.5 56.5q-83 0 -142.5 -56.5t-59.5 -136.5q0 -79 59.5 -135.5t142.5 -56.5z
" />
    <glyph glyph-name="uni066B" unicode="&#x66b;" horiz-adv-x="639" 
d="M228 -364q-47 0 -81.5 18t-34.5 36q25 0 55 11.5t61 34t51.5 65t20.5 96.5q0 47 -19 76q-62 0 -108.5 48.5t-46.5 119.5q0 79 58.5 136t145.5 57q92 0 150 -71.5t58 -199.5q0 -176 -90 -301.5t-220 -125.5z" />
    <glyph glyph-name="uni066C" unicode="&#x66c;" horiz-adv-x="1200" 
 />
    <glyph glyph-name="uni066D" unicode="&#x66d;" horiz-adv-x="889" 
d="M380 1217l-196 -168l-104 146l264 125l-264 122l104 147l196 -166l-35 270h198l-35 -270l196 166l105 -147l-264 -128l264 -119l-105 -146l-196 166l35 -270h-198z" />
    <glyph glyph-name="uni066E" unicode="&#x66e;" horiz-adv-x="2117" 
d="M100 600q0 174 87 320.5t237.5 231.5t330.5 86v-260q-156 -1 -265.5 -111.5t-109.5 -266.5q0 -103 52.5 -189t138.5 -131h1150l1 920h295v-1200h-1486q-202 54 -316.5 219.5t-114.5 380.5z" />
    <glyph glyph-name="uni066F" unicode="&#x66f;" horiz-adv-x="2249" 
d="M100 159v267h297v-266q0 -157 97 -258.5t240 -101.5h780q99 0 177 54t116 146h-545q-193 66 -311.5 229.5t-118.5 370.5q0 175 87 321.5t238.5 231.5t332.5 85q124 0 240.5 -45t208 -124.5t148.5 -198t62 -256.5v-455q0 -138 -49 -258.5t-133 -204.5t-201 -132.5
t-250 -48.5h-799q-129 3 -243 53t-196.5 134t-130 202.5t-47.5 254.5zM1109 600q0 -103 52 -188.5t138 -131.5h551l1 387q-18 132 -121 221.5t-242 89.5q-157 0 -268 -110.5t-111 -267.5z" />
    <glyph glyph-name="uni0670" unicode="&#x670;" 
d="M103 1691v-315h-103v315h103z" />
    <glyph glyph-name="uni0679" unicode="&#x679;" horiz-adv-x="2117" 
d="M913 1284v94h69v551h100v-240h219q95 0 156.5 -61.5t61.5 -152.5v-191h-606zM1082 1378h341v97q0 48 -34.5 80.5t-87.5 32.5h-219v-210zM100 600q0 174 87 320.5t237.5 231.5t330.5 86v-260q-156 -1 -265.5 -111.5t-109.5 -266.5q0 -103 52.5 -189t138.5 -131h1150l1 920
h295v-1200h-1486q-202 54 -316.5 219.5t-114.5 380.5z" />
    <glyph glyph-name="uni067E" unicode="&#x67e;" horiz-adv-x="2117" 
d="M100 600q0 174 87 320.5t237.5 231.5t330.5 86v-260q-156 -1 -265.5 -111.5t-109.5 -266.5q0 -103 52.5 -189t138.5 -131h1150l1 920h295v-1200h-1486q-202 54 -316.5 219.5t-114.5 380.5zM914 -151q70 0 117.5 -44.5t47.5 -107.5t-47.5 -107.5t-117.5 -44.5t-117.5 44.5
t-47.5 107.5t47.5 107.5t117.5 44.5zM1414 -151q70 0 117.5 -44.5t47.5 -107.5t-47.5 -107.5t-117.5 -44.5t-117.5 44.5t-47.5 107.5t47.5 107.5t117.5 44.5zM1164 -609q70 0 117.5 -44t47.5 -107t-47.5 -107.5t-117.5 -44.5q-69 0 -117 44.5t-48 107.5t47.5 107t117.5 44z
" />
    <glyph glyph-name="uni0686" unicode="&#x686;" horiz-adv-x="1828" 
d="M744 -669q-184 0 -332 83.5t-230 228.5t-82 322v315h1344v285q0 143 -102.5 240.5t-258.5 97.5h-983v297h984q138 0 258.5 -49t204.5 -133t132.5 -201t48.5 -250v-567h-1343q1 -173 98.5 -272.5t261.5 -99.5h414v-297h-415zM1290 -52q54 0 91 -34.5t37 -83.5t-37 -83.5
t-91 -34.5t-91 34.5t-37 83.5t37 83.5t91 34.5zM1678 -52q54 0 91 -34.5t37 -83.5t-37 -83.5t-91 -34.5t-91 34.5t-37 83.5t37 83.5t91 34.5zM1484 -407q55 0 91.5 -34t36.5 -84q0 -49 -37 -83t-91 -34t-91 34t-37 83q0 50 36.5 84t91.5 34z" />
    <glyph glyph-name="uni0688" unicode="&#x688;" horiz-adv-x="1519" 
d="M465 1322v94h69v551h100v-240h219q95 0 156.5 -61.5t61.5 -152.5v-191h-606zM634 1416h341v97q0 48 -34.5 80.5t-87.5 32.5h-219v-210zM100 0v280h852q86 46 137.5 131.5t51.5 188.5q0 157 -110.5 267.5t-268.5 110.5q-120 0 -215.5 -67.5t-136.5 -175.5l-260 104
q75 183 243.5 291t366.5 108q181 0 332.5 -85t239 -231.5t87.5 -321.5q0 -207 -119 -370.5t-312 -229.5h-888z" />
    <glyph glyph-name="uni0691" unicode="&#x691;" horiz-adv-x="1157" 
d="M610 1284v94h69v551h100v-240h219q95 0 156.5 -61.5t61.5 -152.5v-191h-606zM779 1378h341v97q0 48 -34.5 80.5t-87.5 32.5h-219v-210zM100 -485v285h323q142 0 239.5 102t97.5 258v1038h297v-1039q0 -138 -49 -258.5t-133 -204.5t-201 -132.5t-250 -48.5h-324z" />
    <glyph glyph-name="uni0698" unicode="&#x698;" horiz-adv-x="1157" 
d="M907 1838q-69 0 -117 44.5t-48 107.5t48 107.5t117 44.5q70 0 117.5 -44.5t47.5 -107.5t-47.5 -107.5t-117.5 -44.5zM657 1381q-70 0 -117.5 44.5t-47.5 107.5t47.5 107.5t117.5 44.5t117.5 -44.5t47.5 -107.5t-47.5 -107.5t-117.5 -44.5zM1157 1381q-70 0 -117.5 44.5
t-47.5 107.5t47.5 107.5t117.5 44.5t117.5 -44.5t47.5 -107.5t-47.5 -107.5t-117.5 -44.5zM100 -485v285h323q142 0 239.5 102t97.5 258v1038h297v-1039q0 -138 -49 -258.5t-133 -204.5t-201 -132.5t-250 -48.5h-324z" />
    <glyph glyph-name="uni06A1" unicode="&#x6a1;" horiz-adv-x="2715" 
d="M100 600q0 174 87 320.5t237.5 231.5t330.5 86v-260q-156 -1 -265.5 -111.5t-109.5 -266.5q0 -103 52.5 -189t138.5 -131h844q-46 66 -71.5 144t-29.5 157t12.5 159.5t51.5 153t91 136t126.5 109.5t163 72.5t196.5 26.5q125 0 243 -46t209.5 -127.5t148 -203t58.5 -261.5
l1 -600h-2084q-208 54 -319.5 218t-111.5 382zM1574 600q0 -103 52 -188.5t138 -131.5h556l-2 383q-19 135 -122 225t-243 90q-157 0 -268 -110.5t-111 -267.5z" />
    <glyph glyph-name="uni06A4" unicode="&#x6a4;" horiz-adv-x="2715" 
d="M1955 1876q-69 0 -117 44.5t-48 107.5t48 107.5t117 44.5q70 0 117.5 -44.5t47.5 -107.5t-47.5 -107.5t-117.5 -44.5zM1705 1419q-70 0 -117.5 44.5t-47.5 107.5t47.5 107.5t117.5 44.5t117.5 -44.5t47.5 -107.5t-47.5 -107.5t-117.5 -44.5zM2205 1419q-70 0 -117.5 44.5
t-47.5 107.5t47.5 107.5t117.5 44.5t117.5 -44.5t47.5 -107.5t-47.5 -107.5t-117.5 -44.5zM100 600q0 174 87 320.5t237.5 231.5t330.5 86v-260q-156 -1 -265.5 -111.5t-109.5 -266.5q0 -103 52.5 -189t138.5 -131h844q-46 66 -71.5 144t-29.5 157t12.5 159.5t51.5 153
t91 136t126.5 109.5t163 72.5t196.5 26.5q125 0 243 -46t209.5 -127.5t148 -203t58.5 -261.5l1 -600h-2084q-208 54 -319.5 218t-111.5 382zM1574 600q0 -103 52 -188.5t138 -131.5h556l-2 383q-19 135 -122 225t-243 90q-157 0 -268 -110.5t-111 -267.5z" />
    <glyph glyph-name="uni06A9" unicode="&#x6a9;" horiz-adv-x="2820" 
d="M2076 1200q184 0 332 -83.5t230 -228.5t82 -322v-566h-2189q-205 54 -318 203.5t-113 360.5q0 174 87 320.5t237.5 231.5t330.5 86v-260q-156 -1 -265.5 -111.5t-109.5 -266.5q0 -184 191 -284h1864v285q0 143 -102 240.5t-258 97.5h-984q-7 233 15 404.5t70 288
t129.5 186.5t184.5 100t243 30h585v-297h-584q-158 0 -249 -96.5t-105 -318.5h696z" />
    <glyph glyph-name="uni06AF" unicode="&#x6af;" horiz-adv-x="2820" 
d="M2310 2199v-168h-887v168h887zM2076 1200q184 0 332 -83.5t230 -228.5t82 -322v-566h-2189q-205 54 -318 203.5t-113 360.5q0 174 87 320.5t237.5 231.5t330.5 86v-260q-156 -1 -265.5 -111.5t-109.5 -266.5q0 -184 191 -284h1864v285q0 143 -102 240.5t-258 97.5h-984
q-7 233 15 404.5t70 288t129.5 186.5t184.5 100t243 30h585v-297h-584q-158 0 -249 -96.5t-105 -318.5h696z" />
    <glyph glyph-name="uni06BA" unicode="&#x6ba;" horiz-adv-x="1468" 
d="M734 -485q-177 0 -322 82t-228.5 230t-83.5 332v1041h297v-1040q0 -157 97 -258.5t240 -101.5q142 0 239.5 102t97.5 258v1040h297v-1041q0 -184 -83.5 -332t-228.5 -230t-322 -82z" />
    <glyph glyph-name="uni06BE" unicode="&#x6be;" horiz-adv-x="2192" 
d="M-26 0v280h317q-113 127 -113 308q0 125 49 238.5t133 195t200.5 130t245.5 48.5h642q138 -1 258.5 -50t204.5 -133t132.5 -200.5t48.5 -249.5v-567h-2118zM622 280h537l-1 368q-17 129 -116 216.5t-235 88.5q-152 0 -259 -106.5t-107 -258.5q0 -99 49.5 -181t131.5 -127
zM1441 280h367v285q0 142 -102 239.5t-259 98.5h-140q61 -59 96.5 -141t36.5 -174z" />
    <glyph glyph-name="uni06C1" unicode="&#x6c1;" horiz-adv-x="1519" 
d="M100 600q0 175 87.5 321.5t238.5 231.5t332 85q126 0 243.5 -46t209 -127.5t148 -202.5t58.5 -262l2 -600h-889q-192 66 -311 229.5t-119 370.5zM377 600q0 -103 52 -188.5t138 -131.5h556l-2 383q-18 134 -121.5 224.5t-242.5 90.5q-158 0 -269 -110.5t-111 -267.5z" />
    <glyph glyph-name="uni06C2" unicode="&#x6c2;" horiz-adv-x="1519" 
d="M749 1446h220v-134h-423v134h58q-17 86 39 153t149 67q61 0 111 -34.5t69 -89.5l-125 -50q-3 21 -18.5 35t-36.5 14q-24 0 -40 -17t-16 -41q0 -23 13 -37zM100 600q0 175 87.5 321.5t238.5 231.5t332 85q126 0 243.5 -46t209 -127.5t148 -202.5t58.5 -262l2 -600h-889
q-192 66 -311 229.5t-119 370.5zM377 600q0 -103 52 -188.5t138 -131.5h556l-2 383q-18 134 -121.5 224.5t-242.5 90.5q-158 0 -269 -110.5t-111 -267.5z" />
    <glyph glyph-name="uni06C3" unicode="&#x6c3;" horiz-adv-x="1519" 
d="M509 1419q-70 0 -117.5 44.5t-47.5 107.5t47.5 107.5t117.5 44.5t117.5 -44.5t47.5 -107.5t-47.5 -107.5t-117.5 -44.5zM1009 1419q-70 0 -117.5 44.5t-47.5 107.5t47.5 107.5t117.5 44.5t117.5 -44.5t47.5 -107.5t-47.5 -107.5t-117.5 -44.5zM100 600q0 175 87.5 321.5
t238.5 231.5t332 85q126 0 243.5 -46t209 -127.5t148 -202.5t58.5 -262l2 -600h-889q-192 66 -311 229.5t-119 370.5zM377 600q0 -103 52 -188.5t138 -131.5h556l-2 383q-18 134 -121.5 224.5t-242.5 90.5q-158 0 -269 -110.5t-111 -267.5z" />
    <glyph glyph-name="uni06CC" unicode="&#x6cc;" horiz-adv-x="2197" 
d="M100 158v247h298v-246q0 -157 96.5 -259t239.5 -102h741q87 0 155 21.5t117 77t55 140.5q-4 89 -61.5 142t-177.5 53h-805q-5 207 20 369t76.5 274.5t130.5 185.5t178 106.5t223 33.5h490v-298h-466q-304 0 -327 -374h481q234 0 384.5 -133.5t148.5 -334.5
q1 -146 -81.5 -272t-223 -200.5t-301.5 -74.5h-774q-129 0 -243 48t-196.5 132t-130 204.5t-47.5 259.5zM884 -923q-70 0 -117.5 44.5t-47.5 107.5t47.5 107.5t117.5 44.5t117.5 -44.5t47.5 -107.5t-47.5 -107.5t-117.5 -44.5zM1384 -923q-70 0 -117.5 44.5t-47.5 107.5
t47.5 107.5t117.5 44.5t117.5 -44.5t47.5 -107.5t-47.5 -107.5t-117.5 -44.5z" />
    <glyph glyph-name="uni06D2" unicode="&#x6d2;" horiz-adv-x="1918" 
d="M100 314q0 277 181.5 455.5t462.5 178.5h484v-297h-483q-163 0 -261.5 -100.5t-98.5 -270.5h1543v-280h-1828v314z" />
    <glyph glyph-name="uni06D3" unicode="&#x6d3;" horiz-adv-x="1918" 
d="M741 1157h220v-134h-423v134h58q-17 86 39 153t149 67q61 0 111 -34.5t69 -89.5l-125 -50q-3 21 -18.5 35t-36.5 14q-24 0 -40 -17t-16 -41q0 -23 13 -37zM100 314q0 277 181.5 455.5t462.5 178.5h484v-297h-483q-163 0 -261.5 -100.5t-98.5 -270.5h1543v-280h-1828v314z
" />
    <glyph glyph-name="uni06D4" unicode="&#x6d4;" horiz-adv-x="1200" 
 />
    <glyph glyph-name="uni06F0" unicode="&#x6f0;" horiz-adv-x="470" 
d="M235 0q-70 0 -117.5 44.5t-47.5 107.5t47.5 107.5t117.5 44.5t117.5 -44.5t47.5 -107.5t-47.5 -107.5t-117.5 -44.5z" />
    <glyph glyph-name="uni06F1" unicode="&#x6f1;" horiz-adv-x="436" 
d="M324 0h-254v1651h254v-1651z" />
    <glyph glyph-name="uni06F2" unicode="&#x6f2;" horiz-adv-x="1285" 
d="M70 1650h1103v-261h-751l372 -1389h-254l-470 1601v49z" />
    <glyph glyph-name="uni06F3" unicode="&#x6f3;" horiz-adv-x="1499" 
d="M70 1612h256l136 -331l105 -242q95 15 139.5 112t26.5 235l120 -2q14 -133 74.5 -204t146.5 -59q73 10 108.5 69.5t25.5 129.5q-9 65 -58 113t-112 52l23 209q142 -14 243.5 -114t120.5 -252q13 -109 -20.5 -204.5t-106 -157.5t-168.5 -73q-90 -11 -167.5 28t-120.5 120
q-21 -75 -72 -132t-124 -84l321 -825h-247z" />
    <glyph glyph-name="uni06F4" unicode="&#x6f4;" horiz-adv-x="1543" 
d="M881 1249q0 -61 30.5 -112.5t81.5 -80.5h509v-194h-847l339 -862h-254l-670 1601v49h275l234 -594h171q-41 70 -50.5 153t15.5 162t75.5 144t135 105t187.5 40q135 0 241 -69t149 -193l-183 -75q-17 75 -70.5 115.5t-137.5 40.5q-96 0 -163.5 -67.5t-67.5 -162.5z" />
    <glyph glyph-name="uni06F5" unicode="&#x6f5;" horiz-adv-x="1455" 
d="M728 1238q180 0 331 -85t238.5 -231.5t87.5 -321.5t-87.5 -321.5t-238.5 -231.5t-331 -85q-181 0 -332 85t-238.5 231.5t-87.5 321.5t87.5 321.5t238.5 231.5t332 85zM825 234q123 33 201.5 134t78.5 232q0 157 -110 267.5t-267 110.5t-267.5 -110.5t-110.5 -267.5
q0 -130 78.5 -231t201.5 -134v299h195v-300z" />
    <glyph glyph-name="uni06F6" unicode="&#x6f6;" horiz-adv-x="1267" 
d="M373 -1l-148 149l218 217q-79 14 -149 58t-119.5 106.5t-76 141.5t-25.5 161t38 168t110 159q110 109 248 139.5t282 -32.5l-83 -196q-81 48 -160.5 34.5t-149.5 -84.5q-84 -83 -83.5 -200.5t83.5 -200.5q54 -55 128 -73t142 4l420 420l148 -148z" />
    <glyph glyph-name="uni06F7" unicode="&#x6f7;" horiz-adv-x="1734" 
d="M1664 1650l-735 -1649h-127l-732 1649h319l475 -1119l477 1119h323z" />
    <glyph glyph-name="uni06F8" unicode="&#x6f8;" horiz-adv-x="1734" 
d="M1664 0h-323l-477 1118l-475 -1118h-319l732 1649h127z" />
    <glyph glyph-name="uni06F9" unicode="&#x6f9;" horiz-adv-x="1289" 
d="M915 -1v658q-35 -47 -169 -73t-225 -26q-134 0 -253.5 68.5t-192.5 190t-73 264.5q0 110 46.5 212t125 177.5t189 120.5t232.5 45t232.5 -45.5t189 -121t124.5 -178t46 -213.5v-1079h-272zM594 794q122 0 208 82t86 198q0 117 -86.5 202.5t-207.5 85.5
q-122 0 -209.5 -84.5t-87.5 -201.5q0 -118 87 -200t210 -82z" />
    <glyph glyph-name="figuredash" unicode="&#x2012;" horiz-adv-x="1100" 
d="M80 551v246h940v-246h-940z" />
    <glyph glyph-name="endash" unicode="&#x2013;" horiz-adv-x="1344" 
d="M86 551v246h1172v-246h-1172z" />
    <glyph glyph-name="emdash" unicode="&#x2014;" horiz-adv-x="2048" 
d="M73 551v246h1902v-246h-1902z" />
    <glyph glyph-name="quoteleft" unicode="&#x2018;" horiz-adv-x="566" 
d="M272 1258q-85 0 -139.5 67t-54.5 186q0 165 84.5 283t206.5 118q43 0 74.5 -16.5t31.5 -33.5q-23 0 -51 -10.5t-57.5 -32t-49 -62t-19.5 -92.5q0 -44 18 -72q58 0 101.5 -45t43.5 -110q0 -73 -54.5 -126.5t-134.5 -53.5z" />
    <glyph glyph-name="quoteright" unicode="&#x2019;" horiz-adv-x="566" 
d="M197 1258q-43 0 -74.5 17t-31.5 34q23 0 51 10.5t57.5 32t49 62t19.5 91.5q0 46 -19 72q-58 0 -101 45t-43 110q0 74 54 127t135 53q85 0 139 -67t54 -186q0 -165 -84.5 -283t-205.5 -118z" />
    <glyph glyph-name="quotesinglbase" unicode="&#x201a;" horiz-adv-x="566" 
d="M197 -324q-43 0 -74.5 16.5t-31.5 33.5q23 0 51 10.5t57.5 32t49 62t19.5 91.5q0 45 -19 73q-58 0 -101 45t-43 110q0 73 54 126.5t135 53.5q85 0 139 -67.5t54 -186.5q0 -165 -84.5 -282.5t-205.5 -117.5z" />
    <glyph glyph-name="quotereversed" unicode="&#x201b;" horiz-adv-x="566" 
d="M369 1258q-122 0 -206.5 118t-84.5 283q0 119 54.5 186t139.5 67q80 0 134.5 -53.5t54.5 -126.5q0 -65 -43.5 -110t-101.5 -45q-18 -27 -18 -72q0 -51 19.5 -91.5t49 -62t57.5 -32t51 -10.5q0 -17 -31.5 -34t-74.5 -17z" />
    <glyph glyph-name="quotedblleft" unicode="&#x201c;" horiz-adv-x="1034" 
d="M272 1258q-85 0 -139.5 67t-54.5 186q0 165 84.5 283t206.5 118q44 0 75 -17t31 -34q-23 0 -51 -10.5t-57.5 -32t-49 -61.5t-19.5 -92q0 -45 18 -72q58 0 101.5 -45t43.5 -110q0 -73 -54.5 -126.5t-134.5 -53.5zM739 1258q-85 0 -139 67t-54 186q0 165 84.5 283
t205.5 118q44 0 75.5 -17t31.5 -34q-24 0 -52 -10.5t-57.5 -32t-49 -61.5t-19.5 -92q0 -45 18 -72q58 0 101.5 -45t43.5 -110q0 -73 -54.5 -126.5t-134.5 -53.5z" />
    <glyph glyph-name="quotedblright" unicode="&#x201d;" horiz-adv-x="1034" 
d="M197 1257q-43 0 -74.5 16.5t-31.5 33.5q23 0 51 10.5t57.5 32t49 62t19.5 91.5q0 45 -19 73q-58 0 -101 45t-43 110q0 73 54 126t135 53q85 0 139 -67t54 -186q0 -165 -84 -282.5t-206 -117.5zM665 1257q-44 0 -75.5 16.5t-31.5 33.5q23 0 51 10.5t57.5 32t49 62
t19.5 91.5q0 45 -18 73q-58 0 -101.5 45t-43.5 110q0 73 54.5 126t135.5 53q84 0 138.5 -67t54.5 -186q0 -165 -84.5 -282.5t-205.5 -117.5z" />
    <glyph glyph-name="quotedblbase" unicode="&#x201e;" horiz-adv-x="1034" 
d="M197 -328q-44 0 -75 17t-31 34q23 0 51 10.5t57.5 32t49 62t19.5 91.5q0 45 -19 73q-58 0 -101 44.5t-43 109.5q0 74 54 127t135 53q85 0 139 -67t54 -186q0 -165 -84.5 -283t-205.5 -118zM665 -328q-44 0 -75.5 17t-31.5 34q23 0 51 10.5t57.5 32t49 62t19.5 91.5
q0 44 -18 73q-58 0 -101.5 44.5t-43.5 109.5q0 73 54.5 126.5t135.5 53.5q84 0 138.5 -67t54.5 -186q0 -165 -84.5 -283t-205.5 -118z" />
    <glyph glyph-name="dagger" unicode="&#x2020;" horiz-adv-x="717" 
d="M275 0v1257h-251v144h251v249h168v-249h251v-144h-251v-1257h-168z" />
    <glyph glyph-name="daggerdbl" unicode="&#x2021;" horiz-adv-x="719" 
d="M277 0v246h-253v145h253v866h-252v144h252v249h167v-249h251v-144h-251v-866h250v-145h-250v-246h-167z" />
    <glyph glyph-name="bullet" unicode="&#x2022;" horiz-adv-x="1117" 
d="M557 400q-128 0 -220.5 87t-92.5 209t92.5 210t222.5 88t222 -87t92 -211q0 -122 -93 -209t-223 -87z" />
    <glyph glyph-name="twodotenleader" unicode="&#x2025;" horiz-adv-x="1408" 
d="M394 -48q-80 0 -137 54t-57 130q0 75 57.5 129.5t136.5 54.5t136.5 -54.5t57.5 -129.5q0 -76 -57.5 -130t-136.5 -54zM1014 -48q-80 0 -137 54t-57 130q0 75 57.5 129.5t136.5 54.5q78 0 136 -54.5t58 -129.5q0 -76 -57.5 -130t-136.5 -54z" />
    <glyph glyph-name="ellipsis" unicode="&#x2026;" horiz-adv-x="2212" 
d="M394 -48q-80 0 -137 54t-57 130q0 75 57.5 129.5t136.5 54.5t136.5 -54.5t57.5 -129.5q0 -76 -57.5 -130t-136.5 -54zM1112 -48q-80 0 -136.5 54t-56.5 130q0 75 57 129.5t136 54.5t137 -54.5t58 -129.5q0 -76 -57.5 -130t-137.5 -54zM1819 -48q-81 0 -138 54t-57 130
q0 75 58 129.5t137 54.5q78 0 135.5 -54.5t57.5 -129.5q0 -76 -57 -130t-136 -54z" />
    <glyph glyph-name="perthousand" unicode="&#x2030;" horiz-adv-x="2654" 
d="M80 1258q0 154 114.5 263.5t275.5 109.5q160 0 274.5 -109.5t114.5 -262.5q0 -154 -114.5 -263.5t-275.5 -109.5q-160 0 -274.5 109t-114.5 263zM227 0l1105 1613h245l-1104 -1613h-246zM268 1258q0 -80 59 -136t142 -56t141.5 56t58.5 136t-59 136.5t-141 56.5
q-83 0 -142 -56.5t-59 -136.5zM955 352q0 154 114.5 263.5t275.5 109.5t275 -109t114 -263q0 -153 -115 -263t-275 -110t-274.5 109.5t-114.5 262.5zM1796 352q0 154 114.5 263.5t275.5 109.5q160 0 274.5 -109t114.5 -263q0 -153 -115 -263t-275 -110t-274.5 109.5
t-114.5 262.5zM1142 352q0 -79 59.5 -135.5t142.5 -56.5t142 56.5t59 136.5q0 79 -59.5 135.5t-141.5 56.5q-83 0 -142.5 -56.5t-59.5 -136.5zM1984 352q0 -80 59 -136t142 -56t141.5 56.5t58.5 136.5q0 79 -59 135.5t-141 56.5q-83 0 -142 -56.5t-59 -136.5z" />
    <glyph glyph-name="guilsinglleft" unicode="&#x2039;" horiz-adv-x="734" 
d="M467 104l-387 519l387 520l187 -40l-308 -480l308 -479z" />
    <glyph glyph-name="guilsinglright" unicode="&#x203a;" horiz-adv-x="734" 
d="M267 104l-187 40l308 479l-308 480l187 40l387 -520z" />
    <glyph glyph-name="Euro" unicode="&#x20ac;" horiz-adv-x="1758" 
d="M1097 -28q-192 0 -366 79.5t-298 226t-169 332.5h-184l18 141h145q-3 27 -3 54q0 38 4 66h-164l18 141h168q71 276 302 453t534 177q154 -2 308 -67.5t269 -175.5l-171 -220q-83 81 -191 129t-218 48q-166 0 -307.5 -95.5t-202.5 -248.5h705l-18 -141h-732q-4 -44 -4 -67
q0 -27 3 -53h723l-18 -141h-664q58 -158 200.5 -257t311.5 -99q222 0 414 178l169 -225q-252 -235 -582 -235z" />
    <glyph glyph-name="uni2116" unicode="&#x2116;" horiz-adv-x="2542" 
d="M1429 -18l-974 1045v-1028h-296v1631h85l973 -1044v1029h296v-1633h-84zM2063 712q-167 0 -283.5 113t-116.5 275q0 161 116.5 274.5t283.5 113.5t283 -113t116 -275t-116 -275t-283 -113zM2063 870q96 0 162.5 67t66.5 163t-66.5 163t-162.5 67t-162.5 -67t-66.5 -163
t66.5 -163t162.5 -67zM1696 411v167h751v-167h-751z" />
    <glyph glyph-name="trademark" unicode="&#x2122;" horiz-adv-x="1340" 
d="M607 928v692h48l306 -483l306 483h48v-692h-126v390l-228 -379h-1l-228 379v-390h-125zM239 928v566h-186v118h496v-118h-185v-566h-125z" />
    <glyph glyph-name="estimated" unicode="&#x212e;" horiz-adv-x="1945" 
d="M1002 -32q-178 0 -346 64.5t-295 174t-204 266t-77 329.5q0 171 75 326.5t201 266t296.5 176t355.5 65.5q179 0 339 -61.5t273.5 -165.5t179.5 -244.5t66 -293.5q0 -69 -8 -127h-1491v-414q125 -129 295.5 -196.5t338.5 -67.5q226 0 423 106.5t256 240.5h104
q-35 -81 -106.5 -158.5t-170 -142.5t-231 -104.5t-274.5 -39.5zM367 856h1231v445q-108 111 -260 174t-330 63q-182 0 -350.5 -67.5t-290.5 -190.5v-424z" />
    <glyph glyph-name="arrowleft" unicode="&#x2190;" horiz-adv-x="2148" 
d="M842 137l-657 636l657 636l138 -138l-378 -371h1361v-254h-1361l378 -371z" />
    <glyph glyph-name="arrowup" unicode="&#x2191;" horiz-adv-x="2148" 
d="M950 -115v1361l-372 -378l-137 138l635 657l637 -657l-138 -138l-371 378v-1361h-254z" />
    <glyph glyph-name="arrowright" unicode="&#x2192;" horiz-adv-x="2148" 
d="M1307 137l-139 138l378 371h-1361v254h1361l-378 371l139 138l656 -636z" />
    <glyph glyph-name="arrowdown" unicode="&#x2193;" horiz-adv-x="2148" 
d="M1076 -117l-635 657l137 138l372 -378v1361h254v-1361l371 378l138 -138z" />
    <glyph glyph-name="arrowboth" unicode="&#x2194;" horiz-adv-x="2148" 
d="M744 137l-657 636l657 636l138 -138l-378 -371h1140l-378 371l139 138l656 -636l-656 -636l-139 138l378 371h-1140l378 -371z" />
    <glyph glyph-name="arrowupdn" unicode="&#x2195;" horiz-adv-x="2148" 
d="M1074 -214l-636 657l138 138l371 -378v1140l-371 -378l-138 139l636 656l636 -656l-138 -139l-371 378v-1140l371 378l138 -138z" />
    <glyph glyph-name="partialdiff" unicode="&#x2202;" horiz-adv-x="1347" 
d="M659 -40q-174 0 -308.5 74.5t-206 201t-71.5 282.5q0 157 70 283.5t192.5 198t274.5 71.5q141 0 257 -65.5t156 -174.5q-69 439 -503 637l219 158q85 -37 163 -98.5t146 -151t118 -198t79 -245.5t29 -286q0 -313 -170 -500t-445 -187zM679 206q137 0 225.5 90.5
t88.5 231.5q0 129 -92.5 218t-230.5 89q-137 0 -228.5 -89t-91.5 -226q0 -136 93 -225t236 -89z" />
    <glyph glyph-name="emptyset" unicode="&#x2205;" horiz-adv-x="1592" 
d="M128 -12l195 294q-108 91 -169 217.5t-61 268.5q0 177 92 328.5t249.5 239.5t341.5 88q139 0 266 -54l151 231h221l-212 -320q121 -91 190 -224.5t69 -285.5q0 -133 -54.5 -254.5t-146.5 -209.5t-218.5 -140t-265.5 -52q-156 0 -298 68l-128 -195h-222zM441 459l479 730
q-70 28 -144 28q-127 0 -235 -60.5t-171 -164t-63 -224.5q0 -180 134 -309zM776 321q127 0 235 60t170.5 163t62.5 224q0 99 -43 186.5t-117 148.5l-487 -742q86 -40 179 -40z" />
    <glyph glyph-name="product" unicode="&#x220f;" horiz-adv-x="1538" 
d="M317 -282v1949h-269v251h1442v-251h-257v-1949h-277v1949h-362v-1949h-277z" />
    <glyph glyph-name="summation" unicode="&#x2211;" horiz-adv-x="1520" 
d="M24 -284l681 1100l-681 1099h1385v-251h-919l531 -847v-3l-532 -848l919 -1v-250z" />
    <glyph glyph-name="minus" unicode="&#x2212;" horiz-adv-x="1309" 
d="M159 629v253h991v-253h-991z" />
    <glyph glyph-name="radical" unicode="&#x221a;" horiz-adv-x="1123" 
d="M484 -101l-460 1262h268l200 -630l519 1571h548v-251h-376l-676 -1952h-23z" />
    <glyph glyph-name="infinity" unicode="&#x221e;" horiz-adv-x="2411" 
d="M632 258q-149 0 -276 73t-201.5 200.5t-74.5 278.5t74.5 278t201.5 200.5t276 73.5q166 0 317 -87.5t256 -235.5q106 148 257 235.5t317 87.5q149 0 276.5 -73.5t202 -200.5t74.5 -278q0 -113 -44 -215.5t-118.5 -176t-176.5 -117t-214 -43.5q-166 0 -317 87.5
t-257 235.5q-105 -148 -256 -235.5t-317 -87.5zM634 499q122 0 242 83t208 228q-89 144 -209 227.5t-241 83.5q-123 0 -213.5 -91.5t-90.5 -219.5t91.5 -219.5t212.5 -91.5zM1777 499q121 0 212.5 91.5t91.5 219.5t-90.5 219.5t-213.5 91.5q-121 0 -241.5 -83.5
t-208.5 -227.5q89 -145 209 -228t241 -83z" />
    <glyph glyph-name="integral" unicode="&#x222b;" horiz-adv-x="1226" 
d="M48 -303v243h107q93 0 157 67t81 178l198 1336q28 184 137.5 280t290.5 96h159v-243h-108q-93 0 -157 -67t-81 -178l-199 -1337q-27 -184 -136.5 -279.5t-289.5 -95.5h-159z" />
    <glyph glyph-name="approxequal" unicode="&#x2248;" horiz-adv-x="1365" 
d="M878 846q-56 0 -105.5 18t-84.5 44t-66 52.5t-65.5 44.5t-68.5 18q-104 0 -148 -164l-180 58q18 81 53 140.5t80.5 92.5t93.5 48t100 15q56 0 105.5 -18t84.5 -43.5t66.5 -51.5t66 -44t68.5 -18q103 0 147 163l181 -58q-18 -83 -54 -143.5t-82.5 -92.5t-93.5 -46.5
t-98 -14.5zM877 353q-56 0 -105.5 18t-84 44t-65.5 52t-65.5 44t-68.5 18q-106 0 -148 -164l-181 58q34 156 125 226.5t203 70.5q56 0 105.5 -18t84.5 -44t66.5 -52t65.5 -44t68 -18q104 0 148 163l180 -58q-18 -82 -54 -142.5t-82.5 -92.5t-93.5 -46.5t-98 -14.5z" />
    <glyph glyph-name="notequal" unicode="&#x2260;" horiz-adv-x="1311" 
d="M323 30l127 372h-291v234h372l100 293h-472v235h553l132 386h175l-132 -386h265v-235h-345l-100 -293h445v-234h-526l-128 -372h-175z" />
    <glyph glyph-name="lessequal" unicode="&#x2264;" horiz-adv-x="1352" 
d="M1187 509l-1000 510v16l1009 510l-9 -235l-581 -283l581 -284v-234zM159 121v194h1027v-194h-1027z" />
    <glyph glyph-name="greaterequal" unicode="&#x2265;" horiz-adv-x="1352" 
d="M169 509v234l581 284l-581 283l-9 235l1010 -510v-16zM170 121v194h1027v-194h-1027z" />
    <glyph glyph-name="lozenge" unicode="&#x25ca;" horiz-adv-x="1303" 
d="M660 22l-428 757l428 757l433 -757zM660 352l236 427l-236 427l-232 -427z" />
    <glyph glyph-name="uniFD3E" unicode="&#xfd3e;" horiz-adv-x="921" 
d="M593 -289q-117 0 -200 90t-83 217v291q0 145 -67 247t-163 102v167q96 0 163 102t67 247v291q0 127 83 216.5t200 89.5h248v-211l-170 -4q-44 -1 -75 -62t-31 -147v-205q0 -165 -66 -282.5t-158 -117.5q92 0 158 -117.5t66 -283.5v-205q0 -88 31 -150.5t75 -62.5h170
v-212h-248z" />
    <glyph glyph-name="uniFD3F" unicode="&#xfd3f;" horiz-adv-x="921" 
d="M80 -289v212h169q45 0 76 62.5t31 150.5v205q0 166 66 283.5t158 117.5q-92 0 -158 117.5t-66 282.5v205q0 86 -31 147t-75 62l-170 4v211h247q118 0 201 -89.5t83 -216.5v-291q0 -145 66.5 -247t163.5 -102v-167q-97 0 -163.5 -102t-66.5 -247v-291q0 -127 -83 -217
t-201 -90h-247z" />
    <glyph glyph-name="zero.lf" horiz-adv-x="1478" 
d="M764 -25q-204 0 -359.5 104t-240 293t-84.5 434q0 246 84.5 435t240 293t359.5 104q202 0 356.5 -104t238.5 -293t84 -434q0 -246 -84 -435t-238.5 -293t-356.5 -104zM762 259q173 0 279 151.5t106 394.5q0 245 -106.5 397.5t-279.5 152.5t-279.5 -151.5t-106.5 -396.5
t106.5 -396.5t280.5 -151.5z" />
    <glyph glyph-name="one.lf" horiz-adv-x="723" 
d="M293 0v1268l-213 -60v293l422 119h86v-1620h-295z" />
    <glyph glyph-name="two.lf" horiz-adv-x="1386" 
d="M80 0v110q526 395 733 603t207 347q0 124 -87 210t-215 86q-148 0 -250.5 -101t-102.5 -250l-245 75q0 151 78.5 279t216.5 203.5t303 75.5q124 0 235.5 -45.5t191 -122t126 -180.5t46.5 -218q0 -201 -174 -398.5t-515 -398.5h706v-275h-1254z" />
    <glyph glyph-name="three.lf" horiz-adv-x="1276" 
d="M647 -17q-139 0 -262 58.5t-203 157t-102 216.5l252 60q24 -93 111.5 -153t188.5 -60q120 0 203 76t83 177q0 136 -120 217.5t-340 81.5l38 141q146 0 246 63t100 169q0 89 -63.5 146t-156.5 57q-78 0 -142 -50t-83 -128l-253 56q40 167 174.5 278t320.5 111
q206 0 348 -123t142 -304q0 -119 -65.5 -205.5t-165.5 -124.5q151 -46 235 -152t84 -267q0 -135 -77 -249.5t-208.5 -181.5t-284.5 -67z" />
    <glyph glyph-name="four.lf" horiz-adv-x="1443" 
d="M911 0v307h-887l604 1311l301 -1l-489 -1041h471v480h294v-480h179v-269h-179v-307h-294z" />
    <glyph glyph-name="five.lf" horiz-adv-x="1320" 
d="M658 -17q-181 0 -340 92.5t-238 260.5l246 103q48 -81 137 -131t177 -50q136 0 231.5 85.5t95.5 222.5t-91.5 218t-232.5 81q-111 0 -214 -53.5t-141 -135.5l-139 90l120 847h863v-268h-650l-51 -343q56 55 134.5 82.5t161.5 27.5q160 0 285 -72t193 -197.5t68 -282.5
q0 -165 -81.5 -298t-222 -206t-311.5 -73z" />
    <glyph glyph-name="six.lf" horiz-adv-x="1332" 
d="M669 -23q-161 0 -294 65t-214 190t-81 288q0 70 16 130t74 173t145.5 260t255.5 423q43 69 65 106l337 -1l-379 -614q69 38 153 38q134 0 252 -63t192 -181.5t74 -265.5q0 -107 -46 -207.5t-124.5 -175.5t-190 -120t-235.5 -45zM673 251q122 0 210.5 84t88.5 199
q0 122 -87 205.5t-211 83.5q-123 0 -210.5 -84.5t-87.5 -205.5q0 -115 87.5 -198.5t209.5 -83.5z" />
    <glyph glyph-name="seven.lf" horiz-adv-x="1234" 
d="M231 0l555 1338h-738v274h1151v-52l-658 -1560h-310z" />
    <glyph glyph-name="eight.lf" horiz-adv-x="1264" 
d="M663 -23q-167 0 -300.5 66.5t-208 182t-74.5 257.5q0 87 31.5 165.5t81 131.5t108 86t114.5 41q-95 16 -171 105t-76 211q0 172 142 292.5t354 120.5q214 0 356 -120.5t142 -290.5q0 -64 -24 -121.5t-62 -97t-81.5 -65.5t-85.5 -34q55 -9 112.5 -42.5t109 -85.5
t84 -130.5t32.5 -167.5q0 -140 -74 -255t-208 -182t-302 -67zM664 995q94 0 161.5 55t67.5 141q0 89 -65.5 144t-162.5 55t-162 -54.5t-65 -143.5q0 -84 66 -140.5t160 -56.5zM663 246q120 0 207 77.5t87 191.5q0 110 -87 187t-206 77t-206.5 -78t-87.5 -188
q0 -114 86.5 -190.5t206.5 -76.5z" />
    <glyph glyph-name="nine.lf" horiz-adv-x="1332" 
d="M371 -1l365 596q-62 -37 -138 -37q-134 0 -253 68.5t-192 190t-73 264.5q0 110 46.5 212t125 177.5t189 120.5t231.5 45q163 0 300 -77t215 -205t78 -276q0 -49 -4.5 -85t-23.5 -87t-39.5 -91.5t-71 -126.5t-97.5 -162.5t-140 -229t-180 -297.5h-338zM671 790
q123 0 210.5 84t87.5 202q0 116 -88 201t-210 85t-209 -84.5t-87 -201.5q0 -118 87 -202t209 -84z" />
    <glyph glyph-name="zero.osf" horiz-adv-x="1363" 
d="M682 -21q-180 0 -319 85.5t-211 226t-72 309.5q0 170 72.5 310.5t212 226t319.5 85.5q179 0 317.5 -85.5t210.5 -226t72 -310.5t-72 -310t-211 -225.5t-319 -85.5zM681 233q100 0 175.5 53.5t112 135.5t36.5 177q0 98 -37 181t-112 136t-175 53t-175.5 -53.5t-112 -136
t-36.5 -178.5t36.5 -178.5t112 -136t175.5 -53.5z" />
    <glyph glyph-name="one.osf" horiz-adv-x="747" 
d="M308 0v904l-228 -43v256l422 85h86v-1202h-280z" />
    <glyph glyph-name="two.osf" horiz-adv-x="1205" 
d="M84 0v132q296 187 459.5 309t225.5 199t62 144q0 73 -64.5 130t-163.5 57q-111 0 -191 -73.5t-80 -176.5l-226 79q0 113 65.5 210.5t181.5 156.5t255 59q106 0 200 -34t160.5 -91t105 -134t38.5 -161q0 -297 -540 -572h553v-234h-1041z" />
    <glyph glyph-name="three.osf" horiz-adv-x="1291" 
d="M649 -464q-108 0 -207 35t-172.5 94t-123.5 137t-66 164l242 58q24 -93 113 -159.5t201 -66.5q117 0 207 72.5t90 195.5q0 148 -133.5 228t-340.5 76l37 137q154 0 254 67t100 179q0 93 -66.5 153t-159.5 60q-88 0 -153 -54t-83 -131l-243 53q39 166 173 277t322 111
q131 0 242 -54.5t178 -154t67 -220.5t-68 -211t-168 -128q143 -45 231.5 -154t88.5 -264q0 -145 -78.5 -261t-206.5 -177.5t-277 -61.5z" />
    <glyph glyph-name="four.osf" horiz-adv-x="1414" 
d="M904 -450v450h-880l572 1222l282 -2l-459 -965h485v505h281v-505h181v-255h-181v-450h-281z" />
    <glyph glyph-name="five.osf" horiz-adv-x="1341" 
d="M652 -472q-180 0 -338 93t-234 257l233 93q46 -82 140.5 -137.5t185.5 -55.5q139 0 241 93.5t102 237.5q0 143 -95.5 231t-238.5 88q-116 0 -223.5 -58.5t-146.5 -145.5l-132 87l132 889h856v-250h-656l-65 -408q112 115 301 115q241 0 394.5 -156.5t153.5 -396.5
q0 -165 -81.5 -297.5t-221 -205.5t-307.5 -73z" />
    <glyph glyph-name="six.osf" horiz-adv-x="1338" 
d="M666 -22q-160 0 -293 65.5t-213 190.5t-80 286q0 123 69.5 262t351.5 604q87 144 137 226l310 -1l-380 -617q80 42 172 42q134 0 252 -63t192.5 -182t74.5 -266q0 -107 -46 -207t-124 -175t-189 -120t-234 -45zM670 239q127 0 219 87.5t92 206.5q0 125 -91 213t-219 88
q-128 -1 -219.5 -88.5t-91.5 -213.5q0 -118 91.5 -205.5t218.5 -87.5z" />
    <glyph glyph-name="seven.osf" horiz-adv-x="1217" 
d="M222 -450l579 1390h-753v260h1145v-49l-679 -1601h-292z" />
    <glyph glyph-name="eight.osf" horiz-adv-x="1287" 
d="M645 -22q-120 0 -226 40.5t-180 109t-116.5 161t-42.5 193.5q0 87 32 165t82 131.5t108 87t113 41.5q-92 17 -170 107.5t-78 214.5q0 169 135 287.5t342 118.5q205 0 341.5 -117t136.5 -288q0 -67 -25 -127t-63.5 -100t-79.5 -65t-78 -31q52 -9 108.5 -42.5t107 -86
t83 -130.5t32.5 -164q0 -134 -70.5 -249.5t-200.5 -186t-291 -70.5zM644 994q96 0 164.5 56t68.5 143q0 92 -66.5 148t-165.5 56q-98 0 -165 -56.5t-67 -146.5q0 -86 67.5 -143t163.5 -57zM643 239q122 0 210 79.5t88 194.5q0 111 -88.5 190t-208.5 79q-121 0 -209 -79.5
t-88 -191.5q0 -115 87.5 -193.5t208.5 -78.5z" />
    <glyph glyph-name="nine.osf" horiz-adv-x="1338" 
d="M372 -450l389 642q-73 -41 -163 -41q-134 0 -253 68t-192 189.5t-73 265.5q0 146 78 273t214 203.5t297 76.5q121 0 231 -45.5t188.5 -121t124.5 -177.5t46 -212q0 -57 -12 -109.5t-29.5 -99t-71.5 -141.5t-101 -172.5t-158.5 -259t-205.5 -339.5h-309zM667 371
q129 0 220.5 87.5t91.5 211.5q0 120 -92 208.5t-219 88.5t-218.5 -88.5t-91.5 -208.5q0 -123 91.5 -211t217.5 -88z" />
    <glyph glyph-name="zero.tf" horiz-adv-x="1492" 
d="M768 -25q-204 0 -359 104t-239.5 293t-84.5 434q0 246 84.5 435t239.5 293t359 104q202 0 357 -104t239 -293t84 -434q0 -246 -84 -435t-239 -293t-357 -104zM766 259q173 0 279.5 151.5t106.5 394.5q0 245 -106.5 397.5t-279.5 152.5t-279.5 -151.5t-106.5 -396.5
t106.5 -396.5t279.5 -151.5z" />
    <glyph glyph-name="one.tf" horiz-adv-x="1492" 
d="M260 0v262h336v1006l-213 -60v293l421 119h87v-1358h332v-262h-963z" />
    <glyph glyph-name="two.tf" horiz-adv-x="1492" 
d="M120 0v110q526 395 733 603t207 347q0 124 -87.5 210t-215.5 86q-148 0 -250.5 -101t-102.5 -250l-244 75q0 151 78 279t216 203.5t303 75.5q124 0 235.5 -45.5t191 -122t126 -180.5t46.5 -218q0 -201 -174 -398.5t-514 -398.5h706v-275h-1254z" />
    <glyph glyph-name="three.tf" horiz-adv-x="1492" 
d="M748 -17q-209 0 -370.5 125.5t-196.5 306.5l252 60q25 -93 112 -153t188 -60q120 0 203 76t83 177q0 136 -119.5 217.5t-339.5 81.5l38 141q146 0 245.5 63t99.5 169q0 89 -63 146t-157 57q-78 0 -142 -50t-83 -128l-253 56q40 167 174.5 278t320.5 111q206 0 348.5 -123
t142.5 -304q0 -119 -66 -205.5t-166 -124.5q151 -46 235 -152t84 -267q0 -135 -77 -249.5t-208.5 -181.5t-284.5 -67z" />
    <glyph glyph-name="four.tf" horiz-adv-x="1492" 
d="M927 0v307h-887l604 1311l301 -1l-489 -1041h471v480h294v-480h179v-269h-179v-307h-294z" />
    <glyph glyph-name="five.tf" horiz-adv-x="1492" 
d="M730 -17q-181 0 -340 92.5t-238 260.5l246 103q48 -81 137 -131t177 -50q136 0 231.5 85.5t95.5 222.5q0 136 -91.5 217.5t-231.5 81.5q-112 0 -214.5 -53.5t-141.5 -135.5l-139 90l121 847h862v-268h-650l-51 -343q56 55 134.5 82.5t161.5 27.5q160 0 285.5 -72
t193.5 -197.5t68 -282.5q0 -165 -81.5 -297.5t-222 -206t-312.5 -73.5z" />
    <glyph glyph-name="six.tf" horiz-adv-x="1492" 
d="M743 -23q-161 0 -294.5 65t-214.5 190t-81 288q0 56 12.5 108t37.5 113.5t89.5 174.5t139 237.5t215.5 355.5q41 67 63 103l336 -1l-378 -614q69 38 153 38q134 0 251.5 -63t191.5 -181.5t74 -265.5q0 -107 -46 -207.5t-124.5 -175.5t-189.5 -120t-235 -45zM747 251
q122 0 210 84.5t88 198.5q0 121 -87 205t-210 84t-210.5 -84.5t-87.5 -205.5q0 -115 87 -198.5t210 -83.5z" />
    <glyph glyph-name="seven.tf" horiz-adv-x="1492" 
d="M383 0l555 1338h-738v274h1152v-52l-658 -1560h-311z" />
    <glyph glyph-name="eight.tf" horiz-adv-x="1492" 
d="M756 -23q-167 0 -300.5 66.5t-208 182t-74.5 257.5q0 88 31.5 166t81 131t107.5 86t115 41q-95 16 -171.5 105t-76.5 211q0 172 142 292.5t355 120.5q214 0 355.5 -120.5t141.5 -290.5q0 -124 -80 -212t-172 -106q55 -9 112.5 -42.5t108.5 -85.5t84 -130.5t33 -167.5
q0 -140 -74 -255t-208 -182t-302 -67zM757 995q94 0 161 55t67 141q0 90 -65 144.5t-162 54.5t-162.5 -54.5t-65.5 -143.5q0 -84 66.5 -140.5t160.5 -56.5zM755 246q120 0 207 77.5t87 191.5q0 110 -87 187t-206 77t-206 -78t-87 -188q0 -114 86 -190.5t206 -76.5z" />
    <glyph glyph-name="nine.tf" horiz-adv-x="1492" 
d="M448 -1l365 596q-64 -37 -138 -37q-134 0 -253.5 68.5t-192.5 190t-73 264.5q0 110 46.5 212t125 177.5t189 120.5t232.5 45t232.5 -45.5t189 -121t124.5 -178t46 -213.5q0 -49 -4.5 -85t-23.5 -87t-39 -91.5t-70.5 -127t-97.5 -162t-140.5 -229t-179.5 -297.5h-338z
M748 790q122 0 210 84t88 202q0 116 -88.5 201t-209.5 85q-122 0 -209.5 -84.5t-87.5 -201.5q0 -118 87.5 -202t209.5 -84z" />
    <glyph glyph-name="zero.tosf" horiz-adv-x="1342" 
d="M672 -21q-180 0 -319.5 85.5t-211.5 226t-72 309.5q0 170 72.5 310.5t212 226t319.5 85.5q179 0 317.5 -85.5t210 -226t71.5 -310.5q0 -126 -42.5 -239t-118.5 -198t-190 -134.5t-249 -49.5zM670 233q100 0 175.5 53.5t112 135.5t36.5 177q0 98 -37 181t-112 136t-175 53
t-175.5 -53.5t-112 -136t-36.5 -178.5t36.5 -178.5t112 -136t175.5 -53.5z" />
    <glyph glyph-name="one.tosf" horiz-adv-x="1342" 
d="M190 0v236h351v668l-228 -43v256l421 85h87v-966h331v-236h-962z" />
    <glyph glyph-name="two.tosf" horiz-adv-x="1342" 
d="M151 0v132q296 187 459.5 309t225.5 199t62 144q0 74 -64 130.5t-164 56.5q-110 0 -190 -74t-80 -176l-226 79q0 84 39 162t105 136t159.5 93t197.5 35q106 0 200 -34t160.5 -91t105 -134t38.5 -161q0 -297 -540 -572h554v-234h-1042z" />
    <glyph glyph-name="three.tosf" horiz-adv-x="1342" 
d="M674 -464q-144 0 -268 60t-202 157.5t-100 212.5l243 58q23 -93 112.5 -159.5t201.5 -66.5q117 0 206.5 72.5t89.5 195.5q0 99 -63.5 170t-169 104t-240.5 30l37 137q154 0 254 67t100 179q0 93 -67 153t-159 60q-87 0 -152.5 -54t-84.5 -131l-243 53q40 167 173.5 277.5
t321.5 110.5q131 0 242.5 -54.5t178 -153.5t66.5 -221t-67.5 -211.5t-167.5 -127.5q143 -45 231.5 -154t88.5 -264q0 -145 -78.5 -261t-206.5 -177.5t-277 -61.5z" />
    <glyph glyph-name="four.tosf" horiz-adv-x="1402" 
d="M910 -450v450h-880l571 1222l283 -2l-459 -965h485v505h281v-505h181v-255h-181v-450h-281z" />
    <glyph glyph-name="five.tosf" horiz-adv-x="1342" 
d="M651 -472q-180 0 -338 93t-234 257l234 93q46 -82 140.5 -137.5t185.5 -55.5q139 0 240.5 93.5t101.5 237.5q0 143 -95.5 231t-238.5 88q-116 0 -223 -58.5t-146 -145.5l-133 87l133 889h855v-250h-656l-65 -408q112 115 301 115q242 0 395 -156.5t153 -396.5
q0 -165 -81.5 -297.5t-220.5 -205.5t-308 -73z" />
    <glyph glyph-name="six.tosf" horiz-adv-x="1342" 
d="M669 -22q-120 0 -227 38.5t-186.5 107.5t-126.5 172t-47 224q0 123 69.5 262t351.5 604q87 144 137 226l310 -1l-379 -617q79 42 171 42q134 0 252 -63t192.5 -182t74.5 -266q0 -107 -46 -207t-124 -175t-188.5 -120t-233.5 -45zM672 239q128 0 219.5 87.5t91.5 206.5
q0 125 -91 213t-219 88q-128 -1 -219 -88.5t-91 -213.5q0 -118 91 -205.5t218 -87.5z" />
    <glyph glyph-name="seven.tosf" horiz-adv-x="1342" 
d="M273 -450l580 1390h-753v260h1145v-49l-679 -1601h-293z" />
    <glyph glyph-name="eight.tosf" horiz-adv-x="1342" 
d="M672 -22q-120 0 -226 40.5t-180 109t-116.5 161t-42.5 193.5q0 87 32 165t82 131.5t108 87t113 41.5q-92 17 -170 107.5t-78 214.5q0 169 135 287.5t342 118.5q206 0 342.5 -117t136.5 -288q0 -67 -25 -127t-63.5 -100t-80 -65t-78.5 -31q52 -9 108.5 -42.5t107 -86
t83.5 -130.5t33 -164q0 -100 -42 -192.5t-114.5 -161.5t-179 -110.5t-227.5 -41.5zM672 994q96 0 164.5 56t68.5 143q0 92 -67 148t-166 56q-98 0 -165 -56.5t-67 -146.5q0 -86 68 -143t164 -57zM670 239q122 0 210.5 79.5t88.5 194.5q0 111 -89 190t-209 79
q-121 0 -209 -79.5t-88 -191.5q0 -115 87.5 -193.5t208.5 -78.5z" />
    <glyph glyph-name="nine.tosf" horiz-adv-x="1342" 
d="M375 -450l388 642q-73 -41 -163 -41q-134 0 -253 68t-192 189.5t-73 265.5q0 146 78 273t214 203.5t297 76.5q162 0 298 -77t213.5 -204.5t77.5 -274.5q0 -57 -12 -109.5t-29.5 -99t-71.5 -141t-101 -172.5t-158 -259.5t-205 -339.5h-308zM670 371q128 0 220 87.5
t92 211.5q0 120 -92.5 208.5t-219.5 88.5q-128 0 -219 -88t-91 -209q0 -123 91.5 -211t218.5 -88z" />
    <glyph glyph-name="uni06F4.urdu" horiz-adv-x="1585" 
d="M881 1249q0 -61 30.5 -112.5t81.5 -80.5h509v-194h-847l339 -862h-254l-670 1601v49h275l234 -594h171q-41 70 -50.5 153t15.5 162t75.5 144t135 105t187.5 40q135 0 241 -69t149 -193l-183 -75q-17 75 -70.5 115.5t-137.5 40.5q-96 0 -163.5 -67.5t-67.5 -162.5z" />
    <glyph glyph-name="uni06F7.urdu" horiz-adv-x="1734" 
d="M1664 1650l-735 -1649h-127l-732 1649h319l475 -1119l477 1119h323z" />
    <glyph glyph-name="periodcentered.case" horiz-adv-x="627" 
d="M314 602q-81 0 -138 53.5t-57 129.5t57.5 130t137.5 54q78 0 135.5 -54.5t57.5 -129.5t-57 -129t-136 -54z" />
    <glyph glyph-name="bullet.case" horiz-adv-x="1117" 
d="M557 489q-133 0 -223 85t-90 210q0 127 90.5 212.5t224.5 85.5t224 -85t90 -212q0 -126 -91 -211t-225 -85z" />
    <glyph glyph-name="slash.case" horiz-adv-x="963" 
d="M24 -120l655 1852h260l-656 -1852h-259z" />
    <glyph glyph-name="backslash.case" horiz-adv-x="964" 
d="M680 -120l-656 1852h261l654 -1852h-259z" />
    <glyph glyph-name="parenleft.case" horiz-adv-x="684" 
d="M361 -120q-140 183 -210.5 430t-70.5 509q0 251 63.5 490t193.5 423h242q-106 -178 -168.5 -435t-62.5 -479q0 -233 70 -498.5t186 -439.5h-243z" />
    <glyph glyph-name="parenright.case" horiz-adv-x="684" 
d="M80 -120q116 174 186 439.5t70 498.5q0 222 -62.5 479t-168.5 435h242q130 -184 193.5 -423t63.5 -490q0 -262 -70.5 -509t-210.5 -430h-243z" />
    <glyph glyph-name="braceleft.case" horiz-adv-x="921" 
d="M593 -120q-117 0 -200 90t-83 217v191q0 144 -67 246.5t-163 102.5v167q96 0 163 102t67 247v183q0 126 83 216t200 90h248v-211l-149 -3q-55 -1 -91 -62t-36 -148v-97q0 -165 -66 -282.5t-158 -117.5q92 0 158 -117.5t66 -283.5v-105q0 -90 36 -152t91 -62h149v-211
h-248z" />
    <glyph glyph-name="braceright.case" horiz-adv-x="921" 
d="M80 -120v211h149q55 0 91.5 62t36.5 152v105q0 166 65.5 283.5t157.5 117.5q-92 0 -157.5 117.5t-65.5 282.5v97q0 86 -36.5 147.5t-91.5 62.5l-149 3v211h248q117 0 200.5 -90t83.5 -216v-183q0 -145 66.5 -247t162.5 -102v-167q-96 0 -162.5 -102.5t-66.5 -246.5v-191
q0 -127 -83.5 -217t-200.5 -90h-248z" />
    <glyph glyph-name="bracketleft.case" horiz-adv-x="753" 
d="M159 -120v1852h514v-211h-259v-1430h259v-211h-514z" />
    <glyph glyph-name="bracketright.case" horiz-adv-x="753" 
d="M80 -120v211h259v1430h-259v211h514v-1852h-514z" />
    <glyph glyph-name="hyphen.case" horiz-adv-x="985" 
d="M80 666v246h826v-246h-826z" />
    <glyph glyph-name="endash.case" horiz-adv-x="1492" 
d="M89 666v246h1314v-246h-1314z" />
    <glyph glyph-name="emdash.case" horiz-adv-x="2048" 
d="M73 666v246h1902v-246h-1902z" />
    <glyph glyph-name="figuredash.case" horiz-adv-x="1100" 
d="M80 666v246h940v-246h-940z" />
    <glyph glyph-name="guillemotleft.case" horiz-adv-x="1227" 
d="M467 269l-387 519l387 519l187 -40l-308 -479l308 -479zM961 269l-388 519l388 519l187 -40l-309 -479l309 -479z" />
    <glyph glyph-name="guillemotright.case" horiz-adv-x="1227" 
d="M267 269l-187 40l308 479l-308 479l187 40l387 -519zM761 269l-188 40l309 479l-309 479l188 40l387 -519z" />
    <glyph glyph-name="guilsinglleft.case" horiz-adv-x="734" 
d="M467 269l-387 519l387 519l187 -40l-308 -479l308 -479z" />
    <glyph glyph-name="guilsinglright.case" horiz-adv-x="734" 
d="M267 269l-187 40l308 479l-308 479l187 40l387 -519z" />
    <glyph glyph-name="dotabovear" 
d="M165 1357q-70 0 -117.5 44.5t-47.5 107.5t47.5 107.5t117.5 44.5t117.5 -44.5t47.5 -107.5t-47.5 -107.5t-117.5 -44.5z" />
    <glyph glyph-name="dotbelowar" 
d="M165 42q-70 0 -117.5 44.5t-47.5 107.5t47.5 107.5t117.5 44.5t117.5 -44.5t47.5 -107.5t-47.5 -107.5t-117.5 -44.5z" />
    <glyph glyph-name="dotcenterar" 
d="M165 531q-70 0 -117.5 44.5t-47.5 107.5t47.5 107.5t117.5 44.5t117.5 -44.5t47.5 -107.5t-47.5 -107.5t-117.5 -44.5z" />
    <glyph glyph-name="twodotsverticalabovear" 
d="M165 1842q-70 0 -117.5 44.5t-47.5 107.5t47.5 107.5t117.5 44.5t117.5 -44.5t47.5 -107.5t-47.5 -107.5t-117.5 -44.5zM165 1357q-70 0 -117.5 44.5t-47.5 107.5t47.5 107.5t117.5 44.5t117.5 -44.5t47.5 -107.5t-47.5 -107.5t-117.5 -44.5z" />
    <glyph glyph-name="twodotsverticalbelowar" 
d="M165 520q-70 0 -117.5 44.5t-47.5 107.5t47.5 107.5t117.5 44.5t117.5 -44.5t47.5 -107.5t-47.5 -107.5t-117.5 -44.5zM165 35q-70 0 -117.5 44.5t-47.5 107.5t47.5 107.5t117.5 44.5t117.5 -44.5t47.5 -107.5t-47.5 -107.5t-117.5 -44.5z" />
    <glyph glyph-name="twodotshorizontalabovear" 
d="M165 1357q-70 0 -117.5 44.5t-47.5 107.5t47.5 107.5t117.5 44.5t117.5 -44.5t47.5 -107.5t-47.5 -107.5t-117.5 -44.5zM665 1357q-70 0 -117.5 44.5t-47.5 107.5t47.5 107.5t117.5 44.5t117.5 -44.5t47.5 -107.5t-47.5 -107.5t-117.5 -44.5z" />
    <glyph glyph-name="twodotshorizontalbelowar" 
d="M165 35q-70 0 -117.5 44.5t-47.5 107.5t47.5 107.5t117.5 44.5t117.5 -44.5t47.5 -107.5t-47.5 -107.5t-117.5 -44.5zM665 35q-70 0 -117.5 44.5t-47.5 107.5t47.5 107.5t117.5 44.5t117.5 -44.5t47.5 -107.5t-47.5 -107.5t-117.5 -44.5z" />
    <glyph glyph-name="threedotsdownabovear" 
d="M415 1427q-69 0 -117 44.5t-48 107.5t48 107.5t117 44.5q70 0 117.5 -44.5t47.5 -107.5t-47.5 -107.5t-117.5 -44.5zM165 970q-70 0 -117.5 44.5t-47.5 107.5t47.5 107.5t117.5 44.5t117.5 -44.5t47.5 -107.5t-47.5 -107.5t-117.5 -44.5zM665 970q-70 0 -117.5 44.5
t-47.5 107.5t47.5 107.5t117.5 44.5t117.5 -44.5t47.5 -107.5t-47.5 -107.5t-117.5 -44.5z" />
    <glyph glyph-name="threedotsdownbelowar" 
d="M165 796q70 0 117.5 -44.5t47.5 -107.5t-47.5 -107.5t-117.5 -44.5t-117.5 44.5t-47.5 107.5t47.5 107.5t117.5 44.5zM665 796q70 0 117.5 -44.5t47.5 -107.5t-47.5 -107.5t-117.5 -44.5t-117.5 44.5t-47.5 107.5t47.5 107.5t117.5 44.5zM415 338q70 0 117.5 -44
t47.5 -107t-47.5 -107.5t-117.5 -44.5q-69 0 -117 44.5t-48 107.5t47.5 107t117.5 44z" />
    <glyph glyph-name="threedotsupabovear" 
d="M415 1814q-69 0 -117 44.5t-48 107.5t48 107.5t117 44.5q70 0 117.5 -44.5t47.5 -107.5t-47.5 -107.5t-117.5 -44.5zM165 1357q-70 0 -117.5 44.5t-47.5 107.5t47.5 107.5t117.5 44.5t117.5 -44.5t47.5 -107.5t-47.5 -107.5t-117.5 -44.5zM665 1357q-70 0 -117.5 44.5
t-47.5 107.5t47.5 107.5t117.5 44.5t117.5 -44.5t47.5 -107.5t-47.5 -107.5t-117.5 -44.5z" />
    <glyph glyph-name="threedotsupbelowar" 
d="M165 796q70 0 117.5 -44.5t47.5 -107.5t-47.5 -107.5t-117.5 -44.5t-117.5 44.5t-47.5 107.5t47.5 107.5t117.5 44.5zM665 796q70 0 117.5 -44.5t47.5 -107.5t-47.5 -107.5t-117.5 -44.5t-117.5 44.5t-47.5 107.5t47.5 107.5t117.5 44.5zM415 338q70 0 117.5 -44
t47.5 -107t-47.5 -107.5t-117.5 -44.5q-69 0 -117 44.5t-48 107.5t47.5 107t117.5 44z" />
    <glyph glyph-name="waslaar" 
 />
    <glyph glyph-name="miniKehehar" 
 />
    <glyph glyph-name="gafsarkashabovear" 
d="M0 1718h887v-168h-887v168z" />
    <glyph glyph-name="gafsarkashcenterar" 
 />
    <glyph glyph-name="doublestrokear" 
 />
    <glyph glyph-name="uni0654064F" 
d="M-1 1808v95h121q-12 33 -12 62q0 66 47.5 111t116.5 45q68 0 114.5 -44.5t47.5 -111.5t-46 -112t-116 -45h-273zM208 1965q0 -26 18 -44t46 -18q27 0 45.5 18t18.5 44t-18.5 43.5t-45.5 17.5q-28 0 -46 -17.5t-18 -43.5zM203 1483h220v-134h-423v134h58q-17 86 39 153
t149 67q61 0 111 -34.5t69 -89.5l-125 -50q-3 21 -18.5 35t-36.5 14q-24 0 -40 -17t-16 -41q0 -23 13 -37z" />
    <glyph glyph-name="uni0654064C" 
d="M-45 2034v94h150v-215h65q-12 27 -12 61q0 65 47 109.5t114 44.5t113 -44.5t47 -109.5q0 -65 -46 -109.5t-114 -44.5h-307v214h-57zM256 1974q0 -26 18 -43.5t45 -17.5t45 17.5t18 43.5t-18 43t-45 17t-45 -17t-18 -43zM203 1483h220v-134h-423v134h58q-17 86 39 153
t149 67q61 0 111 -34.5t69 -89.5l-125 -50q-3 21 -18.5 35t-36.5 14q-24 0 -40 -17t-16 -41q0 -23 13 -37z" />
    <glyph glyph-name="uni0654064E" 
d="M0 1864h435v-99h-435v99zM203 1483h220v-134h-423v134h58q-17 86 39 153t149 67q61 0 111 -34.5t69 -89.5l-125 -50q-3 21 -18.5 35t-36.5 14q-24 0 -40 -17t-16 -41q0 -23 13 -37z" />
    <glyph glyph-name="uni0654064B" 
d="M-1 2013h436v-99h-436v99zM-1 1852h436v-99h-436v99zM203 1483h220v-134h-423v134h58q-17 86 39 153t149 67q61 0 111 -34.5t69 -89.5l-125 -50q-3 21 -18.5 35t-36.5 14q-24 0 -40 -17t-16 -41q0 -23 13 -37z" />
    <glyph glyph-name="uni06540652" 
d="M217 1798q-67 0 -115 46t-48 111q0 64 48 110.5t115 46.5t115 -46.5t48 -110.5t-48 -110.5t-115 -46.5zM217 1896q25 0 42.5 17t17.5 40q0 24 -17.5 41.5t-42.5 17.5t-42.5 -17.5t-17.5 -41.5q0 -23 17.5 -40t42.5 -17zM203 1483h220v-134h-423v134h58q-17 86 39 153
t149 67q61 0 111 -34.5t69 -89.5l-125 -50q-3 21 -18.5 35t-36.5 14q-24 0 -40 -17t-16 -41q0 -23 13 -37z" />
    <glyph glyph-name="uni06550650" 
d="M203 209h220v-134h-423v134h58q-17 86 39 153t149 67q61 0 111 -34.5t69 -89.5l-125 -50q-3 21 -18.5 35t-36.5 14q-24 0 -40 -17t-16 -41q0 -23 13 -37zM-5 -1h436v-99h-436v99z" />
    <glyph glyph-name="uni0655064D" 
d="M203 209h220v-134h-423v134h58q-17 86 39 153t149 67q61 0 111 -34.5t69 -89.5l-125 -50q-3 21 -18.5 35t-36.5 14q-24 0 -40 -17t-16 -41q0 -23 13 -37zM-5 -14h436v-99h-436v99zM-5 -175h436v-99h-436v99z" />
    <glyph glyph-name="uni06510670" 
d="M295 1985v-315h-103v315h103zM273 1318q-15 -35 -47.5 -57t-74.5 -22q-66 0 -108.5 48.5t-42.5 117.5q0 66 38.5 114t91.5 57l24 -101q-19 -5 -32.5 -23t-13.5 -41q0 -24 15.5 -39.5t40.5 -16.5q35 -1 55 31.5t20 81.5l54 -14q0 -34 15 -54t37 -21q17 -1 27.5 10t10.5 27
q0 32 -33 43l21 100q53 -13 86 -53.5t32 -96.5q-1 -62 -36 -104t-89 -42q-30 0 -55 15t-36 40z" />
    <glyph glyph-name="uni0651064F" 
d="M26 1681v95h122q-12 28 -12 62q0 66 47 111t116 45t115.5 -44.5t47.5 -111.5t-46 -112t-117 -45h-273zM235 1838q0 -26 18 -44t46 -18t46 18t18 44t-18 43.5t-46 17.5t-46 -17.5t-18 -43.5zM273 1318q-15 -35 -47.5 -57t-74.5 -22q-66 0 -108.5 48.5t-42.5 117.5
q0 66 38.5 114t91.5 57l24 -101q-19 -5 -32.5 -23t-13.5 -41q0 -24 15.5 -39.5t40.5 -16.5q35 -1 55 31.5t20 81.5l54 -14q0 -34 15 -54t37 -21q17 -1 27.5 10t10.5 27q0 32 -33 43l21 100q53 -13 86 -53.5t32 -96.5q-1 -62 -36 -104t-89 -42q-30 0 -55 15t-36 40z" />
    <glyph glyph-name="uni0651064C" 
d="M-18 1907v94h151v-215h65q-12 27 -12 61q0 65 46.5 109.5t113.5 44.5t113 -44.5t47 -109.5t-45.5 -109.5t-114.5 -44.5h-307v214h-57zM283 1847q0 -26 18 -43.5t45 -17.5t45 17.5t18 43.5t-18 43t-45 17t-45 -17t-18 -43zM273 1318q-15 -35 -47.5 -57t-74.5 -22
q-66 0 -108.5 48.5t-42.5 117.5q0 66 38.5 114t91.5 57l24 -101q-19 -5 -32.5 -23t-13.5 -41q0 -24 15.5 -39.5t40.5 -16.5q35 -1 55 31.5t20 81.5l54 -14q0 -34 15 -54t37 -21q17 -1 27.5 10t10.5 27q0 32 -33 43l21 100q53 -13 86 -53.5t32 -96.5q-1 -62 -36 -104t-89 -42
q-30 0 -55 15t-36 40z" />
    <glyph glyph-name="uni0651064E" 
d="M27 1737h436v-99h-436v99zM273 1318q-15 -35 -47.5 -57t-74.5 -22q-66 0 -108.5 48.5t-42.5 117.5q0 66 38.5 114t91.5 57l24 -101q-19 -5 -32.5 -23t-13.5 -41q0 -24 15.5 -39.5t40.5 -16.5q35 -1 55 31.5t20 81.5l54 -14q0 -34 15 -54t37 -21q17 -1 27.5 10t10.5 27
q0 32 -33 43l21 100q53 -13 86 -53.5t32 -96.5q-1 -62 -36 -104t-89 -42q-30 0 -55 15t-36 40z" />
    <glyph glyph-name="uni0651064B.1" 
d="M27 1886h436v-99h-436v99zM27 1725h436v-99h-436v99zM273 1318q-15 -35 -47.5 -57t-74.5 -22q-66 0 -108.5 48.5t-42.5 117.5q0 66 38.5 114t91.5 57l24 -101q-19 -5 -32.5 -23t-13.5 -41q0 -24 15.5 -39.5t40.5 -16.5q35 -1 55 31.5t20 81.5l54 -14q0 -34 15 -54t37 -21
q17 -1 27.5 10t10.5 27q0 32 -33 43l21 100q53 -13 86 -53.5t32 -96.5q-1 -62 -36 -104t-89 -42q-30 0 -55 15t-36 40z" />
    <glyph glyph-name="uni06510650" 
d="M273 155q-15 -35 -47.5 -57t-74.5 -22q-66 0 -108.5 48.5t-42.5 117.5q0 66 38.5 114t91.5 57l24 -101q-19 -5 -32.5 -23t-13.5 -41q0 -24 15.5 -39.5t40.5 -16.5q35 -1 55 31.5t20 81.5l54 -14q0 -34 15 -54t37 -21q17 -1 27.5 10t10.5 27q0 32 -33 43l21 100
q53 -13 86 -53.5t32 -96.5q-1 -62 -36 -104t-89 -42q-30 0 -55 15t-36 40zM0 -10h435v-99h-435v99z" />
    <glyph glyph-name="uni0651064D" 
d="M273 342q-15 -35 -47.5 -56.5t-74.5 -21.5q-66 0 -108.5 48.5t-42.5 117.5q0 65 39 113.5t91 57.5l24 -101q-19 -5 -32.5 -23.5t-13.5 -40.5q0 -24 15.5 -39.5t40.5 -16.5q35 -1 55 31.5t20 80.5l54 -14q0 -34 15 -54t37 -20q17 -1 27.5 9.5t10.5 27.5q0 14 -9 26t-24 16
l21 100q53 -12 86 -52.5t32 -97.5q-1 -62 -36 -104t-89 -42q-30 0 -55 15t-36 40zM0 113h435v-99h-435v99zM0 -48h435v-99h-435v99z" />
    </font>
</defs>
</svg>
