<?xml version="1.0" standalone="no"?>
<!DOCTYPE svg PUBLIC "-//W3C//DTD SVG 1.1//EN" "http://www.w3.org/Graphics/SVG/1.1/DTD/svg11.dtd" >
<svg xmlns="http://www.w3.org/2000/svg" xmlns:xlink="http://www.w3.org/1999/xlink" version="1.1">
<metadata>
Created by FontForge 20170731 at Wed Apr 29 15:13:40 2020
 By Aleksey,,,
Copyright (c) 2020 by Tarek Alsawwa. All rights reserved.
</metadata>
<defs>
<font id="TSSafaa-Bold" horiz-adv-x="0" >
  <font-face 
    font-family="TS Safaa Bold"
    font-weight="700"
    font-stretch="normal"
    units-per-em="2048"
    panose-1="0 0 8 0 0 0 0 0 0 0"
    ascent="1638"
    descent="-410"
    x-height="1200"
    cap-height="1612"
    bbox="-903 -1213 3660 2885"
    underline-thickness="50"
    underline-position="-150"
    unicode-range="U+0020-FEFC"
  />
<missing-glyph horiz-adv-x="1332" 
d="M200 1612h932v-1612h-932v1612zM974 145v1321h-614v-1321h614z" />
    <glyph glyph-name="uniFDF2" unicode="&#x627;&#xfedf;&#xfee0;&#xfeea;" horiz-adv-x="3760" arabic-form="isolated" 
d="M2083 2885v-346h-111v346h111zM1914 2033q-81 0 -132.5 59t-51.5 144q0 80 47.5 138.5t111.5 69.5l29 -123q-23 -6 -39.5 -28t-16.5 -50q0 -29 18.5 -48t49.5 -20q43 -1 67.5 38.5t24.5 98.5l65 -17q0 -41 18.5 -65.5t45.5 -25.5q21 -1 33.5 12t12.5 33q0 40 -40 52
l26 122q65 -15 105 -64.5t39 -118.5q-1 -76 -44.5 -127t-108.5 -51q-37 0 -67.5 18t-43.5 49q-18 -43 -57.5 -69.5t-91.5 -26.5zM2604 402v1510h428v-1912h-2932v533q0 183 80 335t225.5 242t325.5 90h334v56h428v-854h399v1510h428v-1510h284zM3232 1912h428v-1912h-428
v1912zM1065 402v367h-333q-96 0 -159.5 -72.5t-63.5 -166.5v-128h556z" />
    <glyph glyph-name="uniFEF5" unicode="&#xfedf;&#xfe82;" horiz-adv-x="1365" arabic-form="isolated" 
d="M-8 2117q29 143 110.5 205.5t181.5 62.5q56 0 106.5 -20t80 -44.5t63.5 -44.5t63 -20q68 0 99 124l194 -60q-12 -62 -36.5 -110t-53.5 -77t-65 -48t-69 -26t-68 -7q-57 0 -107 20.5t-79 44.5t-63 44.5t-63 20.5q-70 0 -99 -125zM100 0v402h737v1510h428v-1912h-1165z
M235 540v1372h428v-1372h-428z" />
    <glyph glyph-name="uniFEF6" unicode="&#xfee0;&#xfe82;" horiz-adv-x="1501" arabic-form="final" 
d="M286 2182q-70 0 -99 -125l-195 60q29 143 110.5 205.5t181.5 62.5q56 0 106.5 -20t80 -44.5t63.5 -44.5t63 -20q68 0 99 124l194 -60q-12 -62 -36.5 -110t-53.5 -77t-65 -48t-69 -26t-68 -7q-57 0 -107 20.5t-79 44.5t-63 44.5t-63 20.5zM1265 402h246v-402h-1411v402
h737v1510h428v-1510zM235 540v1372h428v-1372h-428z" />
    <glyph glyph-name="uniFEF7" unicode="&#xfedf;&#xfe84;" horiz-adv-x="1365" arabic-form="isolated" 
d="M430 2150h265v-161h-509v161h70q-21 103 47 184t179 81q73 0 134 -41.5t83 -107.5l-151 -61q-4 26 -22.5 42.5t-43.5 16.5q-29 0 -48.5 -20t-19.5 -49q0 -26 16 -45zM100 0v402h737v1510h428v-1912h-1165zM235 540v1372h428v-1372h-428z" />
    <glyph glyph-name="uniFEF8" unicode="&#xfee0;&#xfe84;" horiz-adv-x="1501" arabic-form="final" 
d="M695 2150v-161h-509v161h70q-21 103 47 184t179 81q73 0 134 -41.5t83 -107.5l-151 -61q-4 26 -22.5 42.5t-43.5 16.5q-29 0 -48.5 -20t-19.5 -49q0 -26 16 -45h265zM1265 402h246v-402h-1411v402h737v1510h428v-1510zM663 540h-428v1372h428v-1372z" />
    <glyph glyph-name="uniFEF9" unicode="&#xfedf;&#xfe88;" horiz-adv-x="1365" arabic-form="isolated" 
d="M100 0v402h737v1510h428v-1912h-1165zM235 540v1372h428v-1372h-428zM428 -315h265v-161h-509v161h70q-21 103 47 184t179 81q73 0 134 -41.5t83 -107.5l-151 -61q-4 26 -22.5 42.5t-43.5 16.5q-29 0 -48.5 -20t-19.5 -49q0 -26 16 -45z" />
    <glyph glyph-name="uniFEFA" unicode="&#xfee0;&#xfe88;" horiz-adv-x="1501" arabic-form="final" 
d="M1265 402h246v-402h-1411v402h737v1510h428v-1510zM663 1912v-1372h-428v1372h428zM480 -201q-29 0 -48.5 -20t-19.5 -49q0 -26 16 -45h265v-161h-509v161h70q-21 103 47 184t179 81q73 0 134 -41.5t83 -107.5l-151 -61q-4 26 -22.5 42.5t-43.5 16.5z" />
    <glyph glyph-name="uniFEFB" unicode="&#xfedf;&#xfe8e;" horiz-adv-x="1365" arabic-form="isolated" 
d="M100 0v402h737v1510h428v-1912h-1165zM235 540v1372h428v-1372h-428z" />
    <glyph glyph-name="uniFEFC" unicode="&#xfee0;&#xfe8e;" horiz-adv-x="1501" arabic-form="final" 
d="M1265 402h246v-402h-1411v402h737v1510h428v-1510zM663 1912v-1372h-428v1372h428z" />
    <glyph glyph-name="uni066E.init" unicode="&#x66e;" horiz-adv-x="935" 
d="M-10 402h417v798h428v-1200h-845v402z" />
    <glyph glyph-name="uni066E.medi" unicode="&#x66e;" horiz-adv-x="1243" 
d="M1253 402v-402h-1263v402h417v798h428v-798h418z" />
    <glyph glyph-name="uni066E.fina" unicode="&#x66e;" horiz-adv-x="2256" 
d="M2017 402h249v-402h-1737q-139 32 -238 123t-145 213t-46 264q0 177 88.5 324t242.5 232t340 86v-370q-113 -1 -190 -80t-77 -192q0 -119 84 -198h1001v798h428v-798z" />
    <glyph glyph-name="uni066F.fina" unicode="&#x66f;" horiz-adv-x="2402" 
d="M2412 402v-402h-248q-51 -217 -232 -351t-420 -134h-744q-183 0 -335.5 79.5t-242.5 225t-90 326.5v356h431v-355q0 -97 71 -160t166 -63h742q108 0 179 76h-434q-193 69 -310.5 231.5t-117.5 368.5q0 177 89 324.5t244 232.5t342 85q98 0 194.5 -27t182.5 -81.5
t152 -129.5t106 -179.5t43 -224.5v-198h232zM1749 402v310q-32 72 -98.5 116t-148.5 44q-114 0 -192.5 -79t-78.5 -193q0 -119 84 -198h434z" />
    <glyph glyph-name="uni06A1.init" unicode="&#x6a1;" horiz-adv-x="1702" 
d="M-10 0v402h290q-26 80 -29.5 165t15 166t55.5 157t96.5 140t133.5 111.5t170 74t203 26.5q98 0 194.5 -27t182.5 -81.5t152 -129.5t106 -179.5t43 -224.5v-600h-1612zM653 600q0 -119 84 -198h437v303q-31 75 -98 121t-152 46q-114 0 -192.5 -79t-78.5 -193z" />
    <glyph glyph-name="uni06A1.medi" unicode="&#x6a1;" horiz-adv-x="1843" 
d="M1602 402h251v-402h-1863v402h290q-26 80 -29.5 165t15 166t55.5 157t96.5 140t133.5 111.5t170 74t203 26.5q98 0 194.5 -27t182.5 -81.5t152 -129.5t106 -179.5t43 -224.5v-198zM1174 402v303q-31 75 -98 121t-152 46q-114 0 -192.5 -79t-78.5 -193q0 -119 84 -198h437
z" />
    <glyph glyph-name="uni06A1.fina" unicode="&#x6a1;" horiz-adv-x="2861" 
d="M2621 402h250v-402h-2342q-111 25 -195.5 83.5t-134.5 139.5t-74.5 175.5t-24.5 201.5q0 177 88.5 324t242.5 232t340 86v-370q-113 -1 -190 -80t-77 -192q0 -119 84 -198h711q-26 80 -29.5 165t15 166t55.5 157t96.5 140t133.5 111.5t170 74t203 26.5q98 0 194.5 -27
t182.5 -81.5t152 -129.5t106 -179.5t43 -224.5v-198zM2193 402v303q-31 75 -98 121t-152 46q-114 0 -192.5 -79t-78.5 -193q0 -119 84 -198h437z" />
    <glyph glyph-name="uni06C2.fina" unicode="&#x6c2;" horiz-adv-x="1547" 
d="M728 1098h265v-161h-509v161h70q-21 103 47 184t179 81q73 0 134 -41.5t83 -107.5l-151 -61q-4 26 -22.5 42.5t-43.5 16.5q-29 0 -48.5 -20t-19.5 -49q0 -26 16 -45zM1355 412l242 -6v-402h-242q-78 0 -146.5 19.5t-115 46.5t-91.5 71.5t-70 78t-57 81.5
q-60 90 -88 119.5t-52 29.5q-50 0 -86.5 -36.5t-100.5 -152.5q-42 -77 -112.5 -146t-158.5 -115l-177 316q36 36 78.5 73t63 60t44.5 67q18 32 27 47.5t30.5 49.5t36 53t40.5 49t48.5 47.5t54.5 39t63.5 32.5t71 19t81.5 7q41 -1 80.5 -12t69.5 -25.5t62.5 -42t52.5 -46.5
t47.5 -55t38.5 -51.5t34 -50.5q66 -99 112.5 -131t118.5 -34z" />
    <glyph glyph-name="uni06C3.fina" unicode="&#x6c3;" horiz-adv-x="1547" 
d="M1355 412l242 -6v-402h-242q-78 0 -146.5 19.5t-115 46.5t-91.5 71.5t-70 78t-57 81.5q-60 90 -88 119.5t-52 29.5q-50 0 -86.5 -36.5t-100.5 -152.5q-42 -77 -112.5 -146t-158.5 -115l-177 316q36 36 78.5 73t63 60t44.5 67q18 32 27 47.5t30.5 49.5t36 53t40.5 49
t48.5 47.5t54.5 39t63.5 32.5t71 19t81.5 7q41 -1 80.5 -12t69.5 -25.5t62.5 -42t52.5 -46.5t47.5 -55t38.5 -51.5t34 -50.5q66 -99 112.5 -131t118.5 -34z" />
    <glyph glyph-name="uniFB57" unicode="&#x67e;" horiz-adv-x="2256" arabic-form="final" 
d="M2017 402h249v-402h-1737q-139 32 -238 123t-145 213t-46 264q0 177 88.5 324t242.5 232t340 86v-370q-113 -1 -190 -80t-77 -192q0 -119 84 -198h1001v798h428v-798zM1059 -354q0 -85 -64.5 -144t-160.5 -59q-95 0 -160 59t-65 144t65 144t160 59q96 0 160.5 -59
t64.5 -144zM1464 -151q96 0 160.5 -59t64.5 -144t-64.5 -144t-160.5 -59q-95 0 -160 59t-65 144t65 144t160 59zM1149 -707q96 0 160.5 -59t64.5 -144t-64.5 -144t-160.5 -59q-95 0 -160 59t-65 144t65 144t160 59z" />
    <glyph glyph-name="uniFB58" unicode="&#x67e;" horiz-adv-x="1400" arabic-form="initial" 
d="M1266 0h-1276v402h848v798h428v-1200zM670 -354q0 -85 -64.5 -144t-160.5 -59q-95 0 -160 59t-65 144t65 144t160 59q96 0 160.5 -59t64.5 -144zM1075 -151q96 0 160.5 -59t64.5 -144t-64.5 -144t-160.5 -59q-95 0 -160 59t-65 144t65 144t160 59zM760 -707
q96 0 160.5 -59t64.5 -144t-64.5 -144t-160.5 -59q-95 0 -160 59t-65 144t65 144t160 59z" />
    <glyph glyph-name="uniFB59" unicode="&#x67e;" horiz-adv-x="1673" arabic-form="medial" 
d="M1683 402v-402h-1693v402h847v798h428v-798h418zM683 -354q0 -85 -64.5 -144t-160.5 -59q-95 0 -160 59t-65 144t65 144t160 59q96 0 160.5 -59t64.5 -144zM1088 -151q96 0 160.5 -59t64.5 -144t-64.5 -144t-160.5 -59q-95 0 -160 59t-65 144t65 144t160 59zM773 -707
q96 0 160.5 -59t64.5 -144t-64.5 -144t-160.5 -59q-95 0 -160 59t-65 144t65 144t160 59z" />
    <glyph glyph-name="uniFB67" unicode="&#x679;" horiz-adv-x="2256" arabic-form="final" 
d="M1449 1408v-158h-570v119h60v448h127v-211h196q81 0 134 -57.5t53 -140.5zM1328 1369v38q0 28 -19 49.5t-47 21.5h-196v-109h262zM2017 402h249v-402h-1737q-139 32 -238 123t-145 213t-46 264q0 177 88.5 324t242.5 232t340 86v-370q-113 -1 -190 -80t-77 -192
q0 -119 84 -198h1001v798h428v-798z" />
    <glyph glyph-name="uniFB68" unicode="&#x679;" horiz-adv-x="1016" arabic-form="initial" 
d="M346 1250v119h60v448h127v-211h196q81 0 134 -57.5t53 -140.5v-158h-570zM533 1369h262v38q0 28 -19 49.5t-47 21.5h-196v-109zM-10 402h417v798h428v-1200h-845v402z" />
    <glyph glyph-name="uniFB69" unicode="&#x679;" horiz-adv-x="1243" arabic-form="medial" 
d="M916 1408v-158h-570v119h60v448h127v-211h196q81 0 134 -57.5t53 -140.5zM795 1369v38q0 28 -19 49.5t-47 21.5h-196v-109h262zM1253 402v-402h-1263v402h417v798h428v-798h418z" />
    <glyph glyph-name="uniFB6B" unicode="&#x6a4;" horiz-adv-x="2861" arabic-form="final" 
d="M1943 1948q-95 0 -160 59t-65 144t65 144t160 59q96 0 160.5 -59t64.5 -144t-64.5 -144t-160.5 -59zM1628 1392q-95 0 -160 59t-65 144t65 144t160 59q96 0 160.5 -59t64.5 -144t-64.5 -144t-160.5 -59zM2033 1595q0 85 65 144t160 59q96 0 160.5 -59t64.5 -144
t-64.5 -144t-160.5 -59q-95 0 -160 59t-65 144zM2621 402h250v-402h-2342q-111 25 -195.5 83.5t-134.5 139.5t-74.5 175.5t-24.5 201.5q0 177 88.5 324t242.5 232t340 86v-370q-113 -1 -190 -80t-77 -192q0 -119 84 -198h711q-26 80 -29.5 165t15 166t55.5 157t96.5 140
t133.5 111.5t170 74t203 26.5q98 0 194.5 -27t182.5 -81.5t152 -129.5t106 -179.5t43 -224.5v-198zM2193 402v303q-31 75 -98 121t-152 46q-114 0 -192.5 -79t-78.5 -193q0 -119 84 -198h437z" />
    <glyph glyph-name="uniFB6C" unicode="&#x6a4;" horiz-adv-x="1702" arabic-form="initial" 
d="M924 1948q-95 0 -160 59t-65 144t65 144t160 59q96 0 160.5 -59t64.5 -144t-64.5 -144t-160.5 -59zM609 1392q-95 0 -160 59t-65 144t65 144t160 59q96 0 160.5 -59t64.5 -144t-64.5 -144t-160.5 -59zM1239 1392q-95 0 -160 59t-65 144t65 144t160 59q96 0 160.5 -59
t64.5 -144t-64.5 -144t-160.5 -59zM-10 0v402h290q-26 80 -29.5 165t15 166t55.5 157t96.5 140t133.5 111.5t170 74t203 26.5q98 0 194.5 -27t182.5 -81.5t152 -129.5t106 -179.5t43 -224.5v-600h-1612zM653 600q0 -119 84 -198h437v303q-31 75 -98 121t-152 46
q-114 0 -192.5 -79t-78.5 -193z" />
    <glyph glyph-name="uniFB6D" unicode="&#x6a4;" horiz-adv-x="1843" arabic-form="medial" 
d="M924 1948q-95 0 -160 59t-65 144t65 144t160 59q96 0 160.5 -59t64.5 -144t-64.5 -144t-160.5 -59zM609 1392q-95 0 -160 59t-65 144t65 144t160 59q96 0 160.5 -59t64.5 -144t-64.5 -144t-160.5 -59zM1014 1595q0 85 65 144t160 59q96 0 160.5 -59t64.5 -144t-64.5 -144
t-160.5 -59q-95 0 -160 59t-65 144zM1602 402h251v-402h-1863v402h290q-26 80 -29.5 165t15 166t55.5 157t96.5 140t133.5 111.5t170 74t203 26.5q98 0 194.5 -27t182.5 -81.5t152 -129.5t106 -179.5t43 -224.5v-198zM1174 402v303q-31 75 -98 121t-152 46
q-114 0 -192.5 -79t-78.5 -193q0 -119 84 -198h437z" />
    <glyph glyph-name="uniFB7B" unicode="&#x686;" horiz-adv-x="1994" arabic-form="final" 
d="M1757 402h247v-402h-1495q1 -95 64 -166.5t159 -71.5h414q-3 12 -3 26q0 57 43.5 96t106.5 39q64 0 107.5 -39t43.5 -96t-43.5 -96.5t-107.5 -39.5q-45 0 -81.5 21.5t-54.5 56.5v-399h-426q-136 0 -254.5 53t-200.5 143t-129 213t-47 260v402h1248v128q0 94 -63.5 166.5
t-159.5 72.5h-1025v431h1026q180 0 325.5 -90t225.5 -242t80 -335v-131zM1714 -77q64 0 107 -39t43 -96t-43 -96.5t-107 -39.5q-63 0 -106.5 39.5t-43.5 96.5t43.5 96t106.5 39zM1504 -448q64 0 107 -39.5t43 -95.5q0 -57 -43 -96.5t-107 -39.5t-107.5 39.5t-43.5 96.5
q0 56 43.5 95.5t107.5 39.5z" />
    <glyph glyph-name="uniFB7C" unicode="&#x686;" horiz-adv-x="2005" arabic-form="initial" 
d="M-10 0v402h1506v128q0 94 -63.5 166.5t-159.5 72.5h-1025v431h1026q180 0 325.5 -90t225.5 -242t80 -335v-533h-1915zM563 -151q96 0 160.5 -59t64.5 -144t-64.5 -144t-160.5 -59q-95 0 -160 59t-65 144t65 144t160 59zM1193 -151q96 0 160.5 -59t64.5 -144t-64.5 -144
t-160.5 -59q-95 0 -160 59t-65 144t65 144t160 59zM878 -707q96 0 160.5 -59t64.5 -144t-64.5 -144t-160.5 -59q-95 0 -160 59t-65 144t65 144t160 59z" />
    <glyph glyph-name="uniFB7D" unicode="&#x686;" horiz-adv-x="2146" arabic-form="medial" 
d="M1905 402h251v-402h-2166v402h1506v128q0 94 -63.5 166.5t-159.5 72.5h-1025v431h1026q180 0 325.5 -90t225.5 -242t80 -335v-131zM788 -354q0 -85 -64.5 -144t-160.5 -59q-95 0 -160 59t-65 144t65 144t160 59q96 0 160.5 -59t64.5 -144zM1193 -151q96 0 160.5 -59
t64.5 -144t-64.5 -144t-160.5 -59q-95 0 -160 59t-65 144t65 144t160 59zM878 -707q96 0 160.5 -59t64.5 -144t-64.5 -144t-160.5 -59q-95 0 -160 59t-65 144t65 144t160 59z" />
    <glyph glyph-name="uniFB89" unicode="&#x688;" horiz-adv-x="1656" arabic-form="final" 
d="M1078 1450v-158h-570v119h60v448h127v-211h196q81 0 134 -57.5t53 -140.5zM957 1411v38q0 28 -19 49.5t-47 21.5h-196v-109h262zM1746 402v-402h-1646v402h865q84 79 84 198q0 114 -78.5 193t-192.5 79q-85 0 -152 -46t-98 -121l-373 149q81 182 254 285t369 103
q187 0 342 -85t244 -232.5t89 -324.5q0 -102 -31 -198h324z" />
    <glyph glyph-name="uniFB8B" unicode="&#x698;" horiz-adv-x="1345" arabic-form="final" 
d="M903 1906q-95 0 -160 59t-65 144t65 144t160 59q96 0 160.5 -59t64.5 -144t-64.5 -144t-160.5 -59zM588 1350q-95 0 -160 59t-65 144t65 144t160 59q96 0 160.5 -59t64.5 -144t-64.5 -144t-160.5 -59zM1218 1756q96 0 160.5 -59t64.5 -144t-64.5 -144t-160.5 -59
q-95 0 -160 59t-65 144t65 144t160 59zM1123 1197v-795h232v-402h-248q-51 -217 -232 -351t-420 -134h-355v409h353q94 0 166.5 63.5t72.5 159.5v1050h431z" />
    <glyph glyph-name="uniFB8D" unicode="&#x691;" horiz-adv-x="1345" arabic-form="final" 
d="M1203 1408v-158h-570v119h60v448h127v-211h196q81 0 134 -57.5t53 -140.5zM1082 1369v38q0 28 -19 49.5t-47 21.5h-196v-109h262zM1355 402v-402h-248q-51 -217 -232 -351t-420 -134h-355v409h353q94 0 166.5 63.5t72.5 159.5v1050h431v-795h232z" />
    <glyph glyph-name="uniFB8F" unicode="&#x6a9;" horiz-adv-x="2815" arabic-form="final" 
d="M2698 402h251v-402h-2470q-211 49 -320 197.5t-109 362.5q0 177 88.5 324t242.5 232t340 86v-370q-113 -1 -190 -80t-77 -192q0 -38 12 -66.5t25.5 -44.5t46.5 -47h1751v128q0 94 -63.5 166.5t-159.5 72.5h-1025q-12 265 3 455t58 324.5t122 213.5t187 114.5t261 35.5
h624v-431h-623q-103 0 -163 -75.5t-60 -205.5h617q136 0 254.5 -53t200.5 -143t129 -213t47 -260v-129z" />
    <glyph glyph-name="uniFB90" unicode="&#x6a9;" horiz-adv-x="1915" arabic-form="initial" 
d="M-10 0v402h1416v128q0 94 -63.5 166.5t-159.5 72.5h-1025q-12 265 3 455t58 324.5t122 213.5t187 114.5t261 35.5h624v-431h-623q-103 0 -163 -75.5t-60 -205.5h617q136 0 254.5 -53t200.5 -143t129 -213t47 -260v-531h-1825z" />
    <glyph glyph-name="uniFB91" unicode="&#x6a9;" horiz-adv-x="1972" arabic-form="medial" 
d="M1815 402h251v-402h-2076v402h1416v128q0 94 -63.5 166.5t-159.5 72.5h-1025q-12 265 3 455t58 324.5t122 213.5t187 114.5t261 35.5h624v-431h-623q-103 0 -163 -75.5t-60 -205.5h617q136 0 254.5 -53t200.5 -143t129 -213t47 -260v-129z" />
    <glyph glyph-name="uniFB93" unicode="&#x6af;" horiz-adv-x="2815" arabic-form="final" 
d="M2283 2280v-234h-933v234h933zM2698 402h251v-402h-2470q-211 49 -320 197.5t-109 362.5q0 177 88.5 324t242.5 232t340 86v-370q-113 -1 -190 -80t-77 -192q0 -38 12 -66.5t25.5 -44.5t46.5 -47h1751v128q0 94 -63.5 166.5t-159.5 72.5h-1025q-12 265 3 455t58 324.5
t122 213.5t187 114.5t261 35.5h624v-431h-623q-103 0 -163 -75.5t-60 -205.5h617q136 0 254.5 -53t200.5 -143t129 -213t47 -260v-129z" />
    <glyph glyph-name="uniFB94" unicode="&#x6af;" horiz-adv-x="1915" arabic-form="initial" 
d="M467 2280h933v-234h-933v234zM-10 0v402h1416v128q0 94 -63.5 166.5t-159.5 72.5h-1025q-12 265 3 455t58 324.5t122 213.5t187 114.5t261 35.5h624v-431h-623q-103 0 -163 -75.5t-60 -205.5h617q136 0 254.5 -53t200.5 -143t129 -213t47 -260v-531h-1825z" />
    <glyph glyph-name="uniFB95" unicode="&#x6af;" horiz-adv-x="1972" arabic-form="medial" 
d="M1400 2280v-234h-933v234h933zM1815 402h251v-402h-2076v402h1416v128q0 94 -63.5 166.5t-159.5 72.5h-1025q-12 265 3 455t58 324.5t122 213.5t187 114.5t261 35.5h624v-431h-623q-103 0 -163 -75.5t-60 -205.5h617q136 0 254.5 -53t200.5 -143t129 -213t47 -260v-129z
" />
    <glyph glyph-name="uniFB9F" unicode="&#x6ba;" horiz-adv-x="1661" arabic-form="final" 
d="M1671 402v-402h-249q-51 -217 -232 -351t-421 -134q-137 0 -260 47t-213 129t-143 200.5t-53 254.5v1054h431v-1053q0 -97 71 -160t166 -63q94 0 166.5 63.5t72.5 159.5v1053h431v-798h233z" />
    <glyph glyph-name="uniFBA7" unicode="&#x6c1;" horiz-adv-x="1547" arabic-form="final" 
d="M1355 412l242 -6v-402h-242q-78 0 -146.5 19.5t-115 46.5t-91.5 71.5t-70 78t-57 81.5q-60 90 -88 119.5t-52 29.5q-50 0 -86.5 -36.5t-100.5 -152.5q-42 -77 -112.5 -146t-158.5 -115l-177 316q36 36 78.5 73t63 60t44.5 67q18 32 27 47.5t30.5 49.5t36 53t40.5 49
t48.5 47.5t54.5 39t63.5 32.5t71 19t81.5 7q41 -1 80.5 -12t69.5 -25.5t62.5 -42t52.5 -46.5t47.5 -55t38.5 -51.5t34 -50.5q66 -99 112.5 -131t118.5 -34z" />
    <glyph glyph-name="uniFBA8" unicode="&#x6c1;" horiz-adv-x="935" arabic-form="initial" 
d="M-10 402h417v798h428v-1200h-845v402zM644 -128q68 0 117 -26.5t49 -50.5q-29 0 -61 -10.5t-63.5 -31t-52 -58t-20.5 -84.5t17 -75q76 0 137.5 -65.5t61.5 -159.5q0 -107 -80 -185t-200 -78q-127 0 -202 93.5t-75 249.5q0 89 25.5 174.5t72 154t118 110.5t156.5 42z" />
    <glyph glyph-name="uniFBA9" unicode="&#x6c1;" horiz-adv-x="1618" arabic-form="medial" 
d="M-50 6v397h242q78 0 146.5 -19.5t115 -46.5t91.5 -71.5t70 -78t57 -81.5q58 -88 86 -117.5t51 -31.5q23 2 51 31.5t86 117.5q32 48 57 81.5t70 78t91.5 71.5t115 46.5t146.5 19.5h242v-397l-242 -6q-71 -1 -117 -35t-114 -135q-23 -35 -34 -50.5t-38.5 -51.5t-47.5 -55
t-52.5 -46.5t-62.5 -42t-69.5 -25.5t-80.5 -12h-2q-41 1 -80.5 12t-69.5 25.5t-62.5 42t-52.5 46.5t-47.5 55t-38.5 51.5t-34 50.5q-68 101 -114 135t-117 35z" />
    <glyph glyph-name="uniFBAB" unicode="&#x6be;" horiz-adv-x="1765" arabic-form="final" 
d="M100 0v533q0 183 80 335t225.5 242t325.5 90h334v56h428v-854h282v-402h-1675zM509 402h556v367h-333q-96 0 -159.5 -72.5t-63.5 -166.5v-128z" />
    <glyph glyph-name="uniFBAC" unicode="&#x6be;" horiz-adv-x="2355" arabic-form="initial" 
d="M-10 0v402h276q-30 89 -30 189q0 168 84 307.5t230.5 220.5t323.5 81h750q180 0 325.5 -90t225.5 -242t80 -335v-533h-2265zM698 403h414v288q-28 71 -92 115t-144 44q-108 0 -182.5 -75.5t-74.5 -183.5q0 -112 79 -188zM1519 402h327v128q0 94 -63.5 166.5t-159.5 72.5
h-133q28 -84 29 -178v-189z" />
    <glyph glyph-name="uniFBAD" unicode="&#x6be;" horiz-adv-x="2496" arabic-form="medial" 
d="M2255 402h251v-402h-2516v402h276q-30 89 -30 189q0 168 84 307.5t230.5 220.5t323.5 81h750q180 0 325.5 -90t225.5 -242t80 -335v-131zM1112 403v288q-28 71 -92 115t-144 44q-108 0 -182.5 -75.5t-74.5 -183.5q0 -112 79 -188h414zM1846 402v128q0 94 -63.5 166.5
t-159.5 72.5h-133q28 -84 29 -178v-189h327z" />
    <glyph glyph-name="uniFBAF" unicode="&#x6d2;" horiz-adv-x="2005" arabic-form="final" 
d="M100 0v402h1915v-402h-1506q1 -95 64 -167t159 -72h1025v-431h-1026q-181 0 -326.5 90.5t-225 243.5t-79.5 336zM734 -1213q-95 0 -160 59t-65 144t65 144t160 59q96 0 160.5 -59t64.5 -144t-64.5 -144t-160.5 -59zM1364 -1213q-95 0 -160 59t-65 144t65 144t160 59
q96 0 160.5 -59t64.5 -144t-64.5 -144t-160.5 -59z" />
    <glyph glyph-name="uniFBB1" unicode="&#x6d3;" horiz-adv-x="3030" arabic-form="final" 
d="M2856 402h194v-402h-611v648q-2 25 -9 45t-15.5 33t-23 22t-25 13.5t-29 6.5t-27 2.5t-27 0t-22.5 -0.5h-776q-3 0 -24 0.5t-29 0t-28.5 -3t-30.5 -8t-25 -16.5t-22.5 -26.5t-13.5 -39.5t-6 -54h327q142 0 274.5 -65t220 -187t87.5 -269q0 -158 -89.5 -293t-243.5 -214.5
t-335 -79.5h-736q-183 0 -335.5 79.5t-242.5 225t-90 326.5v256h431v-255q0 -97 71 -160t166 -63h736q38 0 61 1t55 4.5t51 12.5t38 23.5t27.5 38.5t8.5 57q0 63 -47.5 97t-108.5 34h-795q-9 220 11.5 388.5t68.5 285.5t125 192t176 109t227 34h796q105 0 186.5 -10.5
t146 -32.5t110 -56.5t78.5 -82.5t52 -109.5t29.5 -138t12.5 -168.5t0 -201zM609 640v-161h-509v161h70q-21 103 47 184t179 81q73 0 134 -41.5t83 -107.5l-151 -61q-4 26 -22.5 42.5t-43.5 16.5q-29 0 -48.5 -20t-19.5 -49q0 -26 16 -45h265z" />
    <glyph glyph-name="uniFBFD" unicode="&#x6cc;" horiz-adv-x="2005" arabic-form="final" 
d="M100 0v402h1915v-402h-1506q1 -95 64 -167t159 -72h1025v-431h-1026q-181 0 -326.5 90.5t-225 243.5t-79.5 336zM734 -1213q-95 0 -160 59t-65 144t65 144t160 59q96 0 160.5 -59t64.5 -144t-64.5 -144t-160.5 -59zM1364 -1213q-95 0 -160 59t-65 144t65 144t160 59
q96 0 160.5 -59t64.5 -144t-64.5 -144t-160.5 -59z" />
    <glyph glyph-name="uniFBFE" unicode="&#x6cc;" horiz-adv-x="1303" arabic-form="initial" 
d="M775 1200h428v-1200h-1223v402h795v798zM333 -78q96 0 160.5 -59t64.5 -144t-64.5 -144t-160.5 -59q-95 0 -160 59t-65 144t65 144t160 59zM963 -78q96 0 160.5 -59t64.5 -144t-64.5 -144t-160.5 -59q-95 0 -160 59t-65 144t65 144t160 59z" />
    <glyph glyph-name="uniFBFF" unicode="&#x6cc;" horiz-adv-x="1600" arabic-form="medial" 
d="M1620 402v-402h-1640v402h794v798h428v-798h418zM369 -82q96 0 160.5 -59t64.5 -144t-64.5 -144t-160.5 -59q-95 0 -160 59t-65 144t65 144t160 59zM999 -82q96 0 160.5 -59t64.5 -144t-64.5 -144t-160.5 -59q-95 0 -160 59t-65 144t65 144t160 59z" />
    <glyph glyph-name="uniFE82" unicode="&#x622;" horiz-adv-x="791" arabic-form="final" 
d="M0 2118q29 143 110.5 205.5t181.5 62.5q56 0 106.5 -20t80 -44.5t63.5 -44.5t63 -20q68 0 99 124l194 -60q-12 -62 -36.5 -110t-53.5 -77t-65 -48t-69 -26t-68 -7q-57 0 -107 20.5t-79 44.5t-63 44.5t-63 20.5q-70 0 -99 -125zM801 402v-402h-565v1912h428v-1510h137z
" />
    <glyph glyph-name="uniFE84" unicode="&#x623;" horiz-adv-x="697" arabic-form="final" 
d="M344 2151h265v-161h-509v161h70q-21 103 47 184t179 81q73 0 134 -41.5t83 -107.5l-151 -61q-4 26 -22.5 42.5t-43.5 16.5q-29 0 -48.5 -20t-19.5 -49q0 -26 16 -45zM707 402v-402h-565v1912h428v-1510h137z" />
    <glyph glyph-name="uniFE86" unicode="&#x624;" horiz-adv-x="1691" arabic-form="final" 
d="M1029 1480v-161h-509v161h70q-21 103 47 184t179 81q73 0 134 -41.5t83 -107.5l-151 -61q-4 26 -22.5 42.5t-43.5 16.5q-29 0 -48.5 -20t-19.5 -49q0 -26 16 -45h265zM1453 402h248v-402h-251v82q-16 -165 -108 -295t-238 -201t-319 -71h-355v409h353q108 0 179 76h-434
q-193 69 -310.5 231.5t-117.5 368.5q0 177 89 324.5t244 232.5t342 85q98 0 194.5 -27t182.5 -81.5t152 -129.5t106 -179.5t43 -224.5v-198zM1022 402v310q-32 72 -98.5 116t-148.5 44q-114 0 -192.5 -79t-78.5 -193q0 -119 84 -198h434z" />
    <glyph glyph-name="uniFE88" unicode="&#x625;" horiz-adv-x="698" arabic-form="final" 
d="M708 402v-402h-565v1912h428v-1510h137zM344 -315h265v-161h-509v161h70q-21 103 47 184t179 81q73 0 134 -41.5t83 -107.5l-151 -61q-4 26 -22.5 42.5t-43.5 16.5q-29 0 -48.5 -20t-19.5 -49q0 -26 16 -45z" />
    <glyph glyph-name="uniFE8A" unicode="&#x626;" horiz-adv-x="3030" arabic-form="final" 
d="M2856 402h194v-402h-611v648q-2 25 -9 45t-15.5 33t-23 22t-25 13.5t-29 6.5t-27 2.5t-27 0t-22.5 -0.5h-776q-3 0 -24 0.5t-29 0t-28.5 -3t-30.5 -8t-25 -16.5t-22.5 -26.5t-13.5 -39.5t-6 -54h327q142 0 274.5 -65t220 -187t87.5 -269q0 -158 -89.5 -293t-243.5 -214.5
t-335 -79.5h-736q-183 0 -335.5 79.5t-242.5 225t-90 326.5v256h431v-255q0 -97 71 -160t166 -63h736q38 0 61 1t55 4.5t51 12.5t38 23.5t27.5 38.5t8.5 57q0 63 -47.5 97t-108.5 34h-795q-9 220 11.5 388.5t68.5 285.5t125 192t176 109t227 34h796q105 0 186.5 -10.5
t146 -32.5t110 -56.5t78.5 -82.5t52 -109.5t29.5 -138t12.5 -168.5t0 -201zM609 640v-161h-509v161h70q-21 103 47 184t179 81q73 0 134 -41.5t83 -107.5l-151 -61q-4 26 -22.5 42.5t-43.5 16.5q-29 0 -48.5 -20t-19.5 -49q0 -26 16 -45h265z" />
    <glyph glyph-name="uniFE8B" unicode="&#x626;" horiz-adv-x="974" arabic-form="initial" 
d="M605 1438h265v-161h-509v161h70q-21 103 47 184t179 81q73 0 134 -41.5t83 -107.5l-151 -61q-4 26 -22.5 42.5t-43.5 16.5q-29 0 -48.5 -20t-19.5 -49q0 -26 16 -45zM-10 402h417v798h428v-1200h-845v402z" />
    <glyph glyph-name="uniFE8C" unicode="&#x626;" horiz-adv-x="1243" arabic-form="medial" 
d="M870 1438v-161h-509v161h70q-21 103 47 184t179 81q73 0 134 -41.5t83 -107.5l-151 -61q-4 26 -22.5 42.5t-43.5 16.5q-29 0 -48.5 -20t-19.5 -49q0 -26 16 -45h265zM1253 402v-402h-1263v402h417v798h428v-798h418z" />
    <glyph glyph-name="uniFE8E" unicode="&#x627;" horiz-adv-x="655" arabic-form="final" 
d="M665 402v-402h-565v1912h428v-1510h137z" />
    <glyph glyph-name="uniFE90" unicode="&#x628;" horiz-adv-x="2256" arabic-form="final" 
d="M2017 402h249v-402h-1737q-139 32 -238 123t-145 213t-46 264q0 177 88.5 324t242.5 232t340 86v-370q-113 -1 -190 -80t-77 -192q0 -119 84 -198h1001v798h428v-798zM1149 -80q96 0 160.5 -59t64.5 -144t-64.5 -144t-160.5 -59q-95 0 -160 59t-65 144t65 144t160 59z
" />
    <glyph glyph-name="uniFE91" unicode="&#x628;" horiz-adv-x="935" arabic-form="initial" 
d="M-10 402h417v798h428v-1200h-845v402zM597 -486q-95 0 -160 59t-65 144t65 144t160 59q96 0 160.5 -59t64.5 -144t-64.5 -144t-160.5 -59z" />
    <glyph glyph-name="uniFE92" unicode="&#x628;" horiz-adv-x="1243" arabic-form="medial" 
d="M1253 402v-402h-1263v402h417v798h428v-798h418zM597 -80q96 0 160.5 -59t64.5 -144t-64.5 -144t-160.5 -59q-95 0 -160 59t-65 144t65 144t160 59z" />
    <glyph glyph-name="uniFE94" unicode="&#x629;" horiz-adv-x="1765" arabic-form="final" 
d="M415 1350q-95 0 -160 59t-65 144t65 144t160 59q96 0 160.5 -59t64.5 -144t-64.5 -144t-160.5 -59zM1045 1350q-95 0 -160 59t-65 144t65 144t160 59q96 0 160.5 -59t64.5 -144t-64.5 -144t-160.5 -59zM100 0v533q0 183 80 335t225.5 242t325.5 90h334v56h428v-854h282
v-402h-1675zM509 402h556v367h-333q-96 0 -159.5 -72.5t-63.5 -166.5v-128z" />
    <glyph glyph-name="uniFE96" unicode="&#x62a;" horiz-adv-x="2256" arabic-form="final" 
d="M834 1350q-95 0 -160 59t-65 144t65 144t160 59q96 0 160.5 -59t64.5 -144t-64.5 -144t-160.5 -59zM1464 1350q-95 0 -160 59t-65 144t65 144t160 59q96 0 160.5 -59t64.5 -144t-64.5 -144t-160.5 -59zM2017 402h249v-402h-1737q-139 32 -238 123t-145 213t-46 264
q0 177 88.5 324t242.5 232t340 86v-370q-113 -1 -190 -80t-77 -192q0 -119 84 -198h1001v798h428v-798z" />
    <glyph glyph-name="uniFE97" unicode="&#x62a;" horiz-adv-x="1256" arabic-form="initial" 
d="M301 1350q-95 0 -160 59t-65 144t65 144t160 59q96 0 160.5 -59t64.5 -144t-64.5 -144t-160.5 -59zM931 1350q-95 0 -160 59t-65 144t65 144t160 59q96 0 160.5 -59t64.5 -144t-64.5 -144t-160.5 -59zM-10 402h417v798h428v-1200h-845v402z" />
    <glyph glyph-name="uniFE98" unicode="&#x62a;" horiz-adv-x="1243" arabic-form="medial" 
d="M301 1350q-95 0 -160 59t-65 144t65 144t160 59q96 0 160.5 -59t64.5 -144t-64.5 -144t-160.5 -59zM931 1350q-95 0 -160 59t-65 144t65 144t160 59q96 0 160.5 -59t64.5 -144t-64.5 -144t-160.5 -59zM1253 402v-402h-1263v402h417v798h428v-798h418z" />
    <glyph glyph-name="uniFE9A" unicode="&#x62b;" horiz-adv-x="2256" arabic-form="final" 
d="M1149 1906q-95 0 -160 59t-65 144t65 144t160 59q96 0 160.5 -59t64.5 -144t-64.5 -144t-160.5 -59zM834 1350q-95 0 -160 59t-65 144t65 144t160 59q96 0 160.5 -59t64.5 -144t-64.5 -144t-160.5 -59zM1239 1553q0 85 65 144t160 59q96 0 160.5 -59t64.5 -144
t-64.5 -144t-160.5 -59q-95 0 -160 59t-65 144zM2017 402h249v-402h-1737q-139 32 -238 123t-145 213t-46 264q0 177 88.5 324t242.5 232t340 86v-370q-113 -1 -190 -80t-77 -192q0 -119 84 -198h1001v798h428v-798z" />
    <glyph glyph-name="uniFE9B" unicode="&#x62b;" horiz-adv-x="1256" arabic-form="initial" 
d="M616 1906q-95 0 -160 59t-65 144t65 144t160 59q96 0 160.5 -59t64.5 -144t-64.5 -144t-160.5 -59zM301 1350q-95 0 -160 59t-65 144t65 144t160 59q96 0 160.5 -59t64.5 -144t-64.5 -144t-160.5 -59zM931 1350q-95 0 -160 59t-65 144t65 144t160 59q96 0 160.5 -59
t64.5 -144t-64.5 -144t-160.5 -59zM-10 402h417v798h428v-1200h-845v402z" />
    <glyph glyph-name="uniFE9C" unicode="&#x62b;" horiz-adv-x="1243" arabic-form="medial" 
d="M616 1906q-95 0 -160 59t-65 144t65 144t160 59q96 0 160.5 -59t64.5 -144t-64.5 -144t-160.5 -59zM301 1350q-95 0 -160 59t-65 144t65 144t160 59q96 0 160.5 -59t64.5 -144t-64.5 -144t-160.5 -59zM706 1553q0 85 65 144t160 59q96 0 160.5 -59t64.5 -144t-64.5 -144
t-160.5 -59q-95 0 -160 59t-65 144zM1253 402v-402h-1263v402h417v798h428v-798h418z" />
    <glyph glyph-name="uniFE9E" unicode="&#x62c;" horiz-adv-x="1994" arabic-form="final" 
d="M1757 402h247v-402h-1495q1 -95 64 -166.5t159 -71.5h425v-431h-426q-136 0 -254.5 53t-200.5 143t-129 213t-47 260v402h1248v128q0 94 -63.5 166.5t-159.5 72.5h-1025v431h1026q180 0 325.5 -90t225.5 -242t80 -335v-131zM1524 -239q96 0 160.5 -59t64.5 -144
t-64.5 -144t-160.5 -59q-95 0 -160 59t-65 144t65 144t160 59z" />
    <glyph glyph-name="uniFE9F" unicode="&#x62c;" horiz-adv-x="2005" arabic-form="initial" 
d="M-10 0v402h1506v128q0 94 -63.5 166.5t-159.5 72.5h-1025v431h1026q180 0 325.5 -90t225.5 -242t80 -335v-533h-1915zM878 -486q-95 0 -160 59t-65 144t65 144t160 59q96 0 160.5 -59t64.5 -144t-64.5 -144t-160.5 -59z" />
    <glyph glyph-name="uniFEA0" unicode="&#x62c;" horiz-adv-x="2146" arabic-form="medial" 
d="M1905 402h251v-402h-2166v402h1506v128q0 94 -63.5 166.5t-159.5 72.5h-1025v431h1026q180 0 325.5 -90t225.5 -242t80 -335v-131zM878 -80q96 0 160.5 -59t64.5 -144t-64.5 -144t-160.5 -59q-95 0 -160 59t-65 144t65 144t160 59z" />
    <glyph glyph-name="uniFEA2" unicode="&#x62d;" horiz-adv-x="1994" arabic-form="final" 
d="M1757 402h247v-402h-1495q1 -95 64 -166.5t159 -71.5h425v-431h-426q-136 0 -254.5 53t-200.5 143t-129 213t-47 260v402h1248v128q0 94 -63.5 166.5t-159.5 72.5h-1025v431h1026q180 0 325.5 -90t225.5 -242t80 -335v-131z" />
    <glyph glyph-name="uniFEA3" unicode="&#x62d;" horiz-adv-x="2005" arabic-form="initial" 
d="M-10 0v402h1506v128q0 94 -63.5 166.5t-159.5 72.5h-1025v431h1026q180 0 325.5 -90t225.5 -242t80 -335v-533h-1915z" />
    <glyph glyph-name="uniFEA4" unicode="&#x62d;" horiz-adv-x="2146" arabic-form="medial" 
d="M1905 402h251v-402h-2166v402h1506v128q0 94 -63.5 166.5t-159.5 72.5h-1025v431h1026q180 0 325.5 -90t225.5 -242t80 -335v-131z" />
    <glyph glyph-name="uniFEA6" unicode="&#x62e;" horiz-adv-x="1994" arabic-form="final" 
d="M867 1350q-95 0 -160 59t-65 144t65 144t160 59q96 0 160.5 -59t64.5 -144t-64.5 -144t-160.5 -59zM1757 402h247v-402h-1495q1 -95 64 -166.5t159 -71.5h425v-431h-426q-136 0 -254.5 53t-200.5 143t-129 213t-47 260v402h1248v128q0 94 -63.5 166.5t-159.5 72.5h-1025
v431h1026q180 0 325.5 -90t225.5 -242t80 -335v-131z" />
    <glyph glyph-name="uniFEA7" unicode="&#x62e;" horiz-adv-x="2005" arabic-form="initial" 
d="M878 1350q-95 0 -160 59t-65 144t65 144t160 59q96 0 160.5 -59t64.5 -144t-64.5 -144t-160.5 -59zM-10 0v402h1506v128q0 94 -63.5 166.5t-159.5 72.5h-1025v431h1026q180 0 325.5 -90t225.5 -242t80 -335v-533h-1915z" />
    <glyph glyph-name="uniFEA8" unicode="&#x62e;" horiz-adv-x="2146" arabic-form="medial" 
d="M878 1350q-95 0 -160 59t-65 144t65 144t160 59q96 0 160.5 -59t64.5 -144t-64.5 -144t-160.5 -59zM1905 402h251v-402h-2166v402h1506v128q0 94 -63.5 166.5t-159.5 72.5h-1025v431h1026q180 0 325.5 -90t225.5 -242t80 -335v-131z" />
    <glyph glyph-name="uniFEAA" unicode="&#x62f;" horiz-adv-x="1656" arabic-form="final" 
d="M1746 402v-402h-1646v402h865q84 79 84 198q0 114 -78.5 193t-192.5 79q-85 0 -152 -46t-98 -121l-373 149q81 182 254 285t369 103q187 0 342 -85t244 -232.5t89 -324.5q0 -102 -31 -198h324z" />
    <glyph glyph-name="uniFEAC" unicode="&#x630;" horiz-adv-x="1656" arabic-form="final" 
d="M778 1392q-95 0 -160 59t-65 144t65 144t160 59q96 0 160.5 -59t64.5 -144t-64.5 -144t-160.5 -59zM1746 402v-402h-1646v402h865q84 79 84 198q0 114 -78.5 193t-192.5 79q-85 0 -152 -46t-98 -121l-373 149q81 182 254 285t369 103q187 0 342 -85t244 -232.5t89 -324.5
q0 -102 -31 -198h324z" />
    <glyph glyph-name="uniFEAE" unicode="&#x631;" horiz-adv-x="1345" arabic-form="final" 
d="M1355 402v-402h-248q-51 -217 -232 -351t-420 -134h-355v409h353q94 0 166.5 63.5t72.5 159.5v1050h431v-795h232z" />
    <glyph glyph-name="uniFEB0" unicode="&#x632;" horiz-adv-x="1345" arabic-form="final" 
d="M903 1350q-95 0 -160 59t-65 144t65 144t160 59q96 0 160.5 -59t64.5 -144t-64.5 -144t-160.5 -59zM1355 402v-402h-248q-51 -217 -232 -351t-420 -134h-355v409h353q94 0 166.5 63.5t72.5 159.5v1050h431v-795h232z" />
    <glyph glyph-name="uniFEB2" unicode="&#x633;" horiz-adv-x="3363" arabic-form="final" 
d="M3124 402h249v-402h-1951q-51 -217 -232 -351t-421 -134q-137 0 -260 47t-213 129t-143 200.5t-53 254.5v394h431v-393q0 -97 71 -160t166 -63q94 0 166.5 63.5t72.5 159.5v1053h431v-798h417v598h428v-598h413v798h428v-798z" />
    <glyph glyph-name="uniFEB3" unicode="&#x633;" horiz-adv-x="2436" arabic-form="initial" 
d="M-10 0v402h237v798h428v-798h412v598h428v-598h413v798h428v-1200h-2346z" />
    <glyph glyph-name="uniFEB4" unicode="&#x633;" horiz-adv-x="2574" arabic-form="medial" 
d="M2336 402h248v-402h-2594v402h237v798h428v-798h412v598h428v-598h413v798h428v-798z" />
    <glyph glyph-name="uniFEB6" unicode="&#x634;" horiz-adv-x="3363" arabic-form="final" 
d="M2073 1906q-95 0 -160 59t-65 144t65 144t160 59q96 0 160.5 -59t64.5 -144t-64.5 -144t-160.5 -59zM1758 1350q-95 0 -160 59t-65 144t65 144t160 59q96 0 160.5 -59t64.5 -144t-64.5 -144t-160.5 -59zM2163 1553q0 85 65 144t160 59q96 0 160.5 -59t64.5 -144
t-64.5 -144t-160.5 -59q-95 0 -160 59t-65 144zM3124 402h249v-402h-1951q-51 -217 -232 -351t-421 -134q-137 0 -260 47t-213 129t-143 200.5t-53 254.5v394h431v-393q0 -97 71 -160t166 -63q94 0 166.5 63.5t72.5 159.5v1053h431v-798h417v598h428v-598h413v798h428v-798z
" />
    <glyph glyph-name="uniFEB7" unicode="&#x634;" horiz-adv-x="2436" arabic-form="initial" 
d="M1287 1906q-95 0 -160 59t-65 144t65 144t160 59q96 0 160.5 -59t64.5 -144t-64.5 -144t-160.5 -59zM972 1350q-95 0 -160 59t-65 144t65 144t160 59q96 0 160.5 -59t64.5 -144t-64.5 -144t-160.5 -59zM1602 1350q-95 0 -160 59t-65 144t65 144t160 59q96 0 160.5 -59
t64.5 -144t-64.5 -144t-160.5 -59zM-10 0v402h237v798h428v-798h412v598h428v-598h413v798h428v-1200h-2346z" />
    <glyph glyph-name="uniFEB8" unicode="&#x634;" horiz-adv-x="2574" arabic-form="medial" 
d="M1287 1906q-95 0 -160 59t-65 144t65 144t160 59q96 0 160.5 -59t64.5 -144t-64.5 -144t-160.5 -59zM972 1350q-95 0 -160 59t-65 144t65 144t160 59q96 0 160.5 -59t64.5 -144t-64.5 -144t-160.5 -59zM1377 1553q0 85 65 144t160 59q96 0 160.5 -59t64.5 -144
t-64.5 -144t-160.5 -59q-95 0 -160 59t-65 144zM2336 402h248v-402h-2594v402h237v798h428v-798h412v598h428v-598h413v798h428v-798z" />
    <glyph glyph-name="uniFEBA" unicode="&#x635;" horiz-adv-x="2968" arabic-form="final" 
d="M2730 402h248v-402h-1556q-51 -217 -232 -351t-421 -134q-137 0 -260 47t-213 129t-143 200.5t-53 254.5v394h431v-393q0 -97 71 -160t166 -63q94 0 166.5 63.5t72.5 159.5v1143h431v-90h661q180 0 325.5 -90t225.5 -242t80 -335v-131zM2321 402v128q0 94 -63.5 166.5
t-159.5 72.5h-660v-367h883z" />
    <glyph glyph-name="uniFEBB" unicode="&#x635;" horiz-adv-x="2070" arabic-form="initial" 
d="M-10 0v402h260v898h431v-100h658q180 0 325.5 -90t225.5 -242t80 -335v-533h-1980zM678 402h883v128q0 94 -63.5 166.5t-159.5 72.5h-660v-367z" />
    <glyph glyph-name="uniFEBC" unicode="&#x635;" horiz-adv-x="2211" arabic-form="medial" 
d="M1970 402h251v-402h-2231v402h260v898h431v-100h658q180 0 325.5 -90t225.5 -242t80 -335v-131zM1561 402v128q0 94 -63.5 166.5t-159.5 72.5h-660v-367h883z" />
    <glyph glyph-name="uniFEBE" unicode="&#x636;" horiz-adv-x="2968" arabic-form="final" 
d="M1723 1350q-95 0 -160 59t-65 144t65 144t160 59q96 0 160.5 -59t64.5 -144t-64.5 -144t-160.5 -59zM2730 402h248v-402h-1556q-51 -217 -232 -351t-421 -134q-137 0 -260 47t-213 129t-143 200.5t-53 254.5v394h431v-393q0 -97 71 -160t166 -63q94 0 166.5 63.5
t72.5 159.5v1143h431v-90h661q180 0 325.5 -90t225.5 -242t80 -335v-131zM2321 402v128q0 94 -63.5 166.5t-159.5 72.5h-660v-367h883z" />
    <glyph glyph-name="uniFEBF" unicode="&#x636;" horiz-adv-x="2070" arabic-form="initial" 
d="M1151 1350q-95 0 -160 59t-65 144t65 144t160 59q96 0 160.5 -59t64.5 -144t-64.5 -144t-160.5 -59zM-10 0v402h260v898h431v-100h658q180 0 325.5 -90t225.5 -242t80 -335v-533h-1980zM678 402h883v128q0 94 -63.5 166.5t-159.5 72.5h-660v-367z" />
    <glyph glyph-name="uniFEC0" unicode="&#x636;" horiz-adv-x="2211" arabic-form="medial" 
d="M1151 1350q-95 0 -160 59t-65 144t65 144t160 59q96 0 160.5 -59t64.5 -144t-64.5 -144t-160.5 -59zM1970 402h251v-402h-2231v402h260v898h431v-100h658q180 0 325.5 -90t225.5 -242t80 -335v-131zM1561 402v128q0 94 -63.5 166.5t-159.5 72.5h-660v-367h883z" />
    <glyph glyph-name="uniFEC2" unicode="&#x637;" horiz-adv-x="2262" arabic-form="final" 
d="M2025 402h247v-402h-2172v402h205v1510h428v-712h661q180 0 325.5 -90t225.5 -242t80 -335v-131zM1616 402v128q0 94 -63.5 166.5t-159.5 72.5h-660v-367h883z" />
    <glyph glyph-name="uniFEC3" unicode="&#x637;" horiz-adv-x="2205" arabic-form="initial" 
d="M-10 0v402h395v1510h428v-712h661q180 0 325.5 -90t225.5 -242t80 -335v-533h-2115zM813 402h883v128q0 94 -63.5 166.5t-159.5 72.5h-660v-367z" />
    <glyph glyph-name="uniFEC4" unicode="&#x637;" horiz-adv-x="2345" arabic-form="medial" 
d="M2105 402h250v-402h-2365v402h395v1510h428v-712h661q180 0 325.5 -90t225.5 -242t80 -335v-131zM1696 402v128q0 94 -63.5 166.5t-159.5 72.5h-660v-367h883z" />
    <glyph glyph-name="uniFEC6" unicode="&#x638;" horiz-adv-x="2262" arabic-form="final" 
d="M2025 402h247v-402h-2172v402h205v1510h428v-712h661q180 0 325.5 -90t225.5 -242t80 -335v-131zM1197 1350q-95 0 -160 59t-65 144t65 144t160 59q96 0 160.5 -59t64.5 -144t-64.5 -144t-160.5 -59zM1616 402v128q0 94 -63.5 166.5t-159.5 72.5h-660v-367h883z" />
    <glyph glyph-name="uniFEC7" unicode="&#x638;" horiz-adv-x="2205" arabic-form="initial" 
d="M-10 0v402h395v1510h428v-712h661q180 0 325.5 -90t225.5 -242t80 -335v-533h-2115zM1238 1350q-95 0 -160 59t-65 144t65 144t160 59q96 0 160.5 -59t64.5 -144t-64.5 -144t-160.5 -59zM813 402h883v128q0 94 -63.5 166.5t-159.5 72.5h-660v-367z" />
    <glyph glyph-name="uniFEC8" unicode="&#x638;" horiz-adv-x="2345" arabic-form="medial" 
d="M2105 402h250v-402h-2365v402h395v1510h428v-712h661q180 0 325.5 -90t225.5 -242t80 -335v-131zM1238 1350q-95 0 -160 59t-65 144t65 144t160 59q96 0 160.5 -59t64.5 -144t-64.5 -144t-160.5 -59zM1696 402v128q0 94 -63.5 166.5t-159.5 72.5h-660v-367h883z" />
    <glyph glyph-name="uniFECA" unicode="&#x639;" horiz-adv-x="2020" arabic-form="final" 
d="M2030 402v-402h-1521q1 -95 64 -166.5t159 -71.5h425v-431h-426q-136 0 -254.5 53t-200.5 143t-129 213t-47 260v402h414q-26 80 -29.5 165t15 166t55.5 157t96.5 140t133.5 111.5t170 74t203 26.5q196 0 369 -103t254 -285l-373 -149q-31 75 -98 121t-152 46
q-114 0 -192.5 -79t-78.5 -193q0 -119 84 -198h1059z" />
    <glyph glyph-name="uniFECB" unicode="&#x639;" horiz-adv-x="1671" arabic-form="initial" 
d="M-10 0v402h314q-26 80 -29.5 165t15 166t55.5 157t96.5 140t133.5 111.5t170 74t203 26.5q196 0 369 -103t254 -285l-373 -149q-31 75 -98 121t-152 46q-114 0 -192.5 -79t-78.5 -193q0 -119 84 -198h810v-402h-1581z" />
    <glyph glyph-name="uniFECC" unicode="&#x639;" horiz-adv-x="1812" arabic-form="medial" 
d="M1822 402v-402h-1832v402h314q-26 80 -29.5 165t15 166t55.5 157t96.5 140t133.5 111.5t170 74t203 26.5q196 0 369 -103t254 -285l-373 -149q-31 75 -98 121t-152 46q-114 0 -192.5 -79t-78.5 -193q0 -119 84 -198h1061z" />
    <glyph glyph-name="uniFECE" unicode="&#x63a;" horiz-adv-x="2020" arabic-form="final" 
d="M1158 1392q-95 0 -160 59t-65 144t65 144t160 59q96 0 160.5 -59t64.5 -144t-64.5 -144t-160.5 -59zM2030 402v-402h-1521q1 -95 64 -166.5t159 -71.5h425v-431h-426q-136 0 -254.5 53t-200.5 143t-129 213t-47 260v402h414q-26 80 -29.5 165t15 166t55.5 157t96.5 140
t133.5 111.5t170 74t203 26.5q196 0 369 -103t254 -285l-373 -149q-31 75 -98 121t-152 46q-114 0 -192.5 -79t-78.5 -193q0 -119 84 -198h1059z" />
    <glyph glyph-name="uniFECF" unicode="&#x63a;" horiz-adv-x="1671" arabic-form="initial" 
d="M948 1392q-95 0 -160 59t-65 144t65 144t160 59q96 0 160.5 -59t64.5 -144t-64.5 -144t-160.5 -59zM-10 0v402h314q-26 80 -29.5 165t15 166t55.5 157t96.5 140t133.5 111.5t170 74t203 26.5q196 0 369 -103t254 -285l-373 -149q-31 75 -98 121t-152 46
q-114 0 -192.5 -79t-78.5 -193q0 -119 84 -198h810v-402h-1581z" />
    <glyph glyph-name="uniFED0" unicode="&#x63a;" horiz-adv-x="1812" arabic-form="medial" 
d="M948 1392q-95 0 -160 59t-65 144t65 144t160 59q96 0 160.5 -59t64.5 -144t-64.5 -144t-160.5 -59zM1822 402v-402h-1832v402h314q-26 80 -29.5 165t15 166t55.5 157t96.5 140t133.5 111.5t170 74t203 26.5q196 0 369 -103t254 -285l-373 -149q-31 75 -98 121t-152 46
q-114 0 -192.5 -79t-78.5 -193q0 -119 84 -198h1061z" />
    <glyph glyph-name="uniFED2" unicode="&#x641;" horiz-adv-x="2861" arabic-form="final" 
d="M1943 1392q-95 0 -160 59t-65 144t65 144t160 59q96 0 160.5 -59t64.5 -144t-64.5 -144t-160.5 -59zM2621 402h250v-402h-2342q-111 25 -195.5 83.5t-134.5 139.5t-74.5 175.5t-24.5 201.5q0 177 88.5 324t242.5 232t340 86v-370q-113 -1 -190 -80t-77 -192
q0 -119 84 -198h711q-26 80 -29.5 165t15 166t55.5 157t96.5 140t133.5 111.5t170 74t203 26.5q98 0 194.5 -27t182.5 -81.5t152 -129.5t106 -179.5t43 -224.5v-198zM2193 402v303q-31 75 -98 121t-152 46q-114 0 -192.5 -79t-78.5 -193q0 -119 84 -198h437z" />
    <glyph glyph-name="uniFED3" unicode="&#x641;" horiz-adv-x="1702" arabic-form="initial" 
d="M924 1392q-95 0 -160 59t-65 144t65 144t160 59q96 0 160.5 -59t64.5 -144t-64.5 -144t-160.5 -59zM-10 0v402h290q-26 80 -29.5 165t15 166t55.5 157t96.5 140t133.5 111.5t170 74t203 26.5q98 0 194.5 -27t182.5 -81.5t152 -129.5t106 -179.5t43 -224.5v-600h-1612z
M653 600q0 -119 84 -198h437v303q-31 75 -98 121t-152 46q-114 0 -192.5 -79t-78.5 -193z" />
    <glyph glyph-name="uniFED4" unicode="&#x641;" horiz-adv-x="1843" arabic-form="medial" 
d="M924 1392q-95 0 -160 59t-65 144t65 144t160 59q96 0 160.5 -59t64.5 -144t-64.5 -144t-160.5 -59zM1602 402h251v-402h-1863v402h290q-26 80 -29.5 165t15 166t55.5 157t96.5 140t133.5 111.5t170 74t203 26.5q98 0 194.5 -27t182.5 -81.5t152 -129.5t106 -179.5
t43 -224.5v-198zM1174 402v303q-31 75 -98 121t-152 46q-114 0 -192.5 -79t-78.5 -193q0 -119 84 -198h437z" />
    <glyph glyph-name="uniFED6" unicode="&#x642;" horiz-adv-x="2402" arabic-form="final" 
d="M1187 1392q-95 0 -160 59t-65 144t65 144t160 59q96 0 160.5 -59t64.5 -144t-64.5 -144t-160.5 -59zM1817 1392q-95 0 -160 59t-65 144t65 144t160 59q96 0 160.5 -59t64.5 -144t-64.5 -144t-160.5 -59zM2412 402v-402h-248q-51 -217 -232 -351t-420 -134h-744
q-183 0 -335.5 79.5t-242.5 225t-90 326.5v356h431v-355q0 -97 71 -160t166 -63h742q108 0 179 76h-434q-193 69 -310.5 231.5t-117.5 368.5q0 177 89 324.5t244 232.5t342 85q98 0 194.5 -27t182.5 -81.5t152 -129.5t106 -179.5t43 -224.5v-198h232zM1749 402v310
q-32 72 -98.5 116t-148.5 44q-114 0 -192.5 -79t-78.5 -193q0 -119 84 -198h434z" />
    <glyph glyph-name="uniFED7" unicode="&#x642;" horiz-adv-x="1702" arabic-form="initial" 
d="M609 1392q-95 0 -160 59t-65 144t65 144t160 59q96 0 160.5 -59t64.5 -144t-64.5 -144t-160.5 -59zM1239 1392q-95 0 -160 59t-65 144t65 144t160 59q96 0 160.5 -59t64.5 -144t-64.5 -144t-160.5 -59zM-10 0v402h290q-26 80 -29.5 165t15 166t55.5 157t96.5 140
t133.5 111.5t170 74t203 26.5q98 0 194.5 -27t182.5 -81.5t152 -129.5t106 -179.5t43 -224.5v-600h-1612zM653 600q0 -119 84 -198h437v303q-31 75 -98 121t-152 46q-114 0 -192.5 -79t-78.5 -193z" />
    <glyph glyph-name="uniFED8" unicode="&#x642;" horiz-adv-x="1843" arabic-form="medial" 
d="M609 1392q-95 0 -160 59t-65 144t65 144t160 59q96 0 160.5 -59t64.5 -144t-64.5 -144t-160.5 -59zM1239 1392q-95 0 -160 59t-65 144t65 144t160 59q96 0 160.5 -59t64.5 -144t-64.5 -144t-160.5 -59zM1602 402h251v-402h-1863v402h290q-26 80 -29.5 165t15 166
t55.5 157t96.5 140t133.5 111.5t170 74t203 26.5q98 0 194.5 -27t182.5 -81.5t152 -129.5t106 -179.5t43 -224.5v-198zM1174 402v303q-31 75 -98 121t-152 46q-114 0 -192.5 -79t-78.5 -193q0 -119 84 -198h437z" />
    <glyph glyph-name="uniFEDA" unicode="&#x643;" horiz-adv-x="2255" arabic-form="final" 
d="M2017 402h248v-402h-1736q-139 32 -238 123t-145 213t-46 264q0 177 88.5 324t242.5 232t340 86v-370q-113 -1 -190 -80t-77 -192q0 -119 84 -198h1001v1510h428v-1510zM1393 976v-105h-418v109h307v4q0 5 -1.5 7.5t-9 6t-23 5t-43 3t-69 2t-100.5 0.5v64
q0 72 39.5 124.5t95.5 52.5h193v-115h-183q-9 0 -15 -10h87q59 0 99.5 -42.5t40.5 -105.5z" />
    <glyph glyph-name="uniFEDB" unicode="&#x643;" horiz-adv-x="1915" arabic-form="initial" 
d="M-10 0v402h1416v128q0 94 -63.5 166.5t-159.5 72.5h-1025q-12 265 3 455t58 324.5t122 213.5t187 114.5t261 35.5h624v-431h-623q-103 0 -163 -75.5t-60 -205.5h617q136 0 254.5 -53t200.5 -143t129 -213t47 -260v-531h-1825z" />
    <glyph glyph-name="uniFEDC" unicode="&#x643;" horiz-adv-x="1972" arabic-form="medial" 
d="M1815 402h251v-402h-2076v402h1416v128q0 94 -63.5 166.5t-159.5 72.5h-1025q-12 265 3 455t58 324.5t122 213.5t187 114.5t261 35.5h624v-431h-623q-103 0 -163 -75.5t-60 -205.5h617q136 0 254.5 -53t200.5 -143t129 -213t47 -260v-129z" />
    <glyph glyph-name="uniFEDE" unicode="&#x644;" horiz-adv-x="1677" arabic-form="final" 
d="M1438 402h249v-402h-251v94q-13 -168 -105.5 -301t-239.5 -205.5t-322 -72.5q-137 0 -260 47t-213 129t-143 200.5t-53 254.5v394h431v-393q0 -97 71 -160t166 -63q94 0 166.5 63.5t72.5 159.5v1765h431v-1510z" />
    <glyph glyph-name="uniFEDF" unicode="&#x644;" horiz-adv-x="655" arabic-form="initial" 
d="M-10 402h137v1510h428v-1912h-565v402z" />
    <glyph glyph-name="uniFEE0" unicode="&#x644;" horiz-adv-x="712" arabic-form="medial" 
d="M555 402h251v-402h-816v402h137v1510h428v-1510z" />
    <glyph glyph-name="uniFEE2" unicode="&#x645;" horiz-adv-x="2003" arabic-form="final" 
d="M2069 402v-402h-385q-92 -86 -214.5 -134t-260.5 -48q-139 0 -262 48t-215 135q-82 0 -132.5 -62.5t-70.5 -166.5t-20 -257h-409q0 375 109 586.5t330 274.5q-8 73 4 161t57 189.5t117.5 184t200.5 137t291 54.5q187 0 341.5 -85t243.5 -232.5t89 -324.5q0 -30 -3 -58
h189zM1209 189q114 0 192 78.5t78 192.5t-78 193t-192 79t-192.5 -79t-78.5 -193t78.5 -192.5t192.5 -78.5z" />
    <glyph glyph-name="uniFEE3" unicode="&#x645;" horiz-adv-x="1624" arabic-form="initial" 
d="M-10 0v402h188q-3 29 -3 58q0 177 89 324.5t244 232.5t342 85t341.5 -85t243.5 -232.5t89 -324.5t-89 -324.5t-243.5 -232.5t-341.5 -85q-139 0 -261 48t-215 134h-384zM579 460q0 -114 78.5 -192.5t192.5 -78.5t192 78.5t78 192.5t-78 193t-192 79t-192.5 -79
t-78.5 -193z" />
    <glyph glyph-name="uniFEE4" unicode="&#x645;" horiz-adv-x="1692" arabic-form="medial" 
d="M1702 402v-402h-377q-92 -86 -214.5 -134t-260.5 -48q-139 0 -261 48t-215 134h-384v402h188q-3 29 -3 58q0 177 89 324.5t244 232.5t342 85t341.5 -85t243.5 -232.5t89 -324.5q0 -30 -3 -58h181zM850 189q114 0 192 78.5t78 192.5t-78 193t-192 79t-192.5 -79
t-78.5 -193t78.5 -192.5t192.5 -78.5z" />
    <glyph glyph-name="uniFEE6" unicode="&#x646;" horiz-adv-x="1661" arabic-form="final" 
d="M769 1350q-95 0 -160 59t-65 144t65 144t160 59q96 0 160.5 -59t64.5 -144t-64.5 -144t-160.5 -59zM1671 402v-402h-249q-51 -217 -232 -351t-421 -134q-137 0 -260 47t-213 129t-143 200.5t-53 254.5v1054h431v-1053q0 -97 71 -160t166 -63q94 0 166.5 63.5t72.5 159.5
v1053h431v-798h233z" />
    <glyph glyph-name="uniFEE7" unicode="&#x646;" horiz-adv-x="901" arabic-form="initial" 
d="M576 1350q-95 0 -160 59t-65 144t65 144t160 59q96 0 160.5 -59t64.5 -144t-64.5 -144t-160.5 -59zM-50 402h417v798h428v-1200h-845v402z" />
    <glyph glyph-name="uniFEE8" unicode="&#x646;" horiz-adv-x="1243" arabic-form="medial" 
d="M616 1350q-95 0 -160 59t-65 144t65 144t160 59q96 0 160.5 -59t64.5 -144t-64.5 -144t-160.5 -59zM1253 402v-402h-1263v402h417v798h428v-798h418z" />
    <glyph glyph-name="uniFEEA" unicode="&#x647;" horiz-adv-x="1765" arabic-form="final" 
d="M100 0v533q0 183 80 335t225.5 242t325.5 90h334v56h428v-854h282v-402h-1675zM509 402h556v367h-333q-96 0 -159.5 -72.5t-63.5 -166.5v-128z" />
    <glyph glyph-name="uniFEEB" unicode="&#x647;" horiz-adv-x="2355" arabic-form="initial" 
d="M-10 0v402h276q-30 89 -30 189q0 168 84 307.5t230.5 220.5t323.5 81h750q180 0 325.5 -90t225.5 -242t80 -335v-533h-2265zM698 403h414v288q-28 71 -92 115t-144 44q-108 0 -182.5 -75.5t-74.5 -183.5q0 -112 79 -188zM1519 402h327v128q0 94 -63.5 166.5t-159.5 72.5
h-133q28 -84 29 -178v-189z" />
    <glyph glyph-name="uniFEEC" unicode="&#x647;" horiz-adv-x="2496" arabic-form="medial" 
d="M2255 402h251v-402h-2516v402h276q-30 89 -30 189q0 168 84 307.5t230.5 220.5t323.5 81h750q180 0 325.5 -90t225.5 -242t80 -335v-131zM1112 403v288q-28 71 -92 115t-144 44q-108 0 -182.5 -75.5t-74.5 -183.5q0 -112 79 -188h414zM1846 402v128q0 94 -63.5 166.5
t-159.5 72.5h-133q28 -84 29 -178v-189h327z" />
    <glyph glyph-name="uniFEEE" unicode="&#x648;" horiz-adv-x="1691" arabic-form="final" 
d="M1453 402h248v-402h-251v82q-16 -165 -108 -295t-238 -201t-319 -71h-355v409h353q108 0 179 76h-434q-193 69 -310.5 231.5t-117.5 368.5q0 177 89 324.5t244 232.5t342 85q98 0 194.5 -27t182.5 -81.5t152 -129.5t106 -179.5t43 -224.5v-198zM1022 402v310
q-32 72 -98.5 116t-148.5 44q-114 0 -192.5 -79t-78.5 -193q0 -119 84 -198h434z" />
    <glyph glyph-name="uniFEF0" unicode="&#x649;" horiz-adv-x="2987" arabic-form="final" 
d="M2813 402h194v-402h-611v648q-2 25 -9 45t-15.5 33t-23 22t-25 13.5t-29 6.5t-27 2.5t-27 0t-22.5 -0.5h-776q-3 0 -24 0.5t-29 0t-28.5 -3t-30.5 -8t-25 -16.5t-22.5 -26.5t-13.5 -39.5t-6 -54h327q142 0 274.5 -65t220 -187t87.5 -269q0 -158 -89.5 -293t-243.5 -214.5
t-335 -79.5h-736q-183 0 -335.5 79.5t-242.5 225t-90 326.5v256h431v-255q0 -97 71 -160t166 -63h736q38 0 61 1t55 4.5t51 12.5t38 23.5t27.5 38.5t8.5 57q0 63 -47.5 97t-108.5 34h-795q-9 220 11.5 388.5t68.5 285.5t125 192t176 109t227 34h796q105 0 186.5 -10.5
t146 -32.5t110 -56.5t78.5 -82.5t52 -109.5t29.5 -138t12.5 -168.5t0 -201z" />
    <glyph glyph-name="uniFEF2" unicode="&#x64a;" horiz-adv-x="2987" arabic-form="final" 
d="M2813 402h194v-402h-611v648q-2 25 -9 45t-15.5 33t-23 22t-25 13.5t-29 6.5t-27 2.5t-27 0t-22.5 -0.5h-776q-3 0 -24 0.5t-29 0t-28.5 -3t-30.5 -8t-25 -16.5t-22.5 -26.5t-13.5 -39.5t-6 -54h327q142 0 274.5 -65t220 -187t87.5 -269q0 -158 -89.5 -293t-243.5 -214.5
t-335 -79.5h-736q-183 0 -335.5 79.5t-242.5 225t-90 326.5v256h431v-255q0 -97 71 -160t166 -63h736q38 0 61 1t55 4.5t51 12.5t38 23.5t27.5 38.5t8.5 57q0 63 -47.5 97t-108.5 34h-795q-9 220 11.5 388.5t68.5 285.5t125 192t176 109t227 34h796q105 0 186.5 -10.5
t146 -32.5t110 -56.5t78.5 -82.5t52 -109.5t29.5 -138t12.5 -168.5t0 -201zM848 -618q96 0 160.5 -59t64.5 -144t-64.5 -144t-160.5 -59q-95 0 -160 59t-65 144t65 144t160 59zM1478 -618q96 0 160.5 -59t64.5 -144t-64.5 -144t-160.5 -59q-95 0 -160 59t-65 144t65 144
t160 59z" />
    <glyph glyph-name="uniFEF3" unicode="&#x64a;" horiz-adv-x="1303" arabic-form="initial" 
d="M775 1200h428v-1200h-1223v402h795v798zM333 -78q96 0 160.5 -59t64.5 -144t-64.5 -144t-160.5 -59q-95 0 -160 59t-65 144t65 144t160 59zM963 -78q96 0 160.5 -59t64.5 -144t-64.5 -144t-160.5 -59q-95 0 -160 59t-65 144t65 144t160 59z" />
    <glyph glyph-name="uniFEF4" unicode="&#x64a;" horiz-adv-x="1600" arabic-form="medial" 
d="M1620 402v-402h-1640v402h794v798h428v-798h418zM369 -82q96 0 160.5 -59t64.5 -144t-64.5 -144t-160.5 -59q-95 0 -160 59t-65 144t65 144t160 59zM999 -82q96 0 160.5 -59t64.5 -144t-64.5 -144t-160.5 -59q-95 0 -160 59t-65 144t65 144t160 59z" />
    <glyph glyph-name=".notdef" horiz-adv-x="1332" 
d="M200 1612h932v-1612h-932v1612zM974 145v1321h-614v-1321h614z" />
    <glyph glyph-name=".null" 
 />
    <glyph glyph-name="nonmarkingreturn" horiz-adv-x="682" 
 />
    <glyph glyph-name="space" unicode=" " horiz-adv-x="625" 
 />
    <glyph glyph-name="exclam" unicode="!" horiz-adv-x="796" 
d="M221 563l-72 1049h496l-69 -1049h-355zM399 -57q-103 0 -176.5 69t-73.5 167q0 95 73.5 163t174.5 68q103 0 177.5 -70t74.5 -166t-73.5 -163.5t-176.5 -67.5z" />
    <glyph glyph-name="quotedbl" unicode="&#x22;" horiz-adv-x="1078" 
d="M167 1337l-97 575h430l-98 -575h-235zM676 1337l-97 575h429l-97 -575h-235z" />
    <glyph glyph-name="numbersign" unicode="#" horiz-adv-x="1616" 
d="M227 0l45 346h-222l38 297h223l35 269h-222l40 297h221l52 403h341l-52 -403h280l52 403h341l-52 -403h219l-38 -297h-220l-35 -269h219l-38 -297h-219l-45 -346h-341l45 346h-280l-45 -346h-342zM652 643h280l35 269h-280z" />
    <glyph glyph-name="dollar" unicode="$" horiz-adv-x="1308" 
d="M512 -225v213q-160 24 -283 99.5t-173 185.5l259 254q50 -74 137.5 -116.5t189.5 -42.5q74 0 127 26t53 73q0 20 -11.5 40t-38.5 40.5t-51 36.5t-69.5 38.5t-72.5 34.5t-80 36q-82 36 -146 77t-119 96.5t-84.5 129.5t-29.5 162q0 162 110 285t282 170v225h334v-218
q127 -28 218 -96.5t128 -162.5l-247 -238q-33 59 -107.5 90.5t-141.5 31.5q-65 0 -108 -29t-43 -71q0 -16 6.5 -29t21 -25t30.5 -21.5t44 -21t52.5 -21t63.5 -25t70 -28.5q419 -176 419 -498q0 -174 -113 -298.5t-293 -173.5v-229h-334z" />
    <glyph glyph-name="percent" unicode="%" horiz-adv-x="1888" 
d="M70 1253q0 156 120 267t287 111t286 -111t119 -266t-119.5 -266t-286.5 -111t-286.5 110.5t-119.5 265.5zM211 0l1107 1613h347l-1106 -1613h-348zM334 1253q0 -53 41.5 -89.5t100.5 -36.5q58 0 98.5 37t40.5 89t-41 89.5t-99 37.5t-99.5 -37t-41.5 -90zM1006 357
q0 156 119.5 266.5t287.5 110.5q167 0 286 -110.5t119 -265.5t-119.5 -266.5t-286.5 -111.5t-286.5 111t-119.5 266zM1270 357q0 -53 41.5 -90t100.5 -37q58 0 98.5 37t40.5 90q0 52 -41 89t-99 37t-99.5 -37t-41.5 -89z" />
    <glyph glyph-name="ampersand" unicode="&#x26;" horiz-adv-x="1633" 
d="M683 -36q-144 0 -263 45t-194 118.5t-115.5 165t-40.5 188.5q0 132 69.5 248t176.5 184q-84 160 -84 289q0 119 67 223.5t186.5 169t262.5 64.5q183 0 321 -106.5t170 -285.5l-369 -94q-6 69 -48.5 107.5t-93.5 38.5q-48 0 -85.5 -35.5t-37.5 -98.5q0 -109 114.5 -254.5
t291.5 -284.5q23 90 30 204l394 5q-6 -241 -80 -429q147 -70 236 -73l-2 -373q-184 0 -444 142q-187 -158 -462 -158zM658 319q81 0 147 33q-169 138 -300 290q-74 -63 -74 -147q0 -78 61.5 -127t165.5 -49z" />
    <glyph glyph-name="quotesingle" unicode="'" horiz-adv-x="570" 
d="M167 1337l-97 575h430l-98 -575h-235z" />
    <glyph glyph-name="parenleft" unicode="(" horiz-adv-x="770" 
d="M556 -338q-108 59 -194 157t-139.5 209.5t-89 241.5t-49.5 247.5t-14 234.5q0 96 10 194t32 204.5t60.5 206t90 190.5t127 167.5t166.5 126.5l144 -213q-75 -83 -128.5 -247t-75 -324.5t-21.5 -304.5t21.5 -304.5t75 -324.5t128.5 -247z" />
    <glyph glyph-name="parenright" unicode=")" horiz-adv-x="770" 
d="M214 -338l-144 214q58 63 103 173t70.5 234.5t38.5 244t13 224.5q0 144 -21.5 304.5t-75 324.5t-128.5 247l144 213q109 -60 195 -158.5t139.5 -209t88.5 -240t49 -247t14 -234.5t-14 -234.5t-49.5 -247.5t-89 -241.5t-139.5 -209.5t-194 -157z" />
    <glyph glyph-name="asterisk" unicode="*" horiz-adv-x="940" 
d="M330 945l52 236l-166 -157l-146 203l264 94l-264 89l146 204l166 -155l-52 234h279l-52 -234l166 155l147 -204l-264 -97l264 -86l-147 -203l-166 155l52 -234h-279z" />
    <glyph glyph-name="plus" unicode="+" horiz-adv-x="1343" 
d="M473 249v367h-333v360h333v366h398v-366h332v-360h-332v-367h-398z" />
    <glyph glyph-name="comma" unicode="," horiz-adv-x="767" 
d="M290 -384q-68 0 -117 26.5t-49 50.5q29 0 61 10.5t63.5 31t52 58t20.5 84.5t-17 75q-76 0 -137.5 65.5t-61.5 159.5q0 107 80 185t200 78q127 0 202 -93.5t75 -249.5q0 -89 -25.5 -174.5t-72 -154t-118 -110.5t-156.5 -42z" />
    <glyph glyph-name="hyphen" unicode="-" horiz-adv-x="990" 
d="M70 495v351h850v-351h-850z" />
    <glyph glyph-name="period" unicode="." horiz-adv-x="739" 
d="M370 -57q-110 0 -187.5 73t-77.5 176q0 101 78.5 174.5t186.5 73.5q107 0 185.5 -73.5t78.5 -174.5q0 -102 -78 -175.5t-186 -73.5z" />
    <glyph glyph-name="slash" unicode="/" horiz-adv-x="1110" 
d="M21 -265l695 1995h373l-696 -1995h-372z" />
    <glyph glyph-name="zero" unicode="0" horiz-adv-x="1565" 
d="M786 -33q-216 0 -378.5 104t-250 294t-87.5 441q0 252 87.5 442t250 294t378.5 104q214 0 375 -104t247.5 -294t86.5 -441q0 -252 -86.5 -442t-247.5 -294t-375 -104zM783 375q130 0 206.5 117.5t76.5 312.5q0 197 -77 316t-207 119q-131 0 -208 -118.5t-77 -314.5
q0 -195 77.5 -313.5t208.5 -118.5z" />
    <glyph glyph-name="one" unicode="1" horiz-adv-x="795" 
d="M227 0v1118l-157 -38v421l460 121h125v-1622h-428z" />
    <glyph glyph-name="two" unicode="2" horiz-adv-x="1433" 
d="M70 0v155q480 402 662 590t182 296q0 82 -55.5 141.5t-135.5 59.5q-107 0 -187.5 -77.5t-80.5 -185.5l-348 115q0 144 82 271t225 204t310 77q126 0 241 -47.5t198 -127t132 -188t49 -225.5q0 -189 -140.5 -368.5t-351.5 -296.5h511v-393h-1293z" />
    <glyph glyph-name="three" unicode="3" horiz-adv-x="1311" 
d="M656 -25q-222 0 -389.5 134t-196.5 320l356 85q21 -65 80 -102t126 -37q78 0 127 49.5t49 126.5q0 103 -95.5 174.5t-270.5 72.5l49 190q112 0 178.5 50t66.5 123q0 53 -33.5 87.5t-84.5 34.5q-44 0 -80 -27.5t-54 -77.5l-356 78q44 180 183 293.5t336 113.5
q139 0 254.5 -56t182.5 -155.5t67 -221.5q0 -102 -49.5 -187.5t-133.5 -124.5q121 -50 197 -162t76 -259q0 -150 -80.5 -270.5t-214 -186t-290.5 -65.5z" />
    <glyph glyph-name="four" unicode="4" horiz-adv-x="1506" 
d="M880 0v281h-859l544 1340l432 -2l-379 -955h262v352h427v-352h157v-383h-157v-281h-427z" />
    <glyph glyph-name="five" unicode="5" horiz-adv-x="1374" 
d="M672 -25q-124 0 -235 37t-208 119.5t-159 204.5l349 154q98 -122 225 -122q92 0 153.5 51.5t61.5 147.5q0 93 -61.5 141t-162.5 48q-80 0 -164 -27.5t-129 -73.5l-193 105l125 853h884v-382h-583l-26 -175q91 48 219 48q238 0 387 -156.5t149 -391.5q0 -171 -83 -304.5
t-226.5 -205t-322.5 -71.5z" />
    <glyph glyph-name="six" unicode="6" horiz-adv-x="1359" 
d="M675 -31q-124 0 -232.5 35t-192 102.5t-132 175t-48.5 243.5q0 60 14.5 118.5t65.5 174.5t160.5 309.5t288.5 484.5l488 -2l-355 -584q25 4 57 4q131 0 245.5 -64t184.5 -179.5t70 -255.5q0 -149 -78.5 -277.5t-220.5 -206.5t-315 -78zM681 361q76 0 130 52.5t54 130.5
q0 79 -53.5 133t-129.5 54q-76 -1 -129 -54.5t-53 -133.5q0 -79 52.5 -130.5t128.5 -51.5z" />
    <glyph glyph-name="seven" unicode="7" horiz-adv-x="1248" 
d="M165 0l465 1219h-588v393h1185v-74l-614 -1538h-448z" />
    <glyph glyph-name="eight" unicode="8" horiz-adv-x="1375" 
d="M687 -33q-272 0 -444.5 147.5t-172.5 374.5q0 92 31 171.5t78.5 130t97 81t94.5 39.5q-75 16 -142 100t-67 204q0 116 67.5 214.5t189 157.5t269.5 59q114 0 213.5 -35.5t168 -94.5t108 -137t39.5 -162q0 -64 -23 -120.5t-58.5 -93.5t-71 -60t-66.5 -32q34 -8 72 -27
t80.5 -55.5t76.5 -82.5t56 -114t22 -145q0 -225 -171.5 -372.5t-446.5 -147.5zM689 1027q58 0 100.5 38t42.5 99q0 62 -42 98t-101 36q-58 0 -99.5 -36t-41.5 -97q0 -60 41 -99t100 -39zM687 352q80 0 140 53t60 135t-59.5 137t-139.5 55t-139.5 -56.5t-59.5 -138.5
t59 -133.5t139 -51.5z" />
    <glyph glyph-name="nine" unicode="9" horiz-adv-x="1359" 
d="M271 2l336 557q-24 -2 -35 -2q-99 0 -191.5 43t-160.5 114t-109 166t-41 195q0 155 80 286.5t220.5 209t309.5 77.5q170 0 310 -78t219.5 -210.5t79.5 -289.5q0 -131 -66.5 -267t-401.5 -701q-38 -65 -59 -100h-491zM679 886q74 0 128 53t54 129q0 82 -53.5 135
t-128.5 53q-77 0 -129.5 -53t-52.5 -135q0 -75 54 -128.5t128 -53.5z" />
    <glyph glyph-name="colon" unicode=":" horiz-adv-x="710" 
d="M355 712q-103 0 -176.5 69t-73.5 166t73.5 166.5t176.5 69.5q102 0 176 -69.5t74 -166.5q0 -96 -74 -165.5t-176 -69.5zM355 -12q-103 0 -176.5 69.5t-73.5 166.5t74 166.5t176 69.5q101 0 175.5 -70t74.5 -166q0 -97 -74 -166.5t-176 -69.5z" />
    <glyph glyph-name="semicolon" unicode=";" horiz-adv-x="752" 
d="M355 707q-103 0 -176.5 69t-73.5 166t73.5 166.5t176.5 69.5q102 0 176 -69.5t74 -166.5q0 -96 -74 -165.5t-176 -69.5zM300 -350q-65 0 -111.5 25t-46.5 48q27 0 57.5 10t60.5 29.5t49.5 55t19.5 80.5q0 42 -16 72q-73 0 -131 62t-58 151q0 102 76 176t190 74
q120 0 191.5 -89t71.5 -237q0 -115 -40.5 -217.5t-123 -171t-189.5 -68.5z" />
    <glyph glyph-name="less" unicode="&#x3c;" horiz-adv-x="1328" 
d="M1174 159l-1034 640v20l1048 641l-14 -418l-422 -233l422 -231v-419z" />
    <glyph glyph-name="equal" unicode="=" horiz-adv-x="1354" 
d="M140 892v333h1074v-333h-1074zM140 347v331h1074v-331h-1074z" />
    <glyph glyph-name="greater" unicode="&#x3e;" horiz-adv-x="1328" 
d="M155 159v419l422 231l-422 233l-14 418l1047 -641v-20z" />
    <glyph glyph-name="question" unicode="?" horiz-adv-x="1111" 
d="M295 561q-4 39 -7 79.5t13 91.5t44.5 101.5t88 110.5t143.5 118q75 53 75 119q0 64 -41 99.5t-118 35.5q-89 0 -163.5 -49t-108.5 -124l-151 315q33 53 47 69q128 154 401 154q115 0 216 -40t166.5 -102.5t103 -136t37.5 -143.5q0 -122 -29.5 -197t-112.5 -150
q-22 -20 -52.5 -45.5t-51 -42t-43.5 -38.5t-35.5 -43t-22 -48t-8.5 -60t11 -73zM498 -57q-104 0 -177 69.5t-73 166.5q0 96 73 163.5t175 67.5q103 0 177.5 -70t74.5 -166t-73.5 -163.5t-176.5 -67.5z" />
    <glyph glyph-name="at" unicode="@" horiz-adv-x="2417" 
d="M1075 -436q-195 0 -358 44.5t-281.5 125.5t-201.5 194t-123.5 250t-40.5 292q0 255 101 479.5t273.5 383t410 250t503.5 91.5q194 0 358 -48.5t278.5 -131.5t195.5 -195.5t119 -240.5t38 -266q0 -158 -55 -308t-148.5 -264.5t-227 -184t-282.5 -69.5q-163 0 -242.5 98
t-82.5 265q-12 -69 -94.5 -115t-179.5 -46q-137 0 -222 99.5t-85 262.5q0 133 51.5 251t148.5 191.5t216 73.5q93 0 156 -45.5t63 -112.5l56 149h277l-74 -611q-3 -39 -3 -47q0 -123 85 -123q52 0 95.5 46t69.5 118t40 153t14 158q0 143 -47 252t-132 176.5t-199 101
t-254 32.5q-170 -1 -320.5 -60t-259.5 -161.5t-172.5 -247.5t-63.5 -310q0 -265 172.5 -426.5t466.5 -161.5q97 0 188 36l104 -335q-58 -22 -88.5 -32t-97 -20.5t-145.5 -10.5zM1174 453q63 0 105.5 54.5t42.5 126.5q0 54 -29 89.5t-80 35.5q-64 0 -110 -55t-46 -123
q0 -54 32.5 -91t84.5 -37z" />
    <glyph glyph-name="A" unicode="A" horiz-adv-x="1744" 
d="M1173 188h-602l-82 -188h-468l749 1632h203l750 -1632h-469zM1037 501l-165 382l-166 -382h331z" />
    <glyph glyph-name="B" unicode="B" horiz-adv-x="1407" 
d="M140 0v1612h530q107 0 202 -34.5t161 -91.5t104.5 -134t38.5 -159q0 -115 -60 -200t-116 -85q64 0 129.5 -31.5t117.5 -85t85 -132.5t33 -167q0 -95 -39 -184t-107.5 -157.5t-170.5 -109.5t-220 -41h-688zM552 987h102q72 0 117.5 34t45.5 95q0 57 -44.5 90.5
t-115.5 33.5h-105v-253zM552 389h211q80 0 136 39.5t56 114.5q0 71 -49.5 111t-139.5 40l-214 1v-306z" />
    <glyph glyph-name="C" unicode="C" horiz-adv-x="1596" 
d="M950 -36q-136 0 -266 38.5t-240.5 113t-194.5 175t-131.5 234t-47.5 281.5q0 235 116.5 428.5t320.5 304.5t451 111q156 -2 314 -67t282 -177l-246 -316q-75 69 -168 109t-181 40q-123 0 -227 -57t-166 -157.5t-62 -221.5t63.5 -222t165.5 -156.5t217 -55.5
q184 0 360 157l244 -325q-261 -237 -604 -237z" />
    <glyph glyph-name="D" unicode="D" horiz-adv-x="1619" 
d="M666 1612q411 2 647 -214t236 -594q0 -375 -236 -589.5t-647 -214.5h-526v1611zM659 403q215 0 338 107.5t123 294.5q0 190 -124 298.5t-341 108.5h-98v-809h102z" />
    <glyph glyph-name="E" unicode="E" horiz-adv-x="1283" 
d="M563 1214v-225h512v-357h-512v-231h622v-401h-1045v1612h1045v-398h-622z" />
    <glyph glyph-name="F" unicode="F" horiz-adv-x="1227" 
d="M563 1214v-261h512v-358h-512v-597h-423v1618h1045v-402h-622z" />
    <glyph glyph-name="G" unicode="G" horiz-adv-x="1867" 
d="M70 804q0 170 69 326t187 270.5t283 182.5t349 68q154 -2 315 -61.5t260 -151.5l-237 -325q-68 63 -158.5 100.5t-179.5 37.5q-119 0 -222.5 -59t-166 -162t-62.5 -225q0 -85 33.5 -165t93.5 -142.5t152 -100.5t200 -38q148 0 242 67t98 181h-369v319h827q13 -88 13 -157
q0 -180 -65 -332.5t-177 -255.5t-263.5 -161t-322.5 -58q-188 0 -356 67.5t-286.5 181t-187.5 268.5t-69 325z" />
    <glyph glyph-name="H" unicode="H" horiz-adv-x="1614" 
d="M1474 1612v-1612h-427v607h-479v-607h-428v1612h428v-605h479v605h427z" />
    <glyph glyph-name="I" unicode="I" horiz-adv-x="708" 
d="M140 1612h428v-1612h-428v1612z" />
    <glyph glyph-name="J" unicode="J" horiz-adv-x="1260" 
d="M431 -26q-218 0 -389 111l216 353q45 -34 82 -47.5t94 -13.5h7q110 0 187.5 73.5t77.5 171.5l-8 990l429 -1l7 -991q0 -179 -92 -328t-250.5 -233.5t-348.5 -84.5h-12z" />
    <glyph glyph-name="K" unicode="K" horiz-adv-x="1508" 
d="M140 0v1612h427v-601l374 601h492l-494 -786l555 -826h-519l-408 613v-613h-427z" />
    <glyph glyph-name="L" unicode="L" horiz-adv-x="1227" 
d="M1185 402v-402h-1045v1612h428v-1210h617z" />
    <glyph glyph-name="M" unicode="M" horiz-adv-x="2008" 
d="M1868 1627v-1627h-428v639l-434 -612h-3l-435 612v-639h-428v1627h172l692 -948l692 948h172z" />
    <glyph glyph-name="N" unicode="N" horiz-adv-x="1673" 
d="M1533 1614v-1630h-136l-829 803v-788h-428v1629h138l826 -800v786h429z" />
    <glyph glyph-name="O" unicode="O" horiz-adv-x="1910" 
d="M954 -41q-185 0 -349 65t-281.5 177t-185.5 269t-68 334q0 179 68.5 337t186 270.5t281.5 178t349 65.5t349 -65.5t281.5 -178t186 -270.5t68.5 -337q0 -236 -116 -430t-319.5 -304.5t-450.5 -110.5zM955 368q192 0 322 126.5t130 312.5q0 187 -130 314t-322 127
t-322 -127t-130 -314q0 -186 130 -312.5t322 -126.5z" />
    <glyph glyph-name="P" unicode="P" horiz-adv-x="1400" 
d="M140 1612h609q164 0 304 -75t222.5 -205.5t82.5 -284.5q0 -115 -48 -220.5t-129.5 -182.5t-194.5 -123t-237 -46h-181v-475h-428v1612zM749 869q85 -1 140.5 50t55.5 126q0 74 -55.5 123t-140.5 49h-181v-347z" />
    <glyph glyph-name="Q" unicode="Q" horiz-adv-x="1919" 
d="M70 804q0 179 68.5 337t186 270.5t281.5 178t349 65.5t349 -65.5t281.5 -178t186 -270.5t68.5 -337q0 -215 -96.5 -395t-266.5 -295q171 -40 369 -45l-146 -381q-202 15 -351 87.5t-274 190.5q-56 -7 -121 -7q-185 0 -349 65t-281.5 177t-185.5 269t-68 334zM503 807
q0 -186 130 -312.5t322 -126.5t322 126.5t130 312.5q0 187 -130 314t-322 127t-322 -127t-130 -314z" />
    <glyph glyph-name="R" unicode="R" horiz-adv-x="1516" 
d="M142 0l-2 1612h612q170 0 307.5 -70.5t213.5 -190t76 -263.5q0 -147 -73.5 -261.5t-195.5 -169.5l402 -657h-481l-278 645l-153 2v-647h-428zM568 904l175 -1q71 -1 122.5 44.5t51.5 117.5t-51.5 117t-122.5 45h-175v-323z" />
    <glyph glyph-name="S" unicode="S" horiz-adv-x="1308" 
d="M643 -22q-200 0 -363.5 81t-223.5 214l259 254q50 -74 137.5 -116.5t189.5 -42.5q74 0 127 26t53 73q0 20 -11.5 40t-38.5 40.5t-51 36.5t-69.5 38.5t-72.5 34.5t-80 36q-82 36 -146 77t-119 96.5t-84.5 129.5t-29.5 162q0 136 79 246.5t209.5 171t282.5 60.5
q181 0 317 -76.5t184 -198.5l-247 -238q-33 59 -107.5 90.5t-141.5 31.5q-65 0 -108 -29t-43 -71q0 -16 6.5 -29t21 -25t30.5 -21.5t44 -21t52.5 -21t63.5 -25t70 -28.5q419 -176 419 -498q0 -149 -85.5 -264t-223 -174.5t-300.5 -59.5z" />
    <glyph glyph-name="T" unicode="T" horiz-adv-x="1286" 
d="M1244 1212h-386v-1212h-429v1212h-387v400h1202v-400z" />
    <glyph glyph-name="U" unicode="U" horiz-adv-x="1590" 
d="M795 -45q-137 0 -260 47t-213 129t-143 200.5t-53 254.5v1026h431v-1025q0 -97 71 -160t166 -63q94 0 166.5 63.5t72.5 159.5v1025h431v-1026q0 -136 -53 -254.5t-143 -200.5t-213 -129t-260 -47z" />
    <glyph glyph-name="V" unicode="V" horiz-adv-x="1719" 
d="M1698 1612l-743 -1629h-194l-740 1629h463l372 -873l373 873h469z" />
    <glyph glyph-name="W" unicode="W" horiz-adv-x="2105" 
d="M21 1612h463l223 -738l330 735h32l330 -733l222 736h463l-538 -1622h-118l-377 797l-374 -797h-117z" />
    <glyph glyph-name="X" unicode="X" horiz-adv-x="1569" 
d="M532 837l-484 775h490l247 -426l246 426h490l-486 -774l513 -838h-493l-271 476l-270 -476h-493z" />
    <glyph glyph-name="Y" unicode="Y" horiz-adv-x="1462" 
d="M518 696l-497 916h485l225 -467l224 467h486l-498 -916v-696h-425v696z" />
    <glyph glyph-name="Z" unicode="Z" horiz-adv-x="1387" 
d="M629 1212h-545v400h1219l-544 -1210h544v-402h-1219z" />
    <glyph glyph-name="bracketleft" unicode="[" horiz-adv-x="843" 
d="M140 -299v2086h633v-299h-267v-1488h267v-299h-633z" />
    <glyph glyph-name="backslash" unicode="\" horiz-adv-x="1110" 
d="M718 -265l-697 1995h374l694 -1995h-371z" />
    <glyph glyph-name="bracketright" unicode="]" horiz-adv-x="843" 
d="M70 -299v299h267v1488h-267v299h633v-2086h-633z" />
    <glyph glyph-name="asciicircum" unicode="^" horiz-adv-x="1018" 
d="M21 1092l457 584h61l458 -584h-342l-146 213l-147 -213h-341z" />
    <glyph glyph-name="underscore" unicode="_" horiz-adv-x="1300" 
d="M0 -136v273h1300v-273h-1300z" />
    <glyph glyph-name="grave" unicode="`" horiz-adv-x="674" 
d="M238 1333l-238 337h335l172 -337h-269z" />
    <glyph glyph-name="a" unicode="a" horiz-adv-x="1566" 
d="M65 600q0 177 75.5 323.5t213 232.5t309.5 86q239 0 381 -164l18 122h374v-1200h-374l-19 124q-141 -166 -380 -166q-132 0 -245 52t-190 140t-120 204.5t-43 245.5zM469 602q0 -113 79.5 -195.5t204.5 -82.5q120 0 199.5 78.5t79.5 200.5q0 123 -80.5 198.5t-197.5 75.5
q-122 0 -203.5 -80.5t-81.5 -194.5z" />
    <glyph glyph-name="b" unicode="b" horiz-adv-x="1566" 
d="M130 0v1650h404v-560q142 151 370 151q171 0 308.5 -86t213 -232.5t75.5 -323.5q0 -172 -73 -317.5t-211 -234.5t-313 -89q-239 0 -381 167l-19 -125h-374zM534 602q0 -122 79.5 -200.5t200.5 -78.5q125 0 204 83t79 196q0 114 -81 194t-203 80q-117 0 -198 -75.5
t-81 -198.5z" />
    <glyph glyph-name="c" unicode="c" horiz-adv-x="1212" 
d="M733 -40q-130 0 -251 46.5t-213.5 128t-148 203t-55.5 262.5t55.5 262.5t148 203t213.5 128t251 46.5q240 0 424 -140l-184 -287q-39 37 -97 59t-119 22q-123 0 -205.5 -84.5t-82.5 -209.5t82.5 -209t206.5 -84q62 0 119 21.5t94 56.5l202 -273q-90 -72 -204 -112
t-236 -40z" />
    <glyph glyph-name="d" unicode="d" horiz-adv-x="1562" 
d="M65 599q0 177 75.5 323.5t213 232.5t309.5 86q229 0 369 -151v560h400v-1650h-370l-19 124q-141 -166 -380 -166q-175 0 -313.5 89t-211.5 234.5t-73 317.5zM469 602q0 -113 79.5 -196t204.5 -83q120 0 199.5 78.5t79.5 200.5q0 123 -80.5 198.5t-197.5 75.5
q-122 0 -203.5 -80t-81.5 -194z" />
    <glyph glyph-name="e" unicode="e" horiz-adv-x="1386" 
d="M65 600q0 183 88 330.5t236.5 228.5t326.5 81q138 0 254.5 -51.5t191.5 -135.5t117 -189t42 -216q0 -99 -28 -185h-822q34 -81 100 -129t152 -48q114 0 220 95l301 -175q-56 -72 -127 -123.5t-143.5 -76.5t-135 -35.5t-123.5 -10.5q-181 0 -329.5 82.5t-234.5 229.5
t-86 328zM457 709h478q-19 94 -75 150t-150 56q-95 0 -161 -57t-92 -149z" />
    <glyph glyph-name="f" unicode="f" horiz-adv-x="893" 
d="M728 1358q-39 0 -66.5 -13t-40.5 -33t-18.5 -37.5t-5.5 -32.5v-42h257v-358h-257v-842h-404v842h-154v358h154v42q0 91 24 171t71 142.5t123.5 98.5t173.5 36q61 0 137.5 -12.5t131.5 -32.5v-314q-71 27 -126 27z" />
    <glyph glyph-name="g" unicode="g" horiz-adv-x="1566" 
d="M65 600q0 177 75.5 323.5t213 232.5t309.5 86q239 0 381 -164l18 122h374v-1080q-2 -132 -52.5 -246.5t-143.5 -200t-235.5 -134.5t-318.5 -49q-150 0 -293 46t-245 130l213 251q33 -32 123.5 -55.5t181.5 -23.5q158 0 258.5 72.5t107.5 200.5q-140 -153 -369 -153
q-132 0 -245 52t-190 140t-120 204.5t-43 245.5zM469 602q0 -113 79.5 -195.5t204.5 -82.5q120 0 199.5 78.5t79.5 200.5q0 123 -80.5 198.5t-197.5 75.5q-122 0 -203.5 -80.5t-81.5 -194.5z" />
    <glyph glyph-name="h" unicode="h" horiz-adv-x="1464" 
d="M888 1237q446 0 446 -588v-649h-404v649q0 227 -191 227q-96 0 -150.5 -62t-54.5 -165v-649h-404v1650h404v-541q144 128 354 128z" />
    <glyph glyph-name="i" unicode="i" horiz-adv-x="710" 
d="M355 1310q-95 0 -160 59t-65 144t65 144t160 59q96 0 160.5 -59t64.5 -144t-64.5 -144t-160.5 -59zM153 1200h404v-1200h-404v1200z" />
    <glyph glyph-name="j" unicode="j" horiz-adv-x="693" 
d="M338 1310q-95 0 -160 59t-65 144t65 144t160 59q96 0 160.5 -59t64.5 -144t-64.5 -144t-160.5 -59zM134 -485q-136 0 -239 40v315q57 -23 111 -23q38 0 66 12t41 30.5t18.5 35.5t5.5 33v1242h404v-1242q0 -92 -23 -169.5t-70.5 -140t-127.5 -98t-186 -35.5z" />
    <glyph glyph-name="k" unicode="k" horiz-adv-x="1427" 
d="M130 0v1650h404v-930l360 480h448l-458 -595l504 -605h-470l-297 341l-87 -129v-212h-404z" />
    <glyph glyph-name="l" unicode="l" horiz-adv-x="664" 
d="M130 1650h404v-1650h-404v1650z" />
    <glyph glyph-name="m" unicode="m" horiz-adv-x="2213" 
d="M130 0v1200h374l14 -95q142 137 358 137q254 0 359 -203q69 96 174.5 149.5t241.5 53.5q432 0 432 -593v-649h-404v649q0 117 -43 172t-129 55q-96 0 -147 -61.5t-51 -165.5v-649h-404v649q0 117 -43.5 172t-129.5 55q-96 0 -147 -61.5t-51 -165.5v-649h-404z" />
    <glyph glyph-name="n" unicode="n" horiz-adv-x="1464" 
d="M130 0v1200h374l16 -105q147 142 368 142q446 0 446 -588v-649h-404v649q0 227 -191 227q-96 0 -150.5 -62t-54.5 -165v-649h-404z" />
    <glyph glyph-name="o" unicode="o" horiz-adv-x="1479" 
d="M740 -42q-187 0 -342 85t-244 232.5t-89 324.5t89 324.5t244 232.5t342 85t341.5 -85t243.5 -232.5t89 -324.5t-89 -324.5t-243.5 -232.5t-341.5 -85zM740 329q114 0 192 78.5t78 192.5t-78 193t-192 79t-192.5 -79t-78.5 -193t78.5 -192.5t192.5 -78.5z" />
    <glyph glyph-name="p" unicode="p" horiz-adv-x="1562" 
d="M130 -450v1650h370l18 -123q142 164 382 164q171 0 308.5 -86t213 -232.5t75.5 -323.5q0 -172 -73 -317.5t-211 -234.5t-313 -89q-230 0 -370 154v-562h-400zM530 602q0 -122 79.5 -200.5t200.5 -78.5q125 0 204 83t79 196q0 114 -81 194t-203 80q-117 0 -198 -75.5
t-81 -198.5z" />
    <glyph glyph-name="q" unicode="q" horiz-adv-x="1562" 
d="M1432 1200v-1650h-400v561q-140 -153 -369 -153q-175 0 -313.5 89t-211.5 234.5t-73 317.5q0 177 75.5 323.5t213 232.5t309.5 86q239 0 381 -164l18 123h370zM753 323q120 0 199.5 78.5t79.5 200.5q0 123 -80.5 198.5t-197.5 75.5q-122 0 -203.5 -80t-81.5 -194
q0 -113 79.5 -196t204.5 -83z" />
    <glyph glyph-name="r" unicode="r" horiz-adv-x="993" 
d="M130 0v1200h374l21 -143q87 98 200 146t228 49l-62 -403q-32 6 -67 6q-41 0 -77 -7.5t-76.5 -31t-69.5 -62.5t-48 -108.5t-19 -161.5v-484h-404z" />
    <glyph glyph-name="s" unicode="s" horiz-adv-x="1160" 
d="M547 -44q-165 0 -298.5 64t-183.5 162l178 242q42 -53 139.5 -95t197.5 -42q110 0 110 56q0 16 -12.5 30t-43.5 29t-55.5 24.5t-74.5 27.5q-26 9 -39 14q-165 53 -262 147t-97 226q0 125 72 218.5t182.5 138.5t239.5 45q139 0 261.5 -54t169.5 -139l-204 -224
q-44 42 -107.5 66t-131.5 24q-102 0 -102 -50q0 -29 47 -51.5t201 -73.5q185 -68 273 -152t88 -218q0 -189 -154 -302t-394 -113z" />
    <glyph glyph-name="t" unicode="t" horiz-adv-x="895" 
d="M594 -20q-107 0 -184.5 34t-120.5 95t-62.5 133.5t-19.5 161.5v439h-168v324h38q81 0 125.5 43.5t44.5 123.5v119h364v-253h245v-357h-245v-419q0 -60 32.5 -92t87.5 -32q43 0 122 24v-303q-48 -19 -122 -30t-137 -11z" />
    <glyph glyph-name="u" unicode="u" horiz-adv-x="1425" 
d="M708 -15q-170 0 -302 75t-203 206t-71 296l-2 638h404l1 -637q0 -102 46 -161.5t126 -59.5q84 0 133.5 60t49.5 161l-1 637h404l2 -638q0 -165 -73.5 -296.5t-208 -206t-305.5 -74.5z" />
    <glyph glyph-name="v" unicode="v" horiz-adv-x="1377" 
d="M1338 1200l-549 -1230h-203l-547 1230h446l201 -553l197 553h455z" />
    <glyph glyph-name="w" unicode="w" horiz-adv-x="1839" 
d="M39 1200h437l155 -559l276 557h26l275 -556l154 558h438l-436 -1220h-174l-275 549l-266 -549h-173z" />
    <glyph glyph-name="x" unicode="x" horiz-adv-x="1430" 
d="M474 633l-406 567h468l180 -279l179 279h468l-408 -566l436 -634h-464l-212 325l-206 -325h-470z" />
    <glyph glyph-name="y" unicode="y" horiz-adv-x="1487" 
d="M1448 1200l-752 -1650h-420l248 555l-485 1095h449l231 -658l293 658h436z" />
    <glyph glyph-name="z" unicode="z" horiz-adv-x="1191" 
d="M519 843h-422v357h1019l-454 -843h464v-357h-1061z" />
    <glyph glyph-name="braceleft" unicode="{" horiz-adv-x="976" 
d="M619 -301q-129 0 -220.5 81t-91.5 195v337q0 132 -71 227.5t-166 95.5v219q95 0 166 95.5t71 227.5v337q0 114 91.5 195t220.5 81h287v-299l-170 -5q-26 -1 -44.5 -45t-18.5 -105v-191q0 -165 -67.5 -282.5t-161.5 -117.5q62 0 115 -53.5t83.5 -146t30.5 -201.5v-190
q0 -65 18.5 -110.5t45.5 -45.5h169v-299h-287z" />
    <glyph glyph-name="bar" unicode="|" horiz-adv-x="651" 
d="M200 -450v2300h251v-2300h-251z" />
    <glyph glyph-name="braceright" unicode="}" horiz-adv-x="976" 
d="M70 -301v299h169q27 0 45.5 45.5t18.5 110.5v190q0 109 30.5 201.5t83.5 146t115 53.5q-94 0 -161.5 117.5t-67.5 282.5v191q0 61 -18.5 105t-44.5 45l-170 5v299h287q129 0 220.5 -81t91.5 -195v-337q0 -132 71 -227.5t166 -95.5v-219q-95 0 -166 -95.5t-71 -227.5v-337
q0 -114 -91.5 -195t-220.5 -81h-287z" />
    <glyph glyph-name="asciitilde" unicode="~" horiz-adv-x="1716" 
d="M1109 537q-74 0 -140 21.5t-112 51.5t-86 60.5t-81.5 52t-79.5 21.5q-64 0 -100 -52t-59 -147l-311 96q24 120 74.5 207t116.5 133.5t134 67.5t141 21q74 0 140 -21.5t112.5 -52t87 -60.5t82 -51.5t79.5 -21.5q62 0 98.5 52.5t60.5 146.5l310 -96q-20 -99 -59 -176
t-85.5 -123.5t-103.5 -76.5t-110 -41.5t-109 -11.5z" />
    <glyph glyph-name="exclamdown" unicode="&#xa1;" horiz-adv-x="796" 
d="M400 753q-104 0 -178.5 70t-74.5 166t73.5 163t176.5 67q104 0 177 -69t73 -166q0 -95 -73.5 -163t-173.5 -68zM151 -450l70 1050h355l71 -1050h-496z" />
    <glyph glyph-name="cent" unicode="&#xa2;" horiz-adv-x="1238" 
d="M547 -97v227q-209 56 -345.5 221t-136.5 394t136.5 394t345.5 221v220l334 1v-211q156 -33 276 -125l-184 -287q-64 60 -152.5 75t-165.5 -12.5t-131.5 -100.5t-54.5 -175q0 -68 25.5 -125t66.5 -93t94.5 -56t108.5 -20t110 20t97 59l202 -273q-127 -102 -292 -137v-217
h-334z" />
    <glyph glyph-name="currency" unicode="&#xa4;" horiz-adv-x="1339" 
d="M1107 250l-185 171q-115 -66 -252 -66q-139 0 -259 71l-187 -170l-154 148l187 169q-68 106 -68 229q0 133 74 243l-183 172l157 147l183 -173q115 66 253 66t253 -66l186 168l157 -148l-184 -168q71 -109 71 -237q0 -132 -75 -240l182 -171zM673 662q64 0 109.5 43
t45.5 103q0 63 -50.5 102.5t-113.5 39.5t-106.5 -41.5t-43.5 -102.5q0 -60 46.5 -102t112.5 -42z" />
    <glyph glyph-name="yen" unicode="&#xa5;" horiz-adv-x="1560" 
d="M567 0v280h-439v283h439v101h-439v283h303l-361 665h485l225 -467l224 467h486l-362 -665h322v-283h-458v-101h458v-283h-458v-280h-425z" />
    <glyph glyph-name="brokenbar" unicode="&#xa6;" horiz-adv-x="651" 
d="M200 865v985h251v-985h-251zM200 -450v1000h251v-1000h-251z" />
    <glyph glyph-name="dieresis" unicode="&#xa8;" horiz-adv-x="687" 
d="M98 1349q-61 0 -104.5 40.5t-43.5 96.5t44 97.5t104 41.5q59 0 102.5 -41.5t43.5 -97.5t-43.5 -96.5t-102.5 -40.5zM579 1349q-60 0 -103 40.5t-43 96.5t43.5 97.5t102.5 41.5q60 0 104 -41.5t44 -97.5t-43.5 -96.5t-104.5 -40.5z" />
    <glyph glyph-name="copyright" unicode="&#xa9;" horiz-adv-x="1842" 
d="M921 -90q-175 0 -333 64t-271.5 172.5t-180 259t-66.5 317.5q0 166 66.5 316t179.5 258.5t271 172t334 63.5q235 0 431 -109.5t308 -295.5t112 -405q0 -168 -68 -319.5t-182.5 -259.5t-271.5 -171t-329 -63zM921 101q132 0 253 49.5t208.5 133t139.5 198.5t52 240
q0 126 -52 241t-139.5 198.5t-208.5 133t-253 49.5q-176 0 -326 -84t-238 -227.5t-88 -311.5q0 -167 88.5 -310t238.5 -226.5t325 -83.5zM943 247q-144 0 -262 67t-183.5 177t-65.5 238q0 94 39 181.5t106 153.5t162.5 105.5t203.5 39.5q171 0 311 -104l-170 -243
q-64 59 -142 59q-90 0 -149 -58.5t-59 -133.5q0 -76 59 -135.5t150 -59.5q73 0 140 57l182 -230q-138 -114 -322 -114z" />
    <glyph glyph-name="guillemotleft" unicode="&#xab;" horiz-adv-x="1362" 
d="M466 83l-396 537l396 538l266 -51l-288 -487l288 -486zM1026 83l-396 537l396 538l266 -51l-288 -487l288 -486z" />
    <glyph glyph-name="logicalnot" unicode="&#xac;" horiz-adv-x="1557" 
d="M1016 387v314h-876v379h1277v-693h-401z" />
    <glyph glyph-name="registered" unicode="&#xae;" horiz-adv-x="1128" 
d="M564 712q-202 0 -343 131.5t-141 319.5q0 187 140.5 318t343.5 131t343.5 -131.5t140.5 -317.5q0 -189 -141.5 -320t-342.5 -131zM564 826q149 0 256 99t107 237q0 139 -107 238t-256 99t-256 -99t-107 -238q0 -138 107.5 -237t255.5 -99zM405 950v448h172q72 0 120 -43
t48 -105q0 -42 -23.5 -76t-58.5 -49l128 -175h-140l-98 144l-27 39v-183h-121zM525 1199l49 -1q20 0 34.5 13t14.5 33t-14.5 33t-34.5 13h-49v-91z" />
    <glyph glyph-name="macron" unicode="&#xaf;" horiz-adv-x="644" 
d="M5 1389v201h655v-201h-655z" />
    <glyph glyph-name="degree" unicode="&#xb0;" horiz-adv-x="737" 
d="M368 1084q-122 0 -212.5 84t-90.5 198t90 198.5t213 84.5q124 0 214 -84t90 -199q0 -116 -90 -199t-214 -83zM368 1258q50 0 85.5 32t35.5 77q0 44 -36 77t-85 33q-47 0 -83.5 -33t-36.5 -78q0 -44 35 -76t85 -32z" />
    <glyph glyph-name="plusminus" unicode="&#xb1;" horiz-adv-x="1238" 
d="M420 554v295h-280v323h280v265h398v-265h280v-323h-280v-295h-398zM140 148v297h958v-297h-958z" />
    <glyph glyph-name="acute" unicode="&#xb4;" horiz-adv-x="788" 
d="M-15 1333l172 337h335l-238 -337h-269z" />
    <glyph glyph-name="periodcentered" unicode="&#xb7;" horiz-adv-x="739" 
d="M370 402q-110 0 -187.5 72.5t-77.5 175.5q0 101 78.5 174.5t186.5 73.5q107 0 185.5 -73.5t78.5 -174.5q0 -102 -78 -175t-186 -73z" />
    <glyph glyph-name="cedilla" unicode="&#xb8;" horiz-adv-x="600" 
d="M141 -574l-99 231q137 -1 201.5 20.5t64.5 56.5q0 17 -14 31.5t-49 14.5q-21 0 -49 -7l-47 60l168 209h190l-108 -129q5 0 12 0.5t12 0.5q68 0 114 -49t46 -121q0 -126 -131.5 -222.5t-310.5 -95.5z" />
    <glyph glyph-name="guillemotright" unicode="&#xbb;" horiz-adv-x="1362" 
d="M337 83l-267 51l288 486l-288 487l267 51l395 -538zM897 83l-267 51l288 486l-288 487l267 51l395 -538z" />
    <glyph glyph-name="questiondown" unicode="&#xbf;" horiz-adv-x="1111" 
d="M615 793q-103 0 -177.5 70t-74.5 166t73.5 163t176.5 67q104 0 177 -69t73 -166q0 -96 -73 -163.5t-175 -67.5zM593 -478q-115 0 -216 40t-166.5 102.5t-103 136t-37.5 142.5q0 123 29.5 198t112.5 150q23 21 69.5 57t71 58t45.5 62t21 87q0 66 -5 86l402 1
q4 -39 7 -79.5t-13 -91.5t-44.5 -101.5t-88 -110.5t-143.5 -118q-75 -53 -75 -119q0 -64 41 -99.5t118 -35.5q90 0 164 49t108 124l151 -315q-33 -53 -47 -69q-128 -154 -401 -154z" />
    <glyph glyph-name="multiply" unicode="&#xd7;" horiz-adv-x="1482" 
d="M385 199l-244 248l349 337l-350 337l244 249l357 -343l356 344l244 -250l-348 -336l349 -335l-244 -250l-357 343z" />
    <glyph glyph-name="divide" unicode="&#xf7;" horiz-adv-x="1654" 
d="M810 1064q-107 -1 -184 72t-77 174q0 100 77 172t182 72q106 0 184.5 -73.5t78.5 -171.5t-77.5 -171t-183.5 -74zM140 603v333h1374v-333h-1374zM809 -28q-105 0 -182.5 73t-77.5 174t78 172.5t182 71.5q105 0 183.5 -73.5t78.5 -171.5t-77.5 -172t-184.5 -74z" />
    <glyph glyph-name="circumflex" unicode="&#x2c6;" horiz-adv-x="673" 
d="M-54 1347l311 293h239l315 -293h-307l-127 130l-127 -130h-304z" />
    <glyph glyph-name="caron" unicode="&#x2c7;" horiz-adv-x="673" 
d="M256 1347l-311 293h304l127 -130l127 130h307l-315 -293h-239z" />
    <glyph glyph-name="breve" unicode="&#x2d8;" horiz-adv-x="675" 
d="M342 1341q-138 0 -230 86.5t-92 214.5h192q0 -57 37.5 -95.5t92.5 -38.5q56 0 93.5 38.5t37.5 95.5h192q0 -128 -92.5 -214.5t-230.5 -86.5z" />
    <glyph glyph-name="dotaccent" unicode="&#x2d9;" horiz-adv-x="661" 
d="M331 1347q-70 0 -119.5 46t-49.5 111t50 113t119 48t119.5 -48t50.5 -112q0 -66 -50.5 -112t-119.5 -46z" />
    <glyph glyph-name="ring" unicode="&#x2da;" horiz-adv-x="648" 
d="M255 1295q-100 0 -171.5 68.5t-71.5 165.5q0 96 71.5 165t171.5 69q98 0 169.5 -69.5t71.5 -164.5t-71.5 -164.5t-169.5 -69.5zM255 1442q37 0 63 25t26 60q0 36 -26 61.5t-63 25.5t-63.5 -25.5t-26.5 -61.5q0 -35 26.5 -60t63.5 -25z" />
    <glyph glyph-name="ogonek" unicode="&#x2db;" horiz-adv-x="665" 
d="M365 -570q-155 0 -238 65.5t-83 183.5q0 125 87 223t215 132l193 -34q-108 -79 -152.5 -130.5t-44.5 -101.5q0 -28 14.5 -46.5t43.5 -18.5q43 0 119 19l39 -270q-104 -22 -193 -22z" />
    <glyph glyph-name="tilde" unicode="&#x2dc;" horiz-adv-x="827" 
d="M611 1352q-57 0 -107 20.5t-79 44.5t-63 44.5t-63 20.5q-70 0 -99 -125l-195 60q29 143 110.5 205.5t181.5 62.5q56 0 106.5 -20t80 -44.5t63.5 -44.5t63 -20q68 0 99 124l194 -60q-12 -62 -36.5 -110t-53.5 -77t-65 -48t-69 -26t-68 -7z" />
    <glyph glyph-name="hungarumlaut" unicode="&#x2dd;" horiz-adv-x="948" 
d="M-15 1333l137 337h299l-196 -337h-240zM370 1333l208 337h335l-289 -337h-254z" />
    <glyph glyph-name="gravecomb" unicode="&#x300;" 
d="M-269 1333l-238 337h335l172 -337h-269z" />
    <glyph glyph-name="acutecomb" unicode="&#x301;" 
d="M-507 1333l172 337h335l-238 -337h-269z" />
    <glyph glyph-name="tildecomb" unicode="&#x303;" 
d="M-297 1352q-57 0 -107 20.5t-79 44.5t-63 44.5t-63 20.5q-70 0 -99 -125l-195 60q29 143 110.5 205.5t181.5 62.5q56 0 106.5 -20t80 -44.5t63.5 -44.5t63 -20q68 0 99 124l194 -60q-12 -62 -36.5 -110t-53.5 -77t-65 -48t-69 -26t-68 -7z" />
    <glyph glyph-name="uni060C" unicode="&#x60c;" horiz-adv-x="767" 
d="M477 824q68 0 117 -26.5t49 -50.5q-29 0 -61 -10.5t-63.5 -31t-52 -58t-20.5 -84.5t17 -75q76 0 137.5 -65.5t61.5 -159.5q0 -107 -80 -185t-200 -78q-127 0 -202 93.5t-75 249.5q0 89 25.5 174.5t72 154t118 110.5t156.5 42z" />
    <glyph glyph-name="uni061B" unicode="&#x61b;" horiz-adv-x="758" 
d="M458 1528q65 0 111.5 -25t46.5 -48q-27 0 -57.5 -10t-60.5 -29.5t-49.5 -55t-19.5 -80.5q0 -42 16 -72q73 0 131 -62t58 -151q0 -102 -76 -176t-190 -74q-120 0 -191.5 89t-71.5 237q0 115 40.5 217.5t123 171t189.5 68.5zM403 471q103 0 176.5 -69t73.5 -166
t-73.5 -166.5t-176.5 -69.5q-102 0 -176 69.5t-74 166.5q0 96 74 165.5t176 69.5z" />
    <glyph glyph-name="uni061F" unicode="&#x61f;" horiz-adv-x="1111" 
d="M70 1259q0 70 37.5 143.5t103 136t166.5 102.5t216 40q315 0 442 -214q2 -3 3.5 -5t2.5 -4l-151 -315q-34 75 -108.5 124t-163.5 49q-77 0 -118 -35.5t-41 -99.5q0 -66 75 -119q148 -103 216 -200t68 -227l-2 -74l-402 1q5 20 5 86q0 47 -21 87t-45.5 62t-71 58t-69.5 57
q-83 75 -112.5 150t-29.5 197zM363 174q0 96 74.5 166t177.5 70q102 0 175 -67.5t73 -163.5q0 -97 -73 -166.5t-177 -69.5q-103 0 -176.5 67.5t-73.5 163.5z" />
    <glyph glyph-name="uni0621" unicode="&#x621;" horiz-adv-x="1569" 
d="M100 0v365h219q-23 72 -26.5 149.5t13 151t50.5 142.5t87.5 127t120.5 101t154.5 67.5t184.5 24.5q116 0 225 -40t200.5 -121t140.5 -192l-339 -135q-28 68 -89 110t-138 42q-68 0 -122.5 -30.5t-83 -80t-38 -105.5t10 -113t64.5 -98h735v-365h-1369z" />
    <glyph glyph-name="uni0622" unicode="&#x622;" horiz-adv-x="898" 
d="M0 2117q29 143 110.5 205.5t181.5 62.5q56 0 106.5 -20t80 -44.5t63.5 -44.5t63 -20q68 0 99 124l194 -60q-12 -62 -36.5 -110t-53.5 -77t-65 -48t-69 -26t-68 -7q-57 0 -107 20.5t-79 44.5t-63 44.5t-63 20.5q-70 0 -99 -125zM663 0h-428v1912h428v-1912z" />
    <glyph glyph-name="uni0623" unicode="&#x623;" horiz-adv-x="713" 
d="M344 2150h265v-161h-509v161h70q-21 103 47 184t179 81q73 0 134 -41.5t83 -107.5l-151 -61q-4 26 -22.5 42.5t-43.5 16.5q-29 0 -48.5 -20t-19.5 -49q0 -26 16 -45zM569 0h-428v1912h428v-1912z" />
    <glyph glyph-name="uni0624" unicode="&#x624;" horiz-adv-x="1553" 
d="M764 1480h265v-161h-509v161h70q-21 103 47 184t179 81q73 0 134 -41.5t83 -107.5l-151 -61q-4 26 -22.5 42.5t-43.5 16.5q-29 0 -48.5 -20t-19.5 -49q0 -26 16 -45zM430 -485v409h353q108 0 179 76h-434q-193 69 -310.5 231.5t-117.5 368.5q0 177 89 324.5t244 232.5
t342 85q98 0 194.5 -27t182.5 -81.5t152 -129.5t106 -179.5t43 -224.5v-454q0 -181 -90 -326.5t-242.5 -225t-335.5 -79.5h-355zM588 402h434v310q-32 72 -98.5 116t-148.5 44q-114 0 -192.5 -79t-78.5 -193q0 -119 84 -198z" />
    <glyph glyph-name="uni0625" unicode="&#x625;" horiz-adv-x="713" 
d="M570 0h-428v1912h428v-1912zM344 -315h265v-161h-509v161h70q-21 103 47 184t179 81q73 0 134 -41.5t83 -107.5l-151 -61q-4 26 -22.5 42.5t-43.5 16.5q-29 0 -48.5 -20t-19.5 -49q0 -26 16 -45z" />
    <glyph glyph-name="uni0626" unicode="&#x626;" horiz-adv-x="2315" 
d="M143 146v256h431v-255q0 -97 71 -160t166 -63h736q38 0 61 1t55 4.5t51 12.5t38 23.5t27.5 38.5t8.5 57q0 63 -47.5 97t-108.5 34h-795q-9 220 11.5 388.5t68.5 285.5t125 192t176 109t227 34h599v-431h-559q-3 0 -24 0.5t-29 0t-28.5 -3t-30.5 -8t-25 -16.5t-22.5 -26.5
t-13.5 -39.5t-6 -54h327q142 0 274.5 -65t220 -187t87.5 -269q0 -158 -89.5 -293t-243.5 -214.5t-335 -79.5h-736q-183 0 -335.5 79.5t-242.5 225t-90 326.5zM344 640h265v-161h-509v161h70q-21 103 47 184t179 81q73 0 134 -41.5t83 -107.5l-151 -61q-4 26 -22.5 42.5
t-43.5 16.5q-29 0 -48.5 -20t-19.5 -49q0 -26 16 -45z" />
    <glyph glyph-name="uni0627" unicode="&#x627;" horiz-adv-x="628" 
d="M528 0h-428v1912h428v-1912z" />
    <glyph glyph-name="uni0628" unicode="&#x628;" horiz-adv-x="2117" 
d="M100 600q0 177 88.5 324t242.5 232t340 86v-370q-113 -1 -190 -80t-77 -192q0 -119 84 -198h1001v798h428v-1200h-1488q-139 32 -238 123t-145 213t-46 264zM1149 -486q-95 0 -160 59t-65 144t65 144t160 59q96 0 160.5 -59t64.5 -144t-64.5 -144t-160.5 -59z" />
    <glyph glyph-name="uni0629" unicode="&#x629;" horiz-adv-x="1553" 
d="M460 1392q-95 0 -160 59t-65 144t65 144t160 59q96 0 160.5 -59t64.5 -144t-64.5 -144t-160.5 -59zM1090 1392q-95 0 -160 59t-65 144t65 144t160 59q96 0 160.5 -59t64.5 -144t-64.5 -144t-160.5 -59zM100 600q0 177 89 324.5t244 232.5t342 85q98 0 194.5 -27
t182.5 -81.5t152 -129.5t106 -179.5t43 -224.5v-600h-925q-193 69 -310.5 231.5t-117.5 368.5zM504 600q0 -119 84 -198h437v303q-31 75 -98 121t-152 46q-114 0 -192.5 -79t-78.5 -193z" />
    <glyph glyph-name="uni062A" unicode="&#x62a;" horiz-adv-x="2117" 
d="M834 1350q-95 0 -160 59t-65 144t65 144t160 59q96 0 160.5 -59t64.5 -144t-64.5 -144t-160.5 -59zM1464 1350q-95 0 -160 59t-65 144t65 144t160 59q96 0 160.5 -59t64.5 -144t-64.5 -144t-160.5 -59zM100 600q0 177 88.5 324t242.5 232t340 86v-370q-113 -1 -190 -80
t-77 -192q0 -119 84 -198h1001v798h428v-1200h-1488q-139 32 -238 123t-145 213t-46 264z" />
    <glyph glyph-name="uni062B" unicode="&#x62b;" horiz-adv-x="2117" 
d="M1149 1906q-95 0 -160 59t-65 144t65 144t160 59q96 0 160.5 -59t64.5 -144t-64.5 -144t-160.5 -59zM834 1350q-95 0 -160 59t-65 144t65 144t160 59q96 0 160.5 -59t64.5 -144t-64.5 -144t-160.5 -59zM1464 1350q-95 0 -160 59t-65 144t65 144t160 59q96 0 160.5 -59
t64.5 -144t-64.5 -144t-160.5 -59zM100 600q0 177 88.5 324t242.5 232t340 86v-370q-113 -1 -190 -80t-77 -192q0 -119 84 -198h1001v798h428v-1200h-1488q-139 32 -238 123t-145 213t-46 264z" />
    <glyph glyph-name="uni062C" unicode="&#x62c;" horiz-adv-x="1857" 
d="M731 -669q-136 0 -254.5 53t-200.5 143t-129 213t-47 260v402h1248v128q0 94 -63.5 166.5t-159.5 72.5h-1025v431h1026q180 0 325.5 -90t225.5 -242t80 -335v-533h-1248q1 -95 64 -166.5t159 -71.5h425v-431h-426zM1524 -645q-95 0 -160 59t-65 144t65 144t160 59
q96 0 160.5 -59t64.5 -144t-64.5 -144t-160.5 -59z" />
    <glyph glyph-name="uni062D" unicode="&#x62d;" horiz-adv-x="1857" 
d="M731 -669q-136 0 -254.5 53t-200.5 143t-129 213t-47 260v402h1248v128q0 94 -63.5 166.5t-159.5 72.5h-1025v431h1026q180 0 325.5 -90t225.5 -242t80 -335v-533h-1248q1 -95 64 -166.5t159 -71.5h425v-431h-426z" />
    <glyph glyph-name="uni062E" unicode="&#x62e;" horiz-adv-x="1857" 
d="M867 1350q-95 0 -160 59t-65 144t65 144t160 59q96 0 160.5 -59t64.5 -144t-64.5 -144t-160.5 -59zM731 -669q-136 0 -254.5 53t-200.5 143t-129 213t-47 260v402h1248v128q0 94 -63.5 166.5t-159.5 72.5h-1025v431h1026q180 0 325.5 -90t225.5 -242t80 -335v-533h-1248
q1 -95 64 -166.5t159 -71.5h425v-431h-426z" />
    <glyph glyph-name="uni062F" unicode="&#x62f;" horiz-adv-x="1553" 
d="M100 0v402h865q84 79 84 198q0 114 -78.5 193t-192.5 79q-85 0 -152 -46t-98 -121l-373 149q81 182 254 285t369 103q187 0 342 -85t244 -232.5t89 -324.5q0 -206 -117.5 -368.5t-310.5 -231.5h-925z" />
    <glyph glyph-name="uni0630" unicode="&#x630;" horiz-adv-x="1553" 
d="M778 1392q-95 0 -160 59t-65 144t65 144t160 59q96 0 160.5 -59t64.5 -144t-64.5 -144t-160.5 -59zM100 0v402h865q84 79 84 198q0 114 -78.5 193t-192.5 79q-85 0 -152 -46t-98 -121l-373 149q81 182 254 285t369 103q187 0 342 -85t244 -232.5t89 -324.5
q0 -206 -117.5 -368.5t-310.5 -231.5h-925z" />
    <glyph glyph-name="uni0631" unicode="&#x631;" horiz-adv-x="1223" 
d="M100 -485v409h353q94 0 166.5 63.5t72.5 159.5v1050h431v-1051q0 -181 -90 -326.5t-242.5 -225t-335.5 -79.5h-355z" />
    <glyph glyph-name="uni0632" unicode="&#x632;" horiz-adv-x="1223" 
d="M903 1350q-95 0 -160 59t-65 144t65 144t160 59q96 0 160.5 -59t64.5 -144t-64.5 -144t-160.5 -59zM100 -485v409h353q94 0 166.5 63.5t72.5 159.5v1050h431v-1051q0 -181 -90 -326.5t-242.5 -225t-335.5 -79.5h-355z" />
    <glyph glyph-name="uni0633" unicode="&#x633;" horiz-adv-x="3224" 
d="M100 146v394h431v-393q0 -97 71 -160t166 -63q94 0 166.5 63.5t72.5 159.5v1053h431v-798h417v598h428v-598h413v798h428v-1200h-1702q-51 -217 -232 -351t-421 -134q-137 0 -260 47t-213 129t-143 200.5t-53 254.5z" />
    <glyph glyph-name="uni0634" unicode="&#x634;" horiz-adv-x="3224" 
d="M2073 1906q-95 0 -160 59t-65 144t65 144t160 59q96 0 160.5 -59t64.5 -144t-64.5 -144t-160.5 -59zM1758 1350q-95 0 -160 59t-65 144t65 144t160 59q96 0 160.5 -59t64.5 -144t-64.5 -144t-160.5 -59zM2388 1350q-95 0 -160 59t-65 144t65 144t160 59q96 0 160.5 -59
t64.5 -144t-64.5 -144t-160.5 -59zM100 146v394h431v-393q0 -97 71 -160t166 -63q94 0 166.5 63.5t72.5 159.5v1053h431v-798h417v598h428v-598h413v798h428v-1200h-1702q-51 -217 -232 -351t-421 -134q-137 0 -260 47t-213 129t-143 200.5t-53 254.5z" />
    <glyph glyph-name="uni0635" unicode="&#x635;" horiz-adv-x="2830" 
d="M769 -485q-137 0 -260 47t-213 129t-143 200.5t-53 254.5v394h431v-393q0 -97 71 -160t166 -63q94 0 166.5 63.5t72.5 159.5v1143h431v-90h661q180 0 325.5 -90t225.5 -242t80 -335v-533h-1308q-51 -217 -232 -351t-421 -134zM1438 402h883v128q0 94 -63.5 166.5
t-159.5 72.5h-660v-367z" />
    <glyph glyph-name="uni0636" unicode="&#x636;" horiz-adv-x="2830" 
d="M1723 1350q-95 0 -160 59t-65 144t65 144t160 59q96 0 160.5 -59t64.5 -144t-64.5 -144t-160.5 -59zM769 -485q-137 0 -260 47t-213 129t-143 200.5t-53 254.5v394h431v-393q0 -97 71 -160t166 -63q94 0 166.5 63.5t72.5 159.5v1143h431v-90h661q180 0 325.5 -90
t225.5 -242t80 -335v-533h-1308q-51 -217 -232 -351t-421 -134zM1438 402h883v128q0 94 -63.5 166.5t-159.5 72.5h-660v-367z" />
    <glyph glyph-name="uni0637" unicode="&#x637;" horiz-adv-x="2125" 
d="M100 0v402h205v1510h428v-712h661q180 0 325.5 -90t225.5 -242t80 -335v-533h-1925zM733 402h883v128q0 94 -63.5 166.5t-159.5 72.5h-660v-367z" />
    <glyph glyph-name="uni0638" unicode="&#x638;" horiz-adv-x="2125" 
d="M100 0v402h205v1510h428v-712h661q180 0 325.5 -90t225.5 -242t80 -335v-533h-1925zM1197 1350q-95 0 -160 59t-65 144t65 144t160 59q96 0 160.5 -59t64.5 -144t-64.5 -144t-160.5 -59zM733 402h883v128q0 94 -63.5 166.5t-159.5 72.5h-660v-367z" />
    <glyph glyph-name="uni0639" unicode="&#x639;" horiz-adv-x="1881" 
d="M731 -669q-136 0 -254.5 53t-200.5 143t-129 213t-47 260v402h414q-26 80 -29.5 165t15 166t55.5 157t96.5 140t133.5 111.5t170 74t203 26.5q196 0 369 -103t254 -285l-373 -149q-31 75 -98 121t-152 46q-114 0 -192.5 -79t-78.5 -193q0 -119 84 -198h810v-402h-1272
q1 -95 64 -166.5t159 -71.5h425v-431h-426z" />
    <glyph glyph-name="uni063A" unicode="&#x63a;" horiz-adv-x="1881" 
d="M1158 1392q-95 0 -160 59t-65 144t65 144t160 59q96 0 160.5 -59t64.5 -144t-64.5 -144t-160.5 -59zM731 -669q-136 0 -254.5 53t-200.5 143t-129 213t-47 260v402h414q-26 80 -29.5 165t15 166t55.5 157t96.5 140t133.5 111.5t170 74t203 26.5q196 0 369 -103t254 -285
l-373 -149q-31 75 -98 121t-152 46q-114 0 -192.5 -79t-78.5 -193q0 -119 84 -198h810v-402h-1272q1 -95 64 -166.5t159 -71.5h425v-431h-426z" />
    <glyph glyph-name="uni0640" unicode="&#x640;" horiz-adv-x="747" 
d="M757 402v-402h-767v402h767z" />
    <glyph glyph-name="uni0641" unicode="&#x641;" horiz-adv-x="2721" 
d="M1943 1392q-95 0 -160 59t-65 144t65 144t160 59q96 0 160.5 -59t64.5 -144t-64.5 -144t-160.5 -59zM100 600q0 177 88.5 324t242.5 232t340 86v-370q-113 -1 -190 -80t-77 -192q0 -119 84 -198h711q-26 80 -29.5 165t15 166t55.5 157t96.5 140t133.5 111.5t170 74
t203 26.5q98 0 194.5 -27t182.5 -81.5t152 -129.5t106 -179.5t43 -224.5v-600h-2092q-111 25 -195.5 83.5t-134.5 139.5t-74.5 175.5t-24.5 201.5zM1672 600q0 -119 84 -198h437v303q-31 75 -98 121t-152 46q-114 0 -192.5 -79t-78.5 -193z" />
    <glyph glyph-name="uni0642" unicode="&#x642;" horiz-adv-x="2280" 
d="M1187 1392q-95 0 -160 59t-65 144t65 144t160 59q96 0 160.5 -59t64.5 -144t-64.5 -144t-160.5 -59zM1817 1392q-95 0 -160 59t-65 144t65 144t160 59q96 0 160.5 -59t64.5 -144t-64.5 -144t-160.5 -59zM100 146v356h431v-355q0 -97 71 -160t166 -63h742q108 0 179 76
h-434q-193 69 -310.5 231.5t-117.5 368.5q0 177 89 324.5t244 232.5t342 85q98 0 194.5 -27t182.5 -81.5t152 -129.5t106 -179.5t43 -224.5v-454q0 -181 -90 -326.5t-242.5 -225t-335.5 -79.5h-744q-183 0 -335.5 79.5t-242.5 225t-90 326.5zM1231 600q0 -119 84 -198h434
v310q-32 72 -98.5 116t-148.5 44q-114 0 -192.5 -79t-78.5 -193z" />
    <glyph glyph-name="uni0643" unicode="&#x643;" horiz-adv-x="2117" 
d="M100 600q0 177 88.5 324t242.5 232t340 86v-370q-113 -1 -190 -80t-77 -192q0 -119 84 -198h1001v1510h428v-1912h-1488q-139 32 -238 123t-145 213t-46 264zM975 871v109h307v4q0 5 -1.5 7.5t-9 6t-23 5t-43 3t-69 2t-100.5 0.5v64q0 72 39.5 124.5t95.5 52.5h193v-115
h-183q-9 0 -15 -10h87q59 0 99.5 -42.5t40.5 -105.5v-105h-418z" />
    <glyph glyph-name="uni0644" unicode="&#x644;" horiz-adv-x="1538" 
d="M769 -485q-137 0 -260 47t-213 129t-143 200.5t-53 254.5v394h431v-393q0 -97 71 -160t166 -63q94 0 166.5 63.5t72.5 159.5v1765h431v-1766q0 -136 -53 -254.5t-143 -200.5t-213 -129t-260 -47z" />
    <glyph glyph-name="uni0645" unicode="&#x645;" horiz-adv-x="1983" 
d="M100 -485q0 375 109 586.5t330 274.5q-8 73 4 161t57 189.5t117.5 184t200.5 137t291 54.5q187 0 341.5 -85t243.5 -232.5t89 -324.5t-89 -324.5t-243.5 -232.5t-341.5 -85q-139 0 -262 48t-215 135q-82 0 -132.5 -62.5t-70.5 -166.5t-20 -257h-409zM1209 189
q114 0 192 78.5t78 192.5t-78 193t-192 79t-192.5 -79t-78.5 -193t78.5 -192.5t192.5 -78.5z" />
    <glyph glyph-name="uni0646" unicode="&#x646;" horiz-adv-x="1538" 
d="M769 1350q-95 0 -160 59t-65 144t65 144t160 59q96 0 160.5 -59t64.5 -144t-64.5 -144t-160.5 -59zM769 -485q-137 0 -260 47t-213 129t-143 200.5t-53 254.5v1054h431v-1053q0 -97 71 -160t166 -63q94 0 166.5 63.5t72.5 159.5v1053h431v-1054q0 -136 -53 -254.5
t-143 -200.5t-213 -129t-260 -47z" />
    <glyph glyph-name="uni0647" unicode="&#x647;" horiz-adv-x="1553" 
d="M100 600q0 177 89 324.5t244 232.5t342 85q98 0 194.5 -27t182.5 -81.5t152 -129.5t106 -179.5t43 -224.5v-600h-925q-193 69 -310.5 231.5t-117.5 368.5zM504 600q0 -119 84 -198h437v303q-31 75 -98 121t-152 46q-114 0 -192.5 -79t-78.5 -193z" />
    <glyph glyph-name="uni0648" unicode="&#x648;" horiz-adv-x="1553" 
d="M430 -485v409h353q108 0 179 76h-434q-193 69 -310.5 231.5t-117.5 368.5q0 177 89 324.5t244 232.5t342 85q98 0 194.5 -27t182.5 -81.5t152 -129.5t106 -179.5t43 -224.5v-454q0 -181 -90 -326.5t-242.5 -225t-335.5 -79.5h-355zM588 402h434v310q-32 72 -98.5 116
t-148.5 44q-114 0 -192.5 -79t-78.5 -193q0 -119 84 -198z" />
    <glyph glyph-name="uni0649" unicode="&#x649;" horiz-adv-x="2272" 
d="M100 146v256h431v-255q0 -97 71 -160t166 -63h736q38 0 61 1t55 4.5t51 12.5t38 23.5t27.5 38.5t8.5 57q0 63 -47.5 97t-108.5 34h-795q-9 220 11.5 388.5t68.5 285.5t125 192t176 109t227 34h599v-431h-559q-3 0 -24 0.5t-29 0t-28.5 -3t-30.5 -8t-25 -16.5t-22.5 -26.5
t-13.5 -39.5t-6 -54h327q142 0 274.5 -65t220 -187t87.5 -269q0 -158 -89.5 -293t-243.5 -214.5t-335 -79.5h-736q-183 0 -335.5 79.5t-242.5 225t-90 326.5z" />
    <glyph glyph-name="uni064A" unicode="&#x64a;" horiz-adv-x="2272" 
d="M100 146v256h431v-255q0 -97 71 -160t166 -63h736q38 0 61 1t55 4.5t51 12.5t38 23.5t27.5 38.5t8.5 57q0 63 -47.5 97t-108.5 34h-795q-9 220 11.5 388.5t68.5 285.5t125 192t176 109t227 34h599v-431h-559q-3 0 -24 0.5t-29 0t-28.5 -3t-30.5 -8t-25 -16.5t-22.5 -26.5
t-13.5 -39.5t-6 -54h327q142 0 274.5 -65t220 -187t87.5 -269q0 -158 -89.5 -293t-243.5 -214.5t-335 -79.5h-736q-183 0 -335.5 79.5t-242.5 225t-90 326.5zM848 -1024q-95 0 -160 59t-65 144t65 144t160 59q96 0 160.5 -59t64.5 -144t-64.5 -144t-160.5 -59zM1478 -1024
q-95 0 -160 59t-65 144t65 144t160 59q96 0 160.5 -59t64.5 -144t-64.5 -144t-160.5 -59z" />
    <glyph glyph-name="uni064B" unicode="&#x64b;" 
d="M0 1455h509v-111h-509v111zM0 1294h509v-111h-509v111z" />
    <glyph glyph-name="uni064C" unicode="&#x64c;" 
d="M0 1578v111h179v-255h77q-14 34 -14 72q0 77 55.5 130t135.5 53t134.5 -52.5t55.5 -130.5q1 -77 -54 -130t-136 -53h-365v255h-68zM358 1506q0 -31 21.5 -51.5t53.5 -20.5t53.5 20.5t21.5 51.5t-21.5 51.5t-53.5 20.5t-53.5 -20.5t-21.5 -51.5z" />
    <glyph glyph-name="uni064D" unicode="&#x64d;" 
d="M0 273h509v-111h-509v111zM0 112h509v-111h-509v111z" />
    <glyph glyph-name="uni064E" unicode="&#x64e;" 
d="M0 1294h509v-111h-509v111z" />
    <glyph glyph-name="uni064F" unicode="&#x64f;" 
d="M0 1323v111h142q-14 34 -14 72q0 77 55.5 130t135.5 53t134.5 -52.5t55.5 -130.5q1 -77 -54 -130t-136 -53h-319zM244 1506q0 -31 21.5 -51.5t53.5 -20.5t53.5 20.5t21.5 51.5t-21.5 51.5t-53.5 20.5t-53.5 -20.5t-21.5 -51.5z" />
    <glyph glyph-name="uni0650" unicode="&#x650;" 
d="M0 109h509v-111h-509v111z" />
    <glyph glyph-name="uni0651" unicode="&#x651;" 
d="M333 1335q-18 -43 -57.5 -69.5t-91.5 -26.5q-81 0 -132.5 59t-51.5 144q0 80 47.5 138.5t111.5 69.5l29 -123q-23 -6 -39.5 -28t-16.5 -50q0 -29 18.5 -48t49.5 -20q43 -1 67.5 38.5t24.5 98.5l65 -17q0 -41 18.5 -65.5t45.5 -25.5q21 -1 33.5 12t12.5 33q0 40 -40 52
l26 122q65 -15 105 -64.5t39 -118.5q-1 -76 -44.5 -127t-108.5 -51q-37 0 -67.5 18t-43.5 49z" />
    <glyph glyph-name="uni0652" unicode="&#x652;" 
d="M188 1401q-77 0 -132.5 53t-55.5 128q0 74 55.5 127.5t132.5 53.5q76 0 131.5 -53.5t55.5 -127.5t-55 -127.5t-132 -53.5zM188 1514q28 0 48.5 19.5t20.5 46.5q0 28 -20.5 48t-48.5 20q-29 0 -49 -20t-20 -48q0 -27 20 -46.5t49 -19.5z" />
    <glyph glyph-name="uni0653" unicode="&#x653;" 
d="M0 1829q29 143 110.5 205.5t181.5 62.5q56 0 106.5 -20t80 -44.5t63.5 -44.5t63 -20q68 0 99 124l194 -60q-12 -62 -36.5 -110t-53.5 -77t-65 -48t-69 -26t-68 -7q-57 0 -107 20.5t-79 44.5t-63 44.5t-63 20.5q-70 0 -99 -125z" />
    <glyph glyph-name="uni0654" unicode="&#x654;" 
d="M244 1438h265v-161h-509v161h70q-21 103 47 184t179 81q73 0 134 -41.5t83 -107.5l-151 -61q-4 26 -22.5 42.5t-43.5 16.5q-29 0 -48.5 -20t-19.5 -49q0 -26 16 -45z" />
    <glyph glyph-name="uni0655" unicode="&#x655;" 
d="M244 164h265v-161h-509v161h70q-21 103 47 184t179 81q73 0 134 -41.5t83 -107.5l-151 -61q-4 26 -22.5 42.5t-43.5 16.5q-29 0 -48.5 -20t-19.5 -49q0 -26 16 -45z" />
    <glyph glyph-name="uni0658" unicode="&#x658;" 
 />
    <glyph glyph-name="uni0660" unicode="&#x660;" horiz-adv-x="550" 
d="M275 0q-95 0 -160 59t-65 144t65 144t160 59q96 0 160.5 -59t64.5 -144t-64.5 -144t-160.5 -59z" />
    <glyph glyph-name="uni0661" unicode="&#x661;" horiz-adv-x="458" 
d="M408 0h-358v1651h358v-1651z" />
    <glyph glyph-name="uni0662" unicode="&#x662;" horiz-adv-x="1204" 
d="M50 1650h1104v-372h-610l293 -1278h-353l-434 1580v70z" />
    <glyph glyph-name="uni0663" unicode="&#x663;" horiz-adv-x="1576" 
d="M50 1612h378l196 -551v2q98 9 146.5 105t36.5 230l153 -27q8 -94 55 -147t111 -48q47 4 74.5 37t22.5 78q-4 39 -31 69.5t-70 40.5l34 285q149 -23 251 -128t117 -264q10 -112 -27.5 -209.5t-114 -158.5t-175.5 -70q-84 -8 -158 27.5t-111 102.5q-24 -75 -77.5 -134
t-130.5 -90l271 -762h-343z" />
    <glyph glyph-name="uni0664" unicode="&#x664;" horiz-adv-x="1231" 
d="M50 510q0 143 74.5 253t192.5 158q-82 39 -130.5 122.5t-48.5 182.5q0 119 65 216t178 152t249 55h536v-370l-507 -1q-51 0 -83 -29.5t-32 -80.5q0 -72 71.5 -115t214.5 -43v-226q-173 -1 -265 -55t-92 -137q0 -78 49 -139.5t123 -61.5h536v-391h-560q-153 0 -283.5 64
t-209 181.5t-78.5 264.5z" />
    <glyph glyph-name="uni0665" unicode="&#x665;" horiz-adv-x="1449" 
d="M725 -42q-187 0 -342 85t-244 232.5t-89 324.5t89 324.5t244 232.5t342 85t341.5 -85t243.5 -232.5t89 -324.5t-89 -324.5t-243.5 -232.5t-341.5 -85zM725 329q114 0 192 78.5t78 192.5t-78 193t-192 79t-192.5 -79t-78.5 -193t78.5 -192.5t192.5 -78.5z" />
    <glyph glyph-name="uni0666" unicode="&#x666;" horiz-adv-x="1274" 
d="M1224 1648v-1648h-428v1276h-746v372h1174z" />
    <glyph glyph-name="uni0667" unicode="&#x667;" horiz-adv-x="1777" 
d="M1727 1649l-743 -1648h-194l-740 1648h463l372 -892l373 892h469z" />
    <glyph glyph-name="uni0668" unicode="&#x668;" horiz-adv-x="1777" 
d="M1727 0h-469l-373 892l-372 -892h-463l740 1648h194z" />
    <glyph glyph-name="uni0669" unicode="&#x669;" horiz-adv-x="1318" 
d="M771 2v557q-24 -2 -328 -2q-99 0 -191.5 43t-160.5 114t-109 166t-41 195q0 155 80 286.5t220.5 209t309.5 77.5q170 0 310 -78t219.5 -210.5t79.5 -289.5v-1068h-389zM550 886q74 0 128 53t54 129q0 82 -53.5 135t-128.5 53q-77 0 -129.5 -53t-52.5 -135
q0 -75 54 -128.5t128 -53.5z" />
    <glyph glyph-name="uni066A" unicode="&#x66a;" horiz-adv-x="1888" 
d="M476 877q-167 0 -286.5 110.5t-119.5 265.5q0 156 120 267t287 111t286 -111t119 -266t-119.5 -266t-286.5 -111zM1318 1613h347l-1106 -1613h-348zM476 1127q58 0 98.5 37t40.5 89t-41 89.5t-99 37.5t-99.5 -37t-41.5 -90t41.5 -89.5t100.5 -36.5zM1412 -20
q-167 0 -286.5 111t-119.5 266q0 156 119.5 266.5t287.5 110.5q167 0 286 -110.5t119 -265.5t-119.5 -266.5t-286.5 -111.5zM1412 230q58 0 98.5 37t40.5 90q0 52 -41 89t-99 37t-99.5 -37t-41.5 -89q0 -53 41.5 -90t100.5 -37z" />
    <glyph glyph-name="uni066B" unicode="&#x66b;" horiz-adv-x="767" 
d="M290 -384q-68 0 -117 26.5t-49 50.5q29 0 61 10.5t63.5 31t52 58t20.5 84.5t-17 75q-76 0 -137.5 65.5t-61.5 159.5q0 107 80 185t200 78q127 0 202 -93.5t75 -249.5q0 -89 -25.5 -174.5t-72 -154t-118 -110.5t-156.5 -42z" />
    <glyph glyph-name="uni066C" unicode="&#x66c;" horiz-adv-x="1200" 
 />
    <glyph glyph-name="uni066D" unicode="&#x66d;" horiz-adv-x="940" 
d="M382 1181l-166 -157l-146 203l264 94l-264 89l146 204l166 -155l-52 234h279l-52 -234l166 155l147 -204l-264 -97l264 -86l-147 -203l-166 155l52 -234h-279z" />
    <glyph glyph-name="uni066E" unicode="&#x66e;" horiz-adv-x="2117" 
d="M100 600q0 177 88.5 324t242.5 232t340 86v-370q-113 -1 -190 -80t-77 -192q0 -119 84 -198h1001v798h428v-1200h-1488q-139 32 -238 123t-145 213t-46 264z" />
    <glyph glyph-name="uni066F" unicode="&#x66f;" horiz-adv-x="2280" 
d="M100 146v356h431v-355q0 -97 71 -160t166 -63h742q108 0 179 76h-434q-193 69 -310.5 231.5t-117.5 368.5q0 177 89 324.5t244 232.5t342 85q98 0 194.5 -27t182.5 -81.5t152 -129.5t106 -179.5t43 -224.5v-454q0 -181 -90 -326.5t-242.5 -225t-335.5 -79.5h-744
q-183 0 -335.5 79.5t-242.5 225t-90 326.5zM1231 600q0 -119 84 -198h434v310q-32 72 -98.5 116t-148.5 44q-114 0 -192.5 -79t-78.5 -193z" />
    <glyph glyph-name="uni0670" unicode="&#x670;" 
d="M111 1691v-346h-111v346h111z" />
    <glyph glyph-name="uni0679" unicode="&#x679;" horiz-adv-x="2117" 
d="M879 1250v119h60v448h127v-211h196q81 0 134 -57.5t53 -140.5v-158h-570zM1066 1369h262v38q0 28 -19 49.5t-47 21.5h-196v-109zM100 600q0 177 88.5 324t242.5 232t340 86v-370q-113 -1 -190 -80t-77 -192q0 -119 84 -198h1001v798h428v-1200h-1488q-139 32 -238 123
t-145 213t-46 264z" />
    <glyph glyph-name="uni067E" unicode="&#x67e;" horiz-adv-x="2117" 
d="M100 600q0 177 88.5 324t242.5 232t340 86v-370q-113 -1 -190 -80t-77 -192q0 -119 84 -198h1001v798h428v-1200h-1488q-139 32 -238 123t-145 213t-46 264zM834 -151q96 0 160.5 -59t64.5 -144t-64.5 -144t-160.5 -59q-95 0 -160 59t-65 144t65 144t160 59zM1464 -151
q96 0 160.5 -59t64.5 -144t-64.5 -144t-160.5 -59q-95 0 -160 59t-65 144t65 144t160 59zM1149 -707q96 0 160.5 -59t64.5 -144t-64.5 -144t-160.5 -59q-95 0 -160 59t-65 144t65 144t160 59z" />
    <glyph glyph-name="uni0686" unicode="&#x686;" horiz-adv-x="1857" 
d="M1419 -203q0 -54 -40 -90.5t-100 -36.5q-82 0 -122 62v-401h-426q-136 0 -254.5 53t-200.5 143t-129 213t-47 260v402h1248v128q0 94 -63.5 166.5t-159.5 72.5h-1025v431h1026q180 0 325.5 -90t225.5 -242t80 -335v-533h-1248q1 -95 64 -166.5t159 -71.5h411q-5 18 -5 35
q0 53 40.5 90t100.5 37t100 -37t40 -90zM1673 -76q60 0 100.5 -37t40.5 -90q0 -54 -40.5 -90.5t-100.5 -36.5t-100.5 37t-40.5 90t40.5 90t100.5 37zM1476 -424q60 0 100.5 -37t40.5 -90t-40.5 -90t-100.5 -37t-100.5 37t-40.5 90t40.5 90t100.5 37z" />
    <glyph glyph-name="uni0688" unicode="&#x688;" horiz-adv-x="1553" 
d="M508 1292v119h60v448h127v-211h196q81 0 134 -57.5t53 -140.5v-158h-570zM695 1411h262v38q0 28 -19 49.5t-47 21.5h-196v-109zM100 0v402h865q84 79 84 198q0 114 -78.5 193t-192.5 79q-85 0 -152 -46t-98 -121l-373 149q81 182 254 285t369 103q187 0 342 -85
t244 -232.5t89 -324.5q0 -206 -117.5 -368.5t-310.5 -231.5h-925z" />
    <glyph glyph-name="uni0691" unicode="&#x691;" horiz-adv-x="1223" 
d="M633 1250v119h60v448h127v-211h196q81 0 134 -57.5t53 -140.5v-158h-570zM820 1369h262v38q0 28 -19 49.5t-47 21.5h-196v-109zM100 -485v409h353q94 0 166.5 63.5t72.5 159.5v1050h431v-1051q0 -181 -90 -326.5t-242.5 -225t-335.5 -79.5h-355z" />
    <glyph glyph-name="uni0698" unicode="&#x698;" horiz-adv-x="1223" 
d="M903 1906q-95 0 -160 59t-65 144t65 144t160 59q96 0 160.5 -59t64.5 -144t-64.5 -144t-160.5 -59zM588 1350q-95 0 -160 59t-65 144t65 144t160 59q96 0 160.5 -59t64.5 -144t-64.5 -144t-160.5 -59zM1218 1350q-95 0 -160 59t-65 144t65 144t160 59q96 0 160.5 -59
t64.5 -144t-64.5 -144t-160.5 -59zM100 -485v409h353q94 0 166.5 63.5t72.5 159.5v1050h431v-1051q0 -181 -90 -326.5t-242.5 -225t-335.5 -79.5h-355z" />
    <glyph glyph-name="uni06A1" unicode="&#x6a1;" horiz-adv-x="2721" 
d="M100 600q0 177 88.5 324t242.5 232t340 86v-370q-113 -1 -190 -80t-77 -192q0 -119 84 -198h711q-26 80 -29.5 165t15 166t55.5 157t96.5 140t133.5 111.5t170 74t203 26.5q98 0 194.5 -27t182.5 -81.5t152 -129.5t106 -179.5t43 -224.5v-600h-2092q-111 25 -195.5 83.5
t-134.5 139.5t-74.5 175.5t-24.5 201.5zM1672 600q0 -119 84 -198h437v303q-31 75 -98 121t-152 46q-114 0 -192.5 -79t-78.5 -193z" />
    <glyph glyph-name="uni06A4" unicode="&#x6a4;" horiz-adv-x="2721" 
d="M1943 1948q-95 0 -160 59t-65 144t65 144t160 59q96 0 160.5 -59t64.5 -144t-64.5 -144t-160.5 -59zM1628 1392q-95 0 -160 59t-65 144t65 144t160 59q96 0 160.5 -59t64.5 -144t-64.5 -144t-160.5 -59zM2258 1392q-95 0 -160 59t-65 144t65 144t160 59q96 0 160.5 -59
t64.5 -144t-64.5 -144t-160.5 -59zM100 600q0 177 88.5 324t242.5 232t340 86v-370q-113 -1 -190 -80t-77 -192q0 -119 84 -198h711q-26 80 -29.5 165t15 166t55.5 157t96.5 140t133.5 111.5t170 74t203 26.5q98 0 194.5 -27t182.5 -81.5t152 -129.5t106 -179.5t43 -224.5
v-600h-2092q-111 25 -195.5 83.5t-134.5 139.5t-74.5 175.5t-24.5 201.5zM1672 600q0 -119 84 -198h437v303q-31 75 -98 121t-152 46q-114 0 -192.5 -79t-78.5 -193z" />
    <glyph glyph-name="uni06A9" unicode="&#x6a9;" horiz-adv-x="2850" 
d="M2119 1200q136 0 254.5 -53t200.5 -143t129 -213t47 -260v-531h-2221q-211 49 -320 197.5t-109 362.5q0 177 88.5 324t242.5 232t340 86v-370q-113 -1 -190 -80t-77 -192q0 -38 12 -66.5t25.5 -44.5t46.5 -47h1753v128q0 94 -63.5 166.5t-159.5 72.5h-1025q-12 265 3 455
t58 324.5t122 213.5t187 114.5t261 35.5h624v-431h-623q-103 0 -163 -75.5t-60 -205.5h617z" />
    <glyph glyph-name="uni06AF" unicode="&#x6af;" horiz-adv-x="2850" 
d="M2335 2280v-234h-933v234h933zM2119 1200q136 0 254.5 -53t200.5 -143t129 -213t47 -260v-531h-2221q-211 49 -320 197.5t-109 362.5q0 177 88.5 324t242.5 232t340 86v-370q-113 -1 -190 -80t-77 -192q0 -38 12 -66.5t25.5 -44.5t46.5 -47h1753v128q0 94 -63.5 166.5
t-159.5 72.5h-1025q-12 265 3 455t58 324.5t122 213.5t187 114.5t261 35.5h624v-431h-623q-103 0 -163 -75.5t-60 -205.5h617z" />
    <glyph glyph-name="uni06BA" unicode="&#x6ba;" horiz-adv-x="1538" 
d="M769 -485q-137 0 -260 47t-213 129t-143 200.5t-53 254.5v1054h431v-1053q0 -97 71 -160t166 -63q94 0 166.5 63.5t72.5 159.5v1053h431v-1054q0 -136 -53 -254.5t-143 -200.5t-213 -129t-260 -47z" />
    <glyph glyph-name="uni06BE" unicode="&#x6be;" horiz-adv-x="2355" 
d="M-10 0v402h276q-30 89 -30 189q0 168 84 307.5t230.5 220.5t323.5 81h750q180 0 325.5 -90t225.5 -242t80 -335v-533h-2265zM698 403h414v288q-28 71 -92 115t-144 44q-108 0 -182.5 -75.5t-74.5 -183.5q0 -112 79 -188zM1519 402h327v128q0 94 -63.5 166.5t-159.5 72.5
h-133q28 -84 29 -178v-189z" />
    <glyph glyph-name="uni06C1" unicode="&#x6c1;" horiz-adv-x="1553" 
d="M100 600q0 177 89 324.5t244 232.5t342 85q98 0 194.5 -27t182.5 -81.5t152 -129.5t106 -179.5t43 -224.5v-600h-925q-193 69 -310.5 231.5t-117.5 368.5zM504 600q0 -119 84 -198h437v303q-31 75 -98 121t-152 46q-114 0 -192.5 -79t-78.5 -193z" />
    <glyph glyph-name="uni06C2" unicode="&#x6c2;" horiz-adv-x="1553" 
d="M764 1480h265v-161h-509v161h70q-21 103 47 184t179 81q73 0 134 -41.5t83 -107.5l-151 -61q-4 26 -22.5 42.5t-43.5 16.5q-29 0 -48.5 -20t-19.5 -49q0 -26 16 -45zM100 600q0 177 89 324.5t244 232.5t342 85q98 0 194.5 -27t182.5 -81.5t152 -129.5t106 -179.5
t43 -224.5v-600h-925q-193 69 -310.5 231.5t-117.5 368.5zM504 600q0 -119 84 -198h437v303q-31 75 -98 121t-152 46q-114 0 -192.5 -79t-78.5 -193z" />
    <glyph glyph-name="uni06C3" unicode="&#x6c3;" horiz-adv-x="1553" 
d="M460 1392q-95 0 -160 59t-65 144t65 144t160 59q96 0 160.5 -59t64.5 -144t-64.5 -144t-160.5 -59zM1090 1392q-95 0 -160 59t-65 144t65 144t160 59q96 0 160.5 -59t64.5 -144t-64.5 -144t-160.5 -59zM100 600q0 177 89 324.5t244 232.5t342 85q98 0 194.5 -27
t182.5 -81.5t152 -129.5t106 -179.5t43 -224.5v-600h-925q-193 69 -310.5 231.5t-117.5 368.5zM504 600q0 -119 84 -198h437v303q-31 75 -98 121t-152 46q-114 0 -192.5 -79t-78.5 -193z" />
    <glyph glyph-name="uni06CC" unicode="&#x6cc;" horiz-adv-x="2272" 
d="M100 146v256h431v-255q0 -97 71 -160t166 -63h736q38 0 61 1t55 4.5t51 12.5t38 23.5t27.5 38.5t8.5 57q0 63 -47.5 97t-108.5 34h-795q-9 220 11.5 388.5t68.5 285.5t125 192t176 109t227 34h599v-431h-559q-3 0 -24 0.5t-29 0t-28.5 -3t-30.5 -8t-25 -16.5t-22.5 -26.5
t-13.5 -39.5t-6 -54h327q142 0 274.5 -65t220 -187t87.5 -269q0 -158 -89.5 -293t-243.5 -214.5t-335 -79.5h-736q-183 0 -335.5 79.5t-242.5 225t-90 326.5zM848 -1024q-95 0 -160 59t-65 144t65 144t160 59q96 0 160.5 -59t64.5 -144t-64.5 -144t-160.5 -59zM1478 -1024
q-95 0 -160 59t-65 144t65 144t160 59q96 0 160.5 -59t64.5 -144t-64.5 -144t-160.5 -59z" />
    <glyph glyph-name="uni06D2" unicode="&#x6d2;" horiz-adv-x="2005" 
d="M100 402q0 183 79.5 336t225 243.5t326.5 90.5h526v-431h-525q-96 0 -159 -72t-64 -167h1506v-402h-1915v402z" />
    <glyph glyph-name="uni06D3" unicode="&#x6d3;" horiz-adv-x="2005" 
d="M720 1310h265v-161h-509v161h70q-21 103 47 184t179 81q73 0 134 -41.5t83 -107.5l-151 -61q-4 26 -22.5 42.5t-43.5 16.5q-29 0 -48.5 -20t-19.5 -49q0 -26 16 -45zM100 402q0 183 79.5 336t225 243.5t326.5 90.5h526v-431h-525q-96 0 -159 -72t-64 -167h1506v-402
h-1915v402z" />
    <glyph glyph-name="uni06D4" unicode="&#x6d4;" horiz-adv-x="1200" 
 />
    <glyph glyph-name="uni06F0" unicode="&#x6f0;" horiz-adv-x="550" 
d="M275 0q-95 0 -160 59t-65 144t65 144t160 59q96 0 160.5 -59t64.5 -144t-64.5 -144t-160.5 -59z" />
    <glyph glyph-name="uni06F1" unicode="&#x6f1;" horiz-adv-x="528" 
d="M408 0h-358v1651h358v-1651z" />
    <glyph glyph-name="uni06F2" unicode="&#x6f2;" horiz-adv-x="1274" 
d="M50 1650h1104v-372h-610l293 -1278h-353l-434 1580v70z" />
    <glyph glyph-name="uni06F3" unicode="&#x6f3;" horiz-adv-x="1576" 
d="M50 1612h378l196 -551v2q98 9 146.5 105t36.5 230l153 -27q8 -94 55 -147t111 -48q47 4 74.5 37t22.5 78q-4 39 -31 69.5t-70 40.5l34 285q149 -23 251 -128t117 -264q10 -112 -27.5 -209.5t-114 -158.5t-175.5 -70q-84 -8 -158 27.5t-111 102.5q-24 -75 -77.5 -134
t-130.5 -90l271 -762h-343z" />
    <glyph glyph-name="uni06F4" unicode="&#x6f4;" horiz-adv-x="1659" 
d="M1018 1233q0 -80 56 -131h535v-266h-872l300 -836h-353l-634 1580v70h394l197 -548h131q-20 61 -19.5 127t18.5 127t56.5 116t90.5 96t124.5 65t154.5 24q129 0 244 -68t168 -188l-246 -99q-21 50 -65.5 80.5t-100.5 30.5q-75 0 -127 -52.5t-52 -127.5z" />
    <glyph glyph-name="uni06F5" unicode="&#x6f5;" horiz-adv-x="1449" 
d="M725 1242q187 0 341.5 -85t243.5 -232.5t89 -324.5t-89 -324.5t-243.5 -232.5t-341.5 -85t-342 85t-244 232.5t-89 324.5t89 324.5t244 232.5t342 85zM848 358q67 33 107 98t40 144q0 114 -78 193t-192 79t-192.5 -79t-78.5 -193q0 -79 40 -144t107 -98v206h247v-206z
" />
    <glyph glyph-name="uni06F6" unicode="&#x6f6;" horiz-adv-x="1301" 
d="M372 0l-223 224l175 175q-82 42 -145 112t-95 157.5t-34 181.5t40 192.5t125 181.5q109 109 257.5 146.5t304.5 -16.5l-125 -290q-57 25 -121 13t-111 -59q-63 -64 -62.5 -151.5t63.5 -150.5q66 -66 157 -63l450 450l223 -224z" />
    <glyph glyph-name="uni06F7" unicode="&#x6f7;" horiz-adv-x="1777" 
d="M1727 1649l-743 -1648h-194l-740 1648h463l372 -892l373 892h469z" />
    <glyph glyph-name="uni06F8" unicode="&#x6f8;" horiz-adv-x="1777" 
d="M1727 0h-469l-373 892l-372 -892h-463l740 1648h194z" />
    <glyph glyph-name="uni06F9" unicode="&#x6f9;" horiz-adv-x="1318" 
d="M771 2v557q-24 -2 -328 -2q-99 0 -191.5 43t-160.5 114t-109 166t-41 195q0 155 80 286.5t220.5 209t309.5 77.5q170 0 310 -78t219.5 -210.5t79.5 -289.5v-1068h-389zM550 886q74 0 128 53t54 129q0 82 -53.5 135t-128.5 53q-77 0 -129.5 -53t-52.5 -135
q0 -75 54 -128.5t128 -53.5z" />
    <glyph glyph-name="figuredash" unicode="&#x2012;" horiz-adv-x="1108" 
d="M70 495v351h968v-351h-968z" />
    <glyph glyph-name="endash" unicode="&#x2013;" horiz-adv-x="1296" 
d="M70 495v351h1156v-351h-1156z" />
    <glyph glyph-name="emdash" unicode="&#x2014;" horiz-adv-x="2048" 
d="M65 495v351h1918v-351h-1918z" />
    <glyph glyph-name="quoteleft" unicode="&#x2018;" horiz-adv-x="647" 
d="M322 1163q-116 0 -184 85t-68 227q0 81 23 158.5t65 140t107.5 100.5t142.5 38q62 0 106.5 -24t44.5 -46q-20 0 -43 -5.5t-47.5 -18.5t-44 -31.5t-32 -47.5t-12.5 -64q0 -43 15 -69q69 0 125 -59t56 -144q0 -98 -72.5 -169t-181.5 -71z" />
    <glyph glyph-name="quoteright" unicode="&#x2019;" horiz-adv-x="647" 
d="M239 1163q-61 0 -106 24t-45 46q36 0 75 15.5t71.5 56t32.5 96.5q0 43 -16 68q-69 0 -125 59.5t-56 144.5q0 97 73 168t182 71q115 0 183.5 -85t68.5 -227q0 -110 -39 -208t-118 -163.5t-181 -65.5z" />
    <glyph glyph-name="quotesinglbase" unicode="&#x201a;" horiz-adv-x="647" 
d="M239 -317q-62 0 -106.5 24t-44.5 46q60 0 119.5 43t59.5 124q0 44 -16 69q-69 0 -125 59t-56 144q0 98 73 169t182 71q115 0 183.5 -85t68.5 -227q0 -110 -39 -208t-118 -163.5t-181 -65.5z" />
    <glyph glyph-name="quotereversed" unicode="&#x201b;" horiz-adv-x="647" 
d="M408 1163q-77 0 -142.5 38t-107.5 100.5t-65 140t-23 158.5q0 142 68 227t184 85q109 0 181.5 -71t72.5 -168q0 -85 -56 -144.5t-125 -59.5q-15 -26 -15 -68q0 -57 32.5 -97t71.5 -55.5t75 -15.5q0 -22 -45 -46t-106 -24z" />
    <glyph glyph-name="quotedblleft" unicode="&#x201c;" horiz-adv-x="1248" 
d="M322 1163q-116 0 -184 85t-68 227q0 81 23 158.5t65 140t107.5 100.5t142.5 38q62 0 106.5 -24t44.5 -46q-20 0 -43 -5.5t-47.5 -18.5t-44 -31.5t-32 -47.5t-12.5 -64q0 -43 15 -69q69 0 125 -59t56 -144q0 -98 -72.5 -169t-181.5 -71zM923 1163q-116 0 -184 85t-68 227
q0 81 23 158.5t65 140t107.5 100.5t142.5 38q62 0 106.5 -24t44.5 -46q-20 0 -43 -5.5t-47.5 -18.5t-44 -31.5t-32 -47.5t-12.5 -64q0 -43 15 -69q69 0 125 -59t56 -144q0 -98 -72.5 -169t-181.5 -71z" />
    <glyph glyph-name="quotedblright" unicode="&#x201d;" horiz-adv-x="1248" 
d="M239 1161q-61 0 -106 24t-45 46q36 0 75 15.5t71.5 56t32.5 96.5q0 43 -16 68q-69 0 -125 59.5t-56 144.5q0 97 73 168t182 71q115 0 183.5 -85t68.5 -227q0 -110 -39 -208t-118 -163.5t-181 -65.5zM840 1161q-61 0 -106 24t-45 46q36 0 75 15.5t71.5 56t32.5 96.5
q0 43 -16 68q-69 0 -125 59.5t-56 144.5q0 97 73 168t182 71q115 0 183.5 -85t68.5 -227q0 -110 -39 -208t-118 -163.5t-181 -65.5z" />
    <glyph glyph-name="quotedblbase" unicode="&#x201e;" horiz-adv-x="1248" 
d="M239 -320q-62 0 -106.5 24t-44.5 46q60 0 119.5 43t59.5 124q0 44 -16 69q-69 0 -125 59t-56 144q0 98 73 169t182 71q115 0 183.5 -85t68.5 -227q0 -110 -39 -208t-118 -163.5t-181 -65.5zM840 -320q-62 0 -106.5 24t-44.5 46q60 0 119.5 43t59.5 124q0 44 -16 69
q-69 0 -125 59t-56 144q0 98 73 169t182 71q115 0 183.5 -85t68.5 -227q0 -110 -39 -208t-118 -163.5t-181 -65.5z" />
    <glyph glyph-name="dagger" unicode="&#x2020;" horiz-adv-x="731" 
d="M249 0v1229h-228v197h228v224h234v-224h227v-197h-227v-1229h-234z" />
    <glyph glyph-name="daggerdbl" unicode="&#x2021;" horiz-adv-x="733" 
d="M251 0v219h-230v198h230v812h-228v197h228v224h234v-224h227v-197h-227v-812h225v-198h-225v-219h-234z" />
    <glyph glyph-name="bullet" unicode="&#x2022;" horiz-adv-x="1225" 
d="M611 336q-169 0 -290 112.5t-121 270.5q0 159 121.5 273t291.5 114t291 -113t121 -273q0 -158 -122 -271t-292 -113z" />
    <glyph glyph-name="twodotenleader" unicode="&#x2025;" horiz-adv-x="1653" 
d="M465 -57q-110 0 -187.5 73t-77.5 176q0 101 78.5 174.5t186.5 73.5q107 0 185.5 -73.5t78.5 -174.5q0 -102 -78 -175.5t-186 -73.5zM1188 -57q-109 0 -186.5 73t-77.5 176q0 101 78 174.5t186 73.5q107 0 186 -74t79 -174q0 -102 -78 -175.5t-187 -73.5z" />
    <glyph glyph-name="ellipsis" unicode="&#x2026;" horiz-adv-x="2551" 
d="M465 -57q-110 0 -187.5 73t-77.5 176q0 101 78.5 174.5t186.5 73.5q107 0 185.5 -73.5t78.5 -174.5q0 -102 -78 -175.5t-186 -73.5zM1286 -57q-109 0 -186.5 73t-77.5 176q0 101 78 174.5t186 73.5q107 0 186 -74t79 -174q0 -102 -78 -175.5t-187 -73.5zM2087 -57
q-110 0 -187.5 73t-77.5 176q0 101 78.5 174.5t186.5 73.5q107 0 185.5 -73.5t78.5 -174.5q0 -102 -78 -175.5t-186 -73.5z" />
    <glyph glyph-name="perthousand" unicode="&#x2030;" horiz-adv-x="2751" 
d="M70 1253q0 156 120 267t287 111t286 -111t119 -266t-119.5 -266t-286.5 -111t-286.5 110.5t-119.5 265.5zM211 0l1107 1613h347l-1106 -1613h-348zM334 1253q0 -53 41.5 -89.5t100.5 -36.5q58 0 98.5 37t40.5 89t-41 89.5t-99 37.5t-99.5 -37t-41.5 -90zM1006 357
q0 156 119.5 266.5t287.5 110.5q167 0 286 -110.5t119 -265.5t-119.5 -266.5t-286.5 -111.5t-286.5 111t-119.5 266zM1870 357q0 156 119.5 266.5t286.5 110.5t286 -110.5t119 -265.5t-119.5 -266.5t-286.5 -111.5q-166 0 -285.5 111t-119.5 266zM1270 357q0 -53 41.5 -90
t100.5 -37q58 0 98.5 37t40.5 90q0 52 -41 89t-99 37t-99.5 -37t-41.5 -89zM2134 357q0 -53 41.5 -90t99.5 -37t98.5 37t40.5 90q0 52 -40.5 89t-98.5 37t-99.5 -37t-41.5 -89z" />
    <glyph glyph-name="guilsinglleft" unicode="&#x2039;" horiz-adv-x="802" 
d="M466 83l-396 537l396 538l266 -51l-288 -487l288 -486z" />
    <glyph glyph-name="guilsinglright" unicode="&#x203a;" horiz-adv-x="802" 
d="M337 83l-267 51l288 486l-288 487l267 51l395 -538z" />
    <glyph glyph-name="Euro" unicode="&#x20ac;" horiz-adv-x="1772" 
d="M1098 -36q-193 0 -367.5 75t-304 217t-179.5 328h-177l19 191h130q-1 10 -1 31q0 26 1 39h-149l19 191h160q77 273 312 443.5t545 170.5q156 -2 314 -67t282 -177l-246 -316q-75 69 -168 109t-181 40q-119 0 -221.5 -55t-164.5 -148h589l-18 -191h-638q-2 -28 -2 -42
q0 -19 1 -28h628l-18 -191h-549q60 -98 164 -156.5t220 -58.5q184 0 360 157l244 -325q-261 -237 -604 -237z" />
    <glyph glyph-name="uni2116" unicode="&#x2116;" horiz-adv-x="2568" 
d="M1397 -16l-829 803v-788h-428v1629h138l826 -800v786h429v-1630h-136zM2089 709q-173 0 -292 113.5t-119 277.5t119 277t292 113q172 0 290.5 -113t118.5 -277t-118.5 -277.5t-290.5 -113.5zM2089 935q69 0 116 48t47 117t-47 117t-116 48q-70 0 -117.5 -48t-47.5 -117
t47.5 -117t117.5 -48zM1695 373v235h786v-235h-786z" />
    <glyph glyph-name="trademark" unicode="&#x2122;" horiz-adv-x="1364" 
d="M598 928v690h73l294 -402l293 402h73v-690h-182v270l-184 -259h-1l-185 260v-271h-181zM215 928v514h-164v170h510v-170h-164v-514h-182z" />
    <glyph glyph-name="estimated" unicode="&#x212e;" horiz-adv-x="1942" 
d="M1001 -32q-144 0 -282.5 40.5t-255 117t-205 178t-138.5 230.5t-50 268q0 171 75.5 326t202.5 266t299.5 176.5t359.5 65.5q180 0 341.5 -61t276 -164.5t181 -244t66.5 -295.5q0 -69 -8 -127h-1496v-396q130 -131 296 -196t335 -65q115 0 227.5 29.5t198.5 77t149.5 106
t91.5 119.5h124q-36 -81 -108 -159.5t-171.5 -144.5t-233 -106.5t-276.5 -40.5zM368 856h1226v424q-237 237 -587 237q-184 0 -347.5 -66t-291.5 -192v-403z" />
    <glyph glyph-name="arrowleft" unicode="&#x2190;" horiz-adv-x="2148" 
d="M846 124l-671 649l671 650l192 -193l-279 -274h1214v-365h-1214l279 -275z" />
    <glyph glyph-name="arrowup" unicode="&#x2191;" horiz-adv-x="2148" 
d="M892 -126v1215l-275 -280l-192 193l649 670l650 -670l-193 -193l-274 279v-1214h-365z" />
    <glyph glyph-name="arrowright" unicode="&#x2192;" horiz-adv-x="2148" 
d="M1303 124l-193 192l280 275h-1215v365h1214l-279 274l193 193l670 -650z" />
    <glyph glyph-name="arrowdown" unicode="&#x2193;" horiz-adv-x="2148" 
d="M1074 -126l-649 671l192 192l275 -279v1214h365v-1214l274 279l193 -192z" />
    <glyph glyph-name="arrowboth" unicode="&#x2194;" horiz-adv-x="2148" 
d="M736 124l-671 649l671 650l192 -193l-279 -274h850l-279 274l193 193l670 -650l-670 -649l-193 192l279 275h-850l279 -275z" />
    <glyph glyph-name="arrowupdn" unicode="&#x2195;" horiz-adv-x="2148" 
d="M1074 -236l-649 671l192 192l275 -279v850l-275 -279l-192 193l649 670l650 -670l-193 -193l-274 279v-850l274 279l193 -192z" />
    <glyph glyph-name="partialdiff" unicode="&#x2202;" horiz-adv-x="1378" 
d="M661 -40q-134 0 -247 43.5t-189 119t-118 177t-42 216.5q0 155 70 281t191.5 197t268.5 71q122 0 218.5 -49t139.5 -138q-28 182 -150.5 307.5t-342.5 215.5l315 225q105 -38 199.5 -117.5t171 -195t122 -276t45.5 -342.5q0 -224 -82 -391t-229.5 -255.5t-340.5 -88.5z
M689 307q94 0 155 60.5t61 150.5q0 91 -62.5 153.5t-155.5 62.5q-92 0 -157.5 -61t-65.5 -153q0 -91 65 -152t160 -61z" />
    <glyph glyph-name="emptyset" unicode="&#x2205;" horiz-adv-x="1592" 
d="M90 -10l213 314q-99 91 -154.5 211.5t-55.5 254.5q0 178 95 330.5t257.5 241t353.5 88.5q125 0 242 -40l144 213h312l-229 -338q112 -93 175.5 -220.5t63.5 -270.5q0 -134 -56.5 -256.5t-151.5 -211t-226 -141t-274 -52.5q-145 0 -277 53l-119 -176h-313zM470 550
l399 587q-34 6 -70 6q-169 0 -288.5 -109.5t-119.5 -263.5q0 -120 79 -220zM799 399q167 0 286 109t119 262q0 142 -103 248l-411 -605q53 -14 109 -14z" />
    <glyph glyph-name="product" unicode="&#x220f;" horiz-adv-x="1554" 
d="M259 -250v1843h-217v357h1470v-357h-204v-1843h-398v1843h-253v-1843h-398z" />
    <glyph glyph-name="summation" unicode="&#x2211;" horiz-adv-x="1572" 
d="M21 -274l672 1100l-672 1099h1453v-357h-787l458 -741v-3l-458 -742l786 -1v-356z" />
    <glyph glyph-name="minus" unicode="&#x2212;" horiz-adv-x="1332" 
d="M140 616v360h1052v-360h-1052z" />
    <glyph glyph-name="radical" unicode="&#x221a;" horiz-adv-x="1216" 
d="M552 -75l-531 1384h383l155 -483l491 1377h666v-357h-424l-717 -1921h-23z" />
    <glyph glyph-name="infinity" unicode="&#x221e;" horiz-adv-x="2539" 
d="M680 208q-164 0 -304.5 79.5t-223 218t-82.5 304.5q0 165 82.5 304t223 218.5t304.5 79.5q170 0 323.5 -75t265.5 -205q113 130 266.5 205t322.5 75q165 0 305.5 -79.5t223 -218.5t82.5 -304q0 -166 -82.5 -304.5t-223 -218t-305.5 -79.5q-170 0 -323 74.5t-266 205.5
q-112 -131 -265.5 -205.5t-323.5 -74.5zM684 549q117 0 222.5 73t189.5 188q-84 116 -189.5 188.5t-222.5 72.5q-102 0 -179 -77t-77 -184t78 -184t178 -77zM1855 549q100 0 178 77t78 184t-77 184t-179 77q-118 0 -223.5 -73t-188.5 -188q84 -115 189.5 -188t222.5 -73z
" />
    <glyph glyph-name="integral" unicode="&#x222b;" horiz-adv-x="1236" 
d="M42 -300v345h97q87 0 142.5 49.5t66.5 121.5l201 1336q52 348 470 348h175v-344h-97q-86 0 -141 -49.5t-66 -122.5l-201 -1336q-52 -348 -472 -348h-175z" />
    <glyph glyph-name="approxequal" unicode="&#x2248;" horiz-adv-x="1448" 
d="M928 842q-60 0 -113.5 17.5t-91 42t-70.5 49.5t-66.5 42.5t-64.5 17.5q-51 0 -80.5 -42.5t-48.5 -119.5l-252 78q16 78 46.5 139.5t67.5 100t83.5 63.5t90.5 35t91 10q73 0 138.5 -26.5t103.5 -57.5t83 -57.5t82 -26.5q50 0 79.5 43t48.5 119l253 -78q-16 -80 -47.5 -143
t-69.5 -101t-84.5 -62.5t-90 -33.5t-88.5 -9zM927 287q-74 0 -138.5 26.5t-102.5 57.5t-82 57.5t-82 26.5q-51 0 -81 -43t-48 -119l-253 78q16 78 46.5 140t67.5 100.5t83.5 63.5t90.5 35t91 10q60 0 114 -17.5t91.5 -42t70.5 -49.5t66.5 -42.5t64.5 -17.5q50 0 80 43
t49 119l252 -78q-16 -80 -47.5 -142.5t-69.5 -100.5t-84.5 -62.5t-90 -33.5t-88.5 -9z" />
    <glyph glyph-name="notequal" unicode="&#x2260;" horiz-adv-x="1354" 
d="M315 32l107 312h-282v332h396l73 213h-469v333h583l113 330h245l-113 -330h246v-333h-360l-73 -213h433v-332h-547l-107 -312h-245z" />
    <glyph glyph-name="lessequal" unicode="&#x2264;" horiz-adv-x="1352" 
d="M1198 517l-1033 512v16l1047 513l-14 -335l-422 -186l422 -185v-335zM140 85v270h1056v-270h-1056z" />
    <glyph glyph-name="greaterequal" unicode="&#x2265;" horiz-adv-x="1352" 
d="M154 517v335l422 185l-422 186l-14 335l1048 -513v-16zM156 85v270h1056v-270h-1056z" />
    <glyph glyph-name="lozenge" unicode="&#x25ca;" horiz-adv-x="1303" 
d="M649 8l-449 771l449 772l454 -772zM649 469l178 310l-178 311l-174 -311z" />
    <glyph glyph-name="uniFD3E" unicode="&#xfd3e;" horiz-adv-x="976" 
d="M619 -301q-129 0 -220.5 81t-91.5 195v337q0 132 -71 227.5t-166 95.5v219q95 0 166 95.5t71 227.5v337q0 114 91.5 195t220.5 81h287v-299l-170 -5q-26 -1 -44.5 -45t-18.5 -105v-191q0 -165 -67.5 -282.5t-161.5 -117.5q62 0 115 -53.5t83.5 -146t30.5 -201.5v-190
q0 -65 18.5 -110.5t45.5 -45.5h169v-299h-287z" />
    <glyph glyph-name="uniFD3F" unicode="&#xfd3f;" horiz-adv-x="976" 
d="M70 -301v299h169q27 0 45.5 45.5t18.5 110.5v190q0 109 30.5 201.5t83.5 146t115 53.5q-94 0 -161.5 117.5t-67.5 282.5v191q0 61 -18.5 105t-44.5 45l-170 5v299h287q129 0 220.5 -81t91.5 -195v-337q0 -132 71 -227.5t166 -95.5v-219q-95 0 -166 -95.5t-71 -227.5v-337
q0 -114 -91.5 -195t-220.5 -81h-287z" />
    <glyph glyph-name="zero.lf" horiz-adv-x="1490" 
d="M786 -33q-216 0 -378.5 104t-250 294t-87.5 441q0 252 87.5 442t250 294t378.5 104q214 0 375 -104t247.5 -294t86.5 -441q0 -252 -86.5 -442t-247.5 -294t-375 -104zM783 375q130 0 206.5 117.5t76.5 312.5q0 197 -77 316t-207 119q-131 0 -208 -118.5t-77 -314.5
q0 -195 77.5 -313.5t208.5 -118.5z" />
    <glyph glyph-name="one.lf" horiz-adv-x="755" 
d="M227 0v1118l-157 -38v421l460 121h125v-1622h-428z" />
    <glyph glyph-name="two.lf" horiz-adv-x="1386" 
d="M70 0v155q480 402 662 590t182 296q0 82 -55.5 141.5t-135.5 59.5q-107 0 -187.5 -77.5t-80.5 -185.5l-348 115q0 144 82 271t225 204t310 77q126 0 241 -47.5t198 -127t132 -188t49 -225.5q0 -189 -140.5 -368.5t-351.5 -296.5h511v-393h-1293z" />
    <glyph glyph-name="three.lf" horiz-adv-x="1276" 
d="M656 -25q-222 0 -389.5 134t-196.5 320l356 85q21 -65 80 -102t126 -37q78 0 127 49.5t49 126.5q0 103 -95.5 174.5t-270.5 72.5l49 190q112 0 178.5 50t66.5 123q0 53 -33.5 87.5t-84.5 34.5q-44 0 -80 -27.5t-54 -77.5l-356 78q44 180 183 293.5t336 113.5
q139 0 254.5 -56t182.5 -155.5t67 -221.5q0 -102 -49.5 -187.5t-133.5 -124.5q121 -50 197 -162t76 -259q0 -150 -80.5 -270.5t-214 -186t-290.5 -65.5z" />
    <glyph glyph-name="four.lf" horiz-adv-x="1525" 
d="M880 0v281h-859l544 1340l432 -2l-379 -955h262v352h427v-352h157v-383h-157v-281h-427z" />
    <glyph glyph-name="five.lf" horiz-adv-x="1320" 
d="M672 -25q-124 0 -235 37t-208 119.5t-159 204.5l349 154q98 -122 225 -122q92 0 153.5 51.5t61.5 147.5q0 93 -61.5 141t-162.5 48q-80 0 -164 -27.5t-129 -73.5l-193 105l125 853h884v-382h-583l-26 -175q91 48 219 48q238 0 387 -156.5t149 -391.5q0 -171 -83 -304.5
t-226.5 -205t-322.5 -71.5z" />
    <glyph glyph-name="six.lf" horiz-adv-x="1339" 
d="M675 -31q-124 0 -232.5 35t-192 102.5t-132 175t-48.5 243.5q0 60 14.5 118.5t65.5 174.5t160.5 309.5t288.5 484.5l488 -2l-355 -584q25 4 57 4q131 0 245.5 -64t184.5 -179.5t70 -255.5q0 -149 -78.5 -277.5t-220.5 -206.5t-315 -78zM681 361q76 0 130 52.5t54 130.5
q0 79 -53.5 133t-129.5 54q-76 -1 -129 -54.5t-53 -133.5q0 -79 52.5 -130.5t128.5 -51.5z" />
    <glyph glyph-name="seven.lf" horiz-adv-x="1266" 
d="M165 0l465 1219h-588v393h1185v-74l-614 -1538h-448z" />
    <glyph glyph-name="eight.lf" horiz-adv-x="1272" 
d="M687 -33q-272 0 -444.5 147.5t-172.5 374.5q0 92 31 171.5t78.5 130t97 81t94.5 39.5q-75 16 -142 100t-67 204q0 116 67.5 214.5t189 157.5t269.5 59q114 0 213.5 -35.5t168 -94.5t108 -137t39.5 -162q0 -64 -23 -120.5t-58.5 -93.5t-71 -60t-66.5 -32q34 -8 72 -27
t80.5 -55.5t76.5 -82.5t56 -114t22 -145q0 -225 -171.5 -372.5t-446.5 -147.5zM689 1027q58 0 100.5 38t42.5 99q0 62 -42 98t-101 36q-58 0 -99.5 -36t-41.5 -97q0 -60 41 -99t100 -39zM687 352q80 0 140 53t60 135t-59.5 137t-139.5 55t-139.5 -56.5t-59.5 -138.5
t59 -133.5t139 -51.5z" />
    <glyph glyph-name="nine.lf" horiz-adv-x="1339" 
d="M271 2l336 557q-24 -2 -35 -2q-99 0 -191.5 43t-160.5 114t-109 166t-41 195q0 155 80 286.5t220.5 209t309.5 77.5q170 0 310 -78t219.5 -210.5t79.5 -289.5q0 -131 -66.5 -267t-401.5 -701q-38 -65 -59 -100h-491zM679 886q74 0 128 53t54 129q0 82 -53.5 135
t-128.5 53q-77 0 -129.5 -53t-52.5 -135q0 -75 54 -128.5t128 -53.5z" />
    <glyph glyph-name="zero.osf" horiz-adv-x="1386" 
d="M694 -29q-143 0 -263 52t-197.5 140t-120.5 201t-43 236q0 124 43 237t121.5 201t198.5 140t263 52t261.5 -52t196 -140t120 -201t42.5 -237q0 -123 -42.5 -236t-119.5 -200.5t-196.5 -140t-263.5 -52.5zM692 336q57 0 101.5 25t69.5 65.5t37.5 84.5t12.5 88q0 47 -13 92
t-38 85.5t-69.5 65.5t-101.5 25t-101 -25.5t-69 -66t-37.5 -85t-12.5 -88.5q0 -45 12.5 -89.5t37.5 -85t69.5 -66t101.5 -25.5z" />
    <glyph glyph-name="one.osf" horiz-adv-x="795" 
d="M251 0v783l-181 -27v361l460 85h125v-1202h-404z" />
    <glyph glyph-name="two.osf" horiz-adv-x="1227" 
d="M77 0v185q274 188 418 299.5t193 170t49 105.5q0 40 -36 72.5t-95 32.5q-73 0 -133.5 -55t-60.5 -122l-321 118q0 106 69 204t191 159.5t264 61.5q146 0 268 -59.5t191 -159.5t69 -217q0 -140 -107.5 -265.5t-270.5 -198.5h392v-331h-1080z" />
    <glyph glyph-name="three.osf" horiz-adv-x="1302" 
d="M656 -464q-113 0 -216 37.5t-179 100t-126.5 144.5t-64.5 170l343 82q20 -67 82.5 -112.5t140.5 -45.5q84 0 139 53t55 138q0 120 -111 189t-276 69l48 184q116 0 186.5 52t70.5 129q0 58 -37.5 95t-92.5 37q-49 0 -88.5 -30t-57.5 -83l-343 74q43 179 182 292.5
t335 113.5q103 0 195.5 -33t159.5 -90.5t106.5 -137.5t39.5 -171q0 -104 -51 -190.5t-137 -126.5q121 -49 197 -161t76 -260q0 -149 -79.5 -269t-211 -185t-285.5 -65z" />
    <glyph glyph-name="four.osf" horiz-adv-x="1477" 
d="M869 -450v450h-848l503 1223l404 -3l-346 -856h287v390h405v-390h161v-364h-161v-450h-405z" />
    <glyph glyph-name="five.osf" horiz-adv-x="1355" 
d="M662 -472q-188 0 -346.5 90.5t-245.5 265.5l331 139q101 -138 241 -138q97 0 168 62.5t71 170.5q0 103 -67.5 160.5t-173.5 57.5q-86 0 -176 -34.5t-137 -88.5l-183 101l133 886h872v-355h-590l-38 -241q89 55 225 55q157 0 280.5 -72t191 -197.5t67.5 -280.5
q0 -171 -83 -304.5t-224.5 -205t-315.5 -71.5z" />
    <glyph glyph-name="six.osf" horiz-adv-x="1349" 
d="M670 -30q-123 0 -230.5 35.5t-190.5 103.5t-131 175t-48 240q0 82 29.5 171t147 307.5t354.5 609.5l447 -2l-357 -588q43 9 87 9q131 0 245.5 -64t185 -180t70.5 -256q0 -111 -46.5 -213.5t-126 -179t-194 -122.5t-242.5 -46zM675 343q84 0 143.5 57.5t59.5 142.5
t-59.5 144t-142.5 59q-82 -1 -141 -59.5t-59 -145.5q0 -84 58 -141t141 -57z" />
    <glyph glyph-name="seven.osf" horiz-adv-x="1237" 
d="M160 -450l492 1278h-610v372h1174v-70l-634 -1580h-422z" />
    <glyph glyph-name="eight.osf" horiz-adv-x="1310" 
d="M657 -32q-127 0 -238 42t-186.5 113t-119 166.5t-43.5 199.5q0 73 21 139.5t54 113.5t74 84t79.5 57.5t71.5 27.5q-30 7 -64.5 31.5t-68 62.5t-55.5 96.5t-22 123.5q0 172 139.5 296t355.5 124q214 0 355.5 -121.5t141.5 -298.5q0 -57 -17 -108.5t-42 -85.5t-55 -61
t-53.5 -41t-40.5 -18q37 -9 84 -39t96.5 -80t82.5 -129.5t33 -170.5q0 -103 -42 -197.5t-116 -167t-185 -116t-240 -43.5zM656 1026q60 0 104 39t44 102q0 64 -43.5 101.5t-104.5 37.5q-59 0 -102.5 -37.5t-43.5 -100.5q0 -62 42.5 -102t103.5 -40zM654 343q82 0 143 55
t61 139t-61 141.5t-142 57.5t-141.5 -58.5t-60.5 -142.5t60 -138t141 -54z" />
    <glyph glyph-name="nine.osf" horiz-adv-x="1349" 
d="M290 -450l353 599q-34 -7 -71 -7q-131 0 -247.5 71.5t-185.5 191.5t-69 255q0 154 79.5 284.5t219 208t306.5 77.5t306.5 -78t218.5 -209.5t79 -286.5q0 -138 -79.5 -298t-452.5 -789q-7 -13 -11 -19h-446zM673 453q83 0 142.5 58.5t59.5 142.5q0 87 -59.5 146t-142.5 59
t-142 -58.5t-59 -146.5q0 -82 60 -141.5t141 -59.5z" />
    <glyph glyph-name="zero.tf" horiz-adv-x="1543" 
d="M800 -33q-216 0 -378.5 104t-249.5 294t-87 441q0 252 87 442t249.5 294t378.5 104q214 0 375.5 -104t248 -294t86.5 -441q0 -252 -86.5 -442t-248 -294t-375.5 -104zM797 375q130 0 206.5 117.5t76.5 312.5q0 197 -76.5 316t-206.5 119q-131 0 -208 -118.5t-77 -314.5
q0 -195 77 -313.5t208 -118.5z" />
    <glyph glyph-name="one.tf" horiz-adv-x="1543" 
d="M262 0v375h286v743l-157 -38v421l459 121h126v-1247h290v-375h-1004z" />
    <glyph glyph-name="two.tf" horiz-adv-x="1543" 
d="M128 0v155q481 403 662.5 590.5t181.5 295.5q0 82 -56 141.5t-136 59.5q-107 0 -187.5 -77.5t-80.5 -185.5l-347 115q0 144 81.5 271t224.5 204t310 77q126 0 241 -47.5t198 -127t132 -188t49 -225.5q0 -96 -39.5 -194t-107.5 -183t-155.5 -158.5t-188.5 -129.5h510v-393
h-1292z" />
    <glyph glyph-name="three.tf" horiz-adv-x="1543" 
d="M777 -25q-222 0 -389.5 134t-196.5 320l356 85q21 -65 80 -102t126 -37q78 0 127 49.5t49 126.5q0 103 -95.5 174.5t-270.5 72.5l49 190q112 0 178.5 50t66.5 123q0 53 -33.5 87.5t-84.5 34.5q-44 0 -80 -27.5t-54 -77.5l-356 78q44 180 183 293.5t336 113.5
q139 0 254.5 -56t182.5 -155.5t67 -221.5q0 -102 -49.5 -187.5t-133.5 -124.5q121 -50 197 -162t76 -259q0 -150 -80.5 -270.5t-214 -186t-290.5 -65.5z" />
    <glyph glyph-name="four.tf" horiz-adv-x="1543" 
d="M880 0v281h-859l544 1340l432 -2l-379 -955h262v352h427v-352h157v-383h-157v-281h-427z" />
    <glyph glyph-name="five.tf" horiz-adv-x="1543" 
d="M760 -25q-124 0 -235 37t-208 119.5t-159 204.5l349 154q98 -122 225 -122q92 0 153.5 51.5t61.5 147.5q0 93 -61.5 141t-162.5 48q-80 0 -164 -27.5t-129 -73.5l-193 105l125 853h884v-382h-583l-26 -175q91 48 219 48q238 0 387 -156.5t149 -391.5q0 -171 -83 -304.5
t-226.5 -205t-322.5 -71.5z" />
    <glyph glyph-name="six.tf" horiz-adv-x="1543" 
d="M761 -31q-124 0 -232.5 35t-192 102.5t-132 175t-48.5 243.5q0 60 14.5 118.5t65.5 174.5t160.5 309.5t288.5 484.5l488 -2l-355 -584q25 4 57 4q131 0 245.5 -64t184.5 -179.5t70 -255.5q0 -149 -78.5 -277.5t-220.5 -206.5t-315 -78zM767 361q76 0 130 52.5t54 130.5
q0 79 -53.5 133t-129.5 54q-76 -1 -129 -54.5t-53 -133.5q0 -79 52.5 -130.5t128.5 -51.5z" />
    <glyph glyph-name="seven.tf" horiz-adv-x="1543" 
d="M342 0l465 1219h-587v393h1184v-74l-613 -1538h-449z" />
    <glyph glyph-name="eight.tf" horiz-adv-x="1543" 
d="M788 -33q-272 0 -444.5 147.5t-172.5 374.5q0 92 31 171.5t78.5 130t97 81t94.5 39.5q-75 16 -142.5 100t-67.5 204q0 178 151 304.5t376 126.5q114 0 213.5 -35.5t167.5 -94.5t107.5 -137t39.5 -162q0 -64 -23 -120.5t-58 -93.5t-70.5 -60t-66.5 -32q34 -8 72 -27
t80.5 -55.5t76.5 -82.5t56 -114t22 -145q0 -225 -171.5 -372.5t-446.5 -147.5zM790 1027q58 0 100 38t42 99q0 62 -41.5 98t-100.5 36q-58 0 -100 -36t-42 -97q0 -60 41.5 -99t100.5 -39zM787 352q80 0 140 53t60 135t-59.5 137t-139.5 55t-139 -56.5t-59 -138.5t59 -133.5
t138 -51.5z" />
    <glyph glyph-name="nine.tf" horiz-adv-x="1543" 
d="M362 2l336 557q-24 -2 -35 -2q-99 0 -191.5 43t-160.5 114t-109 166t-41 195q0 155 80 286.5t220.5 209t309.5 77.5q170 0 310 -78t219.5 -210.5t79.5 -289.5q0 -131 -66.5 -267t-401.5 -701q-38 -65 -59 -100h-491zM770 886q74 0 128 53t54 129q0 82 -53.5 135
t-128.5 53q-77 0 -129.5 -53t-52.5 -135q0 -75 54 -128.5t128 -53.5z" />
    <glyph glyph-name="zero.tosf" horiz-adv-x="1414" 
d="M708 -29q-143 0 -263 52t-197.5 140t-120.5 201t-43 236q0 124 43 237t121 201t198 140t263 52t262 -52t196 -140t119.5 -201t42.5 -237q0 -123 -42.5 -236t-119.5 -200.5t-196.5 -140t-262.5 -52.5zM706 336q57 0 101.5 25t69.5 65.5t37.5 84.5t12.5 88q0 47 -13 92.5
t-38.5 85.5t-70 65t-100.5 25q-46 0 -84 -17t-63 -44.5t-42 -63t-24.5 -71t-7.5 -69.5q0 -45 12.5 -89.5t38 -85t70 -66t101.5 -25.5z" />
    <glyph glyph-name="one.tosf" horiz-adv-x="1414" 
d="M205 0v335h309v448l-181 -27v361l459 85h126v-867h291v-335h-1004z" />
    <glyph glyph-name="two.tosf" horiz-adv-x="1414" 
d="M169 0v185q274 188 418 299.5t193 170t49 105.5q0 40 -36 72.5t-95 32.5q-73 0 -133.5 -55t-60.5 -122l-321 118q0 106 69 204t191 159.5t264 61.5q146 0 268 -59.5t191 -159.5t69 -217q0 -140 -107.5 -265.5t-270.5 -198.5h392v-331h-1080z" />
    <glyph glyph-name="three.tosf" horiz-adv-x="1414" 
d="M710 -464q-113 0 -216 37.5t-179 100t-126.5 144.5t-64.5 170l343 82q20 -67 82.5 -112.5t140.5 -45.5q84 0 139 53t55 138q0 120 -111 189t-276 69l48 184q116 0 186.5 52t70.5 129q0 58 -37.5 95t-92.5 37q-49 0 -88.5 -30t-57.5 -83l-343 74q43 179 182 292.5
t335 113.5q103 0 195.5 -33t159.5 -90.5t106.5 -137.5t39.5 -171q0 -104 -51 -190.5t-137 -126.5q121 -49 197 -161t76 -260q0 -149 -79.5 -269t-211 -185t-285.5 -65z" />
    <glyph glyph-name="four.tosf" horiz-adv-x="1514" 
d="M898 -450v450h-848l503 1223l404 -3l-346 -856h287v390h405v-390h161v-364h-161v-450h-405z" />
    <glyph glyph-name="five.tosf" horiz-adv-x="1414" 
d="M690 -472q-188 0 -346.5 90.5t-245.5 265.5l331 139q101 -138 241 -138q97 0 168 62.5t71 170.5q0 103 -67.5 160.5t-173.5 57.5q-86 0 -176 -34.5t-137 -88.5l-183 101l133 886h872v-355h-590l-38 -241q89 55 225 55q157 0 280.5 -72t191 -197.5t67.5 -280.5
q0 -171 -83 -304.5t-224.5 -205t-315.5 -71.5z" />
    <glyph glyph-name="six.tosf" horiz-adv-x="1414" 
d="M703 -30q-123 0 -230.5 35.5t-190.5 103.5t-131 175t-48 240q0 82 29.5 171t147 307.5t354.5 609.5l447 -2l-357 -588q44 9 87 9q131 0 245.5 -64t185 -180t70.5 -256q0 -111 -46.5 -213.5t-126 -179t-194 -122.5t-242.5 -46zM708 343q84 0 143.5 57.5t59.5 142.5
t-59.5 144t-142.5 59q-82 -1 -141 -59.5t-59 -145.5q0 -84 58 -141t141 -57z" />
    <glyph glyph-name="seven.tosf" horiz-adv-x="1414" 
d="M239 -450l493 1278h-610v372h1174v-70l-634 -1580h-423z" />
    <glyph glyph-name="eight.tosf" horiz-adv-x="1414" 
d="M709 -32q-127 0 -238 42t-186.5 113t-119 166.5t-43.5 199.5q0 73 21 139.5t54 113.5t74 84t79.5 57.5t71.5 27.5q-30 7 -64.5 31.5t-68 62.5t-55.5 96.5t-22 123.5q0 172 139.5 296t355.5 124q214 0 355.5 -121.5t141.5 -298.5q0 -57 -17 -108.5t-42 -85.5t-55 -61
t-53.5 -41t-40.5 -18q37 -9 84 -39t96.5 -80t82.5 -129.5t33 -170.5q0 -103 -42 -197.5t-116 -167t-185 -116t-240 -43.5zM708 1026q60 0 104 39t44 102q0 64 -43.5 101.5t-104.5 37.5q-59 0 -102.5 -37.5t-43.5 -100.5q0 -62 42.5 -102t103.5 -40zM706 343q82 0 143 55
t61 139t-61 141.5t-142 57.5t-141.5 -58.5t-60.5 -142.5t60 -138t141 -54z" />
    <glyph glyph-name="nine.tosf" horiz-adv-x="1414" 
d="M323 -450l352 599q-34 -7 -71 -7q-131 0 -247 71.5t-185 191.5t-69 255q0 115 47 220t127 182t192.5 122.5t237.5 45.5q126 0 238.5 -46t192.5 -123.5t126.5 -183t46.5 -221.5q0 -138 -80 -298.5t-449 -785.5q-9 -15 -13 -22h-446zM706 453q82 0 142 59t60 142
q0 87 -59.5 146t-142.5 59q-84 0 -142.5 -58.5t-58.5 -146.5q0 -82 59.5 -141.5t141.5 -59.5z" />
    <glyph glyph-name="uni06F4.urdu" horiz-adv-x="1729" 
d="M1018 1233q0 -80 56 -131h535v-266h-872l300 -836h-353l-634 1580v70h394l197 -548h131q-20 61 -19.5 127t18.5 127t56.5 116t90.5 96t124.5 65t154.5 24q129 0 244 -68t168 -188l-246 -99q-21 50 -65.5 80.5t-100.5 30.5q-75 0 -127 -52.5t-52 -127.5z" />
    <glyph glyph-name="uni06F7.urdu" horiz-adv-x="1777" 
d="M1727 1649l-743 -1648h-194l-740 1648h463l372 -892l373 892h469z" />
    <glyph glyph-name="periodcentered.case" horiz-adv-x="739" 
d="M370 537q-110 0 -187.5 72.5t-77.5 175.5q0 101 78.5 174.5t186.5 73.5q107 0 185.5 -73.5t78.5 -174.5q0 -102 -78 -175t-186 -73z" />
    <glyph glyph-name="bullet.case" horiz-adv-x="1225" 
d="M611 406q-176 0 -293.5 109.5t-117.5 273.5q0 166 118 276.5t295 110.5t294.5 -110t117.5 -276q0 -164 -118 -274t-296 -110z" />
    <glyph glyph-name="slash.case" horiz-adv-x="1072" 
d="M21 -120l656 1852h374l-658 -1852h-372z" />
    <glyph glyph-name="backslash.case" horiz-adv-x="1072" 
d="M680 -120l-658 1852h373l656 -1852h-371z" />
    <glyph glyph-name="parenleft.case" horiz-adv-x="756" 
d="M344 -120q-98 129 -161.5 297t-88 321t-24.5 309q0 245 65 490.5t208 434.5h341q-106 -179 -167.5 -447.5t-61.5 -477.5q0 -210 62 -479t169 -448h-342z" />
    <glyph glyph-name="parenright.case" horiz-adv-x="756" 
d="M70 -120q107 179 169 448t62 479q0 209 -61.5 477.5t-167.5 447.5h341q143 -189 208 -434.5t65 -490.5q0 -156 -24.5 -309t-88 -321t-161.5 -297h-342z" />
    <glyph glyph-name="braceleft.case" horiz-adv-x="976" 
d="M619 -120q-129 0 -220.5 81t-91.5 196v223q0 132 -71 227.5t-166 95.5v219q95 0 166 95.5t71 227.5v211q0 114 91.5 195t220.5 81h287v-299l-135 -4q-44 -1 -71 -45t-27 -106v-65q0 -165 -67.5 -282.5t-161.5 -117.5q62 0 115 -53.5t83.5 -146t30.5 -201.5v-77
q0 -66 27 -111t72 -45h134v-299h-287z" />
    <glyph glyph-name="braceright.case" horiz-adv-x="976" 
d="M71 -120v299h134q44 0 71.5 45t27.5 111v77q0 166 67 283.5t161 117.5q-94 0 -161 117.5t-67 282.5v65q0 62 -27.5 106t-71.5 45l-134 4v299h287q129 0 220.5 -81t91.5 -195v-211q0 -132 71 -227.5t165 -95.5v-219q-94 0 -165 -95.5t-71 -227.5v-223q0 -115 -92 -196
t-220 -81h-287z" />
    <glyph glyph-name="bracketleft.case" horiz-adv-x="843" 
d="M140 -120v1852h633v-299h-267v-1254h267v-299h-633z" />
    <glyph glyph-name="bracketright.case" horiz-adv-x="843" 
d="M70 -120v299h267v1254h-267v299h633v-1852h-633z" />
    <glyph glyph-name="hyphen.case" horiz-adv-x="990" 
d="M70 615v351h850v-351h-850z" />
    <glyph glyph-name="endash.case" horiz-adv-x="1543" 
d="M75 615v351h1393v-351h-1393z" />
    <glyph glyph-name="emdash.case" horiz-adv-x="2048" 
d="M65 615v351h1918v-351h-1918z" />
    <glyph glyph-name="figuredash.case" horiz-adv-x="1108" 
d="M70 615v351h968v-351h-968z" />
    <glyph glyph-name="guillemotleft.case" horiz-adv-x="1362" 
d="M466 253l-396 537l396 538l266 -51l-288 -487l288 -486zM1026 253l-396 537l396 538l266 -51l-288 -487l288 -486z" />
    <glyph glyph-name="guillemotright.case" horiz-adv-x="1362" 
d="M337 253l-267 51l288 486l-288 487l267 51l395 -538zM897 253l-267 51l288 486l-288 487l267 51l395 -538z" />
    <glyph glyph-name="guilsinglleft.case" horiz-adv-x="802" 
d="M466 253l-396 537l396 538l266 -51l-288 -487l288 -486z" />
    <glyph glyph-name="guilsinglright.case" horiz-adv-x="802" 
d="M337 253l-267 51l288 486l-288 487l267 51l395 -538z" />
    <glyph glyph-name="dotabovear" 
d="M225 1310q-95 0 -160 59t-65 144t65 144t160 59q96 0 160.5 -59t64.5 -144t-64.5 -144t-160.5 -59z" />
    <glyph glyph-name="dotbelowar" 
d="M225 -5q-95 0 -160 59t-65 144t65 144t160 59q96 0 160.5 -59t64.5 -144t-64.5 -144t-160.5 -59z" />
    <glyph glyph-name="dotcenterar" 
d="M225 484q-95 0 -160 59t-65 144t65 144t160 59q96 0 160.5 -59t64.5 -144t-64.5 -144t-160.5 -59z" />
    <glyph glyph-name="twodotsverticalabovear" 
d="M225 1866q-95 0 -160 59t-65 144t65 144t160 59q96 0 160.5 -59t64.5 -144t-64.5 -144t-160.5 -59zM225 1310q-95 0 -160 59t-65 144t65 144t160 59q96 0 160.5 -59t64.5 -144t-64.5 -144t-160.5 -59z" />
    <glyph glyph-name="twodotsverticalbelowar" 
d="M225 544q-95 0 -160 59t-65 144t65 144t160 59q96 0 160.5 -59t64.5 -144t-64.5 -144t-160.5 -59zM225 -12q-95 0 -160 59t-65 144t65 144t160 59q96 0 160.5 -59t64.5 -144t-64.5 -144t-160.5 -59z" />
    <glyph glyph-name="twodotshorizontalabovear" 
d="M225 1310q-95 0 -160 59t-65 144t65 144t160 59q96 0 160.5 -59t64.5 -144t-64.5 -144t-160.5 -59zM855 1310q-95 0 -160 59t-65 144t65 144t160 59q96 0 160.5 -59t64.5 -144t-64.5 -144t-160.5 -59z" />
    <glyph glyph-name="twodotshorizontalbelowar" 
d="M225 -12q-95 0 -160 59t-65 144t65 144t160 59q96 0 160.5 -59t64.5 -144t-64.5 -144t-160.5 -59zM855 -12q-95 0 -160 59t-65 144t65 144t160 59q96 0 160.5 -59t64.5 -144t-64.5 -144t-160.5 -59z" />
    <glyph glyph-name="threedotsdownabovear" 
d="M540 1221q-95 0 -160 59t-65 144t65 144t160 59q96 0 160.5 -59t64.5 -144t-64.5 -144t-160.5 -59zM225 665q-95 0 -160 59t-65 144t65 144t160 59q96 0 160.5 -59t64.5 -144t-64.5 -144t-160.5 -59zM855 665q-95 0 -160 59t-65 144t65 144t160 59q96 0 160.5 -59
t64.5 -144t-64.5 -144t-160.5 -59z" />
    <glyph glyph-name="threedotsdownbelowar" 
d="M225 968q96 0 160.5 -59t64.5 -144t-64.5 -144t-160.5 -59q-95 0 -160 59t-65 144t65 144t160 59zM855 968q96 0 160.5 -59t64.5 -144t-64.5 -144t-160.5 -59q-95 0 -160 59t-65 144t65 144t160 59zM540 412q96 0 160.5 -59t64.5 -144t-64.5 -144t-160.5 -59
q-95 0 -160 59t-65 144t65 144t160 59z" />
    <glyph glyph-name="threedotsupabovear" 
d="M540 1866q-95 0 -160 59t-65 144t65 144t160 59q96 0 160.5 -59t64.5 -144t-64.5 -144t-160.5 -59zM225 1310q-95 0 -160 59t-65 144t65 144t160 59q96 0 160.5 -59t64.5 -144t-64.5 -144t-160.5 -59zM855 1310q-95 0 -160 59t-65 144t65 144t160 59q96 0 160.5 -59
t64.5 -144t-64.5 -144t-160.5 -59z" />
    <glyph glyph-name="threedotsupbelowar" 
d="M225 968q96 0 160.5 -59t64.5 -144t-64.5 -144t-160.5 -59q-95 0 -160 59t-65 144t65 144t160 59zM855 968q96 0 160.5 -59t64.5 -144t-64.5 -144t-160.5 -59q-95 0 -160 59t-65 144t65 144t160 59zM540 412q96 0 160.5 -59t64.5 -144t-64.5 -144t-160.5 -59
q-95 0 -160 59t-65 144t65 144t160 59z" />
    <glyph glyph-name="waslaar" 
 />
    <glyph glyph-name="miniKehehar" 
 />
    <glyph glyph-name="gafsarkashabovear" 
d="M0 1679h933v-234h-933v234z" />
    <glyph glyph-name="gafsarkashcenterar" 
 />
    <glyph glyph-name="doublestrokear" 
 />
    <glyph glyph-name="uni0654064F" 
d="M8 1826v111h142q-14 34 -14 72q0 77 55.5 130t135.5 53t134.5 -52.5t55.5 -130.5q1 -77 -54 -130t-136 -53h-319zM252 2009q0 -31 21.5 -51.5t53.5 -20.5t53.5 20.5t21.5 51.5t-21.5 51.5t-53.5 20.5t-53.5 -20.5t-21.5 -51.5zM244 1438h265v-161h-509v161h70
q-21 103 47 184t179 81q73 0 134 -41.5t83 -107.5l-151 -61q-4 26 -22.5 42.5t-43.5 16.5q-29 0 -48.5 -20t-19.5 -49q0 -26 16 -45z" />
    <glyph glyph-name="uni0654064C" 
d="M-49 2081v111h179v-255h77q-14 34 -14 72q0 77 55.5 130t135.5 53t134.5 -52.5t55.5 -130.5q1 -77 -54 -130t-136 -53h-365v255h-68zM309 2009q0 -31 21.5 -51.5t53.5 -20.5t53.5 20.5t21.5 51.5t-21.5 51.5t-53.5 20.5t-53.5 -20.5t-21.5 -51.5zM244 1438h265v-161h-509
v161h70q-21 103 47 184t179 81q73 0 134 -41.5t83 -107.5l-151 -61q-4 26 -22.5 42.5t-43.5 16.5q-29 0 -48.5 -20t-19.5 -49q0 -26 16 -45z" />
    <glyph glyph-name="uni0654064E" 
d="M9 1864h509v-111h-509v111zM244 1438h265v-161h-509v161h70q-21 103 47 184t179 81q73 0 134 -41.5t83 -107.5l-151 -61q-4 26 -22.5 42.5t-43.5 16.5q-29 0 -48.5 -20t-19.5 -49q0 -26 16 -45z" />
    <glyph glyph-name="uni0654064B" 
d="M9 2025h509v-111h-509v111zM9 1864h509v-111h-509v111zM244 1438h265v-161h-509v161h70q-21 103 47 184t179 81q73 0 134 -41.5t83 -107.5l-151 -61q-4 26 -22.5 42.5t-43.5 16.5q-29 0 -48.5 -20t-19.5 -49q0 -26 16 -45z" />
    <glyph glyph-name="uni06540652" 
d="M263 1802q-77 0 -132.5 53t-55.5 128q0 74 55.5 127.5t132.5 53.5q76 0 131.5 -53.5t55.5 -127.5t-55 -127.5t-132 -53.5zM263 1915q28 0 48.5 19.5t20.5 46.5q0 28 -20.5 48t-48.5 20q-29 0 -49 -20t-20 -48q0 -27 20 -46.5t49 -19.5zM244 1438h265v-161h-509v161h70
q-21 103 47 184t179 81q73 0 134 -41.5t83 -107.5l-151 -61q-4 26 -22.5 42.5t-43.5 16.5q-29 0 -48.5 -20t-19.5 -49q0 -26 16 -45z" />
    <glyph glyph-name="uni06550650" 
d="M244 164h265v-161h-509v161h70q-21 103 47 184t179 81q73 0 134 -41.5t83 -107.5l-151 -61q-4 26 -22.5 42.5t-43.5 16.5q-29 0 -48.5 -20t-19.5 -49q0 -26 16 -45zM2 -47h509v-111h-509v111z" />
    <glyph glyph-name="uni0655064D" 
d="M244 164h265v-161h-509v161h70q-21 103 47 184t179 81q73 0 134 -41.5t83 -107.5l-151 -61q-4 26 -22.5 42.5t-43.5 16.5q-29 0 -48.5 -20t-19.5 -49q0 -26 16 -45zM2 -99h509v-111h-509v111zM2 -260h509v-111h-509v111z" />
    <glyph glyph-name="uni06510670" 
d="M353 2091v-346h-111v346h111zM333 1335q-18 -43 -57.5 -69.5t-91.5 -26.5q-81 0 -132.5 59t-51.5 144q0 80 47.5 138.5t111.5 69.5l29 -123q-23 -6 -39.5 -28t-16.5 -50q0 -29 18.5 -48t49.5 -20q43 -1 67.5 38.5t24.5 98.5l65 -17q0 -41 18.5 -65.5t45.5 -25.5
q21 -1 33.5 12t12.5 33q0 40 -40 52l26 122q65 -15 105 -64.5t39 -118.5q-1 -76 -44.5 -127t-108.5 -51q-37 0 -67.5 18t-43.5 49z" />
    <glyph glyph-name="uni0651064F" 
d="M43 1773v111h142q-14 34 -14 72q0 77 55.5 130t135.5 53t134.5 -52.5t55.5 -130.5q1 -77 -54 -130t-136 -53h-319zM287 1956q0 -31 21.5 -51.5t53.5 -20.5t53.5 20.5t21.5 51.5t-21.5 51.5t-53.5 20.5t-53.5 -20.5t-21.5 -51.5zM333 1335q-18 -43 -57.5 -69.5
t-91.5 -26.5q-81 0 -132.5 59t-51.5 144q0 80 47.5 138.5t111.5 69.5l29 -123q-23 -6 -39.5 -28t-16.5 -50q0 -29 18.5 -48t49.5 -20q43 -1 67.5 38.5t24.5 98.5l65 -17q0 -41 18.5 -65.5t45.5 -25.5q21 -1 33.5 12t12.5 33q0 40 -40 52l26 122q65 -15 105 -64.5t39 -118.5
q-1 -76 -44.5 -127t-108.5 -51q-37 0 -67.5 18t-43.5 49z" />
    <glyph glyph-name="uni0651064C" 
d="M-14 2028v111h179v-255h77q-14 34 -14 72q0 77 55.5 130t135.5 53t134.5 -52.5t55.5 -130.5q1 -77 -54 -130t-136 -53h-365v255h-68zM344 1956q0 -31 21.5 -51.5t53.5 -20.5t53.5 20.5t21.5 51.5t-21.5 51.5t-53.5 20.5t-53.5 -20.5t-21.5 -51.5zM333 1335
q-18 -43 -57.5 -69.5t-91.5 -26.5q-81 0 -132.5 59t-51.5 144q0 80 47.5 138.5t111.5 69.5l29 -123q-23 -6 -39.5 -28t-16.5 -50q0 -29 18.5 -48t49.5 -20q43 -1 67.5 38.5t24.5 98.5l65 -17q0 -41 18.5 -65.5t45.5 -25.5q21 -1 33.5 12t12.5 33q0 40 -40 52l26 122
q65 -15 105 -64.5t39 -118.5q-1 -76 -44.5 -127t-108.5 -51q-37 0 -67.5 18t-43.5 49z" />
    <glyph glyph-name="uni0651064E" 
d="M44 1811h509v-111h-509v111zM333 1335q-18 -43 -57.5 -69.5t-91.5 -26.5q-81 0 -132.5 59t-51.5 144q0 80 47.5 138.5t111.5 69.5l29 -123q-23 -6 -39.5 -28t-16.5 -50q0 -29 18.5 -48t49.5 -20q43 -1 67.5 38.5t24.5 98.5l65 -17q0 -41 18.5 -65.5t45.5 -25.5
q21 -1 33.5 12t12.5 33q0 40 -40 52l26 122q65 -15 105 -64.5t39 -118.5q-1 -76 -44.5 -127t-108.5 -51q-37 0 -67.5 18t-43.5 49z" />
    <glyph glyph-name="uni0651064B.1" 
d="M44 1972h509v-111h-509v111zM44 1811h509v-111h-509v111zM333 1335q-18 -43 -57.5 -69.5t-91.5 -26.5q-81 0 -132.5 59t-51.5 144q0 80 47.5 138.5t111.5 69.5l29 -123q-23 -6 -39.5 -28t-16.5 -50q0 -29 18.5 -48t49.5 -20q43 -1 67.5 38.5t24.5 98.5l65 -17
q0 -41 18.5 -65.5t45.5 -25.5q21 -1 33.5 12t12.5 33q0 40 -40 52l26 122q65 -15 105 -64.5t39 -118.5q-1 -76 -44.5 -127t-108.5 -51q-37 0 -67.5 18t-43.5 49z" />
    <glyph glyph-name="uni06510650" 
d="M333 168q-18 -43 -57.5 -69.5t-91.5 -26.5q-81 0 -132.5 59t-51.5 144q0 80 47.5 138.5t111.5 69.5l29 -123q-23 -6 -39.5 -28t-16.5 -50q0 -29 18.5 -48t49.5 -20q43 -1 67.5 38.5t24.5 98.5l65 -17q0 -41 18.5 -65.5t45.5 -25.5q21 -1 33.5 12t12.5 33q0 40 -40 52
l26 122q65 -15 105 -64.5t39 -118.5q-1 -76 -44.5 -127t-108.5 -51q-37 0 -67.5 18t-43.5 49zM0 34h509v-111h-509v111z" />
    <glyph glyph-name="uni0651064D" 
d="M333 346q-18 -43 -57.5 -69.5t-91.5 -26.5q-81 0 -132.5 59t-51.5 144q0 80 47.5 138.5t111.5 69.5l29 -123q-23 -6 -39.5 -28t-16.5 -50q0 -29 18.5 -48t49.5 -20q43 -1 67.5 38.5t24.5 98.5l65 -17q0 -41 18.5 -65.5t45.5 -25.5q21 -1 33.5 12t12.5 33q0 40 -40 52
l26 122q65 -15 105 -64.5t39 -118.5q-1 -76 -44.5 -127t-108.5 -51q-37 0 -67.5 18t-43.5 49zM0 222h509v-111h-509v111zM0 61h509v-111h-509v111z" />
    </font>
</defs>
</svg>
