<?xml version="1.0" standalone="no"?>
<!DOCTYPE svg PUBLIC "-//W3C//DTD SVG 1.1//EN" "http://www.w3.org/Graphics/SVG/1.1/DTD/svg11.dtd" >
<svg xmlns="http://www.w3.org/2000/svg" xmlns:xlink="http://www.w3.org/1999/xlink" version="1.1">
<metadata>
Created by FontForge 20170731 at Wed Apr 29 15:13:34 2020
 By Aleksey,,,
Copyright (c) 2020 by Tarek Alsawwa. All rights reserved.
</metadata>
<defs>
<font id="TSSafaa-UltraLight" horiz-adv-x="0" >
  <font-face 
    font-family="TS Safaa Ultra Light"
    font-weight="200"
    font-stretch="normal"
    units-per-em="2048"
    panose-1="0 0 3 0 0 0 0 0 0 0"
    ascent="1638"
    descent="-410"
    x-height="1200"
    cap-height="1612"
    bbox="-707 -993 2841 2600"
    underline-thickness="50"
    underline-position="-150"
    unicode-range="U+0020-FEFC"
  />
<missing-glyph horiz-adv-x="1332" 
d="M200 1612h932v-1612h-932v1612zM974 145v1321h-614v-1321h614z" />
    <glyph glyph-name="uniFDF2" unicode="&#x627;&#xfedf;&#xfee0;&#xfeea;" horiz-adv-x="2588" arabic-form="isolated" 
d="M1980 2600v-269h-91v269h91zM1872 2012q-44 0 -72.5 32.5t-28.5 78.5q0 44 26 76.5t61 38.5l16 -68q-12 -3 -21.5 -15.5t-9.5 -27.5q0 -16 10.5 -26.5t27.5 -10.5q24 -1 37 20.5t13 54.5l36 -9q0 -23 10 -36.5t25 -13.5q11 -1 18 6.5t7 18.5q0 22 -22 28l15 67
q35 -8 57 -35t22 -65q-1 -42 -24.5 -70t-59.5 -28q-45 0 -61 37q-10 -23 -32 -38t-50 -15zM2094 96v1816h97v-1912h-2091v618q0 255 187.5 418.5t475.5 163.5h333v80h97v-1184h421v1816h97v-1816h383zM2391 1912h97v-1912h-97v1912zM1096 96v1007h-332q-247 0 -406.5 -135.5
t-159.5 -349.5v-522h898z" />
    <glyph glyph-name="uniFEF5" unicode="&#xfedf;&#xfe82;" horiz-adv-x="1010" arabic-form="isolated" 
d="M-22 2110q23 96 81.5 149.5t140.5 53.5q49 0 92.5 -24t71 -53t64 -53t72.5 -24q47 0 83 37t52 104l86 -34q-25 -109 -91 -161t-149.5 -38.5t-161.5 85.5q-26 24 -39 34.5t-35.5 21t-45.5 10.5q-47 0 -83 -37t-53 -104zM100 0v96h713v1816h97v-1912h-810zM305 279v1633h97
v-1633h-97z" />
    <glyph glyph-name="uniFEF6" unicode="&#xfee0;&#xfe82;" horiz-adv-x="1026" arabic-form="final" 
d="M199 2218q-47 0 -83 -37t-53 -104l-85 33q23 96 81.5 149.5t140.5 53.5q49 0 92.5 -24t71 -53t64 -53t72.5 -24q47 0 83 37t52 104l86 -34q-25 -109 -91 -161t-149.5 -38.5t-161.5 85.5q-26 24 -39 34.5t-35.5 21t-45.5 10.5zM910 96h166v-96h-976v96h713v1816h97v-1816z
M305 279v1633h97v-1633h-97z" />
    <glyph glyph-name="uniFEF7" unicode="&#xfedf;&#xfe84;" horiz-adv-x="1010" arabic-form="isolated" 
d="M343 2075h153v-93h-294v93h40q-12 60 27 106.5t104 46.5q42 0 77 -24t48 -62l-87 -35q-2 15 -13 24.5t-25 9.5q-17 0 -28 -11.5t-11 -28.5q0 -15 9 -26zM100 0v96h713v1816h97v-1912h-810zM305 279v1633h97v-1633h-97z" />
    <glyph glyph-name="uniFEF8" unicode="&#xfee0;&#xfe84;" horiz-adv-x="1026" arabic-form="final" 
d="M496 2075v-93h-294v93h40q-12 60 27 106.5t104 46.5q42 0 77 -24t48 -62l-87 -35q-2 15 -13 24.5t-25 9.5q-17 0 -28 -11.5t-11 -28.5q0 -15 9 -26h153zM910 96h166v-96h-976v96h713v1816h97v-1816zM402 279h-97v1633h97v-1633z" />
    <glyph glyph-name="uniFEF9" unicode="&#xfedf;&#xfe88;" horiz-adv-x="1010" arabic-form="isolated" 
d="M100 0v96h713v1816h97v-1912h-810zM305 279v1633h97v-1633h-97zM343 -203h153v-93h-294v93h40q-12 60 27 106.5t104 46.5q42 0 77 -24t48 -62l-87 -35q-2 15 -13 24.5t-25 9.5q-17 0 -28 -11.5t-11 -28.5q0 -15 9 -26z" />
    <glyph glyph-name="uniFEFA" unicode="&#xfee0;&#xfe88;" horiz-adv-x="1026" arabic-form="final" 
d="M910 96h166v-96h-976v96h713v1816h97v-1816zM402 1912v-1633h-97v1633h97zM373 -137q-17 0 -28 -11.5t-11 -28.5q0 -15 9 -26h153v-93h-294v93h40q-12 60 27 106.5t104 46.5q42 0 77 -24t48 -62l-87 -35q-2 15 -13 24.5t-25 9.5z" />
    <glyph glyph-name="uniFEFB" unicode="&#xfedf;&#xfe8e;" horiz-adv-x="1010" arabic-form="isolated" 
d="M100 0v96h713v1816h97v-1912h-810zM305 279v1633h97v-1633h-97z" />
    <glyph glyph-name="uniFEFC" unicode="&#xfee0;&#xfe8e;" horiz-adv-x="1026" arabic-form="final" 
d="M910 96h166v-96h-976v96h713v1816h97v-1816zM402 1912v-1633h-97v1633h97z" />
    <glyph glyph-name="uni066E.init" unicode="&#x66e;" horiz-adv-x="503" 
d="M-10 96h316l-2 1104h97l2 -1200h-413v96z" />
    <glyph glyph-name="uni066E.medi" unicode="&#x66e;" horiz-adv-x="693" 
d="M703 96v-96h-713v96h316l-2 1104h97l2 -1104h300z" />
    <glyph glyph-name="uni066E.fina" unicode="&#x66e;" horiz-adv-x="2134" 
d="M2017 96h167v-96h-1650q-194 61 -314 225.5t-120 374.5q0 128 50 244.5t134.5 201.5t201.5 135.5t246 50.5v-94q-146 0 -270 -72.5t-196 -196t-72 -269.5q0 -171 97.5 -308.5t253.5 -195.5h1375l1 1104h97z" />
    <glyph glyph-name="uni066F.fina" unicode="&#x66f;" horiz-adv-x="2200" 
d="M2250 96v-96h-165q-48 -219 -200 -352t-364 -133h-880q-158 11 -281.5 99t-191.5 235t-68 329v135h97v-134q0 -247 135.5 -406.5t349.5 -159.5h839q172 0 295.5 105.5t168.5 281.5h-712q-194 61 -314 225.5t-120 374.5q0 171 85 316.5t230.5 230.5t317.5 85
q165 0 307 -80t228.5 -217t95.5 -301v-456q0 -46 -4 -82h151zM2005 600q1 146 -71 270t-196 196t-270 72q-109 0 -209.5 -43t-173.5 -115t-116 -172t-43 -209q0 -170 96.5 -307t251.5 -196h728z" />
    <glyph glyph-name="uni06A1.init" unicode="&#x6a1;" horiz-adv-x="1624" 
d="M-50 0v96h555q-81 61 -136.5 144.5t-81.5 174t-25.5 187.5t26 187t78.5 171.5t126.5 141.5t176 95t221.5 35q128 0 244.5 -50t201.5 -135t135 -202t50 -245l3 -600h-1574zM344 599q0 -170 96.5 -307t251.5 -196h735l-4 504q0 146 -72 270t-195.5 196t-269.5 72
q-109 0 -209.5 -43t-173.5 -115t-116 -172t-43 -209z" />
    <glyph glyph-name="uni06A1.medi" unicode="&#x6a1;" horiz-adv-x="1640" 
d="M1524 96h166v-96h-1740v96h555q-81 61 -136.5 144.5t-81.5 174t-25.5 187.5t26 187t78.5 171.5t126.5 141.5t176 95t221.5 35q128 0 244.5 -50t201.5 -135t135 -202t50 -245zM692 96h735l-4 504q0 146 -72 270t-195.5 196t-269.5 72q-109 0 -209.5 -43t-173.5 -115
t-116 -172t-43 -209q0 -170 96.5 -307t251.5 -196z" />
    <glyph glyph-name="uni06A1.fina" unicode="&#x6a1;" horiz-adv-x="2673" 
d="M2607 96h116v-96h-2189q-194 61 -314 225.5t-120 374.5q0 128 50 244.5t134.5 201.5t201.5 135.5t246 50.5v-94q-146 0 -270 -72.5t-196 -196t-72 -269.5q0 -171 97.5 -308.5t253.5 -195.5h1043q-81 61 -136.5 144.5t-81.5 174t-25.5 187.5t26 187t78.5 171.5
t126.5 141.5t176 95t221.5 35q171 0 316 -85t229.5 -230.5t85.5 -316.5zM1775 96h735l-4 504q-1 146 -73 270t-195 196t-269 72q-109 0 -209.5 -43t-173.5 -115t-116 -172t-43 -209q0 -170 96.5 -307t251.5 -196z" />
    <glyph glyph-name="uni06C2.fina" unicode="&#x6c2;" horiz-adv-x="1335" 
d="M577 734h153v-93h-294v93h40q-12 60 27 106.5t104 46.5q42 0 77 -24t48 -62l-87 -35q-2 15 -13 24.5t-25 9.5q-17 0 -28 -11.5t-11 -28.5q0 -16 9 -26zM1203 98h142v-98h-142q-64 0 -118.5 15t-91.5 36t-74.5 59t-59 67t-53.5 76q-28 42 -42.5 62.5t-39 50.5t-43 44
t-44.5 25t-53 11q-34 0 -63 -7.5t-54.5 -26t-44.5 -36.5t-41 -50.5t-35.5 -55.5t-36.5 -65q-27 -49 -43 -76t-44.5 -64.5t-56.5 -61.5l-65 76q22 19 44 49t37 54.5t40 70.5q70 125 101 168q112 152 264 150q27 0 52.5 -8t45.5 -17.5t43.5 -30.5t37 -34.5t35.5 -43t30.5 -42
t31 -46t27.5 -41.5q29 -43 50.5 -71t50.5 -57t58.5 -45t68.5 -26.5t86 -10.5z" />
    <glyph glyph-name="uni06C3.fina" unicode="&#x6c3;" horiz-adv-x="1335" 
d="M1203 98h142v-98h-142q-64 0 -118.5 15t-91.5 36t-74.5 59t-59 67t-53.5 76q-28 42 -42.5 62.5t-39 50.5t-43 44t-44.5 25t-53 11q-34 0 -63 -7.5t-54.5 -26t-44.5 -36.5t-41 -50.5t-35.5 -55.5t-36.5 -65q-27 -49 -43 -76t-44.5 -64.5t-56.5 -61.5l-65 76q22 19 44 49
t37 54.5t40 70.5q70 125 101 168q112 152 264 150q27 0 52.5 -8t45.5 -17.5t43.5 -30.5t37 -34.5t35.5 -43t30.5 -42t31 -46t27.5 -41.5q29 -43 50.5 -71t50.5 -57t58.5 -45t68.5 -26.5t86 -10.5z" />
    <glyph glyph-name="uniFB57" unicode="&#x67e;" horiz-adv-x="2134" arabic-form="final" 
d="M2017 96h167v-96h-1650q-194 61 -314 225.5t-120 374.5q0 128 50 244.5t134.5 201.5t201.5 135.5t246 50.5v-94q-146 0 -270 -72.5t-196 -196t-72 -269.5q0 -171 97.5 -308.5t253.5 -195.5h1375l1 1104h97zM1035 -151q31 0 53 -22t22 -53t-22 -53t-53 -22t-53 21.5
t-22 53.5t22 53.5t53 21.5zM1340 -151q31 0 53 -22t22 -53t-22 -53t-53 -22q-32 0 -53.5 21.5t-21.5 53.5t21.5 53.5t53.5 21.5zM1188 -460q31 0 53 -22t22 -53t-22 -53t-53 -22q-32 0 -53.5 22t-21.5 53t21.5 53t53.5 22z" />
    <glyph glyph-name="uniFB58" unicode="&#x67e;" horiz-adv-x="732" arabic-form="initial" 
d="M-10 0v96h545l-2 1104h97l2 -1200h-642zM214 -151q31 0 53 -22t22 -53t-22 -53t-53 -22q-32 0 -53.5 21.5t-21.5 53.5t21.5 53.5t53.5 21.5zM519 -151q31 0 53 -22t22 -53t-22 -53t-53 -22t-53 21.5t-22 53.5t22 53.5t53 21.5zM367 -460q31 0 53 -22t22 -53t-22 -53
t-53 -22t-53 22t-22 53t22 53t53 22z" />
    <glyph glyph-name="uniFB59" unicode="&#x67e;" horiz-adv-x="923" arabic-form="medial" 
d="M933 96v-96h-943v96h546l-2 1104h97l2 -1104h300zM218 -151q31 0 53 -22t22 -53t-22 -53t-53 -22q-32 0 -53.5 21.5t-21.5 53.5t21.5 53.5t53.5 21.5zM523 -151q31 0 53 -22t22 -53t-22 -53t-53 -22t-53 21.5t-22 53.5t22 53.5t53 21.5zM371 -460q31 0 53 -22t22 -53
t-22 -53t-53 -22t-53 22t-22 53t22 53t53 22z" />
    <glyph glyph-name="uniFB67" unicode="&#x679;" horiz-adv-x="2134" arabic-form="final" 
d="M1603 1582v-247h-639v38h82v727h39v-285h253q115 0 190 -65.5t75 -167.5zM1564 1373v209q0 86 -63.5 140t-162.5 54h-253v-403h479zM2017 96h167v-96h-1650q-194 61 -314 225.5t-120 374.5q0 128 50 244.5t134.5 201.5t201.5 135.5t246 50.5v-94q-146 0 -270 -72.5
t-196 -196t-72 -269.5q0 -171 97.5 -308.5t253.5 -195.5h1375l1 1104h97z" />
    <glyph glyph-name="uniFB68" unicode="&#x679;" horiz-adv-x="746" arabic-form="initial" 
d="M47 1335v38h82v727h39v-285h253q115 0 190 -65.5t75 -167.5v-247h-639zM168 1373h479v209q0 86 -63.5 140t-162.5 54h-253v-403zM20 96h316l-2 1104h97l2 -1200h-413v96z" />
    <glyph glyph-name="uniFB69" unicode="&#x679;" horiz-adv-x="693" arabic-form="medial" 
d="M656 1582v-247h-639v38h82v727h39v-285h253q115 0 190 -65.5t75 -167.5zM617 1373v209q0 86 -63.5 140t-162.5 54h-253v-403h479zM703 96v-96h-713v96h316l-2 1104h97l2 -1104h300z" />
    <glyph glyph-name="uniFB6B" unicode="&#x6a4;" horiz-adv-x="2673" arabic-form="final" 
d="M1973 1769q-31 0 -53 21.5t-22 53.5t22 53.5t53 21.5t53 -22t22 -53t-22 -53t-53 -22zM1820 1460q-32 0 -53.5 22t-21.5 53t21.5 53t53.5 22q31 0 53 -22t22 -53t-22 -53t-53 -22zM2125 1460q-31 0 -53 22t-22 53t22 53t53 22t53 -22t22 -53t-22 -53t-53 -22zM2607 96
h116v-96h-2189q-194 61 -314 225.5t-120 374.5q0 128 50 244.5t134.5 201.5t201.5 135.5t246 50.5v-94q-146 0 -270 -72.5t-196 -196t-72 -269.5q0 -171 97.5 -308.5t253.5 -195.5h1043q-81 61 -136.5 144.5t-81.5 174t-25.5 187.5t26 187t78.5 171.5t126.5 141.5t176 95
t221.5 35q171 0 316 -85t229.5 -230.5t85.5 -316.5zM1775 96h735l-4 504q-1 146 -73 270t-195 196t-269 72q-109 0 -209.5 -43t-173.5 -115t-116 -172t-43 -209q0 -170 96.5 -307t251.5 -196z" />
    <glyph glyph-name="uniFB6C" unicode="&#x6a4;" horiz-adv-x="1624" arabic-form="initial" 
d="M890 1769q-32 0 -53.5 21.5t-21.5 53.5t21.5 53.5t53.5 21.5q31 0 53 -22t22 -53t-22 -53t-53 -22zM737 1460q-31 0 -53 22t-22 53t22 53t53 22t53 -22t22 -53t-22 -53t-53 -22zM1042 1460q-32 0 -53.5 22t-21.5 53t21.5 53t53.5 22q31 0 53 -22t22 -53t-22 -53t-53 -22z
M-50 0v96h555q-81 61 -136.5 144.5t-81.5 174t-25.5 187.5t26 187t78.5 171.5t126.5 141.5t176 95t221.5 35q128 0 244.5 -50t201.5 -135t135 -202t50 -245l3 -600h-1574zM344 599q0 -170 96.5 -307t251.5 -196h735l-4 504q0 146 -72 270t-195.5 196t-269.5 72
q-109 0 -209.5 -43t-173.5 -115t-116 -172t-43 -209z" />
    <glyph glyph-name="uniFB6D" unicode="&#x6a4;" horiz-adv-x="1640" arabic-form="medial" 
d="M890 1769q-32 0 -53.5 21.5t-21.5 53.5t21.5 53.5t53.5 21.5q31 0 53 -22t22 -53t-22 -53t-53 -22zM737 1460q-31 0 -53 22t-22 53t22 53t53 22t53 -22t22 -53t-22 -53t-53 -22zM1042 1460q-32 0 -53.5 22t-21.5 53t21.5 53t53.5 22q31 0 53 -22t22 -53t-22 -53t-53 -22z
M1524 96h166v-96h-1740v96h555q-81 61 -136.5 144.5t-81.5 174t-25.5 187.5t26 187t78.5 171.5t126.5 141.5t176 95t221.5 35q128 0 244.5 -50t201.5 -135t135 -202t50 -245zM692 96h735l-4 504q0 146 -72 270t-195.5 196t-269.5 72q-109 0 -209.5 -43t-173.5 -115
t-116 -172t-43 -209q0 -170 96.5 -307t251.5 -196z" />
    <glyph glyph-name="uniFB7B" unicode="&#x686;" horiz-adv-x="1802" arabic-form="final" 
d="M1685 96h167v-96h-1654q1 -290 149.5 -431t416.5 -141h399v-97h-400q-142 0 -265 43t-210 119.5t-137.5 185t-50.5 234.5v183h1487v522q0 214 -159.5 349.5t-406.5 135.5h-921v97h922q288 0 475.5 -163.5t187.5 -418.5v-522zM1301 -129q31 0 53 -22t22 -53t-22 -53
t-53 -22t-53 21.5t-22 53.5t22 53.5t53 21.5zM1606 -129q31 0 53 -22t22 -53t-22 -53t-53 -22q-32 0 -53.5 21.5t-21.5 53.5t21.5 53.5t53.5 21.5zM1454 -438q31 0 53 -22t22 -53t-22 -53t-53 -22q-32 0 -53.5 22t-21.5 53t21.5 53t53.5 22z" />
    <glyph glyph-name="uniFB7C" unicode="&#x686;" horiz-adv-x="1948" arabic-form="initial" 
d="M-50 0v96h1800v522q0 214 -159.5 349.5t-406.5 135.5h-921v97h922q288 0 475.5 -163.5t187.5 -418.5v-618h-1898zM769 -151q31 0 53 -22t22 -53t-22 -53t-53 -22t-53 21.5t-22 53.5t22 53.5t53 21.5zM1074 -151q31 0 53 -22t22 -53t-22 -53t-53 -22q-32 0 -53.5 21.5
t-21.5 53.5t21.5 53.5t53.5 21.5zM922 -460q31 0 53 -22t22 -53t-22 -53t-53 -22q-32 0 -53.5 22t-21.5 53t21.5 53t53.5 22z" />
    <glyph glyph-name="uniFB7D" unicode="&#x686;" horiz-adv-x="1965" arabic-form="medial" 
d="M1848 96h167v-96h-2065v96h1800v522q0 214 -159.5 349.5t-406.5 135.5h-921v97h922q288 0 475.5 -163.5t187.5 -418.5v-522zM769 -151q31 0 53 -22t22 -53t-22 -53t-53 -22t-53 21.5t-22 53.5t22 53.5t53 21.5zM1074 -151q31 0 53 -22t22 -53t-22 -53t-53 -22
q-32 0 -53.5 21.5t-21.5 53.5t21.5 53.5t53.5 21.5zM922 -460q31 0 53 -22t22 -53t-22 -53t-53 -22q-32 0 -53.5 22t-21.5 53t21.5 53t53.5 22z" />
    <glyph glyph-name="uniFB89" unicode="&#x688;" horiz-adv-x="1516" arabic-form="final" 
d="M1039 1614v-247h-639v38h82v727h39v-285h253q115 0 190 -65.5t75 -167.5zM1000 1405v209q0 86 -63.5 140t-162.5 54h-253v-403h479zM1566 96v-96h-1466l1 96h831q155 59 251.5 196t96.5 307q0 109 -43 209t-116 172t-173.5 115t-209.5 43q-173 0 -311 -99.5t-194 -258.5
l-91 37q68 184 229.5 299.5t362.5 115.5q172 0 317.5 -85t230.5 -230.5t85 -316.5q0 -153 -66 -284.5t-182 -219.5h447z" />
    <glyph glyph-name="uniFB8B" unicode="&#x698;" horiz-adv-x="1091" arabic-form="final" 
d="M914 1737q-32 0 -53.5 21.5t-21.5 53.5t21.5 53.5t53.5 21.5q31 0 53 -22t22 -53t-22 -53t-53 -22zM761 1428q-31 0 -53 22t-22 53t22 53t53 22t53 -22t22 -53t-22 -53t-53 -22zM1066 1578q31 0 53 -22t22 -53t-22 -53t-53 -22q-32 0 -53.5 22t-21.5 53t21.5 53t53.5 22z
M959 178q0 -46 -4 -82h149v-96h-163q-48 -219 -200 -352t-364 -133h-277v99h277q214 -1 349.5 158.5t135.5 406.5v1021h97v-1022z" />
    <glyph glyph-name="uniFB8D" unicode="&#x691;" horiz-adv-x="1054" arabic-form="final" 
d="M951 1815q115 0 190 -65.5t75 -167.5v-247h-639v38h82v727h39v-285h253zM1177 1373v209q0 86 -63.5 140t-162.5 54h-253v-403h479zM959 178q0 -46 -4 -82h149v-96h-163q-48 -219 -200 -352t-364 -133h-277v99h277q214 -1 349.5 158.5t135.5 406.5v1021h97v-1022z" />
    <glyph glyph-name="uniFB8F" unicode="&#x6a9;" horiz-adv-x="2791" arabic-form="final" 
d="M2675 96h166v-96h-2307q-197 62 -315.5 212.5t-118.5 357.5q0 128 50 244.5t134.5 201.5t201.5 135.5t246 50.5v-94q-146 0 -270 -72.5t-196 -196t-72 -269.5q0 -168 95.5 -291.5t255.5 -182.5h2032v522q0 214 -159.5 349.5t-406.5 135.5h-921q0 188 32.5 330t88.5 232.5
t140.5 146.5t180 78t216.5 22h526v-97h-525q-77 0 -138 -10t-121.5 -34.5t-106.5 -69t-84.5 -111.5t-63.5 -165t-37 -225h814q288 0 475.5 -163.5t187.5 -418.5v-522z" />
    <glyph glyph-name="uniFB90" unicode="&#x6a9;" horiz-adv-x="1848" arabic-form="initial" 
d="M-50 0v96h1700v522q0 214 -159.5 349.5t-406.5 135.5h-921q0 188 32.5 330t88.5 232.5t140.5 146.5t180 78t216.5 22h526v-97h-525q-77 0 -138 -10t-121.5 -34.5t-106.5 -69t-84.5 -111.5t-63.5 -165t-37 -225h814q288 0 475.5 -163.5t187.5 -418.5v-618h-1798z" />
    <glyph glyph-name="uniFB91" unicode="&#x6a9;" horiz-adv-x="1864" arabic-form="medial" 
d="M1748 96h166v-96h-1964v96h1700v522q0 214 -159.5 349.5t-406.5 135.5h-921q0 188 32.5 330t88.5 232.5t140.5 146.5t180 78t216.5 22h526v-97h-525q-77 0 -138 -10t-121.5 -34.5t-106.5 -69t-84.5 -111.5t-63.5 -165t-37 -225h814q288 0 475.5 -163.5t187.5 -418.5v-522
z" />
    <glyph glyph-name="uniFB93" unicode="&#x6af;" horiz-adv-x="2791" arabic-form="final" 
d="M2271 2077v-70h-817v70h817zM2675 96h166v-96h-2307q-197 62 -315.5 212.5t-118.5 357.5q0 128 50 244.5t134.5 201.5t201.5 135.5t246 50.5v-94q-146 0 -270 -72.5t-196 -196t-72 -269.5q0 -168 95.5 -291.5t255.5 -182.5h2032v522q0 214 -159.5 349.5t-406.5 135.5
h-921q0 188 32.5 330t88.5 232.5t140.5 146.5t180 78t216.5 22h526v-97h-525q-77 0 -138 -10t-121.5 -34.5t-106.5 -69t-84.5 -111.5t-63.5 -165t-37 -225h814q288 0 475.5 -163.5t187.5 -418.5v-522z" />
    <glyph glyph-name="uniFB94" unicode="&#x6af;" horiz-adv-x="1848" arabic-form="initial" 
d="M527 2077h817v-70h-817v70zM-50 0v96h1700v522q0 214 -159.5 349.5t-406.5 135.5h-921q0 188 32.5 330t88.5 232.5t140.5 146.5t180 78t216.5 22h526v-97h-525q-77 0 -138 -10t-121.5 -34.5t-106.5 -69t-84.5 -111.5t-63.5 -165t-37 -225h814q288 0 475.5 -163.5
t187.5 -418.5v-618h-1798z" />
    <glyph glyph-name="uniFB95" unicode="&#x6af;" horiz-adv-x="1864" arabic-form="medial" 
d="M1344 2077v-70h-817v70h817zM1748 96h166v-96h-1964v96h1700v522q0 214 -159.5 349.5t-406.5 135.5h-921q0 188 32.5 330t88.5 232.5t140.5 146.5t180 78t216.5 22h526v-97h-525q-77 0 -138 -10t-121.5 -34.5t-106.5 -69t-84.5 -111.5t-63.5 -165t-37 -225h814
q288 0 475.5 -163.5t187.5 -418.5v-522z" />
    <glyph glyph-name="uniFB9F" unicode="&#x6ba;" horiz-adv-x="1361" arabic-form="final" 
d="M1411 96v-96h-165q-48 -219 -200 -352t-364 -133q-255 0 -418.5 187.5t-163.5 475.5v1022h97v-1021q0 -247 135.5 -406.5t349.5 -159.5t349.5 159.5t135.5 406.5v1021h97v-1022q0 -46 -4 -82h151z" />
    <glyph glyph-name="uniFBA7" unicode="&#x6c1;" horiz-adv-x="1335" arabic-form="final" 
d="M1203 98h142v-98h-142q-64 0 -118.5 15t-91.5 36t-74.5 59t-59 67t-53.5 76q-28 42 -42.5 62.5t-39 50.5t-43 44t-44.5 25t-53 11q-34 0 -63 -7.5t-54.5 -26t-44.5 -36.5t-41 -50.5t-35.5 -55.5t-36.5 -65q-27 -49 -43 -76t-44.5 -64.5t-56.5 -61.5l-65 76q22 19 44 49
t37 54.5t40 70.5q70 125 101 168q112 152 264 150q27 0 52.5 -8t45.5 -17.5t43.5 -30.5t37 -34.5t35.5 -43t30.5 -42t31 -46t27.5 -41.5q29 -43 50.5 -71t50.5 -57t58.5 -45t68.5 -26.5t86 -10.5z" />
    <glyph glyph-name="uniFBA8" unicode="&#x6c1;" horiz-adv-x="463" arabic-form="initial" 
d="M-10 96h316l-2 1104h97l2 -1200h-413v96zM314 -53q17 0 29 -6t12 -16q-20 0 -47 -12.5t-58 -38.5t-52 -77t-21 -116q0 -48 22 -80q42 0 67 -23t25 -60q0 -38 -27 -65t-66 -27t-73 41t-34 128q0 82 22.5 151.5t56.5 111.5t72 65.5t72 23.5z" />
    <glyph glyph-name="uniFBA9" unicode="&#x6c1;" horiz-adv-x="1421" arabic-form="medial" 
d="M-50 0v98h142q64 0 118.5 -15t91.5 -36t74.5 -59t59 -67t53.5 -76q36 -54 53.5 -78t47.5 -57t58.5 -45.5t61.5 -12.5q27 0 53 11t44.5 25t43 44t39 50.5t42.5 62.5q32 47 53.5 76t59 67t74.5 59t91.5 36t118.5 15h142v-98h-142q-47 0 -86 -10.5t-68.5 -26.5t-58.5 -45
t-50.5 -57t-50.5 -71q-5 -8 -27.5 -41.5t-31 -46t-30.5 -42t-35.5 -43t-37 -34.5t-43.5 -30.5t-45.5 -17.5t-52.5 -8h-3q-27 0 -52.5 8t-45.5 17.5t-43.5 30.5t-37 34.5t-35.5 43t-30.5 42t-31 46t-27.5 41.5q-29 43 -50.5 71t-50.5 57t-58.5 45t-68.5 26.5t-86 10.5h-142z
" />
    <glyph glyph-name="uniFBAB" unicode="&#x6be;" horiz-adv-x="1348" arabic-form="final" 
d="M100 0v618q0 255 187.5 418.5t475.5 163.5h333v80h97v-1184h205v-96h-1298zM198 96h898v1007h-332q-247 0 -406.5 -135.5t-159.5 -349.5v-522z" />
    <glyph glyph-name="uniFBAC" unicode="&#x6be;" horiz-adv-x="1948" arabic-form="initial" 
d="M-50 0v96h378q-111 85 -174.5 213t-63.5 275q0 166 82 307.5t223.5 224.5t307.5 84h482q190 -2 341 -75.5t236.5 -206t85.5 -300.5v-618h-1898zM509 96h721l-4 488q-1 141 -69 260t-188 190t-266 74q-107 0 -204.5 -41.5t-168.5 -112t-113 -167.5t-42 -204
q0 -164 92.5 -296.5t241.5 -190.5zM1324 96h426v522q0 141 -73 251.5t-201.5 171.5t-291.5 62l-151 2q131 -84 209 -222t79 -299z" />
    <glyph glyph-name="uniFBAD" unicode="&#x6be;" horiz-adv-x="1965" arabic-form="medial" 
d="M1848 96h167v-96h-2065v96h378q-111 85 -174.5 213t-63.5 275q0 166 82 307.5t223.5 224.5t307.5 84h482q190 -2 341 -75.5t236.5 -206t85.5 -300.5v-522zM509 96h721l-4 488q-1 141 -69 260t-188 190t-266 74q-107 0 -204.5 -41.5t-168.5 -112t-113 -167.5t-42 -204
q0 -164 92.5 -296.5t241.5 -190.5zM1750 96v522q0 141 -73 251.5t-201.5 171.5t-291.5 62l-151 2q131 -84 209 -222t79 -299l3 -488h426z" />
    <glyph glyph-name="uniFBAF" unicode="&#x6d2;" horiz-adv-x="1748" arabic-form="final" 
d="M100 -85v181h1698v-96h-1600q0 -282 150.5 -426t415.5 -144h721v-97h-722q-193 0 -341.5 67t-235 200t-86.5 315zM742 -993q-32 0 -53.5 21.5t-21.5 53.5t21.5 53.5t53.5 21.5q31 0 53 -22t22 -53t-22 -53t-53 -22zM1047 -993q-31 0 -53 21.5t-22 53.5t22 53.5t53 21.5
t53 -22t22 -53t-22 -53t-53 -22z" />
    <glyph glyph-name="uniFBB1" unicode="&#x6d3;" horiz-adv-x="2465" arabic-form="final" 
d="M2386 97h129v-97h-236v398q-18 187 -66 325t-121 220t-163 121t-200 39h-366q-111 0 -201.5 -39.5t-163.5 -123t-120.5 -223t-65.5 -329.5h714q106 0 187.5 -21t133 -56.5t84 -86t44.5 -105.5t10 -119q2 -128 -70 -241t-191.5 -179.5t-251.5 -67.5h-831
q-158 1 -281.5 85.5t-191.5 235t-68 342.5v235h98v-234q0 -247 135 -406.5t349 -159.5h749q173 0 302.5 106t154.5 284q-5 51 -13 86t-31.5 77t-60.5 67.5t-102.5 43t-155.5 17.5h-821q0 235 48.5 412t137.5 284.5t207 160t265 52.5h368q131 0 233 -31.5t188 -109
t139.5 -201.5t79 -315.5t16.5 -445.5zM294 571v-93h-294v93h40q-12 60 27 106.5t104 46.5q42 0 77 -24t48 -62l-87 -35q-2 15 -13 24.5t-25 9.5q-17 0 -28 -11.5t-11 -28.5q0 -15 9 -26h153z" />
    <glyph glyph-name="uniFBFD" unicode="&#x6cc;" horiz-adv-x="1748" arabic-form="final" 
d="M100 -85v181h1698v-96h-1600q0 -282 150.5 -426t415.5 -144h721v-97h-722q-193 0 -341.5 67t-235 200t-86.5 315zM742 -993q-32 0 -53.5 21.5t-21.5 53.5t21.5 53.5t53.5 21.5q31 0 53 -22t22 -53t-22 -53t-53 -22zM1047 -993q-31 0 -53 21.5t-22 53.5t22 53.5t53 21.5
t53 -22t22 -53t-22 -53t-53 -22z" />
    <glyph glyph-name="uniFBFE" unicode="&#x6cc;" horiz-adv-x="701" arabic-form="initial" 
d="M228 96h316l-2 1104h97l2 -1200h-413v96zM227 96v-96h-277v96h277zM208 -301q-32 0 -53.5 21.5t-21.5 53.5t21.5 53.5t53.5 21.5q31 0 53 -22t22 -53t-22 -53t-53 -22zM513 -301q-31 0 -53 21.5t-22 53.5t22 53.5t53 21.5t53 -22t22 -53t-22 -53t-53 -22z" />
    <glyph glyph-name="uniFBFF" unicode="&#x6cc;" horiz-adv-x="910" arabic-form="medial" 
d="M960 96v-96h-990v95h277v1h316l-2 1104h97l2 -1104h300zM252 -220q31 0 53 -22t22 -53t-22 -53t-53 -22q-32 0 -53.5 22t-21.5 53t21.5 53t53.5 22zM557 -220q31 0 53 -22t22 -53t-22 -53t-53 -22t-53 22t-22 53t22 53t53 22z" />
    <glyph glyph-name="uniFE82" unicode="&#x622;" horiz-adv-x="743" arabic-form="final" 
d="M50 2111q23 96 81.5 149.5t140.5 53.5q49 0 92.5 -24t71 -53t64 -53t72.5 -24q47 0 83 37t52 104l86 -34q-25 -109 -91 -161t-149.5 -38.5t-161.5 85.5q-26 24 -39 34.5t-35.5 21t-45.5 10.5q-47 0 -83 -37t-53 -104zM786 96v-96h-413v1912h97v-1816h316z" />
    <glyph glyph-name="uniFE84" unicode="&#x623;" horiz-adv-x="512" arabic-form="final" 
d="M191 2076h153v-93h-294v93h40q-12 60 27 106.5t104 46.5q42 0 77 -24t48 -62l-87 -35q-2 15 -13 24.5t-25 9.5q-17 0 -28 -11.5t-11 -28.5q0 -16 9 -26zM562 96v-96h-413v1912h97v-1816h316z" />
    <glyph glyph-name="uniFE86" unicode="&#x624;" horiz-adv-x="1461" arabic-form="final" 
d="M880 1395v-93h-294v93h40q-12 60 27 106.5t104 46.5q42 0 77 -24t48 -62l-87 -35q-2 15 -13 24.5t-25 9.5q-17 0 -28 -11.5t-11 -28.5q0 -15 9 -26h153zM1511 96v-96h-165q-48 -219 -200 -352t-364 -133h-280v98h280q172 0 295.5 105.5t168.5 281.5h-712
q-194 61 -314 225.5t-120 374.5q0 171 85 316.5t230.5 230.5t317.5 85q165 0 307 -80t228.5 -217t95.5 -301v-456q0 -46 -4 -82h151zM1263 96l3 504q-1 146 -73 270t-195 196t-269 72q-109 0 -209.5 -43t-173.5 -115t-116 -172t-43 -209q0 -170 96.5 -307t251.5 -196h728z
" />
    <glyph glyph-name="uniFE88" unicode="&#x625;" horiz-adv-x="512" arabic-form="final" 
d="M562 96v-96h-413v1912h97v-1816h316zM191 -203h153v-93h-294v93h40q-12 60 27 106.5t104 46.5q42 0 77 -24t48 -62l-87 -35q-2 15 -13 24.5t-25 9.5q-17 0 -28 -11.5t-11 -28.5q0 -15 9 -26z" />
    <glyph glyph-name="uniFE8A" unicode="&#x626;" horiz-adv-x="2465" arabic-form="final" 
d="M2386 97h129v-97h-236v398q-18 187 -66 325t-121 220t-163 121t-200 39h-366q-111 0 -201.5 -39.5t-163.5 -123t-120.5 -223t-65.5 -329.5h714q106 0 187.5 -21t133 -56.5t84 -86t44.5 -105.5t10 -119q2 -128 -70 -241t-191.5 -179.5t-251.5 -67.5h-831
q-158 1 -281.5 85.5t-191.5 235t-68 342.5v235h98v-234q0 -247 135 -406.5t349 -159.5h749q173 0 302.5 106t154.5 284q-5 51 -13 86t-31.5 77t-60.5 67.5t-102.5 43t-155.5 17.5h-821q0 235 48.5 412t137.5 284.5t207 160t265 52.5h368q131 0 233 -31.5t188 -109
t139.5 -201.5t79 -315.5t16.5 -445.5zM294 571v-93h-294v93h40q-12 60 27 106.5t104 46.5q42 0 77 -24t48 -62l-87 -35q-2 15 -13 24.5t-25 9.5q-17 0 -28 -11.5t-11 -28.5q0 -15 9 -26h153z" />
    <glyph glyph-name="uniFE8B" unicode="&#x626;" horiz-adv-x="601" arabic-form="initial" 
d="M346 1363h153v-93h-294v93h40q-12 60 27 106.5t104 46.5q42 0 77 -24t48 -62l-87 -35q-2 15 -13 24.5t-25 9.5q-17 0 -28 -11.5t-11 -28.5q0 -15 9 -26zM-10 96h316l-2 1104h97l2 -1200h-413v96z" />
    <glyph glyph-name="uniFE8C" unicode="&#x626;" horiz-adv-x="693" arabic-form="medial" 
d="M499 1363v-93h-294v93h40q-12 60 27 106.5t104 46.5q42 0 77 -24t48 -62l-87 -35q-2 15 -13 24.5t-25 9.5q-17 0 -28 -11.5t-11 -28.5q0 -15 9 -26h153zM703 96v-96h-713v96h316l-2 1104h97l2 -1104h300z" />
    <glyph glyph-name="uniFE8E" unicode="&#x627;" horiz-adv-x="463" arabic-form="final" 
d="M513 96v-96h-413v1912h97v-1816h316z" />
    <glyph glyph-name="uniFE90" unicode="&#x628;" horiz-adv-x="2134" arabic-form="final" 
d="M2017 96h167v-96h-1650q-194 61 -314 225.5t-120 374.5q0 128 50 244.5t134.5 201.5t201.5 135.5t246 50.5v-94q-146 0 -270 -72.5t-196 -196t-72 -269.5q0 -171 97.5 -308.5t253.5 -195.5h1375l1 1104h97zM1188 -150q31 0 53 -22t22 -53t-22 -53t-53 -22q-32 0 -53.5 22
t-21.5 53t21.5 53t53.5 22z" />
    <glyph glyph-name="uniFE91" unicode="&#x628;" horiz-adv-x="503" arabic-form="initial" 
d="M-10 96h316l-2 1104h97l2 -1200h-413v96zM320 -300q-32 0 -53.5 22t-21.5 53t21.5 53t53.5 22q31 0 53 -22t22 -53t-22 -53t-53 -22z" />
    <glyph glyph-name="uniFE92" unicode="&#x628;" horiz-adv-x="693" arabic-form="medial" 
d="M703 96v-96h-713v96h316l-2 1104h97l2 -1104h300zM320 -150q31 0 53 -22t22 -53t-22 -53t-53 -22q-32 0 -53.5 22t-21.5 53t21.5 53t53.5 22z" />
    <glyph glyph-name="uniFE94" unicode="&#x629;" horiz-adv-x="1348" arabic-form="final" 
d="M511 1428q-31 0 -53 22t-22 53t22 53t53 22t53 -22t22 -53t-22 -53t-53 -22zM816 1428q-32 0 -53.5 22t-21.5 53t21.5 53t53.5 22q31 0 53 -22t22 -53t-22 -53t-53 -22zM100 0v618q0 255 187.5 418.5t475.5 163.5h333v80h97v-1184h205v-96h-1298zM198 96h898v1007h-332
q-247 0 -406.5 -135.5t-159.5 -349.5v-522z" />
    <glyph glyph-name="uniFE96" unicode="&#x62a;" horiz-adv-x="2134" arabic-form="final" 
d="M1147 1428q-31 0 -53 22t-22 53t22 53t53 22t53 -22t22 -53t-22 -53t-53 -22zM1452 1428q-32 0 -53.5 22t-21.5 53t21.5 53t53.5 22q31 0 53 -22t22 -53t-22 -53t-53 -22zM2017 96h167v-96h-1650q-194 61 -314 225.5t-120 374.5q0 128 50 244.5t134.5 201.5t201.5 135.5
t246 50.5v-94q-146 0 -270 -72.5t-196 -196t-72 -269.5q0 -171 97.5 -308.5t253.5 -195.5h1375l1 1104h97z" />
    <glyph glyph-name="uniFE97" unicode="&#x62a;" horiz-adv-x="681" arabic-form="initial" 
d="M201 1428q-31 0 -53 22t-22 53t22 53t53 22t53 -22t22 -53t-22 -53t-53 -22zM506 1428q-32 0 -53.5 22t-21.5 53t21.5 53t53.5 22q31 0 53 -22t22 -53t-22 -53t-53 -22zM-10 96h316l-2 1104h97l2 -1200h-413v96z" />
    <glyph glyph-name="uniFE98" unicode="&#x62a;" horiz-adv-x="693" arabic-form="medial" 
d="M201 1428q-31 0 -53 22t-22 53t22 53t53 22t53 -22t22 -53t-22 -53t-53 -22zM506 1428q-32 0 -53.5 22t-21.5 53t21.5 53t53.5 22q31 0 53 -22t22 -53t-22 -53t-53 -22zM703 96v-96h-713v96h316l-2 1104h97l2 -1104h300z" />
    <glyph glyph-name="uniFE9A" unicode="&#x62b;" horiz-adv-x="2134" arabic-form="final" 
d="M1300 1737q-32 0 -53.5 21.5t-21.5 53.5t21.5 53.5t53.5 21.5q31 0 53 -22t22 -53t-22 -53t-53 -22zM1147 1428q-31 0 -53 22t-22 53t22 53t53 22t53 -22t22 -53t-22 -53t-53 -22zM1452 1428q-32 0 -53.5 22t-21.5 53t21.5 53t53.5 22q31 0 53 -22t22 -53t-22 -53
t-53 -22zM2017 96h167v-96h-1650q-194 61 -314 225.5t-120 374.5q0 128 50 244.5t134.5 201.5t201.5 135.5t246 50.5v-94q-146 0 -270 -72.5t-196 -196t-72 -269.5q0 -171 97.5 -308.5t253.5 -195.5h1375l1 1104h97z" />
    <glyph glyph-name="uniFE9B" unicode="&#x62b;" horiz-adv-x="681" arabic-form="initial" 
d="M354 1737q-32 0 -53.5 21.5t-21.5 53.5t21.5 53.5t53.5 21.5q31 0 53 -22t22 -53t-22 -53t-53 -22zM201 1428q-31 0 -53 22t-22 53t22 53t53 22t53 -22t22 -53t-22 -53t-53 -22zM506 1428q-32 0 -53.5 22t-21.5 53t21.5 53t53.5 22q31 0 53 -22t22 -53t-22 -53t-53 -22z
M-10 96h316l-2 1104h97l2 -1200h-413v96z" />
    <glyph glyph-name="uniFE9C" unicode="&#x62b;" horiz-adv-x="693" arabic-form="medial" 
d="M354 1737q-32 0 -53.5 21.5t-21.5 53.5t21.5 53.5t53.5 21.5q31 0 53 -22t22 -53t-22 -53t-53 -22zM201 1428q-31 0 -53 22t-22 53t22 53t53 22t53 -22t22 -53t-22 -53t-53 -22zM506 1428q-32 0 -53.5 22t-21.5 53t21.5 53t53.5 22q31 0 53 -22t22 -53t-22 -53t-53 -22z
M703 96v-96h-713v96h316l-2 1104h97l2 -1104h300z" />
    <glyph glyph-name="uniFE9E" unicode="&#x62c;" horiz-adv-x="1802" arabic-form="final" 
d="M1685 96h167v-96h-1654q1 -290 149.5 -431t416.5 -141h399v-97h-400q-142 0 -265 43t-210 119.5t-137.5 185t-50.5 234.5v183h1487v522q0 214 -159.5 349.5t-406.5 135.5h-921v97h922q288 0 475.5 -163.5t187.5 -418.5v-522zM1485 -526q31 0 53 -22t22 -53t-22 -53
t-53 -22t-53 22t-22 53t22 53t53 22z" />
    <glyph glyph-name="uniFE9F" unicode="&#x62c;" horiz-adv-x="1948" arabic-form="initial" 
d="M-50 0v96h1800v522q0 214 -159.5 349.5t-406.5 135.5h-921v97h922q288 0 475.5 -163.5t187.5 -418.5v-618h-1898zM922 -300q-32 0 -53.5 22t-21.5 53t21.5 53t53.5 22q31 0 53 -22t22 -53t-22 -53t-53 -22z" />
    <glyph glyph-name="uniFEA0" unicode="&#x62c;" horiz-adv-x="1965" arabic-form="medial" 
d="M1848 96h167v-96h-2065v96h1800v522q0 214 -159.5 349.5t-406.5 135.5h-921v97h922q288 0 475.5 -163.5t187.5 -418.5v-522zM922 -150q31 0 53 -22t22 -53t-22 -53t-53 -22q-32 0 -53.5 22t-21.5 53t21.5 53t53.5 22z" />
    <glyph glyph-name="uniFEA2" unicode="&#x62d;" horiz-adv-x="1802" arabic-form="final" 
d="M1685 96h167v-96h-1654q1 -290 149.5 -431t416.5 -141h399v-97h-400q-142 0 -265 43t-210 119.5t-137.5 185t-50.5 234.5v183h1487v522q0 214 -159.5 349.5t-406.5 135.5h-921v97h922q288 0 475.5 -163.5t187.5 -418.5v-522z" />
    <glyph glyph-name="uniFEA3" unicode="&#x62d;" horiz-adv-x="1948" arabic-form="initial" 
d="M-50 0v96h1800v522q0 214 -159.5 349.5t-406.5 135.5h-921v97h922q288 0 475.5 -163.5t187.5 -418.5v-618h-1898z" />
    <glyph glyph-name="uniFEA4" unicode="&#x62d;" horiz-adv-x="1965" arabic-form="medial" 
d="M1848 96h167v-96h-2065v96h1800v522q0 214 -159.5 349.5t-406.5 135.5h-921v97h922q288 0 475.5 -163.5t187.5 -418.5v-522z" />
    <glyph glyph-name="uniFEA6" unicode="&#x62e;" horiz-adv-x="1802" arabic-form="final" 
d="M1022 1428q-32 0 -53.5 22t-21.5 53t21.5 53t53.5 22q31 0 53 -22t22 -53t-22 -53t-53 -22zM1685 96h167v-96h-1654q1 -290 149.5 -431t416.5 -141h399v-97h-400q-142 0 -265 43t-210 119.5t-137.5 185t-50.5 234.5v183h1487v522q0 214 -159.5 349.5t-406.5 135.5h-921
v97h922q288 0 475.5 -163.5t187.5 -418.5v-522z" />
    <glyph glyph-name="uniFEA7" unicode="&#x62e;" horiz-adv-x="1948" arabic-form="initial" 
d="M924 1428q-32 0 -53.5 22t-21.5 53t21.5 53t53.5 22q31 0 53 -22t22 -53t-22 -53t-53 -22zM-50 0v96h1800v522q0 214 -159.5 349.5t-406.5 135.5h-921v97h922q288 0 475.5 -163.5t187.5 -418.5v-618h-1898z" />
    <glyph glyph-name="uniFEA8" unicode="&#x62e;" horiz-adv-x="1965" arabic-form="medial" 
d="M924 1428q-32 0 -53.5 22t-21.5 53t21.5 53t53.5 22q31 0 53 -22t22 -53t-22 -53t-53 -22zM1848 96h167v-96h-2065v96h1800v522q0 214 -159.5 349.5t-406.5 135.5h-921v97h922q288 0 475.5 -163.5t187.5 -418.5v-522z" />
    <glyph glyph-name="uniFEAA" unicode="&#x62f;" horiz-adv-x="1516" arabic-form="final" 
d="M1566 96v-96h-1466l1 96h831q155 59 251.5 196t96.5 307q0 109 -43 209t-116 172t-173.5 115t-209.5 43q-173 0 -311 -99.5t-194 -258.5l-91 37q68 184 229.5 299.5t362.5 115.5q172 0 317.5 -85t230.5 -230.5t85 -316.5q0 -153 -66 -284.5t-182 -219.5h447z" />
    <glyph glyph-name="uniFEAC" unicode="&#x630;" horiz-adv-x="1516" arabic-form="final" 
d="M736 1460q-32 0 -53.5 22t-21.5 53t21.5 53t53.5 22q31 0 53 -22t22 -53t-22 -53t-53 -22zM1566 96v-96h-1466l1 96h831q155 59 251.5 196t96.5 307q0 109 -43 209t-116 172t-173.5 115t-209.5 43q-173 0 -311 -99.5t-194 -258.5l-91 37q68 184 229.5 299.5t362.5 115.5
q172 0 317.5 -85t230.5 -230.5t85 -316.5q0 -153 -66 -284.5t-182 -219.5h447z" />
    <glyph glyph-name="uniFEAE" unicode="&#x631;" horiz-adv-x="1054" arabic-form="final" 
d="M1104 96v-96h-163q-48 -219 -200 -352t-364 -133h-277v99h277q214 -1 349.5 158.5t135.5 406.5v1021h97v-1022q0 -46 -4 -82h149z" />
    <glyph glyph-name="uniFEB0" unicode="&#x632;" horiz-adv-x="1054" arabic-form="final" 
d="M913 1428q-31 0 -53 22t-22 53t22 53t53 22t53 -22t22 -53t-22 -53t-53 -22zM1104 96v-96h-163q-48 -219 -200 -352t-364 -133h-277v99h277q214 -1 349.5 158.5t135.5 406.5v1021h97v-1022q0 -46 -4 -82h149z" />
    <glyph glyph-name="uniFEB2" unicode="&#x633;" horiz-adv-x="2583" arabic-form="final" 
d="M2468 96h165v-96h-1387q-48 -219 -200 -352t-364 -133q-255 0 -418.5 187.5t-163.5 475.5v362h97v-361q0 -247 135.5 -406.5t349.5 -159.5t349.5 159.5t135.5 406.5v1021h97l-4 -1104h499l-2 904h97l2 -904h515l-2 1104h97z" />
    <glyph glyph-name="uniFEB3" unicode="&#x633;" horiz-adv-x="1645" arabic-form="initial" 
d="M-50 0v96h294v1104h97l-4 -1104h499l-2 904h97l2 -904h515l-2 1104h97l2 -1200h-1595z" />
    <glyph glyph-name="uniFEB4" unicode="&#x633;" horiz-adv-x="1661" arabic-form="medial" 
d="M1545 96h166v-96h-1761v96h294v1104h97l-4 -1104h499l-2 904h97l2 -904h515l-2 1104h97z" />
    <glyph glyph-name="uniFEB6" unicode="&#x634;" horiz-adv-x="2583" arabic-form="final" 
d="M1805 1737q-31 0 -53 21.5t-22 53.5t22 53.5t53 21.5t53 -22t22 -53t-22 -53t-53 -22zM1652 1428q-32 0 -53.5 22t-21.5 53t21.5 53t53.5 22q31 0 53 -22t22 -53t-22 -53t-53 -22zM1957 1428q-31 0 -53 22t-22 53t22 53t53 22t53 -22t22 -53t-22 -53t-53 -22zM2468 96
h165v-96h-1387q-48 -219 -200 -352t-364 -133q-255 0 -418.5 187.5t-163.5 475.5v362h97v-361q0 -247 135.5 -406.5t349.5 -159.5t349.5 159.5t135.5 406.5v1021h97l-4 -1104h499l-2 904h97l2 -904h515l-2 1104h97z" />
    <glyph glyph-name="uniFEB7" unicode="&#x634;" horiz-adv-x="1645" arabic-form="initial" 
d="M886 1737q-32 0 -53.5 21.5t-21.5 53.5t21.5 53.5t53.5 21.5q31 0 53 -22t22 -53t-22 -53t-53 -22zM733 1428q-31 0 -53 22t-22 53t22 53t53 22t53 -22t22 -53t-22 -53t-53 -22zM1038 1428q-32 0 -53.5 22t-21.5 53t21.5 53t53.5 22q31 0 53 -22t22 -53t-22 -53t-53 -22z
M-50 0v96h294v1104h97l-4 -1104h499l-2 904h97l2 -904h515l-2 1104h97l2 -1200h-1595z" />
    <glyph glyph-name="uniFEB8" unicode="&#x634;" horiz-adv-x="1661" arabic-form="medial" 
d="M886 1737q-32 0 -53.5 21.5t-21.5 53.5t21.5 53.5t53.5 21.5q31 0 53 -22t22 -53t-22 -53t-53 -22zM733 1428q-31 0 -53 22t-22 53t22 53t53 22t53 -22t22 -53t-22 -53t-53 -22zM1038 1428q-32 0 -53.5 22t-21.5 53t21.5 53t53.5 22q31 0 53 -22t22 -53t-22 -53t-53 -22z
M1545 96h166v-96h-1761v96h294v1104h97l-4 -1104h499l-2 904h97l2 -904h515l-2 1104h97z" />
    <glyph glyph-name="uniFEBA" unicode="&#x635;" horiz-adv-x="2681" arabic-form="final" 
d="M2564 96h166v-96h-1484q-48 -219 -200 -352t-364 -133q-255 0 -418.5 187.5t-163.5 475.5v362h97v-361q0 -247 135.5 -406.5t349.5 -159.5t349.5 159.5t135.5 406.5v1111h96v-90h638q288 0 475.5 -163.5t187.5 -418.5v-522zM2466 96v522q0 214 -159.5 349.5t-406.5 135.5
h-636l-4 -1007h1206z" />
    <glyph glyph-name="uniFEBB" unicode="&#x635;" horiz-adv-x="1848" arabic-form="initial" 
d="M-50 0v96h405v1209h97v-105h633q288 0 475.5 -163.5t187.5 -418.5v-618h-1798zM452 96h1198v522q0 214 -159.5 349.5t-406.5 135.5h-632v-1007z" />
    <glyph glyph-name="uniFEBC" unicode="&#x635;" horiz-adv-x="1864" arabic-form="medial" 
d="M1748 96h166v-96h-1964v96h405v1209h97v-105h633q288 0 475.5 -163.5t187.5 -418.5v-522zM1650 96v522q0 214 -159.5 349.5t-406.5 135.5h-632v-1007h1198z" />
    <glyph glyph-name="uniFEBE" unicode="&#x636;" horiz-adv-x="2681" arabic-form="final" 
d="M1944 1429q-32 0 -53.5 21.5t-21.5 53.5t21.5 53.5t53.5 21.5q31 0 53 -22t22 -53t-22 -53t-53 -22zM2564 96h166v-96h-1484q-48 -219 -200 -352t-364 -133q-255 0 -418.5 187.5t-163.5 475.5v362h97v-361q0 -247 135.5 -406.5t349.5 -159.5t349.5 159.5t135.5 406.5
v1111h96v-90h638q288 0 475.5 -163.5t187.5 -418.5v-522zM2466 96v522q0 214 -159.5 349.5t-406.5 135.5h-636l-4 -1007h1206z" />
    <glyph glyph-name="uniFEBF" unicode="&#x636;" horiz-adv-x="1848" arabic-form="initial" 
d="M1081 1428q-31 0 -53 22t-22 53t22 53t53 22t53 -22t22 -53t-22 -53t-53 -22zM-50 0v96h405v1209h97v-105h633q288 0 475.5 -163.5t187.5 -418.5v-618h-1798zM452 96h1198v522q0 214 -159.5 349.5t-406.5 135.5h-632v-1007z" />
    <glyph glyph-name="uniFEC0" unicode="&#x636;" horiz-adv-x="1864" arabic-form="medial" 
d="M1081 1428q-31 0 -53 22t-22 53t22 53t53 22t53 -22t22 -53t-22 -53t-53 -22zM1748 96h166v-96h-1964v96h405v1209h97v-105h633q288 0 475.5 -163.5t187.5 -418.5v-522zM1650 96v522q0 214 -159.5 349.5t-406.5 135.5h-632v-1007h1198z" />
    <glyph glyph-name="uniFEC2" unicode="&#x637;" horiz-adv-x="1815" arabic-form="final" 
d="M1698 96h166v-96h-1764v96h205v1816h97v-712h633q288 0 475.5 -163.5t187.5 -418.5v-522zM1600 96v522q0 214 -159.5 349.5t-406.5 135.5h-632v-1007h1198z" />
    <glyph glyph-name="uniFEC3" unicode="&#x637;" horiz-adv-x="1848" arabic-form="initial" 
d="M-50 0v96h405v1816h97v-712h633q288 0 475.5 -163.5t187.5 -418.5v-618h-1798zM452 96h1198v522q0 214 -159.5 349.5t-406.5 135.5h-632v-1007z" />
    <glyph glyph-name="uniFEC4" unicode="&#x637;" horiz-adv-x="1865" arabic-form="medial" 
d="M1748 96h167v-96h-1965v96h405v1816h97v-712h633q288 0 475.5 -163.5t187.5 -418.5v-522zM1650 96v522q0 214 -159.5 349.5t-406.5 135.5h-632v-1007h1198z" />
    <glyph glyph-name="uniFEC6" unicode="&#x638;" horiz-adv-x="1815" arabic-form="final" 
d="M1698 96h166v-96h-1764v96h205v1816h97v-712h633q288 0 475.5 -163.5t187.5 -418.5v-522zM1034 1428q-32 0 -53.5 22t-21.5 53t21.5 53t53.5 22q31 0 53 -22t22 -53t-22 -53t-53 -22zM1600 96v522q0 214 -159.5 349.5t-406.5 135.5h-632v-1007h1198z" />
    <glyph glyph-name="uniFEC7" unicode="&#x638;" horiz-adv-x="1848" arabic-form="initial" 
d="M-50 0v96h405v1816h97v-712h633q288 0 475.5 -163.5t187.5 -418.5v-618h-1798zM991 1428q-31 0 -53 22t-22 53t22 53t53 22t53 -22t22 -53t-22 -53t-53 -22zM452 96h1198v522q0 214 -159.5 349.5t-406.5 135.5h-632v-1007z" />
    <glyph glyph-name="uniFEC8" unicode="&#x638;" horiz-adv-x="1865" arabic-form="medial" 
d="M1748 96h167v-96h-1965v96h405v1816h97v-712h633q288 0 475.5 -163.5t187.5 -418.5v-522zM991 1428q-31 0 -53 22t-22 53t22 53t53 22t53 -22t22 -53t-22 -53t-53 -22zM1650 96v522q0 214 -159.5 349.5t-406.5 135.5h-632v-1007h1198z" />
    <glyph glyph-name="uniFECA" unicode="&#x639;" horiz-adv-x="1727" arabic-form="final" 
d="M1777 96v-96h-1578q1 -290 149.5 -431t416.5 -141h399v-97h-400q-142 0 -265 43t-210 119.5t-137.5 185t-50.5 234.5l-1 183h555q-81 61 -136.5 144.5t-81.5 174t-25.5 187.5t26 187t78.5 171.5t126.5 141.5t176 95t221.5 35q223 0 370.5 -106t199.5 -310l-99 -43
q-29 189 -148.5 277t-326.5 88q-109 0 -209.5 -43t-173.5 -115t-116 -172t-43 -209q0 -170 96.5 -307t251.5 -196h935z" />
    <glyph glyph-name="uniFECB" unicode="&#x639;" horiz-adv-x="1560" arabic-form="initial" 
d="M-50 0v96h555q-81 61 -136.5 144.5t-81.5 174t-25.5 187.5t26 187t78.5 171.5t126.5 141.5t176 95t221.5 35q223 0 370.5 -106t199.5 -310l-99 -43q-29 189 -148.5 277t-326.5 88q-109 0 -209.5 -43t-173.5 -115t-116 -172t-43 -209q0 -170 96.5 -307t251.5 -196h768v-96
h-1510z" />
    <glyph glyph-name="uniFECC" unicode="&#x639;" horiz-adv-x="1577" arabic-form="medial" 
d="M1627 96v-96h-1677v96h555q-81 61 -136.5 144.5t-81.5 174t-25.5 187.5t26 187t78.5 171.5t126.5 141.5t176 95t221.5 35q223 0 370.5 -106t199.5 -310l-99 -43q-29 189 -148.5 277t-326.5 88q-109 0 -209.5 -43t-173.5 -115t-116 -172t-43 -209q0 -170 96.5 -307
t251.5 -196h935z" />
    <glyph glyph-name="uniFECE" unicode="&#x63a;" horiz-adv-x="1727" arabic-form="final" 
d="M1040 1460q-32 0 -53.5 22t-21.5 53t21.5 53t53.5 22q31 0 53 -22t22 -53t-22 -53t-53 -22zM1777 96v-96h-1578q1 -290 149.5 -431t416.5 -141h399v-97h-400q-142 0 -265 43t-210 119.5t-137.5 185t-50.5 234.5l-1 183h555q-81 61 -136.5 144.5t-81.5 174t-25.5 187.5
t26 187t78.5 171.5t126.5 141.5t176 95t221.5 35q223 0 370.5 -106t199.5 -310l-99 -43q-29 189 -148.5 277t-326.5 88q-109 0 -209.5 -43t-173.5 -115t-116 -172t-43 -209q0 -170 96.5 -307t251.5 -196h935z" />
    <glyph glyph-name="uniFECF" unicode="&#x63a;" horiz-adv-x="1560" arabic-form="initial" 
d="M890 1460q-32 0 -53.5 22t-21.5 53t21.5 53t53.5 22q31 0 53 -22t22 -53t-22 -53t-53 -22zM-50 0v96h555q-81 61 -136.5 144.5t-81.5 174t-25.5 187.5t26 187t78.5 171.5t126.5 141.5t176 95t221.5 35q223 0 370.5 -106t199.5 -310l-99 -43q-29 189 -148.5 277t-326.5 88
q-109 0 -209.5 -43t-173.5 -115t-116 -172t-43 -209q0 -170 96.5 -307t251.5 -196h768v-96h-1510z" />
    <glyph glyph-name="uniFED0" unicode="&#x63a;" horiz-adv-x="1577" arabic-form="medial" 
d="M890 1460q-32 0 -53.5 22t-21.5 53t21.5 53t53.5 22q31 0 53 -22t22 -53t-22 -53t-53 -22zM1627 96v-96h-1677v96h555q-81 61 -136.5 144.5t-81.5 174t-25.5 187.5t26 187t78.5 171.5t126.5 141.5t176 95t221.5 35q223 0 370.5 -106t199.5 -310l-99 -43
q-29 189 -148.5 277t-326.5 88q-109 0 -209.5 -43t-173.5 -115t-116 -172t-43 -209q0 -170 96.5 -307t251.5 -196h935z" />
    <glyph glyph-name="uniFED2" unicode="&#x641;" horiz-adv-x="2673" arabic-form="final" 
d="M1973 1460q-31 0 -53 22t-22 53t22 53t53 22t53 -22t22 -53t-22 -53t-53 -22zM2607 96h116v-96h-2189q-194 61 -314 225.5t-120 374.5q0 128 50 244.5t134.5 201.5t201.5 135.5t246 50.5v-94q-146 0 -270 -72.5t-196 -196t-72 -269.5q0 -171 97.5 -308.5t253.5 -195.5
h1043q-81 61 -136.5 144.5t-81.5 174t-25.5 187.5t26 187t78.5 171.5t126.5 141.5t176 95t221.5 35q171 0 316 -85t229.5 -230.5t85.5 -316.5zM1775 96h735l-4 504q-1 146 -73 270t-195 196t-269 72q-109 0 -209.5 -43t-173.5 -115t-116 -172t-43 -209q0 -170 96.5 -307
t251.5 -196z" />
    <glyph glyph-name="uniFED3" unicode="&#x641;" horiz-adv-x="1624" arabic-form="initial" 
d="M890 1460q-32 0 -53.5 22t-21.5 53t21.5 53t53.5 22q31 0 53 -22t22 -53t-22 -53t-53 -22zM-50 0v96h555q-81 61 -136.5 144.5t-81.5 174t-25.5 187.5t26 187t78.5 171.5t126.5 141.5t176 95t221.5 35q128 0 244.5 -50t201.5 -135t135 -202t50 -245l3 -600h-1574z
M344 599q0 -170 96.5 -307t251.5 -196h735l-4 504q0 146 -72 270t-195.5 196t-269.5 72q-109 0 -209.5 -43t-173.5 -115t-116 -172t-43 -209z" />
    <glyph glyph-name="uniFED4" unicode="&#x641;" horiz-adv-x="1640" arabic-form="medial" 
d="M890 1460q-32 0 -53.5 22t-21.5 53t21.5 53t53.5 22q31 0 53 -22t22 -53t-22 -53t-53 -22zM1524 96h166v-96h-1740v96h555q-81 61 -136.5 144.5t-81.5 174t-25.5 187.5t26 187t78.5 171.5t126.5 141.5t176 95t221.5 35q128 0 244.5 -50t201.5 -135t135 -202t50 -245z
M692 96h735l-4 504q0 146 -72 270t-195.5 196t-269.5 72q-109 0 -209.5 -43t-173.5 -115t-116 -172t-43 -209q0 -170 96.5 -307t251.5 -196z" />
    <glyph glyph-name="uniFED6" unicode="&#x642;" horiz-adv-x="2200" arabic-form="final" 
d="M1319 1460q-31 0 -53 22t-22 53t22 53t53 22t53 -22t22 -53t-22 -53t-53 -22zM1624 1460q-32 0 -53.5 22t-21.5 53t21.5 53t53.5 22q31 0 53 -22t22 -53t-22 -53t-53 -22zM2250 96v-96h-165q-48 -219 -200 -352t-364 -133h-880q-158 11 -281.5 99t-191.5 235t-68 329v135
h97v-134q0 -247 135.5 -406.5t349.5 -159.5h839q172 0 295.5 105.5t168.5 281.5h-712q-194 61 -314 225.5t-120 374.5q0 171 85 316.5t230.5 230.5t317.5 85q165 0 307 -80t228.5 -217t95.5 -301v-456q0 -46 -4 -82h151zM2005 600q1 146 -71 270t-196 196t-270 72
q-109 0 -209.5 -43t-173.5 -115t-116 -172t-43 -209q0 -170 96.5 -307t251.5 -196h728z" />
    <glyph glyph-name="uniFED7" unicode="&#x642;" horiz-adv-x="1624" arabic-form="initial" 
d="M737 1460q-31 0 -53 22t-22 53t22 53t53 22t53 -22t22 -53t-22 -53t-53 -22zM1042 1460q-32 0 -53.5 22t-21.5 53t21.5 53t53.5 22q31 0 53 -22t22 -53t-22 -53t-53 -22zM-50 0v96h555q-81 61 -136.5 144.5t-81.5 174t-25.5 187.5t26 187t78.5 171.5t126.5 141.5t176 95
t221.5 35q128 0 244.5 -50t201.5 -135t135 -202t50 -245l3 -600h-1574zM344 599q0 -170 96.5 -307t251.5 -196h735l-4 504q0 146 -72 270t-195.5 196t-269.5 72q-109 0 -209.5 -43t-173.5 -115t-116 -172t-43 -209z" />
    <glyph glyph-name="uniFED8" unicode="&#x642;" horiz-adv-x="1640" arabic-form="medial" 
d="M737 1460q-31 0 -53 22t-22 53t22 53t53 22t53 -22t22 -53t-22 -53t-53 -22zM1042 1460q-32 0 -53.5 22t-21.5 53t21.5 53t53.5 22q31 0 53 -22t22 -53t-22 -53t-53 -22zM1524 96h166v-96h-1740v96h555q-81 61 -136.5 144.5t-81.5 174t-25.5 187.5t26 187t78.5 171.5
t126.5 141.5t176 95t221.5 35q128 0 244.5 -50t201.5 -135t135 -202t50 -245zM692 96h735l-4 504q0 146 -72 270t-195.5 196t-269.5 72q-109 0 -209.5 -43t-173.5 -115t-116 -172t-43 -209q0 -170 96.5 -307t251.5 -196z" />
    <glyph glyph-name="uniFEDA" unicode="&#x643;" horiz-adv-x="2133" arabic-form="final" 
d="M2017 96h166v-96h-1649q-194 61 -314 225.5t-120 374.5q0 128 50 244.5t134.5 201.5t201.5 135.5t246 50.5v-94q-146 0 -270 -72.5t-196 -196t-72 -269.5q0 -171 97.5 -308.5t253.5 -195.5h1375l1 1816h97zM1527 1348v-198h-580v77h502v121q0 49 -36.5 79.5t-95.5 30.5
h-280q-10 88 45.5 140t160.5 52h172v-77h-172q-85 0 -114 -38h188q91 0 150.5 -53t59.5 -134z" />
    <glyph glyph-name="uniFEDB" unicode="&#x643;" horiz-adv-x="1848" arabic-form="initial" 
d="M-50 0v96h1700v522q0 214 -159.5 349.5t-406.5 135.5h-921q0 188 32.5 330t88.5 232.5t140.5 146.5t180 78t216.5 22h526v-97h-525q-77 0 -138 -10t-121.5 -34.5t-106.5 -69t-84.5 -111.5t-63.5 -165t-37 -225h814q288 0 475.5 -163.5t187.5 -418.5v-618h-1798z" />
    <glyph glyph-name="uniFEDC" unicode="&#x643;" horiz-adv-x="1864" arabic-form="medial" 
d="M1748 96h166v-96h-1964v96h1700v522q0 214 -159.5 349.5t-406.5 135.5h-921q0 188 32.5 330t88.5 232.5t140.5 146.5t180 78t216.5 22h526v-97h-525q-77 0 -138 -10t-121.5 -34.5t-106.5 -69t-84.5 -111.5t-63.5 -165t-37 -225h814q288 0 475.5 -163.5t187.5 -418.5v-522
z" />
    <glyph glyph-name="uniFEDE" unicode="&#x644;" horiz-adv-x="1359" arabic-form="final" 
d="M1409 96v-96h-163q-48 -219 -200 -352t-364 -133q-255 0 -418.5 187.5t-163.5 475.5v361h97v-360q0 -247 135.5 -406.5t349.5 -159.5t349.5 159.5t135.5 406.5v1733h97v-1734q0 -46 -4 -82h149z" />
    <glyph glyph-name="uniFEDF" unicode="&#x644;" horiz-adv-x="463" arabic-form="initial" 
d="M-50 96h316v1816h97v-1912h-413v96z" />
    <glyph glyph-name="uniFEE0" unicode="&#x644;" horiz-adv-x="480" arabic-form="medial" 
d="M363 96h167v-96h-580v96h316v1816h97v-1816z" />
    <glyph glyph-name="uniFEE2" unicode="&#x645;" horiz-adv-x="1914" arabic-form="final" 
d="M1964 96v-96h-334q-87 -88 -202.5 -137t-243.5 -49q-129 0 -244.5 49t-203.5 137q-236 -8 -387 -142.5t-151 -342.5h-98q0 231 155.5 388.5t405.5 187.5q-63 95 -88 208t-14 221t60 210t125.5 178.5t191 123t248.5 46.5q128 0 244.5 -50t201.5 -135t135 -202t50 -245
q0 -192 -106 -350h255zM1184 -92q146 0 269.5 72t195.5 196t72 270t-72 270t-195.5 196t-269.5 72t-270 -72t-196.5 -196t-72.5 -270t72.5 -270t196.5 -196t270 -72z" />
    <glyph glyph-name="uniFEE3" unicode="&#x645;" horiz-adv-x="1565" arabic-form="initial" 
d="M-50 0v96h356q-105 159 -105 350q0 171 85 316.5t230.5 230.5t317.5 85q128 0 244.5 -50t201.5 -135t135 -202t50 -245t-50 -245t-135 -202t-201.5 -135t-244.5 -50q-129 0 -244.5 49t-203.5 137h-436zM295 446q0 -146 72.5 -270t196.5 -196t270 -72t269.5 72t195.5 196
t72 270t-72 270t-195.5 196t-269.5 72t-270 -72t-196.5 -196t-72.5 -270z" />
    <glyph glyph-name="uniFEE4" unicode="&#x645;" horiz-adv-x="1584" arabic-form="medial" 
d="M1634 96v-96h-354q-87 -88 -202.5 -137t-243.5 -49q-129 0 -244.5 49t-203.5 137h-436v96h356q-105 159 -105 350q0 171 85 316.5t230.5 230.5t317.5 85q128 0 244.5 -50t201.5 -135t135 -202t50 -245q0 -192 -106 -350h275zM834 -92q146 0 269.5 72t195.5 196t72 270
t-72 270t-195.5 196t-269.5 72t-270 -72t-196.5 -196t-72.5 -270t72.5 -270t196.5 -196t270 -72z" />
    <glyph glyph-name="uniFEE6" unicode="&#x646;" horiz-adv-x="1361" arabic-form="final" 
d="M682 1428q-32 0 -53.5 22t-21.5 53t21.5 53t53.5 22q31 0 53 -22t22 -53t-22 -53t-53 -22zM1411 96v-96h-165q-48 -219 -200 -352t-364 -133q-255 0 -418.5 187.5t-163.5 475.5v1022h97v-1021q0 -247 135.5 -406.5t349.5 -159.5t349.5 159.5t135.5 406.5v1021h97v-1022
q0 -46 -4 -82h151z" />
    <glyph glyph-name="uniFEE7" unicode="&#x646;" horiz-adv-x="488" arabic-form="initial" 
d="M353 1428q-31 0 -53 22t-22 53t22 53t53 22t53 -22t22 -53t-22 -53t-53 -22zM-10 96h316l-2 1104h97l2 -1200h-413v96z" />
    <glyph glyph-name="uniFEE8" unicode="&#x646;" horiz-adv-x="693" arabic-form="medial" 
d="M353 1428q-31 0 -53 22t-22 53t22 53t53 22t53 -22t22 -53t-22 -53t-53 -22zM703 96v-96h-713v96h316l-2 1104h97l2 -1104h300z" />
    <glyph glyph-name="uniFEEA" unicode="&#x647;" horiz-adv-x="1348" arabic-form="final" 
d="M100 0v618q0 255 187.5 418.5t475.5 163.5h333v80h97v-1184h205v-96h-1298zM198 96h898v1007h-332q-247 0 -406.5 -135.5t-159.5 -349.5v-522z" />
    <glyph glyph-name="uniFEEB" unicode="&#x647;" horiz-adv-x="1948" arabic-form="initial" 
d="M-50 0v96h378q-111 85 -174.5 213t-63.5 275q0 166 82 307.5t223.5 224.5t307.5 84h482q190 -2 341 -75.5t236.5 -206t85.5 -300.5v-618h-1898zM509 96h721l-4 488q-1 141 -69 260t-188 190t-266 74q-107 0 -204.5 -41.5t-168.5 -112t-113 -167.5t-42 -204
q0 -164 92.5 -296.5t241.5 -190.5zM1324 96h426v522q0 141 -73 251.5t-201.5 171.5t-291.5 62l-151 2q131 -84 209 -222t79 -299z" />
    <glyph glyph-name="uniFEEC" unicode="&#x647;" horiz-adv-x="1965" arabic-form="medial" 
d="M1848 96h167v-96h-2065v96h378q-111 85 -174.5 213t-63.5 275q0 166 82 307.5t223.5 224.5t307.5 84h482q190 -2 341 -75.5t236.5 -206t85.5 -300.5v-522zM509 96h721l-4 488q-1 141 -69 260t-188 190t-266 74q-107 0 -204.5 -41.5t-168.5 -112t-113 -167.5t-42 -204
q0 -164 92.5 -296.5t241.5 -190.5zM1750 96v522q0 141 -73 251.5t-201.5 171.5t-291.5 62l-151 2q131 -84 209 -222t79 -299l3 -488h426z" />
    <glyph glyph-name="uniFEEE" unicode="&#x648;" horiz-adv-x="1461" arabic-form="final" 
d="M1511 96v-96h-165q-48 -219 -200 -352t-364 -133h-280v98h280q172 0 295.5 105.5t168.5 281.5h-712q-194 61 -314 225.5t-120 374.5q0 171 85 316.5t230.5 230.5t317.5 85q165 0 307 -80t228.5 -217t95.5 -301v-456q0 -46 -4 -82h151zM1263 96l3 504q-1 146 -73 270
t-195 196t-269 72q-109 0 -209.5 -43t-173.5 -115t-116 -172t-43 -209q0 -170 96.5 -307t251.5 -196h728z" />
    <glyph glyph-name="uniFEF0" unicode="&#x649;" horiz-adv-x="2465" arabic-form="final" 
d="M2386 97h129v-97h-236v398q-18 187 -66 325t-121 220t-163 121t-200 39h-366q-111 0 -201.5 -39.5t-163.5 -123t-120.5 -223t-65.5 -329.5h714q106 0 187.5 -21t133 -56.5t84 -86t44.5 -105.5t10 -119q2 -128 -70 -241t-191.5 -179.5t-251.5 -67.5h-831
q-158 1 -281.5 85.5t-191.5 235t-68 342.5v235h98v-234q0 -247 135 -406.5t349 -159.5h749q173 0 302.5 106t154.5 284q-5 51 -13 86t-31.5 77t-60.5 67.5t-102.5 43t-155.5 17.5h-821q0 235 48.5 412t137.5 284.5t207 160t265 52.5h368q131 0 233 -31.5t188 -109
t139.5 -201.5t79 -315.5t16.5 -445.5z" />
    <glyph glyph-name="uniFEF2" unicode="&#x64a;" horiz-adv-x="2465" arabic-form="final" 
d="M2386 97h129v-97h-236v398q-18 187 -66 325t-121 220t-163 121t-200 39h-366q-111 0 -201.5 -39.5t-163.5 -123t-120.5 -223t-65.5 -329.5h714q106 0 187.5 -21t133 -56.5t84 -86t44.5 -105.5t10 -119q2 -128 -70 -241t-191.5 -179.5t-251.5 -67.5h-831
q-158 1 -281.5 85.5t-191.5 235t-68 342.5v235h98v-234q0 -247 135 -406.5t349 -159.5h749q173 0 302.5 106t154.5 284q-5 51 -13 86t-31.5 77t-60.5 67.5t-102.5 43t-155.5 17.5h-821q0 235 48.5 412t137.5 284.5t207 160t265 52.5h368q131 0 233 -31.5t188 -109
t139.5 -201.5t79 -315.5t16.5 -445.5zM938 -620q31 0 53 -22t22 -53t-22 -53t-53 -22q-32 0 -53.5 22t-21.5 53t21.5 53t53.5 22zM1243 -620q31 0 53 -22t22 -53t-22 -53t-53 -22t-53 22t-22 53t22 53t53 22z" />
    <glyph glyph-name="uniFEF3" unicode="&#x64a;" horiz-adv-x="701" arabic-form="initial" 
d="M228 96h316l-2 1104h97l2 -1200h-413v96zM227 96v-96h-277v96h277zM208 -301q-32 0 -53.5 21.5t-21.5 53.5t21.5 53.5t53.5 21.5q31 0 53 -22t22 -53t-22 -53t-53 -22zM513 -301q-31 0 -53 21.5t-22 53.5t22 53.5t53 21.5t53 -22t22 -53t-22 -53t-53 -22z" />
    <glyph glyph-name="uniFEF4" unicode="&#x64a;" horiz-adv-x="910" arabic-form="medial" 
d="M960 96v-96h-990v95h277v1h316l-2 1104h97l2 -1104h300zM252 -220q31 0 53 -22t22 -53t-22 -53t-53 -22q-32 0 -53.5 22t-21.5 53t21.5 53t53.5 22zM557 -220q31 0 53 -22t22 -53t-22 -53t-53 -22t-53 22t-22 53t22 53t53 22z" />
    <glyph glyph-name=".notdef" horiz-adv-x="1332" 
d="M200 1612h932v-1612h-932v1612zM974 145v1321h-614v-1321h614z" />
    <glyph glyph-name=".null" 
 />
    <glyph glyph-name="nonmarkingreturn" horiz-adv-x="682" 
 />
    <glyph glyph-name="space" unicode=" " horiz-adv-x="625" 
 />
    <glyph glyph-name="exclam" unicode="!" horiz-adv-x="552" 
d="M232 413l-12 1199h107l-9 -1199h-86zM276 -35q-37 0 -62.5 25.5t-25.5 61.5t25.5 61t61.5 25q37 0 63 -26t26 -62q0 -35 -26 -60t-62 -25z" />
    <glyph glyph-name="quotedbl" unicode="&#x22;" horiz-adv-x="542" 
d="M108 1387l-13 525h97l-15 -525h-69zM365 1387l-14 525h97l-15 -525h-68z" />
    <glyph glyph-name="numbersign" unicode="#" horiz-adv-x="1522" 
d="M318 0l60 454h-308l14 81h304l64 485h-319l16 81h314l67 511h85l-67 -511h500l67 511h85l-67 -511h319l-14 -81h-316l-64 -485h331l-16 -81h-325l-60 -454h-85l60 454h-500l-60 -454h-85zM473 535h500l64 485h-500z" />
    <glyph glyph-name="dollar" unicode="$" horiz-adv-x="1242" 
d="M574 -233v218q-178 10 -316.5 101t-182.5 208l69 56q60 -124 193.5 -192.5t286.5 -70.5q87 -1 166.5 20t142.5 62.5t100 108.5t37 150q0 44 -13.5 81.5t-33.5 67.5t-58 58t-73.5 48.5t-94 44.5t-104 40.5t-119.5 41.5q-71 24 -123.5 45.5t-113.5 57t-100 75.5t-65 98.5
t-26 127.5q0 159 122 276t306 137v181h81v-178q86 -3 161.5 -30t128 -69.5t89 -91t56.5 -101.5l-76 -48q-40 100 -138 168t-221 75q-411 -41 -411 -320q0 -47 18 -87.5t46 -70.5t73 -57.5t89 -47t104 -41.5q9 -3 57 -18t84.5 -27t95.5 -37t103 -49.5t94.5 -62t83 -78
t54 -94.5t21.5 -113q0 -124 -72 -224t-187.5 -156t-252.5 -65v-218h-81z" />
    <glyph glyph-name="percent" unicode="%" horiz-adv-x="1703" 
d="M94 1265q0 151 107.5 258.5t258.5 107.5q150 0 257.5 -107t107.5 -258t-107.5 -258.5t-258.5 -107.5q-150 0 -257.5 107t-107.5 258zM252 0l1102 1613h92l-1102 -1613h-92zM168 1265q0 -120 85.5 -205.5t205.5 -85.5q121 0 206.5 85.5t85.5 206.5q0 120 -85.5 205.5
t-205.5 85.5q-121 0 -206.5 -85.5t-85.5 -206.5zM878 345q0 151 107.5 258.5t258.5 107.5q150 0 257.5 -107t107.5 -258t-107.5 -258.5t-258.5 -107.5q-150 0 -257.5 107t-107.5 258zM951 345q0 -120 85.5 -205.5t206.5 -85.5t206.5 85.5t85.5 206.5q0 120 -85.5 205.5
t-205.5 85.5q-121 0 -207 -85.5t-86 -206.5z" />
    <glyph glyph-name="ampersand" unicode="&#x26;" horiz-adv-x="1593" 
d="M643 -20q-123 0 -227 40.5t-174 110.5t-109 164.5t-39 201.5q0 156 83.5 281t237.5 202q-92 174 -92 300q0 91 45.5 171.5t132 132t193.5 51.5q154 0 260 -101.5t112 -258.5l-100 -13q-2 123 -80 202t-195 79q-119 0 -195.5 -80t-76.5 -186q0 -88 59.5 -213.5t156.5 -255
t217.5 -257.5t244.5 -231q133 192 146 487h93q-6 -334 -159 -551q231 -175 360 -175v-92q-153 0 -417 196q-93 -101 -215.5 -153t-261.5 -52zM639 75q236 0 400 173q-169 138 -325 313.5t-258 344.5q-139 -75 -204 -184t-65 -224q0 -111 52.5 -206t157.5 -156t242 -61z" />
    <glyph glyph-name="quotesingle" unicode="'" horiz-adv-x="286" 
d="M108 1387l-13 525h97l-15 -525h-69z" />
    <glyph glyph-name="parenleft" unicode="(" horiz-adv-x="658" 
d="M498 -318q-182 168 -293 448.5t-111 630.5q0 325 93.5 595.5t255.5 457.5l66 -38q-144 -177 -233 -452.5t-89 -564.5q0 -313 107 -601.5t270 -436.5z" />
    <glyph glyph-name="parenright" unicode=")" horiz-adv-x="658" 
d="M160 -318l-66 39q163 148 270 436.5t107 601.5q0 289 -89 564.5t-233 452.5l67 38q162 -187 255 -457.5t93 -595.5q0 -350 -111 -630.5t-293 -448.5z" />
    <glyph glyph-name="asterisk" unicode="*" horiz-adv-x="812" 
d="M368 945l8 325l-239 -183l-43 61l265 170l-265 172l43 61l239 -183l-8 325h75l-8 -325l240 183l43 -61l-264 -174l264 -168l-43 -61l-240 182l8 -324h-75z" />
    <glyph glyph-name="plus" unicode="+" horiz-adv-x="1289" 
d="M599 149v501h-411v92h411v500h92v-500h410v-92h-410v-501h-92z" />
    <glyph glyph-name="comma" unicode="," horiz-adv-x="547" 
d="M183 -380q-17 0 -29 6t-12 16q20 0 47 12.5t58 38.5t52 77t21 116q0 48 -22 80q-42 0 -67 23t-25 60q0 38 27 65t66 27t73 -41t34 -128q0 -82 -22.5 -151.5t-56.5 -111.5t-72 -65.5t-72 -23.5z" />
    <glyph glyph-name="hyphen" unicode="-" horiz-adv-x="978" 
d="M94 636v88h790v-88h-790z" />
    <glyph glyph-name="period" unicode="." horiz-adv-x="458" 
d="M229 -35q-37 0 -62.5 25.5t-25.5 61.5t26 62t62 26q35 0 61.5 -26t26.5 -62t-26 -61.5t-62 -25.5z" />
    <glyph glyph-name="slash" unicode="/" horiz-adv-x="852" 
d="M28 -271l705 2004h91l-705 -2004h-91z" />
    <glyph glyph-name="zero" unicode="0" horiz-adv-x="1460" 
d="M730 -12q-185 0 -330 104t-225.5 290.5t-80.5 423.5t80.5 423.5t225.5 291t330 104.5t330 -104.5t225.5 -291t80.5 -423.5t-80.5 -423.5t-225.5 -290.5t-330 -104zM730 85q117 0 217.5 53.5t171 148.5t110.5 229t40 290q0 209 -68 373.5t-191 256.5t-280 92t-280 -92
t-191 -256.5t-68 -373.5q0 -156 40 -290t110.5 -229t171 -148.5t217.5 -53.5z" />
    <glyph glyph-name="one" unicode="1" horiz-adv-x="675" 
d="M391 0v1492l-297 -92v101l365 115h28v-1616h-96z" />
    <glyph glyph-name="two" unicode="2" horiz-adv-x="1385" 
d="M94 0v43q410 268 646 456.5t337.5 327t101.5 262.5q0 186 -134.5 312.5t-334.5 126.5q-209 0 -344.5 -136t-135.5 -347l-91 15q0 245 161.5 405t407.5 160q121 0 227 -42t180.5 -113.5t117.5 -169.5t43 -207q0 -216 -224 -442t-760 -554h999v-97h-1197z" />
    <glyph glyph-name="three" unicode="3" horiz-adv-x="1274" 
d="M633 -4q-192 0 -344 113t-195 286l96 22q31 -135 160.5 -230t281.5 -95q91 0 175.5 32.5t144 85t95.5 119t36 132.5q0 186 -155.5 283t-444.5 93l21 68q93 0 178.5 19t158 56.5t116 101t43.5 144.5q0 142 -108 233.5t-265 91.5q-129 0 -234.5 -83.5t-126.5 -203.5l-98 21
q32 148 160 255t299 107q196 0 333 -121.5t137 -294.5q0 -78 -27 -142t-73 -105.5t-96.5 -68t-107.5 -41.5q198 -43 292.5 -139t94.5 -279q0 -83 -43 -165.5t-115 -147.5t-175 -106t-214 -41z" />
    <glyph glyph-name="four" unicode="4" horiz-adv-x="1321" 
d="M957 0v346h-929l695 1267h105l-656 -1170h785v673h96v-673h211v-97h-211v-346h-96z" />
    <glyph glyph-name="five" unicode="5" horiz-adv-x="1321" 
d="M637 -4q-169 0 -326 96t-217 244l92 27q31 -74 109.5 -137.5t170 -98t168.5 -34.5q131 0 244.5 61t181.5 170.5t68 240.5q0 133 -63 240t-170.5 165.5t-238.5 58.5q-161 0 -291.5 -93t-157.5 -228l-59 66l114 838h831v-96h-751l-88 -596q75 102 186.5 152.5t224.5 50.5
q249 0 405.5 -156.5t156.5 -401.5q0 -117 -47 -223t-126 -181.5t-188 -120t-229 -44.5z" />
    <glyph glyph-name="six" unicode="6" horiz-adv-x="1322" 
d="M661 -10q-115 0 -220.5 43t-181 114t-120.5 167t-45 199q0 65 13.5 120.5t37.5 107t76.5 134t109.5 167t158 243t203 327.5h109l-413 -658q132 89 296 89q103 0 200.5 -36.5t174 -102.5t123 -167.5t46.5 -220.5q0 -101 -45 -197t-120.5 -168.5t-181.5 -116.5t-220 -44z
M662 86q126 0 235 61.5t172 161.5t63 209q0 121 -63 223.5t-171 161.5t-235 59q-194 0 -333 -130.5t-139 -313.5q0 -109 63 -209t172.5 -161.5t235.5 -61.5z" />
    <glyph glyph-name="seven" unicode="7" horiz-adv-x="1187" 
d="M329 0l690 1517h-963v95h1102v-18l-725 -1594h-104z" />
    <glyph glyph-name="eight" unicode="8" horiz-adv-x="1253" 
d="M626 -8q-222 0 -377 141.5t-155 339.5q0 163 116.5 288.5t270.5 140.5q-125 16 -214.5 112.5t-89.5 221.5q0 164 128.5 274.5t322.5 110.5t322.5 -110.5t128.5 -274.5q0 -125 -90.5 -222t-212.5 -112q151 -18 267 -144t116 -286q0 -97 -41.5 -185.5t-112.5 -153
t-170 -103t-209 -38.5zM627 947q148 0 252.5 81.5t104.5 202.5q0 132 -101 215t-255 83t-255 -83t-101 -214q0 -121 104 -203t251 -82zM626 88q181 0 308.5 114t127.5 275q0 152 -128 262.5t-307 110.5q-117 0 -218 -51t-159.5 -137t-58.5 -186q0 -105 58.5 -194.5
t158.5 -141.5t218 -52z" />
    <glyph glyph-name="nine" unicode="9" horiz-adv-x="1322" 
d="M521 -5l409 653q-131 -88 -293 -88q-103 0 -200.5 37t-174 104t-122.5 168.5t-46 220.5q0 135 75.5 256.5t207 196.5t283.5 75q115 0 221 -44.5t181.5 -117t120.5 -169.5t45 -198q0 -67 -14 -124t-38 -108.5t-76.5 -133.5t-109.5 -165.5t-158 -239.5t-202 -323h-109z
M659 645q195 0 333.5 130.5t138.5 313.5q0 109 -63 209t-172.5 161.5t-235.5 61.5q-94 0 -181.5 -36.5t-150 -96.5t-100 -138.5t-37.5 -160.5q0 -184 137 -314t331 -130z" />
    <glyph glyph-name="colon" unicode=":" horiz-adv-x="458" 
d="M229 840q-37 0 -62.5 25.5t-25.5 61.5t25.5 62t62.5 26q36 0 62 -26t26 -62t-26 -61.5t-62 -25.5zM229 0q-37 0 -62.5 25.5t-25.5 62.5q0 35 26 61.5t62 26.5q35 0 61.5 -26.5t26.5 -61.5q0 -36 -26 -62t-62 -26z" />
    <glyph glyph-name="semicolon" unicode=";" horiz-adv-x="551" 
d="M294 840q-37 0 -62.5 25.5t-25.5 61.5t25.5 62t62.5 26q36 0 61.5 -26t25.5 -62t-25.5 -61.5t-61.5 -25.5zM188 -380q-17 0 -29 6t-12 16q19 0 46.5 12.5t58 38.5t52 77t21.5 116q0 49 -23 80q-42 0 -67 23t-25 60q0 38 27 65t66 27q40 0 73.5 -41t33.5 -128
q0 -82 -22 -151.5t-56 -111.5t-72 -65.5t-72 -23.5z" />
    <glyph glyph-name="less" unicode="&#x3c;" horiz-adv-x="1328" 
d="M1139 170l-951 634v20l953 634l-2 -106l-820 -538l820 -539v-105z" />
    <glyph glyph-name="equal" unicode="=" horiz-adv-x="1247" 
d="M188 990v88h871v-88h-871zM188 489v88h871v-88h-871z" />
    <glyph glyph-name="greater" unicode="&#x3e;" horiz-adv-x="1328" 
d="M190 170v105l820 539l-820 538l-2 106l953 -634v-20z" />
    <glyph glyph-name="question" unicode="?" horiz-adv-x="1091" 
d="M442 411q0 68 18 128.5t47.5 108t74 94t91 86t104.5 85.5q11 8 16 12q48 39 80.5 110.5t32.5 146.5q0 156 -119 263.5t-290 107.5q-115 0 -221 -60.5t-143 -148.5l-39 81q46 88 161 155.5t246 67.5q136 0 250.5 -63t180 -167t65.5 -224q0 -99 -37 -187.5t-96 -136.5
q-21 -17 -60 -46.5t-59.5 -45.5t-53 -44t-50 -49t-39.5 -52.5t-33.5 -62.5t-21 -71.5t-11.5 -86.5zM492 -35q-36 0 -62 25.5t-26 61.5t25.5 61t61.5 25q37 0 63 -26t26 -62q0 -35 -26 -60t-62 -25z" />
    <glyph glyph-name="at" unicode="@" horiz-adv-x="2276" 
d="M1029 -417q-165 0 -312 46.5t-259.5 130t-195 196.5t-125.5 250t-43 286q0 184 62 360.5t173.5 321t257.5 254.5t325 171t365 61q185 0 350.5 -63.5t288.5 -176.5t194.5 -279t71.5 -361q0 -136 -35 -266.5t-97.5 -234.5t-158 -167.5t-207.5 -63.5q-73 0 -125 29t-80.5 82
t-38 122.5t-1.5 153.5q-30 -112 -144.5 -185.5t-244.5 -73.5q-159 0 -255.5 105t-96.5 264q0 96 34.5 186.5t93.5 159t143 110t176 41.5q132 0 232.5 -72.5t100.5 -161.5l36 225h77l-75 -602q-4 -50 -4 -72q0 -109 45.5 -169.5t137.5 -60.5q89 0 164.5 56.5t123.5 147.5
t74.5 202.5t26.5 225.5q0 234 -106.5 418t-293.5 285t-421 101q-140 0 -277.5 -40t-255 -110t-218 -169.5t-171.5 -215.5t-111 -251.5t-40 -274.5q0 -172 64.5 -325.5t175.5 -264t268.5 -175t336.5 -64.5q173 0 304 55l34 -86q-144 -61 -344 -61zM1083 259q160 0 267 118
t107 288q0 134 -81.5 214t-214.5 80q-160 0 -269.5 -118t-109.5 -282q0 -131 80 -215.5t221 -84.5z" />
    <glyph glyph-name="A" unicode="A" horiz-adv-x="1543" 
d="M1282 289h-1021l-128 -289h-105l730 1628h26l731 -1628h-105zM1244 376l-472 1068l-473 -1068h945z" />
    <glyph glyph-name="B" unicode="B" horiz-adv-x="1348" 
d="M188 0v1612h440q192 0 326 -114.5t134 -272.5q0 -127 -79 -222t-165 -95q118 0 221 -54.5t165 -150t62 -209.5q0 -98 -39.5 -188.5t-107.5 -158t-164 -107.5t-204 -40h-589zM284 925l350 1q169 -1 265.5 81.5t96.5 208.5q0 125 -107 213t-257 88h-348v-592zM284 95h487
q174 0 300 118t126 285q0 141 -127.5 240.5t-311.5 98.5l-474 -1v-741z" />
    <glyph glyph-name="C" unicode="C" horiz-adv-x="1520" 
d="M915 -15q-162 0 -313 64t-262.5 173t-178.5 261.5t-67 320.5q0 134 42 259.5t118.5 227t177.5 178t226.5 118.5t258.5 42q150 -1 297 -68t250 -173l-57 -76q-95 99 -226 159t-275 60q-135 0 -264.5 -56t-229 -151t-160 -231.5t-60.5 -287.5q0 -150 59.5 -285
t158.5 -230.5t231 -151.5t272 -56q144 0 270.5 57t223.5 153l57 -76q-235 -231 -549 -231z" />
    <glyph glyph-name="D" unicode="D" horiz-adv-x="1531" 
d="M625 1613q368 0 590 -221t222 -587q0 -365 -222 -585t-590 -220h-437v1613h437zM627 97q322 0 517 194t195 514q0 321 -195.5 516t-519.5 195h-339v-1419h342z" />
    <glyph glyph-name="E" unicode="E" horiz-adv-x="1252" 
d="M285 1516v-627h727v-96h-727v-697h835v-96h-932v1612h932v-96h-835z" />
    <glyph glyph-name="F" unicode="F" horiz-adv-x="1176" 
d="M285 1519v-664h727v-96h-727v-761h-97v1618h932v-97h-835z" />
    <glyph glyph-name="G" unicode="G" horiz-adv-x="1776" 
d="M94 805q0 166 65.5 318t175.5 262.5t262.5 176t319.5 65.5q143 0 309.5 -68t269.5 -168l-55 -81q-93 94 -244 158t-280 64q-145 0 -279 -57.5t-231.5 -154t-156 -232t-58.5 -283.5q0 -147 57.5 -280.5t155 -230.5t233 -154.5t285.5 -57.5q84 0 159 14.5t132.5 40t108 60
t85.5 74.5t65.5 84.5t48 89t32.5 88t18.5 82t7 71t-2.5 54.5h-673v83h771q7 -46 7 -103q0 -205 -104 -374.5t-278.5 -265t-379.5 -95.5q-168 0 -321 65t-263.5 175t-176 262t-65.5 318z" />
    <glyph glyph-name="H" unicode="H" horiz-adv-x="1529" 
d="M1341 1612v-1612h-97v759h-959v-759h-97v1612h97v-757h959v757h97z" />
    <glyph glyph-name="I" unicode="I" horiz-adv-x="473" 
d="M188 1612h97v-1612h-97v1612z" />
    <glyph glyph-name="J" unicode="J" horiz-adv-x="1242" 
d="M418 -20q-85 0 -188.5 32t-173.5 79l52 88q51 -43 141 -72.5t171 -29.5h7q111 0 213 44t175.5 118t117 176t43.5 213l-2 984l96 -1l2 -985q0 -132 -51 -251.5t-137 -206t-205 -137.5t-250 -51h-11z" />
    <glyph glyph-name="K" unicode="K" horiz-adv-x="1167" 
d="M188 0v1612h97v-792l688 792h118l-693 -795l750 -817h-122l-741 806v-806h-97z" />
    <glyph glyph-name="L" unicode="L" horiz-adv-x="1216" 
d="M1160 96v-96h-972v1612h97v-1516h875z" />
    <glyph glyph-name="M" unicode="M" horiz-adv-x="1955" 
d="M1767 1636v-1636h-97v1342l-691 -1315h-2l-692 1315v-1342h-97v1636h22l768 -1424l767 1424h22z" />
    <glyph glyph-name="N" unicode="N" horiz-adv-x="1673" 
d="M1484 1616v-1638h-6l-1193 1410v-1390h-97v1636h6l1193 -1410v1392h97z" />
    <glyph glyph-name="O" unicode="O" horiz-adv-x="1833" 
d="M915 -15q-166 0 -318 65t-262 175t-175.5 262t-65.5 318q0 167 65.5 319.5t175.5 263t262.5 176t318.5 65.5t318.5 -65.5t263 -176t176 -263t65.5 -319.5q0 -133 -42 -258t-118 -226t-177.5 -177t-227 -117.5t-259.5 -41.5zM915 83q197 0 364 97t264.5 263.5t97.5 361.5
q0 147 -57.5 281.5t-155 232t-232 155.5t-281.5 58t-281 -58t-231 -155.5t-154.5 -232t-57.5 -281.5q0 -195 97.5 -361.5t264 -263.5t362.5 -97z" />
    <glyph glyph-name="P" unicode="P" horiz-adv-x="1289" 
d="M188 1612h478q153 0 284 -68t207 -184t76 -253q0 -127 -76 -235.5t-207 -171.5t-284 -63h-381v-637h-97v1612zM666 731q127 0 235.5 50t171.5 137t63 190q0 168 -138 288t-332 120h-381v-783z" />
    <glyph glyph-name="Q" unicode="Q" horiz-adv-x="1833" 
d="M94 805q0 167 65.5 319.5t175.5 263t262.5 176t318.5 65.5t318.5 -65.5t263 -176t176 -263t65.5 -319.5q0 -205 -96 -383t-261 -292q150 -108 347 -111l-26 -95q-234 3 -408 154q-180 -93 -380 -93q-166 0 -318 65t-262 175t-175.5 262t-65.5 318zM191 805
q0 -195 97.5 -361.5t264 -263.5t362.5 -97q107 0 212 32.5t197.5 96t163.5 150t112 201.5t41 242q0 147 -57.5 281.5t-155 232t-232 155.5t-281.5 58t-281 -58t-231 -155.5t-154.5 -232t-57.5 -281.5z" />
    <glyph glyph-name="R" unicode="R" horiz-adv-x="1321" 
d="M188 0v1612h446q146 0 270.5 -68.5t197 -186t72.5 -255.5q0 -156 -102.5 -280t-262.5 -168l493 -654h-123l-474 637l-420 -2v-635h-97zM285 720h355q179 0 307 113t128 271q0 112 -58.5 207t-158.5 150t-218 55h-355v-796z" />
    <glyph glyph-name="S" unicode="S" horiz-adv-x="1242" 
d="M612 -16q-191 0 -341 93t-196 217l69 56q36 -75 110 -137t168 -97t188 -35q123 0 228 44t168.5 124.5t63.5 178.5q0 36 -9.5 68.5t-24 58.5t-41.5 51.5t-50.5 44t-62.5 39t-67 33.5t-75 30t-74.5 26.5t-77.5 25.5q-52 17 -90.5 31.5t-87 37t-84 45t-71.5 54t-58.5 66
t-36.5 79.5t-14 96q0 173 142 294.5t348 121.5q90 0 169 -26t134 -69t93 -93t58 -104l-76 -48q-42 105 -147 174.5t-236 69.5q-156 0 -271.5 -93.5t-115.5 -227.5q0 -135 149 -223q76 -45 270 -113h1l1 -1h1h2l1 -1h1h1l1 -1h1l1 -1h1q49 -18 77.5 -28t75.5 -29.5t76 -34.5
t69 -38.5t64.5 -45.5t52 -52t42.5 -61.5t25 -71t10 -82.5q0 -130 -79 -233.5t-205 -158t-271 -54.5z" />
    <glyph glyph-name="T" unicode="T" horiz-adv-x="1231" 
d="M1174 1516h-509v-1516h-97v1516h-512v96h1118v-96z" />
    <glyph glyph-name="U" unicode="U" horiz-adv-x="1502" 
d="M751 -19q-255 0 -418.5 187.5t-163.5 475.5v968h97v-967q0 -247 135.5 -406.5t349.5 -159.5t349.5 159.5t135.5 406.5v967h97v-968q0 -288 -163.5 -475.5t-418.5 -187.5z" />
    <glyph glyph-name="V" unicode="V" horiz-adv-x="1525" 
d="M1497 1612l-722 -1628h-28l-719 1628h104l628 -1436l633 1436h104z" />
    <glyph glyph-name="W" unicode="W" horiz-adv-x="1947" 
d="M28 1612h104l411 -1396l422 1190h19l421 -1190l411 1396h103l-485 -1616h-32l-429 1184l-427 -1184h-33z" />
    <glyph glyph-name="X" unicode="X" horiz-adv-x="1331" 
d="M608 838l-534 774h115l477 -693l475 693h116l-534 -774l580 -838h-108l-529 754l-530 -754h-108z" />
    <glyph glyph-name="Y" unicode="Y" horiz-adv-x="1377" 
d="M640 681l-612 931h107l553 -823l554 823h107l-613 -931v-681h-96v681z" />
    <glyph glyph-name="Z" unicode="Z" horiz-adv-x="1360" 
d="M1084 1516h-971v96h1134l-972 -1516h972v-96h-1134z" />
    <glyph glyph-name="bracketleft" unicode="[" horiz-adv-x="618" 
d="M188 -156v1816h336v-80h-248v-1655h248v-81h-336z" />
    <glyph glyph-name="backslash" unicode="\" horiz-adv-x="852" 
d="M733 -271l-705 2004h91l705 -2004h-91z" />
    <glyph glyph-name="bracketright" unicode="]" horiz-adv-x="617" 
d="M94 -156v81h248v1655h-248v80h336v-1816h-336z" />
    <glyph glyph-name="asciicircum" unicode="^" horiz-adv-x="964" 
d="M28 1090l443 584h20l445 -584h-95l-359 473l-359 -473h-95z" />
    <glyph glyph-name="underscore" unicode="_" horiz-adv-x="1209" 
d="M0 -38v77h1209v-77h-1209z" />
    <glyph glyph-name="grave" unicode="`" horiz-adv-x="600" 
d="M238 1333l-238 327h97l223 -327h-82z" />
    <glyph glyph-name="a" unicode="a" horiz-adv-x="1416" 
d="M85 600q0 140 50.5 260.5t134 201t191.5 125.5t223 45q144 0 271 -69.5t197 -189.5l3 227h90v-1200h-90l-3 219q-68 -120 -194 -185.5t-274 -65.5q-115 0 -223 45t-191.5 125.5t-134 201t-50.5 260.5zM179 600q0 -121 44.5 -224t117 -170.5t165 -105.5t189.5 -38
q71 0 132.5 13.5t122.5 50.5t103.5 95.5t70 155.5t28.5 223q-2 119 -29.5 213t-70.5 154t-103 99.5t-122 55.5t-132 16q-97 0 -189.5 -38t-165 -105.5t-117 -170.5t-44.5 -224z" />
    <glyph glyph-name="b" unicode="b" horiz-adv-x="1416" 
d="M170 0v1650h94v-678q70 120 197 189.5t271 69.5q115 0 223 -45t191.5 -125.5t134 -201t50.5 -260.5t-50.5 -260.5t-134 -201t-191.5 -125.5t-223 -45q-148 0 -274 65t-194 185l-4 -217h-90zM264 575q0 -112 37 -204.5t91.5 -148t120 -94t118 -53t90.5 -14.5
q97 0 189.5 38t165 105.5t117 170.5t44.5 224t-44.5 224t-117 170.5t-165 105.5t-189.5 38q-45 0 -87.5 -7t-88.5 -24.5t-86 -45t-76.5 -72t-62.5 -101.5t-41 -137t-15 -175z" />
    <glyph glyph-name="c" unicode="c" horiz-adv-x="1191" 
d="M717 -40q-119 0 -232 46t-202 127t-143.5 203t-54.5 264q0 141 54 263t143 203.5t202 127.5t231 46q108 0 219.5 -37t190.5 -103l-52 -77q-56 53 -156.5 88t-200.5 35q-102 0 -198 -39t-171.5 -108t-121.5 -173.5t-46 -225.5q0 -122 46.5 -226.5t122 -173.5t171.5 -107.5
t196 -38.5q102 0 205 37.5t163 94.5l57 -74q-80 -73 -194.5 -112.5t-228.5 -39.5z" />
    <glyph glyph-name="d" unicode="d" horiz-adv-x="1414" 
d="M170 599q0 140 50.5 260.5t134 201t191.5 125.5t223 45q144 0 271 -69.5t197 -189.5v678h94v-1650h-90l-4 217q-68 -120 -194 -185t-274 -65q-115 0 -223 45t-191.5 125.5t-134 201t-50.5 260.5zM264 599q0 -121 44.5 -224t117 -170.5t165 -105.5t189.5 -38
q38 0 90.5 14.5t118 53t120 94t91.5 148t37 204.5q0 95 -15 175t-41 137t-62.5 101.5t-76.5 72t-86 45t-88.5 24.5t-87.5 7q-97 0 -189.5 -38t-165 -105.5t-117 -170.5t-44.5 -224z" />
    <glyph glyph-name="e" unicode="e" horiz-adv-x="1308" 
d="M85 601q0 133 46 250.5t125 200.5t187.5 131.5t230.5 48.5q235 0 392 -164.5t157 -417.5q0 -49 -12 -92h-1032q15 -218 161 -358t343 -140q110 0 219.5 44.5t170.5 110.5l64 -64q-66 -80 -193.5 -131.5t-259.5 -51.5q-163 0 -300 81t-218 227t-81 325zM178 638h955
q0 134 -52.5 247t-158 184t-245.5 71q-204 0 -345.5 -143t-153.5 -359z" />
    <glyph glyph-name="f" unicode="f" horiz-adv-x="776" 
d="M570 1590q-61 0 -103.5 -22.5t-66 -66.5t-33.5 -99.5t-10 -129.5v-72h368v-87h-368l-1 -1113h-94l1 1113h-212v87h212v72q0 200 68.5 304t220.5 104q89 0 173 -32v-87q-72 29 -155 29z" />
    <glyph glyph-name="g" unicode="g" horiz-adv-x="1416" 
d="M85 600q0 140 50.5 260.5t134 201t191.5 125.5t223 45q144 0 271 -69.5t197 -189.5l4 227h90v-1092q-1 -164 -74 -298t-208.5 -213t-308.5 -79q-159 0 -295.5 59t-209.5 166l70 58q65 -91 182.5 -140t252.5 -49q242 0 368.5 151.5t128.5 455.5q-68 -120 -194 -185.5
t-274 -65.5q-115 0 -223 45t-191.5 125.5t-134 201t-50.5 260.5zM179 600q0 -121 44.5 -224t117 -170.5t165 -105.5t189.5 -38q86 0 165 31.5t145.5 93.5t106.5 169t40 244q0 277 -113.5 407.5t-343.5 130.5q-97 0 -189.5 -38t-165 -105.5t-117 -170.5t-44.5 -224z" />
    <glyph glyph-name="h" unicode="h" horiz-adv-x="1296" 
d="M681 1230q98 0 176.5 -31.5t140 -98.5t95 -181.5t33.5 -269.5v-649h-94v649q0 253 -100 371t-272 118q-183 0 -289.5 -119t-106.5 -370v-649h-94v1650h94v-667q59 124 166 185.5t251 61.5z" />
    <glyph glyph-name="i" unicode="i" horiz-adv-x="490" 
d="M245 1428q-31 0 -53 22t-22 53t22 53t53 22t53 -22t22 -53t-22 -53t-53 -22zM198 1200h94v-1200h-94v1200z" />
    <glyph glyph-name="j" unicode="j" horiz-adv-x="490" 
d="M245 1428q-31 0 -53 22t-22 53t22 53t53 22t53 -22t22 -53t-22 -53t-53 -22zM2 -478q-88 0 -167 30v88q69 -28 149 -28q116 0 164.5 80t48.5 236l1 1272h94l-1 -1272q0 -201 -68.5 -303.5t-220.5 -102.5z" />
    <glyph glyph-name="k" unicode="k" horiz-adv-x="1112" 
d="M170 0v1650h94v-1098l578 648h114l-492 -565l597 -635h-126l-531 566l-140 -161v-405h-94z" />
    <glyph glyph-name="l" unicode="l" horiz-adv-x="434" 
d="M170 1650h94v-1650h-94v1650z" />
    <glyph glyph-name="m" unicode="m" horiz-adv-x="1986" 
d="M170 0v1200h90l4 -207q105 239 369 239q297 0 378 -308q48 156 153 232t245 76q73 0 133 -19.5t111.5 -64.5t87 -114.5t55.5 -173t20 -235.5v-625h-94v625q0 513 -334 513q-72 0 -132.5 -25.5t-110 -79t-77.5 -147.5t-28 -221v-665h-94v665q0 128 -25 221.5t-71 147.5
t-105 79t-133 25q-168 0 -258 -125.5t-90 -387.5v-625h-94z" />
    <glyph glyph-name="n" unicode="n" horiz-adv-x="1296" 
d="M170 0v1200h90l4 -217q59 124 166 185.5t251 61.5q98 0 176.5 -31.5t140 -98.5t95 -181.5t33.5 -269.5v-649h-94v649q0 253 -100 371t-272 118q-183 0 -289.5 -119t-106.5 -370v-649h-94z" />
    <glyph glyph-name="o" unicode="o" horiz-adv-x="1434" 
d="M718 -32q-172 0 -317.5 85t-230.5 230.5t-85 316.5t85 316.5t230.5 230.5t317.5 85q128 0 244.5 -50t201.5 -135t135 -202t50 -245t-50 -245t-135 -202t-201.5 -135t-244.5 -50zM718 62q146 0 269.5 72t195.5 196t72 270t-72 270t-195.5 196t-269.5 72t-270 -72
t-196.5 -196t-72.5 -270t72.5 -270t196.5 -196t270 -72z" />
    <glyph glyph-name="p" unicode="p" horiz-adv-x="1414" 
d="M170 -450v1650h88l4 -229q70 120 197 190t272 70q115 0 222.5 -45t191 -125.5t134 -201t50.5 -260.5t-50.5 -260.5t-134 -201t-191.5 -125.5t-223 -45q-148 0 -274 65.5t-194 185.5v-668h-92zM262 599q0 -137 40 -244t106.5 -169t145.5 -93.5t166 -31.5q97 0 189 38
t165 105.5t117.5 170.5t44.5 224t-44.5 224t-117.5 170.5t-165 105.5t-189 38q-232 0 -345 -130.5t-113 -407.5z" />
    <glyph glyph-name="q" unicode="q" horiz-adv-x="1414" 
d="M1244 1200v-1650h-92v668q-68 -120 -194 -185.5t-274 -65.5q-115 0 -223 45t-191.5 125.5t-134 201t-50.5 260.5t50.5 260.5t134 201t191.5 125.5t223 45q144 0 271 -69.5t197 -189.5l4 228h88zM695 61q86 0 165 31.5t145.5 93.5t106.5 169t40 244q0 277 -113.5 407.5
t-343.5 130.5q-97 0 -189.5 -38t-165 -105.5t-117 -170.5t-44.5 -224t44.5 -224t117 -170.5t165 -105.5t189.5 -38z" />
    <glyph glyph-name="r" unicode="r" horiz-adv-x="845" 
d="M170 0v1200h90l4 -286q38 91 96.5 157t129 102t142 52.5t149.5 16.5l-16 -100q-7 1 -22 1q-100 -3 -184.5 -38.5t-151.5 -104.5t-105 -183t-38 -262v-555h-94z" />
    <glyph glyph-name="s" unicode="s" horiz-adv-x="1017" 
d="M513 -34q-140 0 -257 69.5t-171 173.5l57 63q60 -104 160 -159t213 -55q128 0 225.5 69t97.5 181q0 42 -21 79t-48.5 61.5t-79 52t-86.5 42t-98 38.5q-9 3 -13.5 5t-12 5t-13.5 5q-117 47 -165 75q-159 97 -159 250q0 129 105 220.5t269 91.5q128 0 230.5 -63t140.5 -157
l-66 -52q-42 88 -128.5 134t-179.5 46q-121 0 -199 -64t-78 -152q0 -24 7 -46t15.5 -39.5t28 -36t33 -31t43.5 -28.5t45.5 -24t53 -23.5t52.5 -21t56 -21.5q146 -57 210 -98q152 -98 152 -242q0 -103 -60.5 -184t-155 -122.5t-203.5 -41.5z" />
    <glyph glyph-name="t" unicode="t" horiz-adv-x="754" 
d="M519 -20q-145 0 -226.5 99t-81.5 275v754h-160v84h46q66 0 94 30.5t28 101.5v92h86v-216h390v-92h-390v-754q0 -133 61.5 -208t172.5 -75q70 0 164 34v-94l-60.5 -16.5t-51.5 -9.5t-72 -5z" />
    <glyph glyph-name="u" unicode="u" horiz-adv-x="1266" 
d="M632 -15q-89 0 -172 34.5t-147.5 97.5t-103.5 160t-39 213v710h94l1 -709q0 -98 31.5 -178t83.5 -130.5t117 -78t135 -27.5q72 0 138 27.5t118 78t83 130.5t31 178v709h93l1 -710q0 -117 -38 -214t-103 -159.5t-148 -97t-175 -34.5z" />
    <glyph glyph-name="v" unicode="v" horiz-adv-x="1232" 
d="M1181 1200l-560 -1240h-12l-558 1240h105l458 -1036l462 1036h105z" />
    <glyph glyph-name="w" unicode="w" horiz-adv-x="1703" 
d="M51 1200h100l334 -1045l363 1048h8l362 -1047l334 1044h100l-410 -1240h-30l-361 1023l-361 -1023h-29z" />
    <glyph glyph-name="x" unicode="x" horiz-adv-x="1068" 
d="M478 625l-391 575h110l337 -504l336 504h110l-391 -574l428 -626h-110l-373 550l-373 -550h-110z" />
    <glyph glyph-name="y" unicode="y" horiz-adv-x="1204" 
d="M1153 1200l-706 -1650h-98l203 474l-501 1176h99l448 -1067l457 1067h98z" />
    <glyph glyph-name="z" unicode="z" horiz-adv-x="1070" 
d="M814 1108h-699v92h860l-729 -1108h739v-92h-900z" />
    <glyph glyph-name="braceleft" unicode="{" horiz-adv-x="838" 
d="M555 -270q-100 0 -170.5 103.5t-70.5 248.5v222q0 165 -60 276.5t-160 111.5v89q100 0 160 111.5t60 276.5v223q0 145 70.5 248t170.5 103h189v-80l-171 -1q-71 -1 -121 -88t-50 -210v-227q0 -108 -29 -200.5t-78.5 -146t-107.5 -53.5q58 0 107.5 -53.5t78.5 -146
t29 -201.5v-226q0 -124 50 -212t121 -88h171v-80h-189z" />
    <glyph glyph-name="bar" unicode="|" horiz-adv-x="711" 
d="M320 -450v2300h71v-2300h-71z" />
    <glyph glyph-name="braceright" unicode="}" horiz-adv-x="838" 
d="M94 -270v80h171q71 0 121 88t50 212v226q0 109 29 201.5t78.5 146t107.5 53.5q-58 0 -107.5 53.5t-78.5 146t-29 200.5v227q0 123 -50 210t-121 88l-171 1v80h189q100 0 170.5 -103t70.5 -248v-223q0 -165 60 -276.5t160 -111.5v-89q-100 0 -160 -111.5t-60 -276.5v-222
q0 -145 -70.5 -248.5t-170.5 -103.5h-189z" />
    <glyph glyph-name="asciitilde" unicode="~" horiz-adv-x="1290" 
d="M832 669q-53 0 -98.5 20.5t-77.5 49.5t-62.5 57.5t-68 49t-77.5 20.5q-63 0 -112.5 -45.5t-74.5 -128.5l-73 29q31 116 102 172t159 56q52 0 97.5 -20.5t78 -49.5t63 -57.5t67.5 -49t78 -20.5q62 0 111.5 45.5t74.5 128.5l74 -29q-31 -116 -102 -172t-159 -56z" />
    <glyph glyph-name="exclamdown" unicode="&#xa1;" horiz-adv-x="552" 
d="M277 1024q-37 0 -63 26t-26 62q0 35 26 60t62 25t62 -25.5t26 -61.5t-25.5 -61t-61.5 -25zM224 -450l10 1199h86l11 -1199h-107z" />
    <glyph glyph-name="cent" unicode="&#xa2;" horiz-adv-x="1225" 
d="M658 -112v225q-111 11 -214 61t-183 130t-128 196.5t-48 249.5t48 249.5t128 196.5t183 130t214 61v213l84 1v-212q103 -5 206 -41.5t177 -97.5l-52 -77q-70 67 -166 98t-194 25.5t-195 -46t-171.5 -108t-121 -170t-46.5 -222.5q0 -123 46.5 -226.5t121 -171t172 -106.5
t196.5 -42.5t197 30t171 102.5l57 -74q-75 -69 -182 -108t-216 -44v-221z" />
    <glyph glyph-name="currency" unicode="&#xa4;" horiz-adv-x="1168" 
d="M1023 317l-232 234q-91 -72 -206 -72q-119 0 -210 77l-235 -231l-46 47l236 231q-71 87 -71 202q0 119 75 210l-230 234l47 47l230 -234q90 72 204 72q116 0 208 -74l234 230l47 -47l-234 -230q75 -89 75 -207q0 -117 -76 -209l231 -233zM585 561q102 0 174.5 72
t72.5 173q0 102 -73 174t-175 72q-100 0 -171.5 -72.5t-71.5 -173.5t71.5 -173t172.5 -72z" />
    <glyph glyph-name="yen" unicode="&#xa5;" horiz-adv-x="1509" 
d="M706 0v402h-594v82h594v189h-594v82h545l-563 857h107l553 -823l554 823h107l-564 -857h549v-82h-598v-189h598v-82h-598v-402h-96z" />
    <glyph glyph-name="brokenbar" unicode="&#xa6;" horiz-adv-x="711" 
d="M320 850v1000h71v-1000h-71zM320 -450v1000h71v-1000h-71z" />
    <glyph glyph-name="dieresis" unicode="&#xa8;" horiz-adv-x="600" 
d="M71 1416q-29 0 -50 20.5t-21 49.5t21 50t50 21t49.5 -21t20.5 -50t-20.5 -49.5t-49.5 -20.5zM519 1416q-29 0 -49.5 20.5t-20.5 49.5t20.5 50t49.5 21t50 -21t21 -50t-21 -49.5t-50 -20.5z" />
    <glyph glyph-name="copyright" unicode="&#xa9;" horiz-adv-x="1842" 
d="M866 -87q-158 0 -301.5 61t-246.5 164t-163.5 246t-60.5 302q0 158 60.5 301t163 246t246 164t302.5 61q213 0 391 -104.5t280 -282t102 -387.5q0 -211 -103.5 -388.5t-281 -280t-388.5 -102.5zM867 -24q143 0 274 56.5t226.5 151t152.5 226t57 275.5t-56.5 275.5
t-152 227t-227 152.5t-275.5 57t-275.5 -57t-226.5 -153t-151.5 -227t-56.5 -274t57 -274.5t152.5 -227t227 -152t274.5 -56.5zM868 190q-72 0 -143.5 22t-134.5 66t-111 103.5t-76 139.5t-28 170q0 111 43 207t112.5 160t158 100t179.5 36q83 0 171 -30t153 -80l-44 -68
q-43 42 -121.5 70.5t-156.5 28.5t-152.5 -30t-133.5 -83.5t-95 -135t-36 -175.5q0 -95 36 -176t95.5 -134t133.5 -83t151 -30q80 0 160 30t127 75l47 -64q-65 -54 -156 -86.5t-179 -32.5z" />
    <glyph glyph-name="guillemotleft" unicode="&#xab;" horiz-adv-x="1025" 
d="M469 136l-375 492l375 492l68 -23l-339 -469l339 -468zM863 136l-375 492l375 492l68 -23l-339 -469l339 -468z" />
    <glyph glyph-name="logicalnot" unicode="&#xac;" horiz-adv-x="1417" 
d="M1137 497v349h-949v92h1041v-441h-92z" />
    <glyph glyph-name="registered" unicode="&#xae;" horiz-adv-x="1206" 
d="M603 598q-104 0 -198 40t-162 108t-107.5 162t-39.5 198q0 138 67 254.5t183.5 184t256.5 67.5q105 0 199 -40t161.5 -108.5t107 -161.5t39.5 -196q0 -213 -148.5 -360.5t-358.5 -147.5zM603 631q128 0 237 64t172.5 173t63.5 236q0 128 -63.5 238t-172.5 174t-237 64
t-237 -64t-173 -174t-64 -238q0 -95 38 -182.5t102 -151t151.5 -101.5t182.5 -38zM418 805v607h185q84 0 143.5 -56.5t59.5 -135.5q0 -59 -38.5 -105.5t-99.5 -63.5l186 -246h-40l-181 240h-184v-240h-31zM449 1072h157q70 0 119.5 43.5t49.5 104.5q0 67 -50 114t-119 47
h-157v-309z" />
    <glyph glyph-name="macron" unicode="&#xaf;" horiz-adv-x="600" 
d="M24 1413v64h550v-64h-550z" />
    <glyph glyph-name="degree" unicode="&#xb0;" horiz-adv-x="673" 
d="M337 1154q-104 0 -178 74.5t-74 178.5q0 103 74.5 177t177.5 74t177 -74t74 -177q0 -104 -74 -178.5t-177 -74.5zM337 1214q79 0 135 56.5t56 136.5q0 79 -56 135.5t-135 56.5t-135.5 -56.5t-56.5 -135.5q0 -80 56 -136.5t136 -56.5z" />
    <glyph glyph-name="plusminus" unicode="&#xb1;" horiz-adv-x="1267" 
d="M588 515v429h-400v86h400v398h92v-398h399v-86h-399v-429h-92zM188 278v82h891v-82h-891z" />
    <glyph glyph-name="acute" unicode="&#xb4;" horiz-adv-x="600" 
d="M0 1331l223 327h97l-238 -327h-82z" />
    <glyph glyph-name="periodcentered" unicode="&#xb7;" horiz-adv-x="458" 
d="M229 573q-37 0 -62.5 25.5t-25.5 61.5t26 62t62 26q35 0 61.5 -26t26.5 -62t-26 -61.5t-62 -25.5z" />
    <glyph glyph-name="cedilla" unicode="&#xb8;" horiz-adv-x="600" 
d="M128 -458l-27 70q313 23 313 136q0 64 -112 64q-30 0 -80 -5l-22 25l130 175h64l-108 -147q27 3 50 3q73 0 112 -31.5t39 -82.5q0 -81 -95.5 -138t-263.5 -69z" />
    <glyph glyph-name="guillemotright" unicode="&#xbb;" horiz-adv-x="1025" 
d="M163 136l-69 24l339 468l-339 469l69 23l374 -492zM557 136l-69 24l339 468l-339 469l69 23l374 -492z" />
    <glyph glyph-name="questiondown" unicode="&#xbf;" horiz-adv-x="1111" 
d="M600 1036q-37 0 -63 26t-26 62q0 35 26 60t62 25q37 0 62.5 -25.5t25.5 -61.5t-25.5 -61t-61.5 -25zM590 -474q-136 0 -250.5 63t-180 167t-65.5 224q0 99 37 187t96 137q18 14 56 43t57.5 44.5t52 44t51 49t41.5 51t35.5 58t22.5 63t12 73.5q2 15 0 32l94 1
q0 -68 -18 -128.5t-47.5 -108t-74 -94.5t-91 -86.5t-104.5 -85.5q-11 -8 -16 -12q-48 -38 -80.5 -109.5t-32.5 -146.5q0 -156 119 -264t290 -108q115 0 221 61t143 149l39 -81q-46 -88 -161 -155.5t-246 -67.5z" />
    <glyph glyph-name="multiply" unicode="&#xd7;" horiz-adv-x="1338" 
d="M252 307l-63 60l419 426l-420 426l63 60l418 -424l418 425l62 -60l-419 -426l420 -426l-62 -60l-419 424z" />
    <glyph glyph-name="divide" unicode="&#xf7;" horiz-adv-x="1675" 
d="M820 1130q-40 -1 -68.5 28.5t-28.5 70.5q0 40 29 69t69 29q41 0 70.5 -29.5t29.5 -69.5t-30 -69t-71 -29zM188 727v86h1299v-86h-1299zM822 199q-41 0 -70 29t-29 70t29.5 70t69.5 29t69.5 -29.5t29.5 -69.5t-29 -69.5t-70 -29.5z" />
    <glyph glyph-name="circumflex" unicode="&#x2c6;" horiz-adv-x="600" 
d="M-12 1349l312 291h60l312 -291h-88l-254 227l-255 -227h-87z" />
    <glyph glyph-name="caron" unicode="&#x2c7;" horiz-adv-x="600" 
d="M317 1349l-311 291h87l254 -227l255 227h88l-313 -291h-60z" />
    <glyph glyph-name="breve" unicode="&#x2d8;" horiz-adv-x="600" 
d="M300 1348q-115 0 -196.5 81.5t-81.5 196.5h62q0 -90 63.5 -154t152.5 -64t152.5 64t63.5 154h62q0 -115 -81.5 -196.5t-196.5 -81.5z" />
    <glyph glyph-name="dotaccent" unicode="&#x2d9;" horiz-adv-x="600" 
d="M301 1422q-32 0 -54.5 22.5t-22.5 52.5q0 31 23 54t54 23t53.5 -23t22.5 -54t-22.5 -53t-53.5 -22z" />
    <glyph glyph-name="ring" unicode="&#x2da;" horiz-adv-x="600" 
d="M204 1315q-82 0 -140.5 59t-58.5 141t58.5 140.5t140.5 58.5q83 0 141.5 -58.5t58.5 -140.5q0 -83 -59 -141.5t-141 -58.5zM204 1373q59 0 100.5 41.5t41.5 100.5t-41.5 100.5t-100.5 41.5q-58 0 -99.5 -41.5t-41.5 -100.5t41.5 -100.5t99.5 -41.5z" />
    <glyph glyph-name="ogonek" unicode="&#x2db;" horiz-adv-x="600" 
d="M353 -466q-105 0 -168.5 47.5t-63.5 130.5q0 52 27 101t72.5 86t97.5 65t109 46l52 -10q-280 -135 -280 -268q0 -21 7 -41t24 -41t52.5 -33.5t84.5 -12.5q40 0 91 10l25 -65q-70 -15 -130 -15z" />
    <glyph glyph-name="tilde" unicode="&#x2dc;" horiz-adv-x="628" 
d="M503 1359q-41 0 -76.5 16t-61 38.5t-49 45t-52.5 38.5t-61 16q-48 0 -87 -35.5t-59 -100.5l-57 22q24 91 79 135t125 44q41 0 76.5 -16t61 -38.5t49 -45t52.5 -38.5t61 -16q49 0 87.5 35.5t57.5 100.5l58 -23q-24 -91 -79.5 -134.5t-124.5 -43.5z" />
    <glyph glyph-name="hungarumlaut" unicode="&#x2dd;" horiz-adv-x="600" 
d="M-4 1325l175 327h85l-185 -327h-75zM259 1325l216 327h90l-228 -327h-78z" />
    <glyph glyph-name="gravecomb" unicode="&#x300;" 
d="M-82 1333l-238 327h97l223 -327h-82z" />
    <glyph glyph-name="acutecomb" unicode="&#x301;" 
d="M-320 1331l223 327h97l-238 -327h-82z" />
    <glyph glyph-name="tildecomb" unicode="&#x303;" 
d="M-204 1359q-41 0 -76.5 16t-61 38.5t-49 45t-52.5 38.5t-61 16q-48 0 -87 -35.5t-59 -100.5l-57 22q24 91 79 135t125 44q41 0 76.5 -16t61 -38.5t49 -45t52.5 -38.5t61 -16q49 0 87.5 35.5t57.5 100.5l58 -23q-24 -91 -79.5 -134.5t-124.5 -43.5z" />
    <glyph glyph-name="uni060C" unicode="&#x60c;" horiz-adv-x="547" 
d="M365 521q17 0 29 -6t12 -16q-20 0 -47 -12.5t-58 -38.5t-52 -77t-21 -116q0 -48 22 -80q42 0 67 -23t25 -60q0 -38 -27 -65t-66 -27t-73 41t-34 128q0 82 22.5 151.5t56.5 111.5t72 65.5t72 23.5z" />
    <glyph glyph-name="uni061B" unicode="&#x61b;" horiz-adv-x="551" 
d="M369 1395q17 0 29 -6t12 -16q-19 0 -46.5 -12.5t-58 -38.5t-52 -77t-21.5 -116q0 -49 23 -80q42 0 67 -23t25 -60q0 -38 -27 -65t-66 -27q-40 0 -73.5 41t-33.5 128q0 82 22 151.5t56 111.5t72 65.5t72 23.5zM263 175q37 0 62.5 -25.5t25.5 -61.5t-25.5 -62t-62.5 -26
q-36 0 -61.5 26t-25.5 62t25.5 61.5t61.5 25.5z" />
    <glyph glyph-name="uni061F" unicode="&#x61f;" horiz-adv-x="1091" 
d="M94 1194q0 120 65.5 224t180 167t250.5 63q131 0 246 -67.5t161 -155.5l-39 -81q-37 88 -143 148.5t-221 60.5q-171 0 -290 -107.5t-119 -263.5q0 -75 32.5 -146.5t80.5 -110.5q49 -39 76.5 -61.5t70 -60.5t67 -65t54.5 -66t45.5 -72.5t26.5 -75.5t11 -84v-29l-94 1
q1 16 0 31q-2 38 -12 73.5t-22.5 63.5t-35.5 58.5t-41.5 51t-51 49t-52 44t-57.5 44.5t-56 43q-59 48 -96 136.5t-37 187.5zM511 50q0 36 26 62t63 26q36 0 61.5 -25t25.5 -61t-25.5 -61.5t-62.5 -25.5q-36 0 -62 25t-26 60z" />
    <glyph glyph-name="uni0621" unicode="&#x621;" horiz-adv-x="1457" 
d="M100 0v96h355q-77 46 -132 117t-82.5 151.5t-30 169.5t19 173.5t71 161t119.5 134t171 91.5t219 34q191 0 318.5 -95.5t228.5 -315.5l-89 -41q-93 198 -193.5 278t-268.5 80q-110 0 -202 -32.5t-153.5 -86.5t-100.5 -126t-50 -150t4.5 -159.5t56.5 -153.5t113.5 -133
t167.5 -97h715v-96h-1257z" />
    <glyph glyph-name="uni0622" unicode="&#x622;" horiz-adv-x="843" 
d="M51 2110q23 96 81.5 149.5t140.5 53.5q49 0 92.5 -24t71 -53t64 -53t72.5 -24q47 0 83 37t52 104l86 -34q-25 -109 -91 -161t-149.5 -38.5t-161.5 85.5q-26 24 -39 34.5t-35.5 21t-45.5 10.5q-47 0 -83 -37t-53 -104zM470 0h-97v1912h97v-1912z" />
    <glyph glyph-name="uni0623" unicode="&#x623;" horiz-adv-x="396" 
d="M191 2075h153v-93h-294v93h40q-12 60 27 106.5t104 46.5q42 0 77 -24t48 -62l-87 -35q-2 15 -13 24.5t-25 9.5q-17 0 -28 -11.5t-11 -28.5q0 -15 9 -26zM246 0h-97v1912h97v-1912z" />
    <glyph glyph-name="uni0624" unicode="&#x624;" horiz-adv-x="1464" 
d="M727 1395h153v-93h-294v93h40q-12 60 27 106.5t104 46.5q42 0 77 -24t48 -62l-87 -35q-2 15 -13 24.5t-25 9.5q-17 0 -28 -11.5t-11 -28.5q0 -15 9 -26zM502 -485v98h280q172 0 295.5 105.5t168.5 281.5h-712q-194 61 -314 225.5t-120 374.5q0 171 85 316.5t230.5 230.5
t317.5 85q165 0 307 -80t228.5 -217t95.5 -301v-456q0 -288 -163.5 -475.5t-418.5 -187.5h-280zM535 96h728l3 504q-1 146 -73 270t-195 196t-269 72q-109 0 -209.5 -43t-173.5 -115t-116 -172t-43 -209q0 -170 96.5 -307t251.5 -196z" />
    <glyph glyph-name="uni0625" unicode="&#x625;" horiz-adv-x="396" 
d="M246 0h-97v1912h97v-1912zM191 -203h153v-93h-294v93h40q-12 60 27 106.5t104 46.5q42 0 77 -24t48 -62l-87 -35q-2 15 -13 24.5t-25 9.5q-17 0 -28 -11.5t-11 -28.5q0 -15 9 -26z" />
    <glyph glyph-name="uni0626" unicode="&#x626;" horiz-adv-x="2085" 
d="M100 175v235h98v-234q0 -247 135 -406.5t349 -159.5h749q173 0 302.5 106t154.5 284q-5 51 -13 86t-31.5 77t-60.5 67.5t-102.5 43t-155.5 17.5h-821q0 235 48.5 412t137.5 284.5t207 160t265 52.5h326v-97h-325q-111 0 -201.5 -39.5t-163.5 -123t-120.5 -223
t-65.5 -329.5h714q106 0 187.5 -21t133 -56.5t84 -86t44.5 -105.5t10 -119q2 -128 -70 -241t-191.5 -179.5t-251.5 -67.5h-831q-158 1 -281.5 85.5t-191.5 235t-68 342.5zM141 571h153v-93h-294v93h40q-12 60 27 106.5t104 46.5q42 0 77 -24t48 -62l-87 -35q-2 15 -13 24.5
t-25 9.5q-17 0 -28 -11.5t-11 -28.5q0 -15 9 -26z" />
    <glyph glyph-name="uni0627" unicode="&#x627;" horiz-adv-x="297" 
d="M197 0h-97v1912h97v-1912z" />
    <glyph glyph-name="uni0628" unicode="&#x628;" horiz-adv-x="2118" 
d="M100 600q0 128 50 244.5t134.5 201.5t201.5 135.5t246 50.5v-94q-146 0 -270 -72.5t-196 -196t-72 -269.5q0 -171 97.5 -308.5t253.5 -195.5h1375l1 1104h97l-1 -1200h-1483q-194 61 -314 225.5t-120 374.5zM1188 -300q-32 0 -53.5 22t-21.5 53t21.5 53t53.5 22
q31 0 53 -22t22 -53t-22 -53t-53 -22z" />
    <glyph glyph-name="uni0629" unicode="&#x629;" horiz-adv-x="1467" 
d="M580 1460q-32 0 -53.5 22t-21.5 53t21.5 53t53.5 22q31 0 53 -22t22 -53t-22 -53t-53 -22zM885 1460q-31 0 -53 22t-22 53t22 53t53 22t53 -22t22 -53t-22 -53t-53 -22zM100 600q0 171 85 316.5t230.5 230.5t317.5 85q171 0 316 -85t229.5 -230.5t85.5 -316.5l3 -600
h-833q-194 61 -314 225.5t-120 374.5zM187 599q0 -170 96.5 -307t251.5 -196h735l-4 504q0 146 -72 270t-195.5 196t-269.5 72q-109 0 -209.5 -43t-173.5 -115t-116 -172t-43 -209z" />
    <glyph glyph-name="uni062A" unicode="&#x62a;" horiz-adv-x="2118" 
d="M1147 1428q-31 0 -53 22t-22 53t22 53t53 22t53 -22t22 -53t-22 -53t-53 -22zM1452 1428q-32 0 -53.5 22t-21.5 53t21.5 53t53.5 22q31 0 53 -22t22 -53t-22 -53t-53 -22zM100 600q0 128 50 244.5t134.5 201.5t201.5 135.5t246 50.5v-94q-146 0 -270 -72.5t-196 -196
t-72 -269.5q0 -171 97.5 -308.5t253.5 -195.5h1375l1 1104h97l-1 -1200h-1483q-194 61 -314 225.5t-120 374.5z" />
    <glyph glyph-name="uni062B" unicode="&#x62b;" horiz-adv-x="2118" 
d="M1300 1737q-32 0 -53.5 21.5t-21.5 53.5t21.5 53.5t53.5 21.5q31 0 53 -22t22 -53t-22 -53t-53 -22zM1147 1428q-31 0 -53 22t-22 53t22 53t53 22t53 -22t22 -53t-22 -53t-53 -22zM1452 1428q-32 0 -53.5 22t-21.5 53t21.5 53t53.5 22q31 0 53 -22t22 -53t-22 -53
t-53 -22zM100 600q0 128 50 244.5t134.5 201.5t201.5 135.5t246 50.5v-94q-146 0 -270 -72.5t-196 -196t-72 -269.5q0 -171 97.5 -308.5t253.5 -195.5h1375l1 1104h97l-1 -1200h-1483q-194 61 -314 225.5t-120 374.5z" />
    <glyph glyph-name="uni062C" unicode="&#x62c;" horiz-adv-x="1785" 
d="M763 -669q-142 0 -265 43t-210 119.5t-137.5 185t-50.5 234.5v183h1487v522q0 214 -159.5 349.5t-406.5 135.5h-921v97h922q288 0 475.5 -163.5t187.5 -418.5v-618h-1487q1 -290 149.5 -431t416.5 -141h399v-97h-400zM1485 -676q-31 0 -53 22t-22 53t22 53t53 22t53 -22
t22 -53t-22 -53t-53 -22z" />
    <glyph glyph-name="uni062D" unicode="&#x62d;" horiz-adv-x="1785" 
d="M763 -669q-142 0 -265 43t-210 119.5t-137.5 185t-50.5 234.5v183h1487v522q0 214 -159.5 349.5t-406.5 135.5h-921v97h922q288 0 475.5 -163.5t187.5 -418.5v-618h-1487q1 -290 149.5 -431t416.5 -141h399v-97h-400z" />
    <glyph glyph-name="uni062E" unicode="&#x62e;" horiz-adv-x="1785" 
d="M1022 1428q-32 0 -53.5 22t-21.5 53t21.5 53t53.5 22q31 0 53 -22t22 -53t-22 -53t-53 -22zM763 -669q-142 0 -265 43t-210 119.5t-137.5 185t-50.5 234.5v183h1487v522q0 214 -159.5 349.5t-406.5 135.5h-921v97h922q288 0 475.5 -163.5t187.5 -418.5v-618h-1487
q1 -290 149.5 -431t416.5 -141h399v-97h-400z" />
    <glyph glyph-name="uni062F" unicode="&#x62f;" horiz-adv-x="1467" 
d="M100 0l1 96h831q155 59 251.5 196t96.5 307q0 109 -43 209t-116 172t-173.5 115t-209.5 43q-173 0 -311 -99.5t-194 -258.5l-91 37q68 184 229.5 299.5t362.5 115.5q172 0 317.5 -85t230.5 -230.5t85 -316.5q0 -210 -120 -374.5t-314 -225.5h-833z" />
    <glyph glyph-name="uni0630" unicode="&#x630;" horiz-adv-x="1467" 
d="M736 1460q-32 0 -53.5 22t-21.5 53t21.5 53t53.5 22q31 0 53 -22t22 -53t-22 -53t-53 -22zM100 0l1 96h831q155 59 251.5 196t96.5 307q0 109 -43 209t-116 172t-173.5 115t-209.5 43q-173 0 -311 -99.5t-194 -258.5l-91 37q68 184 229.5 299.5t362.5 115.5
q172 0 317.5 -85t230.5 -230.5t85 -316.5q0 -210 -120 -374.5t-314 -225.5h-833z" />
    <glyph glyph-name="uni0631" unicode="&#x631;" horiz-adv-x="1059" 
d="M100 -485v99h277q214 -1 349.5 158.5t135.5 406.5v1021h97v-1022q0 -288 -163.5 -475.5t-418.5 -187.5h-277z" />
    <glyph glyph-name="uni0632" unicode="&#x632;" horiz-adv-x="1059" 
d="M913 1428q-31 0 -53 22t-22 53t22 53t53 22t53 -22t22 -53t-22 -53t-53 -22zM100 -485v99h277q214 -1 349.5 158.5t135.5 406.5v1021h97v-1022q0 -288 -163.5 -475.5t-418.5 -187.5h-277z" />
    <glyph glyph-name="uni0633" unicode="&#x633;" horiz-adv-x="2568" 
d="M100 178v362h97v-361q0 -247 135.5 -406.5t349.5 -159.5t349.5 159.5t135.5 406.5v1021h97l-4 -1104h499l-2 904h97l2 -904h515l-2 1104h97l2 -1200h-1222q-48 -219 -200 -352t-364 -133q-255 0 -418.5 187.5t-163.5 475.5z" />
    <glyph glyph-name="uni0634" unicode="&#x634;" horiz-adv-x="2568" 
d="M1805 1737q-31 0 -53 21.5t-22 53.5t22 53.5t53 21.5t53 -22t22 -53t-22 -53t-53 -22zM1652 1428q-32 0 -53.5 22t-21.5 53t21.5 53t53.5 22q31 0 53 -22t22 -53t-22 -53t-53 -22zM1957 1428q-31 0 -53 22t-22 53t22 53t53 22t53 -22t22 -53t-22 -53t-53 -22zM100 178
v362h97v-361q0 -247 135.5 -406.5t349.5 -159.5t349.5 159.5t135.5 406.5v1021h97l-4 -1104h499l-2 904h97l2 -904h515l-2 1104h97l2 -1200h-1222q-48 -219 -200 -352t-364 -133q-255 0 -418.5 187.5t-163.5 475.5z" />
    <glyph glyph-name="uni0635" unicode="&#x635;" horiz-adv-x="2664" 
d="M682 -485q-255 0 -418.5 187.5t-163.5 475.5v362h97v-361q0 -247 135.5 -406.5t349.5 -159.5t349.5 159.5t135.5 406.5v1111h96v-90h638q288 0 475.5 -163.5t187.5 -418.5v-618h-1318q-48 -219 -200 -352t-364 -133zM1260 96h1206v522q0 214 -159.5 349.5t-406.5 135.5
h-636z" />
    <glyph glyph-name="uni0636" unicode="&#x636;" horiz-adv-x="2664" 
d="M1944 1429q-32 0 -53.5 21.5t-21.5 53.5t21.5 53.5t53.5 21.5q31 0 53 -22t22 -53t-22 -53t-53 -22zM682 -485q-255 0 -418.5 187.5t-163.5 475.5v362h97v-361q0 -247 135.5 -406.5t349.5 -159.5t349.5 159.5t135.5 406.5v1111h96v-90h638q288 0 475.5 -163.5
t187.5 -418.5v-618h-1318q-48 -219 -200 -352t-364 -133zM1260 96h1206v522q0 214 -159.5 349.5t-406.5 135.5h-636z" />
    <glyph glyph-name="uni0637" unicode="&#x637;" horiz-adv-x="1798" 
d="M100 0v96h205v1816h97v-712h633q288 0 475.5 -163.5t187.5 -418.5v-618h-1598zM402 96h1198v522q0 214 -159.5 349.5t-406.5 135.5h-632v-1007z" />
    <glyph glyph-name="uni0638" unicode="&#x638;" horiz-adv-x="1798" 
d="M100 0v96h205v1816h97v-712h633q288 0 475.5 -163.5t187.5 -418.5v-618h-1598zM1034 1428q-32 0 -53.5 22t-21.5 53t21.5 53t53.5 22q31 0 53 -22t22 -53t-22 -53t-53 -22zM402 96h1198v522q0 214 -159.5 349.5t-406.5 135.5h-632v-1007z" />
    <glyph glyph-name="uni0639" unicode="&#x639;" horiz-adv-x="1710" 
d="M764 -669q-142 0 -265 43t-210 119.5t-137.5 185t-50.5 234.5l-1 183h555q-81 61 -136.5 144.5t-81.5 174t-25.5 187.5t26 187t78.5 171.5t126.5 141.5t176 95t221.5 35q223 0 370.5 -106t199.5 -310l-99 -43q-29 189 -148.5 277t-326.5 88q-109 0 -209.5 -43
t-173.5 -115t-116 -172t-43 -209q0 -170 96.5 -307t251.5 -196h768v-96h-1411q1 -290 149.5 -431t416.5 -141h399v-97h-400z" />
    <glyph glyph-name="uni063A" unicode="&#x63a;" horiz-adv-x="1710" 
d="M1040 1460q-32 0 -53.5 22t-21.5 53t21.5 53t53.5 22q31 0 53 -22t22 -53t-22 -53t-53 -22zM764 -669q-142 0 -265 43t-210 119.5t-137.5 185t-50.5 234.5l-1 183h555q-81 61 -136.5 144.5t-81.5 174t-25.5 187.5t26 187t78.5 171.5t126.5 141.5t176 95t221.5 35
q223 0 370.5 -106t199.5 -310l-99 -43q-29 189 -148.5 277t-326.5 88q-109 0 -209.5 -43t-173.5 -115t-116 -172t-43 -209q0 -170 96.5 -307t251.5 -196h768v-96h-1411q1 -290 149.5 -431t416.5 -141h399v-97h-400z" />
    <glyph glyph-name="uni0640" unicode="&#x640;" horiz-adv-x="547" 
d="M557 96v-96h-567v96h567z" />
    <glyph glyph-name="uni0641" unicode="&#x641;" horiz-adv-x="2707" 
d="M1973 1460q-31 0 -53 22t-22 53t22 53t53 22t53 -22t22 -53t-22 -53t-53 -22zM100 600q0 128 50 244.5t134.5 201.5t201.5 135.5t246 50.5v-94q-146 0 -270 -72.5t-196 -196t-72 -269.5q0 -171 97.5 -308.5t253.5 -195.5h1043q-81 61 -136.5 144.5t-81.5 174t-25.5 187.5
t26 187t78.5 171.5t126.5 141.5t176 95t221.5 35q171 0 316 -85t229.5 -230.5t85.5 -316.5l3 -600h-2073q-194 61 -314 225.5t-120 374.5zM1427 599q0 -170 96.5 -307t251.5 -196h735l-4 504q-1 146 -73 270t-195 196t-269 72q-109 0 -209.5 -43t-173.5 -115t-116 -172
t-43 -209z" />
    <glyph glyph-name="uni0642" unicode="&#x642;" horiz-adv-x="2203" 
d="M1319 1460q-31 0 -53 22t-22 53t22 53t53 22t53 -22t22 -53t-22 -53t-53 -22zM1624 1460q-32 0 -53.5 22t-21.5 53t21.5 53t53.5 22q31 0 53 -22t22 -53t-22 -53t-53 -22zM100 178v135h97v-134q0 -247 135.5 -406.5t349.5 -159.5h839q172 0 295.5 105.5t168.5 281.5h-712
q-194 61 -314 225.5t-120 374.5q0 171 85 316.5t230.5 230.5t317.5 85q165 0 307 -80t228.5 -217t95.5 -301v-456q0 -288 -163.5 -475.5t-418.5 -187.5h-880q-158 11 -281.5 99t-191.5 235t-68 329zM926 599q0 -170 96.5 -307t251.5 -196h728l3 504q1 146 -71 270t-196 196
t-270 72q-109 0 -209.5 -43t-173.5 -115t-116 -172t-43 -209z" />
    <glyph glyph-name="uni0643" unicode="&#x643;" horiz-adv-x="2118" 
d="M100 600q0 128 50 244.5t134.5 201.5t201.5 135.5t246 50.5v-94q-146 0 -270 -72.5t-196 -196t-72 -269.5q0 -171 97.5 -308.5t253.5 -195.5h1375l1 1816h97l-1 -1912h-1483q-194 61 -314 225.5t-120 374.5zM947 1150v77h502v121q0 49 -36.5 79.5t-95.5 30.5h-280
q-10 88 45.5 140t160.5 52h172v-77h-172q-85 0 -114 -38h188q91 0 150.5 -53t59.5 -134v-198h-580z" />
    <glyph glyph-name="uni0644" unicode="&#x644;" horiz-adv-x="1364" 
d="M682 -485q-255 0 -418.5 187.5t-163.5 475.5v361h97v-360q0 -247 135.5 -406.5t349.5 -159.5t349.5 159.5t135.5 406.5v1733h97v-1734q0 -288 -163.5 -475.5t-418.5 -187.5z" />
    <glyph glyph-name="uni0645" unicode="&#x645;" horiz-adv-x="1915" 
d="M100 -485q0 231 155.5 388.5t405.5 187.5q-63 95 -88 208t-14 221t60 210t125.5 178.5t191 123t248.5 46.5q128 0 244.5 -50t201.5 -135t135 -202t50 -245t-50 -245t-135 -202t-201.5 -135t-244.5 -50q-129 0 -244.5 49t-203.5 137q-236 -8 -387 -142.5t-151 -342.5h-98z
M1184 -92q146 0 269.5 72t195.5 196t72 270t-72 270t-195.5 196t-269.5 72t-270 -72t-196.5 -196t-72.5 -270t72.5 -270t196.5 -196t270 -72z" />
    <glyph glyph-name="uni0646" unicode="&#x646;" horiz-adv-x="1364" 
d="M682 1428q-32 0 -53.5 22t-21.5 53t21.5 53t53.5 22q31 0 53 -22t22 -53t-22 -53t-53 -22zM682 -485q-255 0 -418.5 187.5t-163.5 475.5v1022h97v-1021q0 -247 135.5 -406.5t349.5 -159.5t349.5 159.5t135.5 406.5v1021h97v-1022q0 -288 -163.5 -475.5t-418.5 -187.5z
" />
    <glyph glyph-name="uni0647" unicode="&#x647;" horiz-adv-x="1467" 
d="M100 600q0 171 85 316.5t230.5 230.5t317.5 85q171 0 316 -85t229.5 -230.5t85.5 -316.5l3 -600h-833q-194 61 -314 225.5t-120 374.5zM187 599q0 -170 96.5 -307t251.5 -196h735l-4 504q0 146 -72 270t-195.5 196t-269.5 72q-109 0 -209.5 -43t-173.5 -115t-116 -172
t-43 -209z" />
    <glyph glyph-name="uni0648" unicode="&#x648;" horiz-adv-x="1464" 
d="M502 -485v98h280q172 0 295.5 105.5t168.5 281.5h-712q-194 61 -314 225.5t-120 374.5q0 171 85 316.5t230.5 230.5t317.5 85q165 0 307 -80t228.5 -217t95.5 -301v-456q0 -288 -163.5 -475.5t-418.5 -187.5h-280zM535 96h728l3 504q-1 146 -73 270t-195 196t-269 72
q-109 0 -209.5 -43t-173.5 -115t-116 -172t-43 -209q0 -170 96.5 -307t251.5 -196z" />
    <glyph glyph-name="uni0649" unicode="&#x649;" horiz-adv-x="2085" 
d="M100 175v235h98v-234q0 -247 135 -406.5t349 -159.5h749q173 0 302.5 106t154.5 284q-5 51 -13 86t-31.5 77t-60.5 67.5t-102.5 43t-155.5 17.5h-821q0 235 48.5 412t137.5 284.5t207 160t265 52.5h326v-97h-325q-111 0 -201.5 -39.5t-163.5 -123t-120.5 -223
t-65.5 -329.5h714q106 0 187.5 -21t133 -56.5t84 -86t44.5 -105.5t10 -119q2 -128 -70 -241t-191.5 -179.5t-251.5 -67.5h-831q-158 1 -281.5 85.5t-191.5 235t-68 342.5z" />
    <glyph glyph-name="uni064A" unicode="&#x64a;" horiz-adv-x="2085" 
d="M100 175v235h98v-234q0 -247 135 -406.5t349 -159.5h749q173 0 302.5 106t154.5 284q-5 51 -13 86t-31.5 77t-60.5 67.5t-102.5 43t-155.5 17.5h-821q0 235 48.5 412t137.5 284.5t207 160t265 52.5h326v-97h-325q-111 0 -201.5 -39.5t-163.5 -123t-120.5 -223
t-65.5 -329.5h714q106 0 187.5 -21t133 -56.5t84 -86t44.5 -105.5t10 -119q2 -128 -70 -241t-191.5 -179.5t-251.5 -67.5h-831q-158 1 -281.5 85.5t-191.5 235t-68 342.5zM938 -770q-32 0 -53.5 22t-21.5 53t21.5 53t53.5 22q31 0 53 -22t22 -53t-22 -53t-53 -22zM1243 -770
q-31 0 -53 22t-22 53t22 53t53 22t53 -22t22 -53t-22 -53t-53 -22z" />
    <glyph glyph-name="uni064B" unicode="&#x64b;" 
d="M0 1455h325v-81h-325v81zM0 1294h325v-81h-325v81z" />
    <glyph glyph-name="uni064C" unicode="&#x64c;" 
d="M0 1622v67h108v-153h47q-9 18 -9 43q0 46 33.5 78t81.5 32q49 0 81.5 -31.5t33.5 -78.5q0 -47 -33 -78.5t-82 -31.5h-220v153h-41zM216 1579q0 -19 12.5 -31t32.5 -12t32.5 12t12.5 31q0 18 -13 30.5t-32 12.5t-32 -12.5t-13 -30.5z" />
    <glyph glyph-name="uni064D" unicode="&#x64d;" 
d="M0 0h325v-81h-325v81zM0 -161h325v-81h-325v81z" />
    <glyph glyph-name="uni064E" unicode="&#x64e;" 
d="M0 1294h325v-81h-325v81z" />
    <glyph glyph-name="uni064F" unicode="&#x64f;" 
d="M0 1676v71h91q-9 21 -9 46q0 50 35 83.5t87 33.5q51 0 85.5 -33.5t35.5 -83.5q1 -49 -34 -83t-87 -34h-204zM156 1793q0 -20 13.5 -33t34.5 -13q20 0 34 13.5t14 32.5t-14 32.5t-34 13.5q-21 0 -34.5 -13t-13.5 -33z" />
    <glyph glyph-name="uni0650" unicode="&#x650;" 
d="M0 -1h325v-81h-325v81z" />
    <glyph glyph-name="uni0651" unicode="&#x651;" 
d="M183 1292q-10 -23 -32 -38t-50 -15q-44 0 -72.5 32.5t-28.5 78.5q0 44 26 76.5t61 38.5l16 -68q-12 -3 -21.5 -15.5t-9.5 -27.5q0 -16 10.5 -26.5t27.5 -10.5q24 -1 37 20.5t13 54.5l36 -9q0 -23 10 -36.5t25 -13.5q11 -1 18 6.5t7 18.5q0 22 -22 28l15 67q35 -8 57 -35
t22 -65q-1 -42 -24.5 -70t-59.5 -28q-45 0 -61 37z" />
    <glyph glyph-name="uni0652" unicode="&#x652;" 
d="M126 1370q-52 0 -89 35.5t-37 85.5t37 86t89 36t89 -36t37 -86t-37 -85.5t-89 -35.5zM126 1446q19 0 33 13t14 31q0 19 -14 32.5t-33 13.5t-32.5 -13.5t-13.5 -32.5q0 -18 13.5 -31t32.5 -13z" />
    <glyph glyph-name="uni0653" unicode="&#x653;" 
d="M0 1398q23 96 81.5 149.5t140.5 53.5q49 0 92.5 -24t71 -53t64 -53t72.5 -24q47 0 83 37t52 104l86 -34q-25 -109 -91 -161t-149.5 -38.5t-161.5 85.5q-26 24 -39 34.5t-35.5 21t-45.5 10.5q-47 0 -83 -37t-53 -104z" />
    <glyph glyph-name="uni0654" unicode="&#x654;" 
d="M141 1550h153v-93h-294v93h40q-12 60 27 106.5t104 46.5q42 0 77 -24t48 -62l-87 -35q-2 15 -13 24.5t-25 9.5q-17 0 -28 -11.5t-11 -28.5q0 -16 9 -26z" />
    <glyph glyph-name="uni0655" unicode="&#x655;" 
d="M141 276h153v-93h-294v93h40q-12 60 27 106.5t104 46.5q42 0 77 -24t48 -62l-87 -35q-2 15 -13 24.5t-25 9.5q-17 0 -28 -11.5t-11 -28.5q0 -16 9 -26z" />
    <glyph glyph-name="uni0658" unicode="&#x658;" 
 />
    <glyph glyph-name="uni0660" unicode="&#x660;" horiz-adv-x="350" 
d="M175 0q-31 0 -53 22t-22 53t22 53t53 22t53 -22t22 -53t-22 -53t-53 -22z" />
    <glyph glyph-name="uni0661" unicode="&#x661;" horiz-adv-x="297" 
d="M197 0h-97v1650h97v-1650z" />
    <glyph glyph-name="uni0662" unicode="&#x662;" horiz-adv-x="1302" 
d="M100 1651h1102v-95h-963l490 -1556h-104l-525 1633v18z" />
    <glyph glyph-name="uni0663" unicode="&#x663;" horiz-adv-x="1383" 
d="M100 1612h119l263 -608q91 23 129 122t10 241l71 36q23 -191 104.5 -288.5t198.5 -76.5q59 10 102 45t62.5 81.5t28 99.5t-2.5 99q-17 104 -98 178t-174 71l5 95q131 -3 231.5 -96t126.5 -233q28 -157 -47.5 -281.5t-214.5 -148.5q-100 -17 -181.5 28.5t-134.5 146.5
q-18 -76 -64.5 -129t-114.5 -75l397 -919h-104z" />
    <glyph glyph-name="uni0664" unicode="&#x664;" horiz-adv-x="1150" 
d="M100 439q0 142 105.5 248t274.5 143q-297 82 -297 394q0 123 66.5 222t172.5 151.5t227 52.5h401v-91h-404q-96 0 -180.5 -40t-137.5 -117.5t-53 -175.5q0 -80 29.5 -144t79 -106.5t119.5 -72t147.5 -44t165.5 -17.5v-66q-175 6 -315.5 -31t-224 -116t-83.5 -187
q0 -75 28 -136t73.5 -100t105 -65.5t120 -37.5t122.5 -11h408v-92h-414q-106 0 -201.5 29t-170.5 83t-119.5 138.5t-44.5 188.5z" />
    <glyph glyph-name="uni0665" unicode="&#x665;" horiz-adv-x="1464" 
d="M733 -32q-172 0 -317.5 85t-230.5 230.5t-85 316.5t85 316.5t230.5 230.5t317.5 85q128 0 244.5 -50t201.5 -135t135 -202t50 -245t-50 -245t-135 -202t-201.5 -135t-244.5 -50zM733 62q146 0 269.5 72t195.5 196t72 270t-72 270t-195.5 196t-269.5 72t-270 -72
t-196.5 -196t-72.5 -270t72.5 -270t196.5 -196t270 -72z" />
    <glyph glyph-name="uni0666" unicode="&#x666;" horiz-adv-x="1302" 
d="M1202 1650v-1650h-97v1553h-1005v97h1102z" />
    <glyph glyph-name="uni0667" unicode="&#x667;" horiz-adv-x="1669" 
d="M1569 1651l-722 -1651h-28l-719 1651h104l628 -1459l633 1459h104z" />
    <glyph glyph-name="uni0668" unicode="&#x668;" horiz-adv-x="1669" 
d="M1569 -1h-104l-633 1459l-628 -1459h-104l719 1651h28z" />
    <glyph glyph-name="uni0669" unicode="&#x669;" horiz-adv-x="1245" 
d="M1131 -5v810q-81 -127 -211.5 -186t-282.5 -59q-103 0 -200.5 37t-174 104t-122.5 168.5t-46 220.5q0 135 75.5 256.5t207 196.5t283.5 75q115 0 221 -44.5t181.5 -117t120.5 -169.5t45 -198v-1094h-97zM659 655q127 0 234 58t167.5 156t60.5 214q0 110 -60.5 210.5
t-167.5 164t-233 63.5q-94 0 -181.5 -36.5t-150 -96.5t-100 -138.5t-37.5 -160.5q0 -183 136.5 -308.5t331.5 -125.5z" />
    <glyph glyph-name="uni066A" unicode="&#x66a;" horiz-adv-x="1703" 
d="M459 900q-150 0 -257.5 107t-107.5 258t107.5 258.5t258.5 107.5q150 0 257.5 -107t107.5 -258t-107.5 -258.5t-258.5 -107.5zM1354 1613h92l-1102 -1613h-92zM459 974q121 0 206.5 85.5t85.5 206.5q0 120 -85.5 205.5t-205.5 85.5q-121 0 -206.5 -85.5t-85.5 -206.5
q0 -120 85.5 -205.5t205.5 -85.5zM1243 -20q-150 0 -257.5 107t-107.5 258t107.5 258.5t258.5 107.5q150 0 257.5 -107t107.5 -258t-107.5 -258.5t-258.5 -107.5zM1243 54q121 0 206.5 85.5t85.5 206.5q0 120 -85.5 205.5t-205.5 85.5q-121 0 -207 -85.5t-86 -206.5
q0 -120 85.5 -205.5t206.5 -85.5z" />
    <glyph glyph-name="uni066B" unicode="&#x66b;" horiz-adv-x="448" 
d="M135 -335q-17 0 -28.5 6t-11.5 15q19 0 45.5 12.5t56.5 38t51 75.5t21 114q0 46 -22 78q-41 0 -65.5 23t-24.5 59q0 37 26.5 63.5t64.5 26.5q39 0 72 -40t33 -125q0 -80 -22 -148.5t-55 -110t-70.5 -64.5t-70.5 -23z" />
    <glyph glyph-name="uni066C" unicode="&#x66c;" horiz-adv-x="1200" 
 />
    <glyph glyph-name="uni066D" unicode="&#x66d;" horiz-adv-x="812" 
d="M376 1270l-239 -183l-43 61l265 170l-265 172l43 61l239 -183l-8 325h75l-8 -325l240 183l43 -61l-264 -174l264 -168l-43 -61l-240 182l8 -324h-75z" />
    <glyph glyph-name="uni066E" unicode="&#x66e;" horiz-adv-x="2118" 
d="M100 600q0 128 50 244.5t134.5 201.5t201.5 135.5t246 50.5v-94q-146 0 -270 -72.5t-196 -196t-72 -269.5q0 -171 97.5 -308.5t253.5 -195.5h1375l1 1104h97l-1 -1200h-1483q-194 61 -314 225.5t-120 374.5z" />
    <glyph glyph-name="uni066F" unicode="&#x66f;" horiz-adv-x="2203" 
d="M100 178v135h97v-134q0 -247 135.5 -406.5t349.5 -159.5h839q172 0 295.5 105.5t168.5 281.5h-712q-194 61 -314 225.5t-120 374.5q0 171 85 316.5t230.5 230.5t317.5 85q165 0 307 -80t228.5 -217t95.5 -301v-456q0 -288 -163.5 -475.5t-418.5 -187.5h-880
q-158 11 -281.5 99t-191.5 235t-68 329zM926 599q0 -170 96.5 -307t251.5 -196h728l3 504q1 146 -71 270t-196 196t-270 72q-109 0 -209.5 -43t-173.5 -115t-116 -172t-43 -209z" />
    <glyph glyph-name="uni0670" unicode="&#x670;" 
d="M91 1691v-269h-91v269h91z" />
    <glyph glyph-name="uni0679" unicode="&#x679;" horiz-adv-x="2118" 
d="M964 1335v38h82v727h39v-285h253q115 0 190 -65.5t75 -167.5v-247h-639zM1085 1373h479v209q0 86 -63.5 140t-162.5 54h-253v-403zM100 600q0 128 50 244.5t134.5 201.5t201.5 135.5t246 50.5v-94q-146 0 -270 -72.5t-196 -196t-72 -269.5q0 -171 97.5 -308.5
t253.5 -195.5h1375l1 1104h97l-1 -1200h-1483q-194 61 -314 225.5t-120 374.5z" />
    <glyph glyph-name="uni067E" unicode="&#x67e;" horiz-adv-x="2118" 
d="M100 600q0 128 50 244.5t134.5 201.5t201.5 135.5t246 50.5v-94q-146 0 -270 -72.5t-196 -196t-72 -269.5q0 -171 97.5 -308.5t253.5 -195.5h1375l1 1104h97l-1 -1200h-1483q-194 61 -314 225.5t-120 374.5zM1035 -151q31 0 53 -22t22 -53t-22 -53t-53 -22t-53 21.5
t-22 53.5t22 53.5t53 21.5zM1340 -151q31 0 53 -22t22 -53t-22 -53t-53 -22q-32 0 -53.5 21.5t-21.5 53.5t21.5 53.5t53.5 21.5zM1188 -460q31 0 53 -22t22 -53t-22 -53t-53 -22q-32 0 -53.5 22t-21.5 53t21.5 53t53.5 22z" />
    <glyph glyph-name="uni0686" unicode="&#x686;" horiz-adv-x="1785" 
d="M763 -669q-142 0 -265 43t-210 119.5t-137.5 185t-50.5 234.5v183h1487v522q0 214 -159.5 349.5t-406.5 135.5h-921v97h922q288 0 475.5 -163.5t187.5 -418.5v-618h-1487q1 -290 149.5 -431t416.5 -141h399v-97h-400zM1273 -113q31 0 53 -22t22 -53t-22 -53t-53 -22
t-53 21.5t-22 53.5t22 53.5t53 21.5zM1578 -113q31 0 53 -22t22 -53t-22 -53t-53 -22q-32 0 -53.5 21.5t-21.5 53.5t21.5 53.5t53.5 21.5zM1426 -422q31 0 53 -22t22 -53t-22 -53t-53 -22q-32 0 -53.5 22t-21.5 53t21.5 53t53.5 22z" />
    <glyph glyph-name="uni0688" unicode="&#x688;" horiz-adv-x="1467" 
d="M400 1367v38h82v727h39v-285h253q115 0 190 -65.5t75 -167.5v-247h-639zM521 1405h479v209q0 86 -63.5 140t-162.5 54h-253v-403zM100 0l1 96h831q155 59 251.5 196t96.5 307q0 109 -43 209t-116 172t-173.5 115t-209.5 43q-173 0 -311 -99.5t-194 -258.5l-91 37
q68 184 229.5 299.5t362.5 115.5q172 0 317.5 -85t230.5 -230.5t85 -316.5q0 -210 -120 -374.5t-314 -225.5h-833z" />
    <glyph glyph-name="uni0691" unicode="&#x691;" horiz-adv-x="1059" 
d="M577 1335v38h82v727h39v-285h253q115 0 190 -65.5t75 -167.5v-247h-639zM698 1373h479v209q0 86 -63.5 140t-162.5 54h-253v-403zM100 -485v99h277q214 -1 349.5 158.5t135.5 406.5v1021h97v-1022q0 -288 -163.5 -475.5t-418.5 -187.5h-277z" />
    <glyph glyph-name="uni0698" unicode="&#x698;" horiz-adv-x="1059" 
d="M913 1737q-31 0 -53 21.5t-22 53.5t22 53.5t53 21.5t53 -22t22 -53t-22 -53t-53 -22zM760 1428q-32 0 -53.5 22t-21.5 53t21.5 53t53.5 22q31 0 53 -22t22 -53t-22 -53t-53 -22zM1065 1428q-31 0 -53 22t-22 53t22 53t53 22t53 -22t22 -53t-22 -53t-53 -22zM100 -485v99
h277q214 -1 349.5 158.5t135.5 406.5v1021h97v-1022q0 -288 -163.5 -475.5t-418.5 -187.5h-277z" />
    <glyph glyph-name="uni06A1" unicode="&#x6a1;" horiz-adv-x="2707" 
d="M100 600q0 128 50 244.5t134.5 201.5t201.5 135.5t246 50.5v-94q-146 0 -270 -72.5t-196 -196t-72 -269.5q0 -171 97.5 -308.5t253.5 -195.5h1043q-81 61 -136.5 144.5t-81.5 174t-25.5 187.5t26 187t78.5 171.5t126.5 141.5t176 95t221.5 35q171 0 316 -85t229.5 -230.5
t85.5 -316.5l3 -600h-2073q-194 61 -314 225.5t-120 374.5zM1427 599q0 -170 96.5 -307t251.5 -196h735l-4 504q-1 146 -73 270t-195 196t-269 72q-109 0 -209.5 -43t-173.5 -115t-116 -172t-43 -209z" />
    <glyph glyph-name="uni06A4" unicode="&#x6a4;" horiz-adv-x="2707" 
d="M1973 1769q-31 0 -53 21.5t-22 53.5t22 53.5t53 21.5t53 -22t22 -53t-22 -53t-53 -22zM1820 1460q-32 0 -53.5 22t-21.5 53t21.5 53t53.5 22q31 0 53 -22t22 -53t-22 -53t-53 -22zM2125 1460q-31 0 -53 22t-22 53t22 53t53 22t53 -22t22 -53t-22 -53t-53 -22zM100 600
q0 128 50 244.5t134.5 201.5t201.5 135.5t246 50.5v-94q-146 0 -270 -72.5t-196 -196t-72 -269.5q0 -171 97.5 -308.5t253.5 -195.5h1043q-81 61 -136.5 144.5t-81.5 174t-25.5 187.5t26 187t78.5 171.5t126.5 141.5t176 95t221.5 35q171 0 316 -85t229.5 -230.5
t85.5 -316.5l3 -600h-2073q-194 61 -314 225.5t-120 374.5zM1427 599q0 -170 96.5 -307t251.5 -196h735l-4 504q-1 146 -73 270t-195 196t-269 72q-109 0 -209.5 -43t-173.5 -115t-116 -172t-43 -209z" />
    <glyph glyph-name="uni06A9" unicode="&#x6a9;" horiz-adv-x="2774" 
d="M2011 1200q288 0 475.5 -163.5t187.5 -418.5v-618h-2140q-197 62 -315.5 212.5t-118.5 357.5q0 128 50 244.5t134.5 201.5t201.5 135.5t246 50.5v-94q-146 0 -270 -72.5t-196 -196t-72 -269.5q0 -168 95.5 -291.5t255.5 -182.5h2031v522q0 214 -159.5 349.5t-406.5 135.5
h-921q0 188 32.5 330t88.5 232.5t140.5 146.5t180 78t216.5 22h526v-97h-525q-77 0 -138 -10t-121.5 -34.5t-106.5 -69t-84.5 -111.5t-63.5 -165t-37 -225h814z" />
    <glyph glyph-name="uni06AF" unicode="&#x6af;" horiz-adv-x="2774" 
d="M2270 2077v-70h-817v70h817zM2011 1200q288 0 475.5 -163.5t187.5 -418.5v-618h-2140q-197 62 -315.5 212.5t-118.5 357.5q0 128 50 244.5t134.5 201.5t201.5 135.5t246 50.5v-94q-146 0 -270 -72.5t-196 -196t-72 -269.5q0 -168 95.5 -291.5t255.5 -182.5h2031v522
q0 214 -159.5 349.5t-406.5 135.5h-921q0 188 32.5 330t88.5 232.5t140.5 146.5t180 78t216.5 22h526v-97h-525q-77 0 -138 -10t-121.5 -34.5t-106.5 -69t-84.5 -111.5t-63.5 -165t-37 -225h814z" />
    <glyph glyph-name="uni06BA" unicode="&#x6ba;" horiz-adv-x="1364" 
d="M682 -485q-255 0 -418.5 187.5t-163.5 475.5v1022h97v-1021q0 -247 135.5 -406.5t349.5 -159.5t349.5 159.5t135.5 406.5v1021h97v-1022q0 -288 -163.5 -475.5t-418.5 -187.5z" />
    <glyph glyph-name="uni06BE" unicode="&#x6be;" horiz-adv-x="1948" 
d="M-50 0v96h378q-111 85 -174.5 213t-63.5 275q0 166 82 307.5t223.5 224.5t307.5 84h482q190 -2 341 -75.5t236.5 -206t85.5 -300.5v-618h-1898zM509 96h721l-4 488q-1 141 -69 260t-188 190t-266 74q-107 0 -204.5 -41.5t-168.5 -112t-113 -167.5t-42 -204
q0 -164 92.5 -296.5t241.5 -190.5zM1324 96h426v522q0 141 -73 251.5t-201.5 171.5t-291.5 62l-151 2q131 -84 209 -222t79 -299z" />
    <glyph glyph-name="uni06C1" unicode="&#x6c1;" horiz-adv-x="1467" 
d="M100 600q0 171 85 316.5t230.5 230.5t317.5 85q171 0 316 -85t229.5 -230.5t85.5 -316.5l3 -600h-833q-194 61 -314 225.5t-120 374.5zM187 599q0 -170 96.5 -307t251.5 -196h735l-4 504q0 146 -72 270t-195.5 196t-269.5 72q-109 0 -209.5 -43t-173.5 -115t-116 -172
t-43 -209z" />
    <glyph glyph-name="uni06C2" unicode="&#x6c2;" horiz-adv-x="1467" 
d="M726 1395h153v-93h-294v93h40q-12 60 27 106.5t104 46.5q42 0 77 -24t48 -62l-87 -35q-2 15 -13 24.5t-25 9.5q-17 0 -28 -11.5t-11 -28.5q0 -15 9 -26zM100 600q0 171 85 316.5t230.5 230.5t317.5 85q171 0 316 -85t229.5 -230.5t85.5 -316.5l3 -600h-833
q-194 61 -314 225.5t-120 374.5zM187 599q0 -170 96.5 -307t251.5 -196h735l-4 504q0 146 -72 270t-195.5 196t-269.5 72q-109 0 -209.5 -43t-173.5 -115t-116 -172t-43 -209z" />
    <glyph glyph-name="uni06C3" unicode="&#x6c3;" horiz-adv-x="1467" 
d="M580 1460q-32 0 -53.5 22t-21.5 53t21.5 53t53.5 22q31 0 53 -22t22 -53t-22 -53t-53 -22zM885 1460q-31 0 -53 22t-22 53t22 53t53 22t53 -22t22 -53t-22 -53t-53 -22zM100 600q0 171 85 316.5t230.5 230.5t317.5 85q171 0 316 -85t229.5 -230.5t85.5 -316.5l3 -600
h-833q-194 61 -314 225.5t-120 374.5zM187 599q0 -170 96.5 -307t251.5 -196h735l-4 504q0 146 -72 270t-195.5 196t-269.5 72q-109 0 -209.5 -43t-173.5 -115t-116 -172t-43 -209z" />
    <glyph glyph-name="uni06CC" unicode="&#x6cc;" horiz-adv-x="2085" 
d="M100 175v235h98v-234q0 -247 135 -406.5t349 -159.5h749q173 0 302.5 106t154.5 284q-5 51 -13 86t-31.5 77t-60.5 67.5t-102.5 43t-155.5 17.5h-821q0 235 48.5 412t137.5 284.5t207 160t265 52.5h326v-97h-325q-111 0 -201.5 -39.5t-163.5 -123t-120.5 -223
t-65.5 -329.5h714q106 0 187.5 -21t133 -56.5t84 -86t44.5 -105.5t10 -119q2 -128 -70 -241t-191.5 -179.5t-251.5 -67.5h-831q-158 1 -281.5 85.5t-191.5 235t-68 342.5zM938 -770q-32 0 -53.5 22t-21.5 53t21.5 53t53.5 22q31 0 53 -22t22 -53t-22 -53t-53 -22zM1243 -770
q-31 0 -53 22t-22 53t22 53t53 22t53 -22t22 -53t-22 -53t-53 -22z" />
    <glyph glyph-name="uni06D2" unicode="&#x6d2;" horiz-adv-x="1788" 
d="M100 181q0 182 86.5 315t235 200t341.5 67h422v-97h-421q-265 0 -415.5 -144t-150.5 -426h1600v-96h-1698v181z" />
    <glyph glyph-name="uni06D3" unicode="&#x6d3;" horiz-adv-x="1788" 
d="M773 926h153v-93h-294v93h40q-12 60 27 106.5t104 46.5q42 0 77 -24t48 -62l-87 -35q-2 15 -13 24.5t-25 9.5q-17 0 -28 -11.5t-11 -28.5q0 -16 9 -26zM100 181q0 182 86.5 315t235 200t341.5 67h422v-97h-421q-265 0 -415.5 -144t-150.5 -426h1600v-96h-1698v181z" />
    <glyph glyph-name="uni06D4" unicode="&#x6d4;" horiz-adv-x="1200" 
 />
    <glyph glyph-name="uni06F0" unicode="&#x6f0;" horiz-adv-x="350" 
d="M175 0q-31 0 -53 22t-22 53t22 53t53 22t53 -22t22 -53t-22 -53t-53 -22z" />
    <glyph glyph-name="uni06F1" unicode="&#x6f1;" horiz-adv-x="297" 
d="M197 0h-97v1650h97v-1650z" />
    <glyph glyph-name="uni06F2" unicode="&#x6f2;" horiz-adv-x="1302" 
d="M100 1651h1102v-95h-963l490 -1556h-104l-525 1633v18z" />
    <glyph glyph-name="uni06F3" unicode="&#x6f3;" horiz-adv-x="1383" 
d="M100 1612h119l263 -608q91 23 129 122t10 241l71 36q23 -191 104.5 -288.5t198.5 -76.5q59 10 102 45t62.5 81.5t28 99.5t-2.5 99q-17 104 -98 178t-174 71l5 95q131 -3 231.5 -96t126.5 -233q28 -157 -47.5 -281.5t-214.5 -148.5q-100 -17 -181.5 28.5t-134.5 146.5
q-18 -76 -64.5 -129t-114.5 -75l397 -919h-104z" />
    <glyph glyph-name="uni06F4" unicode="&#x6f4;" horiz-adv-x="1368" 
d="M676 1272q0 -94 53.5 -172t142.5 -113h470v-87h-813l400 -900h-104l-725 1633v18h96l295 -664h225q-56 53 -85.5 126t-31.5 147.5t23 147.5t72.5 130t123.5 92t169 35q143 0 235.5 -70t122.5 -202l-89 -39q-12 115 -78 170t-193 55q-128 0 -218.5 -90t-90.5 -217z" />
    <glyph glyph-name="uni06F5" unicode="&#x6f5;" horiz-adv-x="1464" 
d="M733 1232q128 0 244.5 -50t201.5 -135t135 -202t50 -245t-50 -245t-135 -202t-201.5 -135t-244.5 -50q-172 0 -317.5 85t-230.5 230.5t-85 316.5t85 316.5t230.5 230.5t317.5 85zM790 65q203 22 341.5 175t138.5 360q0 146 -72 270t-195.5 196t-269.5 72t-270 -72
t-196.5 -196t-72.5 -270q0 -207 138.5 -359.5t341.5 -175.5v425h116v-425z" />
    <glyph glyph-name="uni06F6" unicode="&#x6f6;" horiz-adv-x="1216" 
d="M377 0l-48 47l272 271q-92 -13 -180.5 15t-155 84t-110 135.5t-54 164.5t22 177.5t109.5 169.5q110 109 233 129t251 -54l-28 -69q-206 151 -411 -54q-110 -110 -110.5 -265t108.5 -265q84 -84 199.5 -104t217.5 28l376 376l47 -47z" />
    <glyph glyph-name="uni06F7" unicode="&#x6f7;" horiz-adv-x="1669" 
d="M1569 1651l-722 -1651h-28l-719 1651h104l628 -1459l633 1459h104z" />
    <glyph glyph-name="uni06F8" unicode="&#x6f8;" horiz-adv-x="1669" 
d="M1569 -1h-104l-633 1459l-628 -1459h-104l719 1651h28z" />
    <glyph glyph-name="uni06F9" unicode="&#x6f9;" horiz-adv-x="1245" 
d="M1131 -5v810q-81 -127 -211.5 -186t-282.5 -59q-103 0 -200.5 37t-174 104t-122.5 168.5t-46 220.5q0 135 75.5 256.5t207 196.5t283.5 75q115 0 221 -44.5t181.5 -117t120.5 -169.5t45 -198v-1094h-97zM659 655q127 0 234 58t167.5 156t60.5 214q0 110 -60.5 210.5
t-167.5 164t-233 63.5q-94 0 -181.5 -36.5t-150 -96.5t-100 -138.5t-37.5 -160.5q0 -183 136.5 -308.5t331.5 -125.5z" />
    <glyph glyph-name="figuredash" unicode="&#x2012;" horiz-adv-x="1088" 
d="M94 636v88h900v-88h-900z" />
    <glyph glyph-name="endash" unicode="&#x2013;" horiz-adv-x="1416" 
d="M110 636v88h1196v-88h-1196z" />
    <glyph glyph-name="emdash" unicode="&#x2014;" horiz-adv-x="2048" 
d="M84 636v88h1880v-88h-1880z" />
    <glyph glyph-name="quoteleft" unicode="&#x2018;" horiz-adv-x="445" 
d="M196 1401q-38 0 -71.5 40t-33.5 125q0 155 72 250.5t147 95.5q17 0 28.5 -6t11.5 -15q-19 0 -46 -12.5t-57 -38t-51 -75.5t-21 -114q0 -46 22 -78q41 0 66 -23t25 -59q0 -37 -27 -63.5t-65 -26.5z" />
    <glyph glyph-name="quoteright" unicode="&#x2019;" horiz-adv-x="445" 
d="M135 1401q-17 0 -28.5 6t-11.5 15q19 0 45.5 12.5t56.5 37.5t51 75t21 114q0 47 -22 79q-41 0 -65.5 22.5t-24.5 58.5q0 37 26.5 64t64.5 27q39 0 72 -40t33 -125q0 -80 -22 -148.5t-55 -110t-70.5 -64.5t-70.5 -23z" />
    <glyph glyph-name="quotesinglbase" unicode="&#x201a;" horiz-adv-x="445" 
d="M135 -335q-17 0 -28.5 6t-11.5 15q19 0 45.5 12.5t56.5 38t51 75.5t21 114q0 46 -22 78q-41 0 -65.5 23t-24.5 59q0 37 26.5 63.5t64.5 26.5q39 0 72 -40t33 -125q0 -80 -22 -148.5t-55 -110t-70.5 -64.5t-70.5 -23z" />
    <glyph glyph-name="quotereversed" unicode="&#x201b;" horiz-adv-x="445" 
d="M310 1401q-75 0 -147 95.5t-72 250.5q0 85 33.5 125t71.5 40t65 -27t27 -64q0 -36 -25 -58.5t-66 -22.5q-22 -32 -22 -79q0 -64 21 -114t51 -75t57 -37.5t46 -12.5q0 -9 -11.5 -15t-28.5 -6z" />
    <glyph glyph-name="quotedblleft" unicode="&#x201c;" horiz-adv-x="712" 
d="M196 1400q-38 0 -71.5 40.5t-33.5 125.5q0 155 72 250.5t147 95.5q17 0 28.5 -6t11.5 -16q-19 0 -46 -12t-57 -37.5t-51 -75.5t-21 -114q0 -47 22 -78q41 0 66 -23t25 -59q0 -37 -27 -64t-65 -27zM463 1400q-38 0 -71.5 40.5t-33.5 125.5q0 155 72 250.5t147 95.5
q17 0 28.5 -6t11.5 -16q-19 0 -46 -12t-57 -37.5t-51 -75.5t-21 -114q0 -47 22 -78q41 0 66 -23t25 -59q0 -37 -27 -64t-65 -27z" />
    <glyph glyph-name="quotedblright" unicode="&#x201d;" horiz-adv-x="712" 
d="M135 1400q-17 0 -28.5 6t-11.5 15q19 0 45.5 12.5t56.5 37.5t51 75t21 114q0 47 -22 79q-41 0 -65.5 22.5t-24.5 58.5q0 37 26.5 64t64.5 27q39 0 72 -40t33 -125q0 -80 -22 -148.5t-55 -110t-70.5 -64.5t-70.5 -23zM402 1400q-17 0 -28.5 6t-11.5 15q19 0 45.5 12.5
t56.5 37.5t51 75t21 114q0 47 -22 79q-41 0 -65.5 22.5t-24.5 58.5q0 37 26.5 64t64.5 27q39 0 72 -40t33 -125q0 -80 -22 -148.5t-55 -110t-70.5 -64.5t-70.5 -23z" />
    <glyph glyph-name="quotedblbase" unicode="&#x201e;" horiz-adv-x="712" 
d="M135 -339q-17 0 -28.5 6t-11.5 15q19 0 45.5 12.5t56.5 37.5t51 75t21 114q0 47 -22 79q-41 0 -65.5 22.5t-24.5 58.5q0 37 26.5 64t64.5 27q39 0 72 -40t33 -125q0 -80 -22 -148.5t-55 -110t-70.5 -64.5t-70.5 -23zM402 -339q-17 0 -28.5 6t-11.5 15q19 0 45.5 12.5
t56.5 37.5t51 75t21 114q0 47 -22 79q-41 0 -65.5 22.5t-24.5 58.5q0 37 26.5 64t64.5 27q39 0 72 -40t33 -125q0 -80 -22 -148.5t-55 -110t-70.5 -64.5t-70.5 -23z" />
    <glyph glyph-name="dagger" unicode="&#x2020;" horiz-adv-x="697" 
d="M315 0v1299h-287v65h287v286h68v-286h286v-65h-286v-1299h-68z" />
    <glyph glyph-name="daggerdbl" unicode="&#x2021;" horiz-adv-x="697" 
d="M315 0v286h-287v65h287v948h-287v65h287v286h68v-286h286v-65h-286v-948h286v-65h-286v-286h-68z" />
    <glyph glyph-name="bullet" unicode="&#x2022;" horiz-adv-x="955" 
d="M477 497q-68 0 -117 48.5t-49 115.5q0 68 49 116.5t117 48.5q69 0 118 -48.5t49 -116.5q0 -67 -49.5 -115.5t-117.5 -48.5z" />
    <glyph glyph-name="twodotenleader" unicode="&#x2025;" horiz-adv-x="1040" 
d="M288 -35q-37 0 -62.5 25.5t-25.5 61.5t26 62t62 26q35 0 61.5 -26t26.5 -62t-26 -61.5t-62 -25.5zM752 -35q-37 0 -62.5 25.5t-25.5 61.5t26 62t62 26q35 0 61.5 -26t26.5 -62t-26 -61.5t-62 -25.5z" />
    <glyph glyph-name="ellipsis" unicode="&#x2026;" horiz-adv-x="1704" 
d="M288 -35q-37 0 -62.5 25.5t-25.5 61.5t26 62t62 26q35 0 61.5 -26t26.5 -62t-26 -61.5t-62 -25.5zM852 -35q-37 0 -62.5 25.5t-25.5 61.5t26 62t62 26q35 0 61.5 -26t26.5 -62t-26 -61.5t-62 -25.5zM1416 -35q-37 0 -62.5 25.5t-25.5 61.5t26 62t62 26q35 0 61.5 -26
t26.5 -62t-26 -61.5t-62 -25.5z" />
    <glyph glyph-name="perthousand" unicode="&#x2030;" horiz-adv-x="2509" 
d="M94 1265q0 151 107.5 258.5t258.5 107.5q150 0 257.5 -107t107.5 -258t-107.5 -258.5t-258.5 -107.5q-150 0 -257.5 107t-107.5 258zM252 0l1102 1613h92l-1102 -1613h-92zM168 1265q0 -120 85.5 -205.5t205.5 -85.5q121 0 206.5 85.5t85.5 206.5q0 120 -85.5 205.5
t-205.5 85.5q-121 0 -206.5 -85.5t-85.5 -206.5zM878 345q0 151 107.5 258.5t258.5 107.5q150 0 257.5 -107t107.5 -258t-107.5 -258.5t-258.5 -107.5q-150 0 -257.5 107t-107.5 258zM1684 345q0 151 107.5 258.5t258.5 107.5q150 0 257.5 -107t107.5 -258t-107.5 -258.5
t-258.5 -107.5q-150 0 -257.5 107t-107.5 258zM951 345q0 -120 85.5 -205.5t206.5 -85.5t206.5 85.5t85.5 206.5q0 120 -85.5 205.5t-205.5 85.5q-121 0 -207 -85.5t-86 -206.5zM1758 345q0 -120 85.5 -205.5t205.5 -85.5q121 0 206.5 85.5t85.5 206.5q0 120 -85.5 205.5
t-205.5 85.5q-121 0 -206.5 -85.5t-85.5 -206.5z" />
    <glyph glyph-name="guilsinglleft" unicode="&#x2039;" horiz-adv-x="631" 
d="M469 136l-375 492l375 492l68 -23l-339 -469l339 -468z" />
    <glyph glyph-name="guilsinglright" unicode="&#x203a;" horiz-adv-x="631" 
d="M163 136l-69 24l339 468l-339 469l69 23l374 -492z" />
    <glyph glyph-name="Euro" unicode="&#x20ac;" horiz-adv-x="1738" 
d="M1095 -15q-191 0 -363 86t-289.5 238.5t-153.5 340.5h-195l17 64h168q-5 50 -5 90q0 58 7 107h-187l17 64h181q30 138 105 259t180 208t240 137t280 50q150 -1 297 -68t250 -173l-57 -76q-95 99 -226 159t-275 60q-155 0 -299 -70t-250 -198t-145 -288h878l-17 -64h-873
q-8 -54 -8 -106q0 -46 6 -91h865l-17 -64h-837q36 -163 140.5 -293t252.5 -202.5t311 -72.5q144 0 270.5 57t223.5 153l57 -76q-235 -231 -549 -231z" />
    <glyph glyph-name="uni2116" unicode="&#x2116;" horiz-adv-x="2503" 
d="M1478 -22l-1193 1410v-1390h-97v1636h6l1193 -1410v1392h97v-1638h-6zM2025 716q-158 0 -271 112.5t-113 271.5q0 158 113 271t271 113q159 0 271.5 -113t112.5 -271q0 -159 -112.5 -271.5t-271.5 -112.5zM2025 772q135 0 231 96t96 232q0 135 -96 231t-231 96t-231 -96
t-96 -231q0 -136 96 -232t231 -96zM1698 468v65h699v-65h-699z" />
    <glyph glyph-name="trademark" unicode="&#x2122;" horiz-adv-x="1303" 
d="M621 928v694h9l326 -603l325 603h9v-694h-41v569l-293 -558h-1l-293 558v-569h-41zM274 928v643h-217v41h474v-41h-216v-643h-41z" />
    <glyph glyph-name="estimated" unicode="&#x212e;" horiz-adv-x="1950" 
d="M1004 -32q-176 0 -342 64.5t-291 174t-201 266t-76 329.5q0 171 74.5 326.5t199 266t292.5 176t349 65.5q177 0 335.5 -62.5t270 -167t176.5 -244.5t65 -292q0 -68 -8 -126h-1483v-440q118 -125 295.5 -197t344.5 -72q223 0 430 113.5t267 254.5h74q-35 -81 -105.5 -157
t-168 -139t-228 -101t-270.5 -38zM365 856h1239v476q-99 106 -259 171.5t-335 65.5q-180 0 -356 -70t-289 -188v-455z" />
    <glyph glyph-name="arrowleft" unicode="&#x2190;" horiz-adv-x="2148" 
d="M836 157l-636 616l636 616l56 -56l-525 -516h1581v-88h-1581l525 -516z" />
    <glyph glyph-name="arrowup" unicode="&#x2191;" horiz-adv-x="2148" 
d="M1036 -99v1581l-516 -525l-56 56l616 636l616 -636l-56 -56l-516 525v-1581h-88z" />
    <glyph glyph-name="arrowright" unicode="&#x2192;" horiz-adv-x="2148" 
d="M1312 157l-56 56l525 516h-1581v88h1581l-525 516l56 56l636 -616z" />
    <glyph glyph-name="arrowdown" unicode="&#x2193;" horiz-adv-x="2148" 
d="M1080 -103l-616 636l56 56l516 -525v1581h88v-1581l516 525l56 -56z" />
    <glyph glyph-name="arrowboth" unicode="&#x2194;" horiz-adv-x="2148" 
d="M756 157l-636 616l636 616l56 -56l-525 -516h1574l-525 516l56 56l636 -616l-636 -616l-56 56l525 516h-1574l525 -516z" />
    <glyph glyph-name="arrowupdn" unicode="&#x2195;" horiz-adv-x="2148" 
d="M1074 -181l-616 636l56 56l516 -525v1574l-516 -525l-56 56l616 636l616 -636l-56 -56l-516 525v-1574l516 525l56 -56z" />
    <glyph glyph-name="partialdiff" unicode="&#x2202;" horiz-adv-x="1301" 
d="M657 -40q-126 0 -233 42.5t-181 116.5t-116 177.5t-42 223.5q0 160 69 288t194 200t284 72q110 0 215 -39.5t181.5 -113.5t99.5 -166q-42 271 -172.5 482.5t-345.5 325.5l76 57q111 -58 205.5 -155t167.5 -228t115 -303.5t42 -364.5q0 -277 -156 -446t-403 -169zM663 54
q203 0 333 135t130 354q0 187 -138 315t-344 128q-205 0 -335 -130.5t-130 -335.5t135 -335.5t349 -130.5z" />
    <glyph glyph-name="emptyset" unicode="&#x2205;" horiz-adv-x="1592" 
d="M184 -15l168 265q-120 90 -189 225.5t-69 290.5q0 131 51.5 251.5t138.5 207.5t207 138.5t251 51.5q159 0 301 -74l162 257h85l-186 -294q133 -89 210.5 -231t77.5 -307q0 -131 -51.5 -251t-138.5 -207t-207.5 -138.5t-252.5 -51.5q-178 0 -330 91l-142 -224h-86z
M398 323l598 944q-120 61 -254 61q-114 0 -218 -44.5t-179 -120t-119.5 -179.5t-44.5 -218q0 -133 58 -248.5t159 -194.5zM742 205q152 0 281.5 75t205 204.5t75.5 281.5q0 141 -66.5 264t-179.5 201l-600 -949q130 -77 284 -77z" />
    <glyph glyph-name="product" unicode="&#x220f;" horiz-adv-x="1513" 
d="M404 -330v2108h-348v92h1400v-92h-336v-2108h-96v2108h-524v-2108h-96z" />
    <glyph glyph-name="summation" unicode="&#x2211;" horiz-adv-x="1443" 
d="M28 -300l696 1101l-696 1099h1283v-92h-1117l641 -1006v-3l-642 -1007h1117v-92h-1282z" />
    <glyph glyph-name="minus" unicode="&#x2212;" horiz-adv-x="1274" 
d="M188 648v92h898v-92h-898z" />
    <glyph glyph-name="radical" unicode="&#x221a;" horiz-adv-x="984" 
d="M382 -139l-354 1078h96l267 -851l561 1862h372v-92h-305l-615 -1997h-22z" />
    <glyph glyph-name="infinity" unicode="&#x221e;" horiz-adv-x="2220" 
d="M559 334q-192 0 -328.5 139.5t-136.5 336.5t136.5 337t328.5 140q162 0 309 -107.5t242 -279.5q95 172 242 279.5t309 107.5q192 0 328.5 -140t136.5 -337t-136.5 -336.5t-328.5 -139.5q-162 0 -309 107t-242 279q-95 -172 -242 -279t-309 -107zM559 424q82 0 168 37
t178.5 127t160.5 222q-101 189 -241 288t-266 99q-154 0 -264.5 -113.5t-110.5 -273.5q0 -159 110.5 -272.5t264.5 -113.5zM1661 424q154 0 264.5 113.5t110.5 272.5q0 160 -110.5 273.5t-264.5 113.5q-126 0 -266 -99t-241 -288q68 -132 160.5 -222t178.5 -127t168 -37z
" />
    <glyph glyph-name="integral" unicode="&#x222b;" horiz-adv-x="1210" 
d="M56 -308v90h124q101 0 178.5 94.5t101.5 261.5l194 1337q29 197 124 307t240 110h135v-90h-123q-104 0 -182.5 -94.5t-102.5 -261.5l-195 -1337q-29 -197 -122 -307t-236 -110h-136z" />
    <glyph glyph-name="approxequal" unicode="&#x2248;" horiz-adv-x="1241" 
d="M803 852q-50 0 -93.5 19.5t-74.5 47t-60 55t-64 47t-74 19.5q-60 0 -106.5 -43t-70.5 -123l-72 28q30 111 98 165t152 54q50 0 93.5 -19.5t74.5 -46.5t60 -54.5t64 -47t74 -19.5q59 0 105.5 43t71.5 122l72 -28q-30 -112 -98 -165.5t-152 -53.5zM803 452
q-50 0 -93.5 19.5t-74.5 47t-60 54.5t-64 46.5t-74 19.5q-60 0 -106.5 -43t-70.5 -122l-72 28q30 111 98 165t152 54q50 0 93.5 -19.5t74.5 -46.5t60 -54.5t64 -47t74 -19.5q59 0 106 43t71 122l72 -28q-30 -112 -98 -165.5t-152 -53.5z" />
    <glyph glyph-name="notequal" unicode="&#x2260;" horiz-adv-x="1247" 
d="M335 27l158 462h-305v88h336l141 413h-477v88h507l161 469h71l-161 -469h293v-88h-323l-141 -413h464v-88h-495l-158 -462h-71z" />
    <glyph glyph-name="lessequal" unicode="&#x2264;" horiz-adv-x="1352" 
d="M1171 496l-951 507v16l953 507l-2 -85l-820 -430l820 -431v-84zM188 176v78h984v-78h-984z" />
    <glyph glyph-name="greaterequal" unicode="&#x2265;" horiz-adv-x="1352" 
d="M191 496v84l819 431l-819 430l-2 85l953 -507v-16zM190 176v78h984v-78h-984z" />
    <glyph glyph-name="lozenge" unicode="&#x25ca;" horiz-adv-x="1303" 
d="M676 44l-396 735l396 735l401 -735zM676 177l324 602l-324 602l-319 -602z" />
    <glyph glyph-name="uniFD3E" unicode="&#xfd3e;" horiz-adv-x="838" 
d="M555 -270q-100 0 -170.5 103.5t-70.5 248.5v222q0 165 -60 276.5t-160 111.5v89q100 0 160 111.5t60 276.5v223q0 145 70.5 248t170.5 103h189v-80l-171 -1q-71 -1 -121 -88t-50 -210v-227q0 -108 -29 -200.5t-78.5 -146t-107.5 -53.5q58 0 107.5 -53.5t78.5 -146
t29 -201.5v-226q0 -124 50 -212t121 -88h171v-80h-189z" />
    <glyph glyph-name="uniFD3F" unicode="&#xfd3f;" horiz-adv-x="838" 
d="M94 -270v80h171q71 0 121 88t50 212v226q0 109 29 201.5t78.5 146t107.5 53.5q-58 0 -107.5 53.5t-78.5 146t-29 200.5v227q0 123 -50 210t-121 88l-171 1v80h189q100 0 170.5 -103t70.5 -248v-223q0 -165 60 -276.5t160 -111.5v-89q-100 0 -160 -111.5t-60 -276.5v-222
q0 -145 -70.5 -248.5t-170.5 -103.5h-189z" />
    <glyph glyph-name="zero.lf" horiz-adv-x="1460" 
d="M730 -12q-185 0 -330 104t-225.5 290.5t-80.5 423.5t80.5 423.5t225.5 291t330 104.5t330 -104.5t225.5 -291t80.5 -423.5t-80.5 -423.5t-225.5 -290.5t-330 -104zM730 85q117 0 217.5 53.5t171 148.5t110.5 229t40 290q0 209 -68 373.5t-191 256.5t-280 92t-280 -92
t-191 -256.5t-68 -373.5q0 -156 40 -290t110.5 -229t171 -148.5t217.5 -53.5z" />
    <glyph glyph-name="one.lf" horiz-adv-x="675" 
d="M391 0v1492l-297 -92v101l365 115h28v-1616h-96z" />
    <glyph glyph-name="two.lf" horiz-adv-x="1386" 
d="M94 0v43q410 268 646 456.5t337.5 327t101.5 262.5q0 186 -134.5 312.5t-334.5 126.5q-209 0 -344.5 -136t-135.5 -347l-91 15q0 245 161.5 405t407.5 160q121 0 227 -42t180.5 -113.5t117.5 -169.5t43 -207q0 -216 -224 -442t-760 -554h999v-97h-1197z" />
    <glyph glyph-name="three.lf" horiz-adv-x="1276" 
d="M633 -4q-192 0 -344 113t-195 286l96 22q31 -135 160.5 -230t281.5 -95q91 0 175.5 32.5t144 85t95.5 119t36 132.5q0 186 -155.5 283t-444.5 93l21 68q93 0 178.5 19t158 56.5t116 101t43.5 144.5q0 142 -108 233.5t-265 91.5q-129 0 -234.5 -83.5t-126.5 -203.5l-98 21
q32 148 160 255t299 107q196 0 333 -121.5t137 -294.5q0 -78 -27 -142t-73 -105.5t-96.5 -68t-107.5 -41.5q198 -43 292.5 -139t94.5 -279q0 -83 -43 -165.5t-115 -147.5t-175 -106t-214 -41z" />
    <glyph glyph-name="four.lf" horiz-adv-x="1321" 
d="M957 0v346h-929l695 1267h105l-656 -1170h785v673h96v-673h211v-97h-211v-346h-96z" />
    <glyph glyph-name="five.lf" horiz-adv-x="1320" 
d="M637 -4q-169 0 -326 96t-217 244l92 27q31 -74 109.5 -137.5t170 -98t168.5 -34.5q131 0 244.5 61t181.5 170.5t68 240.5q0 133 -63 240t-170.5 165.5t-238.5 58.5q-161 0 -291.5 -93t-157.5 -228l-59 66l114 838h831v-96h-751l-88 -596q75 102 186.5 152.5t224.5 50.5
q249 0 405.5 -156.5t156.5 -401.5q0 -117 -47 -223t-126 -181.5t-188 -120t-229 -44.5z" />
    <glyph glyph-name="six.lf" horiz-adv-x="1322" 
d="M661 -10q-115 0 -220.5 43t-181 114t-120.5 167t-45 199q0 65 13.5 120.5t37.5 107t76.5 134t109.5 167t158 243t203 327.5h109l-413 -658q132 89 296 89q103 0 200.5 -36.5t174 -102.5t123 -167.5t46.5 -220.5q0 -101 -45 -197t-120.5 -168.5t-181.5 -116.5t-220 -44z
M662 86q126 0 235 61.5t172 161.5t63 209q0 121 -63 223.5t-171 161.5t-235 59q-194 0 -333 -130.5t-139 -313.5q0 -109 63 -209t172.5 -161.5t235.5 -61.5z" />
    <glyph glyph-name="seven.lf" horiz-adv-x="1187" 
d="M329 0l690 1517h-963v95h1102v-18l-725 -1594h-104z" />
    <glyph glyph-name="eight.lf" horiz-adv-x="1253" 
d="M626 -8q-222 0 -377 141.5t-155 339.5q0 163 116.5 288.5t270.5 140.5q-125 16 -214.5 112.5t-89.5 221.5q0 164 128.5 274.5t322.5 110.5t322.5 -110.5t128.5 -274.5q0 -125 -90.5 -222t-212.5 -112q151 -18 267 -144t116 -286q0 -97 -41.5 -185.5t-112.5 -153
t-170 -103t-209 -38.5zM627 947q148 0 252.5 81.5t104.5 202.5q0 132 -101 215t-255 83t-255 -83t-101 -214q0 -121 104 -203t251 -82zM626 88q181 0 308.5 114t127.5 275q0 152 -128 262.5t-307 110.5q-117 0 -218 -51t-159.5 -137t-58.5 -186q0 -105 58.5 -194.5
t158.5 -141.5t218 -52z" />
    <glyph glyph-name="nine.lf" horiz-adv-x="1322" 
d="M521 -5l409 653q-131 -88 -293 -88q-103 0 -200.5 37t-174 104t-122.5 168.5t-46 220.5q0 135 75.5 256.5t207 196.5t283.5 75q115 0 221 -44.5t181.5 -117t120.5 -169.5t45 -198q0 -67 -14 -124t-38 -108.5t-76.5 -133.5t-109.5 -165.5t-158 -239.5t-202 -323h-109z
M659 645q195 0 333.5 130.5t138.5 313.5q0 109 -63 209t-172.5 161.5t-235.5 61.5q-94 0 -181.5 -36.5t-150 -96.5t-100 -138.5t-37.5 -160.5q0 -184 137 -314t331 -130z" />
    <glyph glyph-name="zero.osf" horiz-adv-x="1329" 
d="M665 -10q-166 0 -296.5 78.5t-202.5 217.5t-72 314t72.5 314.5t203 218t295.5 78.5q250 0 410 -172.5t160 -438.5t-160 -438t-410 -172zM665 78q210 0 343.5 148t133.5 374q0 228 -133.5 375.5t-343.5 147.5t-344 -148t-134 -375q0 -226 134 -374t344 -148z" />
    <glyph glyph-name="one.osf" horiz-adv-x="675" 
d="M394 0v1085l-300 -67v99l365 86h28v-1203h-93z" />
    <glyph glyph-name="two.osf" horiz-adv-x="1172" 
d="M94 0v53q327 184 520.5 323t275 243.5t81.5 200.5q0 124 -106.5 217t-266.5 93q-166 0 -275.5 -102t-109.5 -258l-84 20q0 185 132.5 307t335.5 122q201 0 334.5 -116.5t133.5 -280.5q0 -170 -178.5 -337.5t-603.5 -396.5h795v-88h-984z" />
    <glyph glyph-name="three.osf" horiz-adv-x="1274" 
d="M639 -465q-202 0 -352.5 115t-192.5 284l91 21q30 -132 160 -230t292 -98q76 0 153.5 24t144.5 69t109.5 121t42.5 169q0 128 -79 215t-213.5 126t-311.5 33l21 66q136 0 247 36.5t182 116t71 191.5q0 98 -53 175.5t-137.5 117.5t-180.5 40q-146 0 -249.5 -89.5
t-121.5 -201.5l-94 20q33 149 160 255.5t302 106.5q121 0 227.5 -52.5t173 -151.5t66.5 -222q0 -78 -28 -144t-75 -110t-98 -73t-106 -44q177 -39 283.5 -143.5t106.5 -270.5q0 -139 -77 -248.5t-199.5 -166.5t-264.5 -57z" />
    <glyph glyph-name="four.osf" horiz-adv-x="1319" 
d="M957 -450v450h-929l675 1220h100l-628 -1128h782v678h94v-678h212v-92h-212v-450h-94z" />
    <glyph glyph-name="five.osf" horiz-adv-x="1321" 
d="M637 -472q-168 0 -325.5 96t-217.5 244l88 26q31 -75 110.5 -140t172 -100.5t170.5 -35.5q133 0 247 62.5t182.5 173t68.5 242.5q0 204 -137 337t-337 133q-162 0 -294.5 -95t-159.5 -231l-57 66l132 894h831v-92h-755l-105 -658q76 103 188 154t226 51q248 0 405 -157
t157 -402q0 -156 -79.5 -287t-215 -206t-295.5 -75z" />
    <glyph glyph-name="six.osf" horiz-adv-x="1322" 
d="M661 -10q-115 0 -220.5 43t-181 114t-120.5 167t-45 199q0 65 14 121t38 107.5t76.5 134t109.5 167t158.5 242.5t203.5 327h104l-415 -660q134 91 300 91q103 0 200.5 -36.5t174.5 -102.5t123.5 -167t46.5 -221q0 -101 -45 -197t-120.5 -168.5t-181.5 -116.5t-220 -44z
M662 82q126 0 236.5 62.5t174 163t63.5 210.5q0 122 -63.5 225t-172.5 163t-237 60q-129 0 -238.5 -60t-173.5 -163.5t-64 -224.5q0 -110 63.5 -210.5t174 -163t237.5 -62.5z" />
    <glyph glyph-name="seven.osf" horiz-adv-x="1187" 
d="M314 -450l710 1559h-968v91h1102v-18l-745 -1632h-99z" />
    <glyph glyph-name="eight.osf" horiz-adv-x="1252" 
d="M626 -8q-146 0 -269 65t-193 175.5t-70 239.5q0 81 32 157.5t85.5 133.5t124.5 94.5t146 44.5q-125 16 -215 112.5t-90 221.5q0 164 128.5 274.5t322.5 110.5q193 0 321.5 -110.5t128.5 -273.5q0 -126 -91 -223t-214 -112q99 -12 187.5 -72.5t143 -156.5t54.5 -201
q0 -129 -70.5 -239.5t-193 -175.5t-268.5 -65zM627 945q149 0 254.5 82t105.5 205q0 132 -102 216.5t-257 84.5q-156 0 -258.5 -84t-102.5 -216q0 -122 105.5 -205t254.5 -83zM626 84q182 0 311 115t129 277q0 153 -130 264.5t-309 111.5q-180 0 -310 -111.5t-130 -264.5
q0 -162 129 -277t310 -115z" />
    <glyph glyph-name="nine.osf" horiz-adv-x="1322" 
d="M496 -450l442 707q-132 -92 -300 -92q-103 0 -200.5 37t-174 103.5t-123 168t-46.5 221.5q0 101 45 197t120.5 168.5t181 117t219.5 44.5q153 0 285 -75t207.5 -196.5t75.5 -256.5q0 -79 -19 -145.5t-73 -160t-115.5 -183t-183.5 -276t-239 -379.5h-102zM659 247
q129 0 238.5 60t173.5 163t64 224q0 110 -63.5 210.5t-174 163t-237.5 62.5q-126 0 -236.5 -62.5t-174 -163t-63.5 -210.5q0 -122 63.5 -225t172.5 -162.5t237 -59.5z" />
    <glyph glyph-name="zero.tf" horiz-adv-x="1416" 
d="M720 -12q-185 0 -330 104t-225.5 290.5t-80.5 423.5t80.5 423.5t225.5 291t330 104.5t330 -104.5t225.5 -291t80.5 -423.5t-80.5 -423.5t-225.5 -290.5t-330 -104zM720 85q117 0 217.5 53.5t171 148.5t110.5 229t40 290q0 209 -68 373.5t-191 256.5t-280 92t-280 -92
t-191 -256.5t-68 -373.5q0 -156 40 -290t110.5 -229t171 -148.5t217.5 -53.5z" />
    <glyph glyph-name="one.tf" horiz-adv-x="1416" 
d="M258 0v92h410v1400l-297 -92v101l365 115h28v-1524h394v-92h-900z" />
    <glyph glyph-name="two.tf" horiz-adv-x="1416" 
d="M107 0v43q410 268 646 456.5t337.5 327t101.5 262.5q0 186 -134.5 312.5t-334.5 126.5q-209 0 -344.5 -136t-135.5 -347l-91 15q0 245 161.5 405t407.5 160q121 0 227 -42t180.5 -113.5t117.5 -169.5t43 -207q0 -216 -224 -442t-760 -554h999v-97h-1197z" />
    <glyph glyph-name="three.tf" horiz-adv-x="1416" 
d="M705 -4q-192 0 -344 113t-195 286l96 22q31 -135 160.5 -230t281.5 -95q91 0 175.5 32.5t144 85t95.5 119t36 132.5q0 186 -155.5 283t-444.5 93l21 68q93 0 178.5 19t158 56.5t116 101t43.5 144.5q0 142 -108 233.5t-265 91.5q-129 0 -234.5 -83.5t-126.5 -203.5l-98 21
q32 148 160 255t299 107q196 0 333 -121.5t137 -294.5q0 -78 -27 -142t-73 -105.5t-96.5 -68t-107.5 -41.5q198 -43 292.5 -139t94.5 -279q0 -83 -43 -165.5t-115 -147.5t-175 -106t-214 -41z" />
    <glyph glyph-name="four.tf" horiz-adv-x="1416" 
d="M997 0v346h-929l695 1267h105l-656 -1170h785v673h96v-673h211v-97h-211v-346h-96z" />
    <glyph glyph-name="five.tf" horiz-adv-x="1416" 
d="M686 -4q-169 0 -326 96t-217 244l92 27q31 -74 109.5 -137.5t170 -98t168.5 -34.5q131 0 244.5 61t181.5 170.5t68 240.5q0 133 -63 240t-170.5 165.5t-238.5 58.5q-161 0 -291.5 -93t-157.5 -228l-59 66l114 838h831v-96h-751l-88 -596q75 102 186.5 152.5t224.5 50.5
q249 0 405.5 -156.5t156.5 -401.5q0 -117 -47 -223t-126 -181.5t-188 -120t-229 -44.5z" />
    <glyph glyph-name="six.tf" horiz-adv-x="1416" 
d="M716 -10q-115 0 -220.5 43t-181 114t-120.5 167t-45 199q0 65 13.5 120.5t37.5 107t76.5 134t109.5 167t158 243t203 327.5h109l-413 -658q132 89 296 89q103 0 200.5 -36.5t174 -102.5t123 -167.5t46.5 -220.5q0 -101 -45 -197t-120.5 -168.5t-181.5 -116.5t-220 -44z
M717 86q126 0 235 61.5t172 161.5t63 209q0 121 -63 223.5t-171 161.5t-235 59q-194 0 -333 -130.5t-139 -313.5q0 -109 63 -209t172.5 -161.5t235.5 -61.5z" />
    <glyph glyph-name="seven.tf" horiz-adv-x="1416" 
d="M444 0l690 1517h-963v95h1102v-18l-725 -1594h-104z" />
    <glyph glyph-name="eight.tf" horiz-adv-x="1416" 
d="M707 -8q-222 0 -377 141.5t-155 339.5q0 163 116.5 288.5t270.5 140.5q-125 16 -214.5 112.5t-89.5 221.5q0 164 128.5 274.5t322.5 110.5t322.5 -110.5t128.5 -274.5q0 -125 -90.5 -222t-212.5 -112q151 -18 267 -144t116 -286q0 -97 -41.5 -185.5t-112.5 -153
t-170 -103t-209 -38.5zM708 947q148 0 252.5 81.5t104.5 202.5q0 132 -101 215t-255 83t-255 -83t-101 -214q0 -121 104 -203t251 -82zM707 88q181 0 308.5 114t127.5 275q0 152 -128 262.5t-307 110.5q-117 0 -218 -51t-159.5 -137t-58.5 -186q0 -105 58.5 -194.5
t158.5 -141.5t218 -52z" />
    <glyph glyph-name="nine.tf" horiz-adv-x="1416" 
d="M576 -5l409 653q-131 -88 -293 -88q-103 0 -200.5 37t-174 104t-122.5 168.5t-46 220.5q0 135 75.5 256.5t207 196.5t283.5 75q115 0 221 -44.5t181.5 -117t120.5 -169.5t45 -198q0 -67 -14 -124t-38 -108.5t-76.5 -133.5t-109.5 -165.5t-158 -239.5t-202 -323h-109z
M714 645q195 0 333.5 130.5t138.5 313.5q0 109 -63 209t-172.5 161.5t-235.5 61.5q-94 0 -181.5 -36.5t-150 -96.5t-100 -138.5t-37.5 -160.5q0 -184 137 -314t331 -130z" />
    <glyph glyph-name="zero.tosf" horiz-adv-x="1235" 
d="M617 -10q-166 0 -296.5 78.5t-202.5 217.5t-72 314q0 266 160.5 438.5t411.5 172.5q250 0 409.5 -172t159.5 -439q0 -175 -72 -314t-202 -217.5t-296 -78.5zM617 78q210 0 343.5 148t133.5 374q0 228 -133.5 375.5t-343.5 147.5t-344 -148t-134 -375q0 -226 134 -374
t344 -148z" />
    <glyph glyph-name="one.tosf" horiz-adv-x="1235" 
d="M167 0v88h415v997l-300 -67v99l365 86h29v-1115h391v-88h-900z" />
    <glyph glyph-name="two.tosf" horiz-adv-x="1235" 
d="M125 0v53q327 184 520.5 323t275 243.5t81.5 200.5q0 124 -106.5 217t-266.5 93q-166 0 -276 -102t-110 -258l-83 20q0 185 132.5 307t335.5 122q201 0 334.5 -116.5t133.5 -280.5q0 -170 -179 -337.5t-604 -396.5h796v-88h-984z" />
    <glyph glyph-name="three.tosf" horiz-adv-x="1235" 
d="M620 -465q-202 0 -353 115t-193 284l92 21q29 -132 159 -230t293 -98q60 0 122 14.5t121 45.5t104.5 75t73.5 108.5t28 139.5q0 128 -79 215t-213 126t-311 33l20 66q101 0 190 21.5t159 62.5t111 108t41 152q0 98 -53 175.5t-137.5 117.5t-180.5 40q-146 0 -249.5 -89.5
t-122.5 -201.5l-94 20q16 71 56.5 135.5t99 115.5t138.5 81t169 30q121 0 227 -52.5t172.5 -151.5t66.5 -222q0 -78 -28 -144t-74.5 -110t-97.5 -73t-107 -44q177 -39 283.5 -143.5t106.5 -270.5q0 -105 -45 -194.5t-120 -149.5t-172.5 -94t-202.5 -34z" />
    <glyph glyph-name="four.tosf" horiz-adv-x="1235" 
d="M929 -450v450h-929l674 1220h101l-628 -1128h782v678h94v-678h212v-92h-212v-450h-94z" />
    <glyph glyph-name="five.tosf" horiz-adv-x="1235" 
d="M593 -472q-168 0 -325.5 96t-216.5 244l88 26q31 -75 110.5 -140t172 -100.5t170.5 -35.5q133 0 247 62.5t182.5 173t68.5 242.5q0 204 -137 337t-338 133q-162 0 -294.5 -95t-158.5 -231l-57 66l132 894h831v-92h-755l-106 -659q76 103 188.5 154.5t226.5 51.5
q248 0 404.5 -157t156.5 -402q0 -117 -47 -222.5t-126 -181t-188 -120t-229 -44.5z" />
    <glyph glyph-name="six.tosf" horiz-adv-x="1235" 
d="M617 -10q-153 0 -284 72.5t-207 193t-76 257.5q0 65 14 121t38 107.5t76.5 134t109.5 167t158.5 242.5t203.5 327h104l-413 -659q133 90 298 90q104 0 201.5 -36.5t174 -102.5t123 -167t46.5 -221q0 -101 -45 -197t-120.5 -168.5t-181.5 -116.5t-220 -44zM618 82
q127 0 237.5 62.5t173.5 163t63 210.5q0 122 -63.5 225t-172.5 163t-237 60q-196 0 -336 -132t-140 -316q0 -110 63.5 -210.5t174 -163t237.5 -62.5z" />
    <glyph glyph-name="seven.tosf" horiz-adv-x="1235" 
d="M324 -450l710 1559h-968v91h1102v-18l-745 -1632h-99z" />
    <glyph glyph-name="eight.tosf" horiz-adv-x="1235" 
d="M617 -8q-146 0 -269 65t-193 175.5t-70 239.5q0 81 32 157.5t85.5 133.5t124.5 94.5t146 44.5q-125 16 -215 112.5t-90 221.5q0 164 128.5 274.5t321.5 110.5q194 0 322.5 -110.5t128.5 -273.5q0 -126 -91 -223t-214 -112q152 -18 268.5 -144.5t116.5 -285.5
q0 -129 -70.5 -239.5t-193 -175.5t-268.5 -65zM618 945q149 0 254.5 82t105.5 205q0 132 -102 216.5t-257 84.5q-156 0 -258.5 -84t-102.5 -216q0 -122 105.5 -205t254.5 -83zM616 84q182 0 311.5 115t129.5 277q0 153 -130 264.5t-309 111.5q-181 0 -310.5 -111.5
t-129.5 -264.5q0 -162 128.5 -277t309.5 -115z" />
    <glyph glyph-name="nine.tosf" horiz-adv-x="1235" 
d="M452 -450l442 707q-132 -92 -299 -92q-104 0 -201.5 37t-174 103.5t-123 168t-46.5 221.5q0 101 45 197t120.5 168.5t181.5 117t220 44.5q152 0 284 -75t207.5 -196.5t75.5 -256.5q0 -79 -19 -145.5t-73 -160t-115.5 -183t-183.5 -276t-239 -379.5h-102zM616 247
q196 0 336 131.5t140 315.5q0 110 -63.5 210.5t-174.5 163t-238 62.5q-126 0 -236.5 -62.5t-173.5 -163t-63 -210.5q0 -122 63.5 -225t172.5 -162.5t237 -59.5z" />
    <glyph glyph-name="uni06F4.urdu" horiz-adv-x="1368" 
d="M676 1272q0 -94 53.5 -172t142.5 -113h470v-87h-813l400 -900h-104l-725 1633v18h96l295 -664h225q-56 53 -85.5 126t-31.5 147.5t23 147.5t72.5 130t123.5 92t169 35q143 0 235.5 -70t122.5 -202l-89 -39q-12 115 -78 170t-193 55q-128 0 -218.5 -90t-90.5 -217z" />
    <glyph glyph-name="uni06F7.urdu" horiz-adv-x="1669" 
d="M1569 1651l-722 -1651h-28l-719 1651h104l628 -1459l633 1459h104z" />
    <glyph glyph-name="periodcentered.case" horiz-adv-x="458" 
d="M229 699q-37 0 -62.5 25.5t-25.5 61.5t26 62t62 26q35 0 61.5 -26t26.5 -62t-26 -61.5t-62 -25.5z" />
    <glyph glyph-name="bullet.case" horiz-adv-x="955" 
d="M477 613q-68 0 -117 48.5t-49 115.5q0 68 49 116.5t117 48.5q69 0 118 -48.5t49 -116.5q0 -67 -49.5 -115.5t-117.5 -48.5z" />
    <glyph glyph-name="slash.case" horiz-adv-x="800" 
d="M28 -120l654 1852h90l-653 -1852h-91z" />
    <glyph glyph-name="backslash.case" horiz-adv-x="801" 
d="M681 -120l-653 1852h91l653 -1852h-91z" />
    <glyph glyph-name="parenleft.case" horiz-adv-x="576" 
d="M386 -120q-136 175 -214 420.5t-78 536.5q0 520 234 895h94q-108 -177 -171.5 -416t-63.5 -481q0 -270 82 -529.5t213 -425.5h-96z" />
    <glyph glyph-name="parenright.case" horiz-adv-x="576" 
d="M94 -120q131 166 213 425.5t82 529.5q0 242 -63.5 481t-171.5 416h94q234 -375 234 -895q0 -291 -78 -536.5t-214 -420.5h-96z" />
    <glyph glyph-name="braceleft.case" horiz-adv-x="838" 
d="M555 -120q-100 0 -170.5 103.5t-70.5 248.5v142q0 165 -60 276.5t-160 111.5v89q100 0 160 111.5t60 276.5v142q0 145 70.5 248t170.5 103h189v-80l-171 -1q-71 -1 -121 -88t-50 -210v-146q0 -108 -29 -200.5t-78.5 -146t-107.5 -53.5q58 0 107.5 -53.5t78.5 -146
t29 -201.5v-146q0 -124 50 -212t121 -88h171v-80h-189z" />
    <glyph glyph-name="braceright.case" horiz-adv-x="838" 
d="M94 -120v80h171q71 0 121 88t50 212v146q0 109 29 201.5t78.5 146t107.5 53.5q-58 0 -107.5 53.5t-78.5 146t-29 200.5v146q0 123 -50 210t-121 88l-171 1v80h189q100 0 170.5 -103t70.5 -248v-142q0 -165 60 -276.5t160 -111.5v-89q-100 0 -160 -111.5t-60 -276.5v-142
q0 -145 -70.5 -248.5t-170.5 -103.5h-189z" />
    <glyph glyph-name="bracketleft.case" horiz-adv-x="618" 
d="M188 -120v1852h336v-80h-248v-1692h248v-80h-336z" />
    <glyph glyph-name="bracketright.case" horiz-adv-x="618" 
d="M94 -120v80h248v1692h-248v80h336v-1852h-336z" />
    <glyph glyph-name="hyphen.case" horiz-adv-x="978" 
d="M94 742v88h790v-88h-790z" />
    <glyph glyph-name="endash.case" horiz-adv-x="1416" 
d="M110 742v88h1196v-88h-1196z" />
    <glyph glyph-name="emdash.case" horiz-adv-x="2048" 
d="M84 742v88h1880v-88h-1880z" />
    <glyph glyph-name="figuredash.case" horiz-adv-x="1088" 
d="M94 742v88h900v-88h-900z" />
    <glyph glyph-name="guillemotleft.case" horiz-adv-x="1025" 
d="M469 292l-375 492l375 492l68 -23l-339 -469l339 -468zM863 292l-375 492l375 492l68 -23l-339 -469l339 -468z" />
    <glyph glyph-name="guillemotright.case" horiz-adv-x="1025" 
d="M163 292l-69 24l339 468l-339 469l69 23l374 -492zM557 292l-69 24l339 468l-339 469l69 23l374 -492z" />
    <glyph glyph-name="guilsinglleft.case" horiz-adv-x="631" 
d="M469 292l-375 492l375 492l68 -23l-339 -469l339 -468z" />
    <glyph glyph-name="guilsinglright.case" horiz-adv-x="631" 
d="M163 292l-69 24l339 468l-339 469l69 23l374 -492z" />
    <glyph glyph-name="dotabovear" 
d="M75 1428q-31 0 -53 22t-22 53t22 53t53 22t53 -22t22 -53t-22 -53t-53 -22z" />
    <glyph glyph-name="dotbelowar" 
d="M75 113q-31 0 -53 21.5t-22 53.5t22 53.5t53 21.5t53 -22t22 -53t-22 -53t-53 -22z" />
    <glyph glyph-name="dotcenterar" 
d="M75 602q-31 0 -53 22t-22 53t22 53t53 22t53 -22t22 -53t-22 -53t-53 -22z" />
    <glyph glyph-name="twodotsverticalabovear" 
d="M75 1806q-31 0 -53 22t-22 53t22 53t53 22t53 -22t22 -53t-22 -53t-53 -22zM75 1428q-31 0 -53 22t-22 53t22 53t53 22t53 -22t22 -53t-22 -53t-53 -22z" />
    <glyph glyph-name="twodotsverticalbelowar" 
d="M75 484q-31 0 -53 22t-22 53t22 53t53 22t53 -22t22 -53t-22 -53t-53 -22zM75 106q-31 0 -53 22t-22 53t22 53t53 22t53 -22t22 -53t-22 -53t-53 -22z" />
    <glyph glyph-name="twodotshorizontalabovear" 
d="M75 1428q-31 0 -53 22t-22 53t22 53t53 22t53 -22t22 -53t-22 -53t-53 -22zM380 1428q-32 0 -53.5 22t-21.5 53t21.5 53t53.5 22q31 0 53 -22t22 -53t-22 -53t-53 -22z" />
    <glyph glyph-name="twodotshorizontalbelowar" 
d="M75 106q-31 0 -53 22t-22 53t22 53t53 22t53 -22t22 -53t-22 -53t-53 -22zM380 106q-32 0 -53.5 22t-21.5 53t21.5 53t53.5 22q31 0 53 -22t22 -53t-22 -53t-53 -22z" />
    <glyph glyph-name="threedotsdownabovear" 
d="M228 1737q-32 0 -53.5 21.5t-21.5 53.5t21.5 53.5t53.5 21.5q31 0 53 -22t22 -53t-22 -53t-53 -22zM75 1428q-31 0 -53 22t-22 53t22 53t53 22t53 -22t22 -53t-22 -53t-53 -22zM380 1428q-32 0 -53.5 22t-21.5 53t21.5 53t53.5 22q31 0 53 -22t22 -53t-22 -53t-53 -22z
" />
    <glyph glyph-name="threedotsdownbelowar" 
d="M75 537q31 0 53 -22t22 -53t-22 -53t-53 -22t-53 21.5t-22 53.5t22 53.5t53 21.5zM380 537q31 0 53 -22t22 -53t-22 -53t-53 -22q-32 0 -53.5 21.5t-21.5 53.5t21.5 53.5t53.5 21.5zM228 228q31 0 53 -22t22 -53t-22 -53t-53 -22q-32 0 -53.5 22t-21.5 53t21.5 53
t53.5 22z" />
    <glyph glyph-name="threedotsupabovear" 
d="M228 1737q-32 0 -53.5 21.5t-21.5 53.5t21.5 53.5t53.5 21.5q31 0 53 -22t22 -53t-22 -53t-53 -22zM75 1428q-31 0 -53 22t-22 53t22 53t53 22t53 -22t22 -53t-22 -53t-53 -22zM380 1428q-32 0 -53.5 22t-21.5 53t21.5 53t53.5 22q31 0 53 -22t22 -53t-22 -53t-53 -22z
" />
    <glyph glyph-name="threedotsupbelowar" 
d="M75 537q31 0 53 -22t22 -53t-22 -53t-53 -22t-53 21.5t-22 53.5t22 53.5t53 21.5zM380 537q31 0 53 -22t22 -53t-22 -53t-53 -22q-32 0 -53.5 21.5t-21.5 53.5t21.5 53.5t53.5 21.5zM228 228q31 0 53 -22t22 -53t-22 -53t-53 -22q-32 0 -53.5 22t-21.5 53t21.5 53
t53.5 22z" />
    <glyph glyph-name="waslaar" 
 />
    <glyph glyph-name="miniKehehar" 
 />
    <glyph glyph-name="gafsarkashabovear" 
d="M0 1777h817v-70h-817v70z" />
    <glyph glyph-name="gafsarkashcenterar" 
 />
    <glyph glyph-name="doublestrokear" 
 />
    <glyph glyph-name="uni0654064F" 
d="M-15 1781v71h91q-9 21 -9 46q0 50 35 83.5t87 33.5q51 0 85.5 -33.5t35.5 -83.5q1 -49 -34 -83t-87 -34h-204zM141 1898q0 -20 13.5 -33t34.5 -13q20 0 34 13.5t14 32.5t-14 32.5t-34 13.5q-21 0 -34.5 -13t-13.5 -33zM141 1550h153v-93h-294v93h40q-12 60 27 106.5
t104 46.5q42 0 77 -24t48 -62l-87 -35q-2 15 -13 24.5t-25 9.5q-17 0 -28 -11.5t-11 -28.5q0 -16 9 -26z" />
    <glyph glyph-name="uni0654064C" 
d="M-40 1964v67h108v-153h47q-9 18 -9 43q0 46 33.5 78t81.5 32q49 0 81.5 -31.5t33.5 -78.5q0 -47 -33 -78.5t-82 -31.5h-220v153h-41zM176 1921q0 -19 12.5 -31t32.5 -12t32.5 12t12.5 31q0 18 -13 30.5t-32 12.5t-32 -12.5t-13 -30.5zM141 1550h153v-93h-294v93h40
q-12 60 27 106.5t104 46.5q42 0 77 -24t48 -62l-87 -35q-2 15 -13 24.5t-25 9.5q-17 0 -28 -11.5t-11 -28.5q0 -16 9 -26z" />
    <glyph glyph-name="uni0654064E" 
d="M-14 1864h325v-81h-325v81zM141 1550h153v-93h-294v93h40q-12 60 27 106.5t104 46.5q42 0 77 -24t48 -62l-87 -35q-2 15 -13 24.5t-25 9.5q-17 0 -28 -11.5t-11 -28.5q0 -16 9 -26z" />
    <glyph glyph-name="uni0654064B" 
d="M-15 1995h325v-81h-325v81zM-15 1834h325v-81h-325v81zM141 1550h153v-93h-294v93h40q-12 60 27 106.5t104 46.5q42 0 77 -24t48 -62l-87 -35q-2 15 -13 24.5t-25 9.5q-17 0 -28 -11.5t-11 -28.5q0 -16 9 -26z" />
    <glyph glyph-name="uni06540652" 
d="M148 1791q-52 0 -89 35.5t-37 85.5t37 86t89 36t89 -36t37 -86t-37 -85.5t-89 -35.5zM148 1867q19 0 33 13t14 31q0 19 -14 32.5t-33 13.5t-32.5 -13.5t-13.5 -32.5q0 -18 13.5 -31t32.5 -13zM141 1550h153v-93h-294v93h40q-12 60 27 106.5t104 46.5q42 0 77 -24t48 -62
l-87 -35q-2 15 -13 24.5t-25 9.5q-17 0 -28 -11.5t-11 -28.5q0 -16 9 -26z" />
    <glyph glyph-name="uni06550650" 
d="M141 276h153v-93h-294v93h40q-12 60 27 106.5t104 46.5q42 0 77 -24t48 -62l-87 -35q-2 15 -13 24.5t-25 9.5q-17 0 -28 -11.5t-11 -28.5q0 -16 9 -26zM-15 68h325v-81h-325v81z" />
    <glyph glyph-name="uni0655064D" 
d="M141 276h153v-93h-294v93h40q-12 60 27 106.5t104 46.5q42 0 77 -24t48 -62l-87 -35q-2 15 -13 24.5t-25 9.5q-17 0 -28 -11.5t-11 -28.5q0 -16 9 -26zM-15 113h325v-81h-325v81zM-15 -48h325v-81h-325v81z" />
    <glyph glyph-name="uni06510670" 
d="M209 1827v-269h-91v269h91zM183 1292q-10 -23 -32 -38t-50 -15q-44 0 -72.5 32.5t-28.5 78.5q0 44 26 76.5t61 38.5l16 -68q-12 -3 -21.5 -15.5t-9.5 -27.5q0 -16 10.5 -26.5t27.5 -10.5q24 -1 37 20.5t13 54.5l36 -9q0 -23 10 -36.5t25 -13.5q11 -1 18 6.5t7 18.5
q0 22 -22 28l15 67q35 -8 57 -35t22 -65q-1 -42 -24.5 -70t-59.5 -28q-45 0 -61 37z" />
    <glyph glyph-name="uni0651064F" 
d="M1 1543v71h91q-9 21 -9 46q0 50 35 83.5t87 33.5q51 0 85.5 -33.5t35.5 -83.5q1 -49 -34 -83t-87 -34h-204zM157 1660q0 -20 13.5 -33t34.5 -13q20 0 34 13.5t14 32.5t-14 32.5t-34 13.5q-21 0 -34.5 -13t-13.5 -33zM183 1292q-10 -23 -32 -38t-50 -15q-44 0 -72.5 32.5
t-28.5 78.5q0 44 26 76.5t61 38.5l16 -68q-12 -3 -21.5 -15.5t-9.5 -27.5q0 -16 10.5 -26.5t27.5 -10.5q24 -1 37 20.5t13 54.5l36 -9q0 -23 10 -36.5t25 -13.5q11 -1 18 6.5t7 18.5q0 22 -22 28l15 67q35 -8 57 -35t22 -65q-1 -42 -24.5 -70t-59.5 -28q-45 0 -61 37z" />
    <glyph glyph-name="uni0651064C" 
d="M-24 1726v67h108v-153h47q-9 18 -9 43q0 46 33.5 78t81.5 32q49 0 81.5 -31.5t33.5 -78.5q0 -47 -33 -78.5t-82 -31.5h-220v153h-41zM192 1683q0 -19 12.5 -31t32.5 -12t32.5 12t12.5 31q0 18 -13 30.5t-32 12.5t-32 -12.5t-13 -30.5zM183 1292q-10 -23 -32 -38t-50 -15
q-44 0 -72.5 32.5t-28.5 78.5q0 44 26 76.5t61 38.5l16 -68q-12 -3 -21.5 -15.5t-9.5 -27.5q0 -16 10.5 -26.5t27.5 -10.5q24 -1 37 20.5t13 54.5l36 -9q0 -23 10 -36.5t25 -13.5q11 -1 18 6.5t7 18.5q0 22 -22 28l15 67q35 -8 57 -35t22 -65q-1 -42 -24.5 -70t-59.5 -28
q-45 0 -61 37z" />
    <glyph glyph-name="uni0651064E" 
d="M2 1626h325v-81h-325v81zM183 1292q-10 -23 -32 -38t-50 -15q-44 0 -72.5 32.5t-28.5 78.5q0 44 26 76.5t61 38.5l16 -68q-12 -3 -21.5 -15.5t-9.5 -27.5q0 -16 10.5 -26.5t27.5 -10.5q24 -1 37 20.5t13 54.5l36 -9q0 -23 10 -36.5t25 -13.5q11 -1 18 6.5t7 18.5
q0 22 -22 28l15 67q35 -8 57 -35t22 -65q-1 -42 -24.5 -70t-59.5 -28q-45 0 -61 37z" />
    <glyph glyph-name="uni0651064B.1" 
d="M2 1757h325v-81h-325v81zM2 1596h325v-81h-325v81zM183 1292q-10 -23 -32 -38t-50 -15q-44 0 -72.5 32.5t-28.5 78.5q0 44 26 76.5t61 38.5l16 -68q-12 -3 -21.5 -15.5t-9.5 -27.5q0 -16 10.5 -26.5t27.5 -10.5q24 -1 37 20.5t13 54.5l36 -9q0 -23 10 -36.5t25 -13.5
q11 -1 18 6.5t7 18.5q0 22 -22 28l15 67q35 -8 57 -35t22 -65q-1 -42 -24.5 -70t-59.5 -28q-45 0 -61 37z" />
    <glyph glyph-name="uni06510650" 
d="M183 135q-10 -23 -32 -38t-50 -15q-44 0 -72.5 32.5t-28.5 78.5q0 44 26 76.5t61 38.5l16 -68q-12 -3 -21.5 -15.5t-9.5 -27.5q0 -16 10.5 -26.5t27.5 -10.5q24 -1 37 20.5t13 54.5l36 -9q0 -23 10 -36.5t25 -13.5q11 -1 18 6.5t7 18.5q0 22 -22 28l15 67q35 -8 57 -35
t22 -65q-1 -42 -24.5 -70t-59.5 -28q-45 0 -61 37zM0 -76h325v-81h-325v81z" />
    <glyph glyph-name="uni0651064D" 
d="M183 337q-10 -23 -32 -38t-50 -15q-44 0 -72.5 32.5t-28.5 78.5q0 44 26 76.5t61 38.5l16 -68q-12 -3 -21.5 -15.5t-9.5 -27.5q0 -16 10.5 -26.5t27.5 -10.5q24 -1 37 20.5t13 54.5l36 -9q0 -23 10 -36.5t25 -13.5q11 -1 18 6.5t7 18.5q0 22 -22 28l15 67q35 -8 57 -35
t22 -65q-1 -42 -24.5 -70t-59.5 -28q-45 0 -61 37zM0 -51h325v-81h-325v81zM0 -212h325v-81h-325v81z" />
    </font>
</defs>
</svg>
